mtllib cup.mtl
o cup
v 0.010000 0.153509 0.084388
v -0.010000 0.129002 0.126836
v -0.010000 0.153509 0.084388
v 0.010000 0.129002 0.126836
v 0.010000 0.070998 0.126836
v -0.010000 0.070998 0.126836
v 0.010000 0.043464 0.079147
v -0.010000 0.043464 0.079147
v 0.044500 -0.000000 0.077076
v 0.044500 -0.000000 -0.077076
v 0.089000 -0.000000 -0.000000
v -0.044500 -0.000000 0.077076
v -0.044500 -0.000000 -0.077076
v -0.089000 -0.000000 0.000000
v -0.010000 0.060000 0.145885
v -0.010000 0.043464 0.079147
v -0.010000 0.020847 0.078069
v -0.010000 0.070998 0.126836
v -0.010000 0.129002 0.126836
v -0.010000 0.140000 0.145885
v -0.010000 0.174916 0.085408
v -0.010000 0.153509 0.084388
v 0.010000 0.174916 0.085408
v 0.010000 0.129002 0.126836
v 0.010000 0.153509 0.084388
v 0.010000 0.140000 0.145885
v 0.010000 0.060000 0.145885
v 0.010000 0.070998 0.126836
v 0.010000 0.043464 0.079147
v 0.010000 0.020847 0.078069
v 0.035884 0.020000 -0.062153
v 0.035884 0.020000 0.062153
v 0.071768 0.020000 -0.000000
v -0.035884 0.020000 0.062153
v -0.035884 0.020000 -0.062153
v -0.071768 0.020000 -0.000000
v -0.010000 0.140000 0.145885
v 0.010000 0.174916 0.085408
v -0.010000 0.174916 0.085408
v 0.010000 0.140000 0.145885
v 0.010000 0.060000 0.145885
v -0.010000 0.060000 0.145885
v 0.010000 0.020847 0.078069
v -0.010000 0.020847 0.078069
v 0.035884 0.020000 0.062153
v -0.039004 0.200000 0.067557
v 0.039004 0.200000 0.067557
v 0.078009 0.200000 -0.000000
v -0.035884 0.020000 0.062153
v 0.071768 0.020000 -0.000000
v 0.035884 0.020000 -0.062153
v 0.039004 0.200000 -0.067557
v -0.078009 0.200000 0.000000
v -0.071768 0.020000 -0.000000
v -0.035884 0.020000 -0.062153
v -0.039004 0.200000 -0.067557
v 0.050000 0.200000 -0.086603
v 0.078009 0.200000 -0.000000
v 0.100000 0.200000 -0.000000
v 0.050000 0.200000 0.086603
v 0.039004 0.200000 -0.067557
v 0.039004 0.200000 0.067557
v -0.050000 0.200000 -0.086603
v -0.039004 0.200000 -0.067557
v -0.050000 0.200000 0.086603
v -0.039004 0.200000 0.067557
v -0.078009 0.200000 0.000000
v -0.100000 0.200000 0.000000
v 0.044500 -0.000000 -0.077076
v -0.050000 0.200000 -0.086603
v 0.050000 0.200000 -0.086603
v 0.100000 0.200000 -0.000000
v -0.044500 -0.000000 -0.077076
v 0.089000 -0.000000 -0.000000
v -0.100000 0.200000 0.000000
v -0.089000 -0.000000 0.000000
v 0.050000 0.200000 0.086603
v -0.044500 -0.000000 0.077076
v -0.050000 0.200000 0.086603
v 0.044500 -0.000000 0.077076
v 0.010000 0.020847 0.078069
v -0.010000 0.020847 0.078069
v -0.010000 0.043464 0.079147
v 0.010000 0.043464 0.079147
v 0.010000 0.153509 0.084388
v -0.010000 0.153509 0.084388
v 0.010000 0.174916 0.085408
v -0.010000 0.174916 0.085408
vt 0.000000 0.000000
vt 0.000000 0.000000
vt 0.000000 0.000000
vt 0.000000 0.000000
vt 0.000000 0.000000
vt 0.000000 0.000000
vt 0.000000 0.000000
vt 0.000000 0.000000
vt 0.000000 0.000000
vt 0.000000 0.000000
vt 0.000000 0.000000
vt 0.000000 0.000000
vt 0.000000 0.000000
vt 0.000000 0.000000
vt 0.000000 0.000000
vt 0.000000 0.000000
vt 0.000000 0.000000
vt 0.000000 0.000000
vt 0.000000 0.000000
vt 0.000000 0.000000
vt 0.000000 0.000000
vt 0.000000 0.000000
vt 0.000000 0.000000
vt 0.000000 0.000000
vt 0.000000 0.000000
vt 0.000000 0.000000
vt 0.000000 0.000000
vt 0.000000 0.000000
vt 0.000000 0.000000
vt 0.000000 0.000000
vt 0.000000 0.000000
vt 0.000000 0.000000
vt 0.000000 0.000000
vt 0.000000 0.000000
vt 0.000000 0.000000
vt 0.000000 0.000000
vt 0.000000 0.000000
vt 0.000000 0.000000
vt 0.000000 0.000000
vt 0.000000 0.000000
vt 0.000000 0.000000
vt 0.000000 0.000000
vt 0.000000 0.000000
vt 0.000000 0.000000
vt 0.000000 0.000000
vt 0.000000 0.000000
vt 0.000000 0.000000
vt 0.000000 0.000000
vt 0.000000 0.000000
vt 0.000000 0.000000
vt 0.000000 0.000000
vt 0.000000 0.000000
vt 0.000000 0.000000
vt 0.000000 0.000000
vt 0.000000 0.000000
vt 0.000000 0.000000
vt 0.000000 0.000000
vt 0.000000 0.000000
vt 0.000000 0.000000
vt 0.000000 0.000000
vt 0.000000 0.000000
vt 0.000000 0.000000
vt 0.000000 0.000000
vt 0.000000 0.000000
vt 0.000000 0.000000
vt 0.000000 0.000000
vt 0.000000 0.000000
vt 0.000000 0.000000
vt 0.000000 0.000000
vt 0.000000 0.000000
vt 0.000000 0.000000
vt 0.000000 0.000000
vt 0.000000 0.000000
vt 0.000000 0.000000
vt 0.000000 0.000000
vt 0.000000 0.000000
vt 0.000000 0.000000
vt 0.000000 0.000000
vt 0.000000 0.000000
vt 0.000000 0.000000
vt 0.000000 0.000000
vt 0.000000 0.000000
vt 0.000000 0.000000
vt 0.000000 0.000000
vt 0.000000 0.000000
vt 0.000000 0.000000
vt 0.000000 0.000000
vt 0.000000 0.000000
vn 0.000000 -0.866025 -0.500000
vn 0.000000 -0.500000 -0.866025
vn 0.000000 -0.866025 -0.500000
vn 0.000000 -0.500000 -0.866025
vn 0.000000 0.500000 -0.866025
vn 0.000000 0.500000 -0.866025
vn 0.000000 0.866025 -0.500000
vn 0.000000 0.866025 -0.500000
vn 0.000000 -1.000000 0.000000
vn 0.000000 -1.000000 0.000000
vn 0.000000 -1.000000 0.000000
vn 0.000000 -1.000000 0.000000
vn 0.000000 -1.000000 0.000000
vn 0.000000 -1.000000 0.000000
vn -1.000000 0.000000 0.000000
vn -1.000000 0.000000 0.000000
vn -1.000000 0.000000 0.000000
vn -1.000000 0.000000 0.000000
vn -1.000000 0.000000 0.000000
vn -1.000000 0.000000 0.000000
vn -1.000000 0.000000 0.000000
vn -1.000000 0.000000 0.000000
vn 1.000000 0.000000 0.000000
vn 1.000000 0.000000 0.000000
vn 1.000000 0.000000 0.000000
vn 1.000000 0.000000 0.000000
vn 1.000000 0.000000 0.000000
vn 1.000000 0.000000 0.000000
vn 1.000000 0.000000 0.000000
vn 1.000000 0.000000 0.000000
vn 0.000000 1.000000 0.000000
vn 0.000000 1.000000 0.000000
vn 0.000000 1.000000 0.000000
vn 0.000000 1.000000 0.000000
vn 0.000000 1.000000 0.000000
vn 0.000000 1.000000 0.000000
vn 0.000000 0.500000 0.866025
vn 0.000000 0.866025 0.500000
vn 0.000000 0.866025 0.500000
vn 0.000000 0.500000 0.866025
vn 0.000000 -0.500000 0.866025
vn 0.000000 -0.500000 0.866025
vn 0.000000 -0.866025 0.500000
vn 0.000000 -0.866025 0.500000
vn -0.499700 0.034650 -0.865505
vn 0.499700 0.034650 -0.865505
vn -0.499700 0.034650 -0.865505
vn -0.999400 0.034650 0.000000
vn 0.499700 0.034650 -0.865505
vn -0.999400 0.034650 0.000000
vn -0.499700 0.034650 0.865505
vn -0.499700 0.034650 0.865505
vn 0.999400 0.034650 0.000000
vn 0.999400 0.034650 0.000000
vn 0.499700 0.034650 0.865505
vn 0.499700 0.034650 0.865505
vn 0.000000 1.000000 0.000000
vn 0.000000 1.000000 0.000000
vn 0.000000 1.000000 0.000000
vn 0.000000 1.000000 0.000000
vn 0.000000 1.000000 0.000000
vn 0.000000 1.000000 0.000000
vn 0.000000 1.000000 0.000000
vn 0.000000 1.000000 0.000000
vn 0.000000 1.000000 0.000000
vn 0.000000 1.000000 0.000000
vn 0.000000 1.000000 0.000000
vn 0.000000 1.000000 0.000000
vn 0.499245 -0.054917 -0.864719
vn -0.499245 -0.054917 -0.864719
vn 0.499245 -0.054917 -0.864719
vn 0.998491 -0.054917 0.000000
vn -0.499245 -0.054917 -0.864719
vn 0.998491 -0.054917 0.000000
vn -0.998491 -0.054917 0.000000
vn -0.998491 -0.054917 0.000000
vn 0.499245 -0.054917 0.864719
vn -0.499245 -0.054917 0.864719
vn -0.499245 -0.054917 0.864719
vn 0.499245 -0.054917 0.864719
vn 0.000000 -0.047577 0.998868
vn 0.000000 -0.047577 0.998868
vn 0.000000 -0.047577 0.998868
vn 0.000000 -0.047577 0.998868
vn 0.000000 -0.047577 0.998868
vn 0.000000 -0.047577 0.998868
vn 0.000000 -0.047577 0.998868
vn 0.000000 -0.047577 0.998868
usemtl cup__defaultMat
f 1/1/1 2/2/2 3/3/3
f 2/2/2 1/1/1 4/4/4
f 5/5/5 2/2/2 4/4/4
f 2/2/2 5/5/5 6/6/6
f 7/7/7 6/6/6 5/5/5
f 6/6/6 7/7/7 8/8/8
f 9/9/9 10/10/10 11/11/11
f 10/10/10 9/9/9 12/12/12
f 10/10/10 12/12/12 13/13/13
f 13/13/13 12/12/12 14/14/14
f 15/15/15 16/16/16 17/17/17
f 16/16/16 15/15/15 18/18/18
f 18/18/18 15/15/15 19/19/19
f 20/20/20 19/19/19 15/15/15
f 21/21/21 19/19/19 20/20/20
f 19/19/19 21/21/21 22/22/22
f 23/23/23 24/24/24 25/25/25
f 24/24/24 23/23/23 26/26/26
f 24/24/24 26/26/26 27/27/27
f 27/27/27 28/28/28 24/24/24
f 27/27/27 29/29/29 28/28/28
f 29/29/29 27/27/27 30/30/30
f 31/31/31 32/32/32 33/33/33
f 32/32/32 31/31/31 34/34/34
f 34/34/34 31/31/31 35/35/35
f 34/34/34 35/35/35 36/36/36
f 37/37/37 38/38/38 39/39/39
f 38/38/38 37/37/37 40/40/40
f 37/37/37 41/41/41 40/40/40
f 41/41/41 37/37/37 42/42/42
f 42/42/42 43/43/43 41/41/41
f 43/43/43 42/42/42 44/44/44
f 45/45/45 46/46/46 47/47/47
f 48/48/48 45/45/45 47/47/47
f 46/46/46 45/45/45 49/49/49
f 45/45/45 48/48/48 50/50/50
f 48/48/48 51/51/51 50/50/50
f 51/51/51 48/48/48 52/52/52
f 49/49/49 53/53/53 46/46/46
f 53/53/53 49/49/49 54/54/54
f 52/52/52 55/55/55 51/51/51
f 55/55/55 53/53/53 54/54/54
f 55/55/55 52/52/52 56/56/56
f 53/53/53 55/55/55 56/56/56
f 57/57/57 58/58/58 59/59/59
f 58/58/58 60/60/60 59/59/59
f 58/58/58 57/57/57 61/61/61
f 60/60/60 58/58/58 62/62/62
f 61/61/61 57/57/57 63/63/63
f 61/61/61 63/63/63 64/64/64
f 60/60/60 62/62/62 65/65/65
f 65/65/65 62/62/62 66/66/66
f 64/64/64 63/63/63 67/67/67
f 65/65/65 66/66/66 67/67/67
f 67/67/67 63/63/63 68/68/68
f 65/65/65 67/67/67 68/68/68
f 69/69/69 70/70/70 71/71/71
f 72/72/72 69/69/69 71/71/71
f 70/70/70 69/69/69 73/73/73
f 69/69/69 72/72/72 74/74/74
f 73/73/73 75/75/75 70/70/70
f 75/75/75 73/73/73 76/76/76
f 77/77/77 74/74/74 72/72/72
f 78/78/78 75/75/75 76/76/76
f 75/75/75 78/78/78 79/79/79
f 74/74/74 77/77/77 80/80/80
f 80/80/80 81/81/81 78/78/78
f 81/81/81 80/80/80 77/77/77
f 78/78/78 81/81/81 82/82/82
f 82/82/82 79/79/79 78/78/78
f 79/79/79 82/82/82 83/83/83
f 81/81/81 77/77/77 84/84/84
f 79/79/79 83/83/83 84/84/84
f 84/84/84 77/77/77 85/85/85
f 84/84/84 85/85/85 86/86/86
f 79/79/79 84/84/84 86/86/86
f 85/85/85 77/77/77 87/87/87
f 79/79/79 87/87/87 77/77/77
f 79/79/79 86/86/86 88/88/88
f 79/79/79 88/88/88 87/87/87
