mtllib headphones.mtl
o headphones
v -0.066519 0.012943 0.007141
v -0.066519 0.027561 0.014260
v -0.066519 0.042179 0.007141
v -0.066519 0.036000 0.012353
v -0.066519 0.012943 -0.007097
v -0.066519 0.010681 0.000022
v -0.066519 0.012943 0.007141
v -0.066519 0.027561 -0.014216
v -0.066519 0.019121 -0.012309
v -0.066519 0.012943 -0.007097
v -0.066519 0.042179 -0.007097
v -0.066519 0.042179 -0.007097
v -0.066519 0.036000 -0.012309
v -0.066519 0.027561 -0.014216
v -0.066519 0.042179 0.007141
v -0.066519 0.044440 0.000022
v -0.066519 0.012943 0.007141
v -0.066519 0.019121 0.012353
v -0.066519 0.027561 0.014260
v 0.066592 0.027561 0.014260
v 0.066592 0.012943 0.007141
v 0.066592 0.012943 -0.007097
v 0.066592 0.042179 -0.007097
v -0.044045 0.037969 0.015229
v -0.044045 0.045588 -0.008758
v -0.044045 0.045588 0.008802
v 0.066592 0.012943 -0.007097
v 0.066592 0.027561 -0.014216
v 0.066592 0.042179 -0.007097
v 0.066592 0.019121 -0.012309
v 0.066592 0.036000 -0.012309
v 0.066592 0.044440 0.000022
v 0.066592 0.042179 0.007141
v 0.066592 0.012943 0.007141
v 0.066592 0.010681 0.000022
v 0.066592 0.012943 -0.007097
v 0.066592 0.027561 0.014260
v 0.066592 0.019121 0.012353
v 0.066592 0.012943 0.007141
v 0.066592 0.042179 0.007141
v 0.066592 0.036000 0.012353
v 0.066592 0.027561 0.014260
v 0.044118 0.037969 -0.015185
v 0.044118 0.045588 0.008802
v 0.044118 0.045588 -0.008758
v 0.044118 0.048377 0.000022
v -0.044045 0.009533 0.008802
v -0.044045 0.006744 0.000022
v -0.044045 0.009533 -0.008758
v -0.044045 0.017152 -0.015185
v -0.044045 0.009533 0.008802
v -0.044045 0.009533 -0.008758
v -0.044045 0.045588 -0.008758
v -0.044045 0.048377 0.000022
v -0.044045 0.045588 0.008802
v 0.044118 0.009533 -0.008758
v 0.044118 0.006744 0.000022
v 0.044118 0.009533 0.008802
v 0.044118 0.017152 0.015229
v 0.044118 0.009533 -0.008758
v 0.044118 0.009533 0.008802
v -0.049235 0.082963 0.008043
v -0.053058 0.085950 -0.000077
v -0.050803 0.084033 -0.000077
v -0.049235 0.082963 0.008043
v -0.045035 0.079778 0.007611
v -0.050138 0.083731 0.010755
v 0.048979 0.082963 0.008043
v 0.052802 0.085950 -0.000077
v 0.049882 0.083731 0.010755
v 0.048979 0.082963 0.008043
v 0.044779 0.079778 0.007611
v 0.046707 0.081416 0.006074
v -0.049235 0.082963 -0.008197
v -0.045035 0.079778 -0.007765
v -0.046963 0.081416 -0.006228
v 0.048979 0.082963 -0.008197
v 0.052802 0.085950 -0.000077
v 0.050546 0.084033 -0.000077
v 0.048979 0.082963 -0.008197
v 0.044779 0.079778 -0.007764
v 0.049882 0.083731 -0.010909
v -0.049235 0.082963 -0.008197
v -0.053058 0.085950 -0.000077
v -0.050138 0.083731 -0.010909
v 0.066592 0.042179 -0.007097
v 0.066592 0.042179 0.007141
v 0.066592 0.027561 0.014260
v -0.049235 0.082963 0.008043
v -0.050138 0.083731 0.010755
v -0.053058 0.085950 -0.000077
v -0.049235 0.082963 0.008043
v -0.046963 0.081416 0.006074
v -0.045035 0.079778 0.007611
v 0.048979 0.082963 0.008043
v 0.050546 0.084033 -0.000077
v 0.052802 0.085950 -0.000077
v 0.048979 0.082963 0.008043
v 0.049882 0.083731 0.010755
v 0.044779 0.079778 0.007611
v -0.049235 0.082963 -0.008197
v -0.050138 0.083731 -0.010909
v -0.045035 0.079778 -0.007765
v 0.048979 0.082963 -0.008197
v 0.049882 0.083731 -0.010909
v 0.052802 0.085950 -0.000077
v 0.048979 0.082963 -0.008197
v 0.046707 0.081416 -0.006228
v 0.044779 0.079778 -0.007764
v -0.049235 0.082963 -0.008197
v -0.050803 0.084033 -0.000077
v -0.053058 0.085950 -0.000077
v -0.049235 0.082963 0.008043
v -0.056687 0.049456 0.008827
v -0.046963 0.081416 0.006074
v -0.054015 0.049456 0.005985
v 0.044118 0.037969 -0.015185
v 0.044118 0.037969 0.015229
v 0.044118 0.045588 0.008802
v 0.044118 0.027561 -0.017537
v -0.051764 0.014760 -0.018681
v -0.060622 0.015673 -0.017346
v -0.051764 0.027561 -0.021574
v -0.060622 0.027561 -0.020033
v 0.066592 0.012943 0.007141
v 0.066592 0.019121 0.012353
v 0.060696 0.015673 0.017390
v 0.060696 0.006971 0.010049
v -0.060622 0.015673 0.017390
v -0.060622 0.006971 0.010049
v -0.051764 0.014760 0.018724
v -0.051764 0.005389 0.010820
v -0.051764 0.049732 0.010820
v -0.060622 0.048150 0.010049
v -0.051764 0.040362 0.018724
v -0.060622 0.039448 0.017390
v 0.060696 0.048150 0.010049
v 0.051837 0.049732 0.010820
v 0.051837 0.040362 0.018724
v 0.060696 0.039448 0.017390
v 0.060696 0.039448 0.017390
v 0.066592 0.042179 0.007141
v 0.060696 0.048150 0.010049
v 0.066592 0.036000 0.012353
v -0.066519 0.010681 0.000022
v -0.060622 0.006971 -0.010005
v -0.060622 0.003786 0.000022
v -0.066519 0.012943 -0.007097
v -0.040802 0.045588 -0.008758
v -0.040802 0.037969 -0.015185
v -0.039048 0.039655 -0.017648
v -0.039048 0.048509 -0.010180
v -0.060622 0.039448 -0.017346
v -0.051764 0.027561 -0.021574
v -0.060622 0.027561 -0.020033
v -0.051764 0.040362 -0.018681
v -0.060622 0.048150 0.010049
v -0.066519 0.044440 0.000022
v -0.066519 0.042179 0.007141
v -0.060622 0.051335 0.000022
v 0.044779 0.079778 0.007611
v 0.043829 0.079086 -0.000077
v 0.046707 0.081416 0.006074
v 0.046085 0.081003 -0.000077
v 0.050883 0.041341 0.020156
v 0.050883 0.027561 0.023270
v 0.051837 0.040362 0.018724
v 0.051837 0.027561 0.021618
v -0.050810 0.003692 0.011646
v -0.050810 0.013780 0.020156
v -0.051764 0.005389 0.010820
v -0.051764 0.014760 0.018724
v -0.066519 0.027561 0.014260
v -0.066519 0.019121 0.012353
v -0.060622 0.027561 0.020076
v -0.060622 0.015673 0.017390
v 0.050883 0.013780 -0.020112
v 0.051837 0.005389 -0.010776
v 0.050883 0.003692 -0.011602
v 0.051837 0.014760 -0.018681
v -0.051764 0.053162 0.000022
v -0.051764 0.049732 0.010820
v -0.050810 0.051429 0.011646
v -0.050810 0.055121 0.000022
v 0.051837 0.049732 -0.010776
v 0.051837 0.040362 -0.018681
v 0.050883 0.041341 -0.020112
v 0.050883 0.051429 -0.011602
v -0.044045 0.006744 0.000022
v -0.044045 0.009533 0.008802
v -0.040802 0.009533 0.008802
v -0.040802 0.006744 0.000022
v -0.044045 0.027561 0.017581
v -0.040802 0.037969 0.015229
v -0.040802 0.027561 0.017581
v -0.044045 0.037969 0.015229
v 0.050883 0.041341 0.020156
v 0.040875 0.027561 0.023270
v 0.050883 0.027561 0.023270
v 0.040875 0.041341 0.020156
v 0.040875 0.017152 -0.015185
v 0.040875 0.009533 -0.008758
v 0.044118 0.017152 -0.015185
v 0.044118 0.009533 -0.008758
v 0.040875 0.055121 0.000022
v 0.050883 0.055121 0.000022
v 0.040875 0.051429 -0.011602
v 0.050883 0.051429 -0.011602
v -0.044045 0.037969 0.015229
v -0.044045 0.045588 0.008802
v -0.040802 0.037969 0.015229
v -0.040802 0.045588 0.008802
v -0.044085 0.079086 -0.000077
v -0.025167 0.101519 -0.000077
v -0.045035 0.079778 0.007611
v -0.025792 0.102667 0.007710
v 0.051837 0.040362 -0.018681
v 0.051837 0.027561 -0.021574
v 0.050883 0.027561 -0.023226
v 0.050883 0.041341 -0.020112
v 0.051837 0.053162 0.000022
v 0.050883 0.051429 -0.011602
v 0.050883 0.055121 0.000022
v 0.051837 0.049732 -0.010776
v 0.050883 0.013780 0.020156
v 0.051837 0.005389 0.010820
v 0.051837 0.014760 0.018724
v 0.050883 0.003692 0.011646
v 0.051837 0.001959 0.000022
v 0.051837 0.005389 0.010820
v 0.050883 0.003692 0.011646
v 0.050883 0.000000 0.000022
v -0.051764 0.014760 -0.018681
v -0.051764 0.027561 -0.021574
v -0.050810 0.027561 -0.023226
v -0.050810 0.013780 -0.020112
v 0.040875 0.048377 0.000022
v 0.040875 0.045588 -0.008758
v 0.044118 0.048377 0.000022
v 0.044118 0.045588 -0.008758
v -0.060622 0.039448 0.017390
v -0.066519 0.042179 0.007141
v -0.066519 0.036000 0.012353
v -0.060622 0.048150 0.010049
v -0.040802 0.041341 -0.020112
v -0.050810 0.041341 -0.020112
v -0.040802 0.051429 -0.011602
v -0.050810 0.051429 -0.011602
v -0.040802 0.037969 -0.015185
v -0.044045 0.027561 -0.017537
v -0.040802 0.027561 -0.017537
v -0.044045 0.037969 -0.015185
v 0.040875 0.009533 0.008802
v 0.040875 0.017152 0.015229
v 0.044118 0.009533 0.008802
v 0.044118 0.017152 0.015229
v -0.044045 0.017152 0.015229
v -0.040802 0.009533 0.008802
v -0.044045 0.009533 0.008802
v -0.040802 0.017152 0.015229
v 0.050883 0.027561 0.023270
v 0.040875 0.027561 0.023270
v 0.050883 0.013780 0.020156
v 0.040875 0.013780 0.020156
v -0.060622 0.006971 0.010049
v -0.051764 0.001959 0.000022
v -0.051764 0.005389 0.010820
v -0.060622 0.003786 0.000022
v 0.051837 0.027561 0.021618
v 0.060696 0.015673 0.017390
v 0.060696 0.027561 0.020076
v 0.051837 0.014760 0.018724
v 0.051837 0.040362 -0.018681
v 0.060696 0.048150 -0.010005
v 0.060696 0.039448 -0.017346
v 0.051837 0.049732 -0.010776
v 0.051837 0.001959 0.000022
v 0.060696 0.006971 -0.010005
v 0.060696 0.003786 0.000022
v 0.051837 0.005389 -0.010776
v 0.060696 0.039448 0.017390
v 0.051837 0.040362 0.018724
v 0.051837 0.027561 0.021618
v 0.060696 0.027561 0.020076
v 0.051837 0.014760 -0.018681
v 0.051837 0.027561 -0.021574
v 0.060696 0.015673 -0.017346
v 0.060696 0.027561 -0.020033
v -0.066519 0.036000 -0.012309
v -0.060622 0.027561 -0.020033
v -0.066519 0.027561 -0.014216
v -0.060622 0.039448 -0.017346
v 0.051837 0.027561 -0.021574
v 0.060696 0.039448 -0.017346
v 0.060696 0.027561 -0.020033
v 0.051837 0.040362 -0.018681
v 0.060696 0.039448 -0.017346
v 0.060696 0.048150 -0.010005
v 0.066592 0.042179 -0.007097
v 0.066592 0.036000 -0.012309
v -0.060622 0.039448 0.017390
v -0.066519 0.036000 0.012353
v -0.060622 0.027561 0.020076
v -0.066519 0.027561 0.014260
v 0.029028 0.108528 -0.010806
v 0.049882 0.083731 -0.010909
v 0.025535 0.102667 -0.007864
v 0.044779 0.079778 -0.007764
v 0.060696 0.027561 -0.020033
v 0.066592 0.036000 -0.012309
v 0.066592 0.027561 -0.014216
v 0.060696 0.039448 -0.017346
v 0.066592 0.010681 0.000022
v 0.066592 0.012943 0.007141
v 0.060696 0.006971 0.010049
v 0.060696 0.003786 0.000022
v -0.039048 0.027561 0.020426
v -0.039048 0.039655 0.017692
v -0.040802 0.027561 0.023270
v -0.040802 0.041341 0.020156
v -0.039048 0.048509 -0.010180
v -0.039048 0.039655 -0.017648
v -0.040802 0.041341 -0.020112
v -0.040802 0.051429 -0.011602
v 0.039121 0.003372 0.000022
v 0.040875 0.003692 -0.011602
v 0.040875 0.000000 0.000022
v 0.039121 0.006613 -0.010180
v -0.039048 0.003372 0.000022
v -0.039048 0.006613 0.010224
v -0.040802 0.003692 0.011646
v -0.040802 0.000000 0.000022
v 0.040875 0.037969 -0.015185
v 0.040875 0.045588 -0.008758
v 0.039121 0.039655 -0.017648
v 0.039121 0.048509 -0.010180
v -0.040802 0.017152 -0.015185
v -0.039048 0.027561 -0.020382
v -0.040802 0.027561 -0.017537
v -0.039048 0.015466 -0.017648
v 0.040875 0.037969 -0.015185
v 0.039121 0.027561 -0.020382
v 0.040875 0.027561 -0.017537
v 0.039121 0.039655 -0.017648
v -0.039048 0.015466 0.017692
v -0.040802 0.009533 0.008802
v -0.040802 0.017152 0.015229
v -0.039048 0.006613 0.010224
v 0.066592 0.027561 0.014260
v 0.060696 0.027561 0.020076
v 0.066592 0.019121 0.012353
v 0.060696 0.015673 0.017390
v 0.039121 0.048509 -0.010180
v 0.039121 0.051749 0.000022
v 0.040875 0.051429 -0.011602
v 0.040875 0.055121 0.000022
v 0.050883 0.051429 0.011646
v 0.050883 0.041341 0.020156
v 0.051837 0.049732 0.010820
v 0.051837 0.040362 0.018724
v -0.050810 0.013780 0.020156
v -0.050810 0.027561 0.023270
v -0.051764 0.014760 0.018724
v -0.051764 0.027561 0.021618
v -0.066519 0.010681 0.000022
v -0.060622 0.006971 0.010049
v -0.066519 0.012943 0.007141
v -0.060622 0.003786 0.000022
v -0.040802 0.051429 0.011646
v -0.050810 0.055121 0.000022
v -0.050810 0.051429 0.011646
v -0.040802 0.055121 0.000022
v 0.050883 0.041341 -0.020112
v 0.040875 0.041341 -0.020112
v 0.050883 0.051429 -0.011602
v 0.040875 0.051429 -0.011602
v -0.040802 0.027561 0.023270
v -0.050810 0.013780 0.020156
v -0.040802 0.013780 0.020156
v -0.050810 0.027561 0.023270
v -0.040802 0.003692 -0.011602
v -0.050810 0.003692 -0.011602
v -0.040802 0.013780 -0.020112
v -0.050810 0.013780 -0.020112
v -0.050810 0.003692 -0.011602
v -0.040802 0.000000 0.000022
v -0.050810 0.000000 0.000022
v -0.040802 0.003692 -0.011602
v 0.050883 0.013780 -0.020112
v 0.040875 0.027561 -0.023226
v 0.050883 0.027561 -0.023226
v 0.040875 0.013780 -0.020112
v -0.050810 0.051429 0.011646
v -0.040802 0.041341 0.020156
v -0.040802 0.051429 0.011646
v -0.050810 0.041341 0.020156
v -0.025167 0.101519 -0.000077
v -0.044085 0.079086 -0.000077
v -0.045035 0.079778 -0.007765
v -0.025792 0.102667 -0.007864
v -0.044045 0.017152 -0.015185
v -0.040802 0.009533 -0.008758
v -0.040802 0.017152 -0.015185
v -0.044045 0.009533 -0.008758
v 0.044118 0.006744 0.000022
v 0.040875 0.009533 -0.008758
v 0.040875 0.006744 0.000022
v 0.044118 0.009533 -0.008758
v -0.040802 0.055121 0.000022
v -0.050810 0.051429 -0.011602
v -0.050810 0.055121 0.000022
v -0.040802 0.051429 -0.011602
v 0.040875 0.017152 -0.015185
v 0.040875 0.027561 -0.017537
v 0.039121 0.027561 -0.020382
v 0.039121 0.015466 -0.017648
v 0.039121 0.006613 -0.010180
v 0.039121 0.015466 -0.017648
v 0.040875 0.013780 -0.020112
v 0.040875 0.003692 -0.011602
v 0.050883 0.000000 0.000022
v 0.050883 0.003692 -0.011602
v 0.051837 0.001959 0.000022
v 0.051837 0.005389 -0.010776
v 0.040875 0.006744 0.000022
v 0.039121 0.006613 0.010224
v 0.040875 0.009533 0.008802
v 0.039121 0.003372 0.000022
v 0.039121 0.039655 0.017692
v 0.040875 0.045588 0.008802
v 0.040875 0.037969 0.015229
v 0.039121 0.048509 0.010224
v -0.039048 0.039655 -0.017648
v -0.039048 0.027561 -0.020382
v -0.040802 0.027561 -0.023226
v -0.040802 0.041341 -0.020112
v -0.040802 0.027561 0.017581
v -0.040802 0.037969 0.015229
v -0.039048 0.027561 0.020426
v -0.039048 0.039655 0.017692
v -0.039048 0.015466 -0.017648
v -0.039048 0.006613 -0.010180
v -0.040802 0.013780 -0.020112
v -0.040802 0.003692 -0.011602
v -0.039048 0.003372 0.000022
v -0.039048 0.006613 -0.010180
v -0.040802 0.006744 0.000022
v -0.040802 0.009533 -0.008758
v -0.040802 0.048377 0.000022
v -0.039048 0.048509 -0.010180
v -0.039048 0.051749 0.000022
v -0.040802 0.045588 -0.008758
v -0.040802 0.051429 0.011646
v -0.040802 0.041341 0.020156
v -0.039048 0.048509 0.010224
v -0.039048 0.039655 0.017692
v 0.039121 0.027561 0.020426
v 0.039121 0.015466 0.017692
v 0.040875 0.027561 0.023270
v 0.040875 0.013780 0.020156
v 0.051837 0.014760 0.018724
v 0.060696 0.006971 0.010049
v 0.060696 0.015673 0.017390
v 0.051837 0.005389 0.010820
v -0.060622 0.015673 0.017390
v -0.066519 0.012943 0.007141
v -0.060622 0.006971 0.010049
v -0.066519 0.019121 0.012353
v -0.051764 0.001959 0.000022
v -0.060622 0.006971 -0.010005
v -0.051764 0.005389 -0.010776
v -0.060622 0.003786 0.000022
v 0.060696 0.048150 0.010049
v 0.051837 0.053162 0.000022
v 0.051837 0.049732 0.010820
v 0.060696 0.051335 0.000022
v 0.060696 0.006971 -0.010005
v 0.051837 0.005389 -0.010776
v 0.051837 0.014760 -0.018681
v 0.060696 0.015673 -0.017346
v 0.040875 0.006744 0.000022
v 0.039121 0.006613 -0.010180
v 0.039121 0.003372 0.000022
v 0.040875 0.009533 -0.008758
v 0.066592 0.019121 -0.012309
v 0.066592 0.012943 -0.007097
v 0.060696 0.015673 -0.017346
v 0.060696 0.006971 -0.010005
v -0.040802 0.013780 0.020156
v -0.039048 0.006613 0.010224
v -0.039048 0.015466 0.017692
v -0.040802 0.003692 0.011646
v -0.053101 0.049456 -0.000077
v -0.046341 0.081003 -0.000077
v -0.054015 0.049456 0.005985
v -0.046963 0.081416 0.006074
v 0.060696 0.003786 0.000022
v 0.060696 0.006971 -0.010005
v 0.066592 0.010681 0.000022
v 0.066592 0.012943 -0.007097
v 0.051837 0.014760 0.018724
v 0.050883 0.027561 0.023270
v 0.050883 0.013780 0.020156
v 0.051837 0.027561 0.021618
v 0.056430 0.049456 0.008827
v 0.046707 0.081416 0.006074
v 0.053759 0.049456 0.005985
v 0.048979 0.082963 0.008043
v -0.000128 0.110803 0.007756
v -0.029285 0.108528 0.010652
v -0.025792 0.102667 0.007710
v -0.000128 0.117753 0.010635
v 0.050883 0.055121 0.000022
v 0.050883 0.051429 0.011646
v 0.051837 0.053162 0.000022
v 0.051837 0.049732 0.010820
v -0.051764 0.005389 -0.010776
v -0.051764 0.014760 -0.018681
v -0.050810 0.013780 -0.020112
v -0.050810 0.003692 -0.011602
v -0.050810 0.055121 0.000022
v -0.050810 0.051429 -0.011602
v -0.051764 0.053162 0.000022
v -0.051764 0.049732 -0.010776
v -0.039048 0.015466 -0.017648
v -0.040802 0.027561 -0.023226
v -0.039048 0.027561 -0.020382
v -0.040802 0.013780 -0.020112
v -0.040802 0.027561 -0.017537
v -0.044045 0.017152 -0.015185
v -0.040802 0.017152 -0.015185
v -0.044045 0.027561 -0.017537
v 0.040875 0.013780 0.020156
v 0.050883 0.003692 0.011646
v 0.050883 0.013780 0.020156
v 0.040875 0.003692 0.011646
v -0.051764 0.053162 0.000022
v -0.060622 0.048150 -0.010005
v -0.060622 0.051335 0.000022
v -0.051764 0.049732 -0.010776
v 0.044118 0.009533 0.008802
v 0.040875 0.006744 0.000022
v 0.040875 0.009533 0.008802
v 0.044118 0.006744 0.000022
v 0.044118 0.027561 -0.017537
v 0.044118 0.037969 -0.015185
v 0.040875 0.037969 -0.015185
v 0.040875 0.027561 -0.017537
v 0.040875 0.027561 0.017581
v 0.040875 0.037969 0.015229
v 0.044118 0.027561 0.017581
v 0.044118 0.037969 0.015229
v 0.040875 0.037969 0.015229
v 0.040875 0.045588 0.008802
v 0.044118 0.037969 0.015229
v 0.044118 0.045588 0.008802
v 0.043829 0.079086 -0.000077
v 0.044779 0.079778 -0.007764
v 0.046707 0.081416 -0.006228
v 0.046085 0.081003 -0.000077
v -0.050810 0.000000 0.000022
v -0.050810 0.003692 0.011646
v -0.051764 0.001959 0.000022
v -0.051764 0.005389 0.010820
v -0.029285 0.108528 -0.010806
v -0.000128 0.117753 -0.010789
v -0.000128 0.110803 -0.007910
v -0.025792 0.102667 -0.007864
v 0.066592 0.036000 0.012353
v 0.060696 0.027561 0.020076
v 0.066592 0.027561 0.014260
v 0.060696 0.039448 0.017390
v 0.050883 0.013780 -0.020112
v 0.050883 0.027561 -0.023226
v 0.051837 0.014760 -0.018681
v 0.051837 0.027561 -0.021574
v 0.040875 0.051429 0.011646
v 0.050883 0.041341 0.020156
v 0.050883 0.051429 0.011646
v 0.040875 0.041341 0.020156
v 0.040875 0.048377 0.000022
v 0.040875 0.045588 0.008802
v 0.039121 0.048509 0.010224
v 0.039121 0.051749 0.000022
v -0.040802 0.045588 -0.008758
v -0.044045 0.037969 -0.015185
v -0.040802 0.037969 -0.015185
v -0.044045 0.045588 -0.008758
v -0.040802 0.013780 0.020156
v -0.050810 0.013780 0.020156
v -0.040802 0.003692 0.011646
v -0.050810 0.003692 0.011646
v -0.040802 0.006744 0.000022
v -0.040802 0.009533 -0.008758
v -0.044045 0.006744 0.000022
v -0.044045 0.009533 -0.008758
v -0.044045 0.017152 0.015229
v -0.044045 0.027561 0.017581
v -0.040802 0.017152 0.015229
v -0.040802 0.027561 0.017581
v -0.050810 0.027561 -0.023226
v -0.050810 0.041341 -0.020112
v -0.040802 0.027561 -0.023226
v -0.040802 0.041341 -0.020112
v 0.060696 0.006971 0.010049
v 0.051837 0.001959 0.000022
v 0.060696 0.003786 0.000022
v 0.051837 0.005389 0.010820
v -0.051764 0.040362 0.018724
v -0.060622 0.039448 0.017390
v -0.051764 0.027561 0.021618
v -0.060622 0.027561 0.020076
v -0.051764 0.027561 0.021618
v -0.060622 0.027561 0.020076
v -0.060622 0.015673 0.017390
v -0.051764 0.014760 0.018724
v -0.060622 0.039448 -0.017346
v -0.060622 0.048150 -0.010005
v -0.051764 0.040362 -0.018681
v -0.051764 0.049732 -0.010776
v -0.059031 0.049456 -0.000077
v -0.049235 0.082963 -0.008197
v -0.056687 0.049456 -0.008981
v -0.050803 0.084033 -0.000077
v -0.051764 0.005389 -0.010776
v -0.060622 0.006971 -0.010005
v -0.051764 0.014760 -0.018681
v -0.060622 0.015673 -0.017346
v -0.040802 0.017152 -0.015185
v -0.040802 0.009533 -0.008758
v -0.039048 0.015466 -0.017648
v -0.039048 0.006613 -0.010180
v 0.046707 0.081416 -0.006228
v 0.053759 0.049456 -0.006139
v 0.046085 0.081003 -0.000077
v 0.052845 0.049456 -0.000077
v -0.051764 0.001959 0.000022
v -0.050810 0.003692 -0.011602
v -0.050810 0.000000 0.000022
v -0.051764 0.005389 -0.010776
v 0.066592 0.019121 -0.012309
v 0.060696 0.015673 -0.017346
v 0.060696 0.027561 -0.020033
v 0.066592 0.027561 -0.014216
v 0.025535 0.102667 0.007710
v 0.044779 0.079778 0.007611
v 0.049882 0.083731 0.010755
v 0.029028 0.108528 0.010652
v -0.066519 0.019121 -0.012309
v -0.060622 0.027561 -0.020033
v -0.060622 0.015673 -0.017346
v -0.066519 0.027561 -0.014216
v 0.066592 0.044440 0.000022
v 0.060696 0.048150 0.010049
v 0.066592 0.042179 0.007141
v 0.060696 0.051335 0.000022
v 0.039121 0.039655 0.017692
v 0.040875 0.027561 0.023270
v 0.040875 0.041341 0.020156
v 0.039121 0.027561 0.020426
v -0.039048 0.048509 0.010224
v -0.039048 0.039655 0.017692
v -0.040802 0.045588 0.008802
v -0.040802 0.037969 0.015229
v 0.039121 0.051749 0.000022
v 0.039121 0.048509 -0.010180
v 0.040875 0.048377 0.000022
v 0.040875 0.045588 -0.008758
v -0.039048 0.051749 0.000022
v -0.040802 0.051429 -0.011602
v -0.040802 0.055121 0.000022
v -0.039048 0.048509 -0.010180
v 0.040875 0.041341 0.020156
v 0.039121 0.048509 0.010224
v 0.039121 0.039655 0.017692
v 0.040875 0.051429 0.011646
v 0.040875 0.037969 0.015229
v 0.039121 0.027561 0.020426
v 0.039121 0.039655 0.017692
v 0.040875 0.027561 0.017581
v -0.040802 0.037969 -0.015185
v -0.040802 0.027561 -0.017537
v -0.039048 0.027561 -0.020382
v -0.039048 0.039655 -0.017648
v 0.040875 0.009533 -0.008758
v 0.040875 0.017152 -0.015185
v 0.039121 0.015466 -0.017648
v 0.039121 0.006613 -0.010180
v -0.039048 0.051749 0.000022
v -0.040802 0.051429 0.011646
v -0.039048 0.048509 0.010224
v -0.040802 0.055121 0.000022
v -0.039048 0.006613 -0.010180
v -0.039048 0.003372 0.000022
v -0.040802 0.003692 -0.011602
v -0.040802 0.000000 0.000022
v -0.050810 0.041341 -0.020112
v -0.051764 0.049732 -0.010776
v -0.050810 0.051429 -0.011602
v -0.051764 0.040362 -0.018681
v -0.051764 0.040362 0.018724
v -0.050810 0.027561 0.023270
v -0.050810 0.041341 0.020156
v -0.051764 0.027561 0.021618
v -0.044045 0.027561 -0.017537
v -0.044045 0.017152 0.015229
v -0.044045 0.017152 -0.015185
v -0.044045 0.009533 0.008802
v 0.058775 0.049456 -0.000077
v 0.048979 0.082963 -0.008197
v 0.050546 0.084033 -0.000077
v 0.056430 0.049456 -0.008981
v -0.040802 0.013780 -0.020112
v -0.050810 0.013780 -0.020112
v -0.040802 0.027561 -0.023226
v -0.050810 0.027561 -0.023226
v 0.050883 0.027561 -0.023226
v 0.040875 0.041341 -0.020112
v 0.050883 0.041341 -0.020112
v 0.040875 0.027561 -0.023226
v -0.044045 0.048377 0.000022
v -0.044045 0.045588 -0.008758
v -0.040802 0.048377 0.000022
v -0.040802 0.045588 -0.008758
v 0.040875 0.051429 0.011646
v 0.050883 0.051429 0.011646
v 0.040875 0.055121 0.000022
v 0.050883 0.055121 0.000022
v 0.040875 0.017152 0.015229
v 0.040875 0.027561 0.017581
v 0.044118 0.017152 0.015229
v 0.044118 0.027561 0.017581
v 0.050883 0.000000 0.000022
v 0.040875 0.000000 0.000022
v 0.040875 0.003692 -0.011602
v 0.050883 0.003692 -0.011602
v 0.040875 0.045588 -0.008758
v 0.044118 0.037969 -0.015185
v 0.044118 0.045588 -0.008758
v 0.040875 0.037969 -0.015185
v 0.040875 0.003692 0.011646
v 0.040875 0.000000 0.000022
v 0.050883 0.003692 0.011646
v 0.050883 0.000000 0.000022
v -0.050810 0.003692 0.011646
v -0.050810 0.000000 0.000022
v -0.040802 0.003692 0.011646
v -0.040802 0.000000 0.000022
v 0.040875 0.003692 -0.011602
v 0.050883 0.013780 -0.020112
v 0.050883 0.003692 -0.011602
v 0.040875 0.013780 -0.020112
v 0.040875 0.045588 0.008802
v 0.040875 0.048377 0.000022
v 0.044118 0.045588 0.008802
v 0.044118 0.048377 0.000022
v -0.050810 0.041341 -0.020112
v -0.050810 0.027561 -0.023226
v -0.051764 0.040362 -0.018681
v -0.051764 0.027561 -0.021574
v -0.050810 0.041341 0.020156
v -0.051764 0.049732 0.010820
v -0.051764 0.040362 0.018724
v -0.050810 0.051429 0.011646
v 0.039121 0.051749 0.000022
v 0.039121 0.048509 0.010224
v 0.040875 0.051429 0.011646
v 0.040875 0.055121 0.000022
v -0.040802 0.006744 0.000022
v -0.040802 0.009533 0.008802
v -0.039048 0.006613 0.010224
v -0.039048 0.003372 0.000022
v 0.040875 0.003692 0.011646
v 0.040875 0.013780 0.020156
v 0.039121 0.006613 0.010224
v 0.039121 0.015466 0.017692
v 0.039121 0.039655 -0.017648
v 0.040875 0.027561 -0.023226
v 0.039121 0.027561 -0.020382
v 0.040875 0.041341 -0.020112
v 0.039121 0.015466 -0.017648
v 0.039121 0.027561 -0.020382
v 0.040875 0.027561 -0.023226
v 0.040875 0.013780 -0.020112
v 0.039121 0.039655 -0.017648
v 0.039121 0.048509 -0.010180
v 0.040875 0.041341 -0.020112
v 0.040875 0.051429 -0.011602
v 0.039121 0.003372 0.000022
v 0.040875 0.003692 0.011646
v 0.039121 0.006613 0.010224
v 0.040875 0.000000 0.000022
v -0.040802 0.048377 0.000022
v -0.039048 0.048509 0.010224
v -0.040802 0.045588 0.008802
v -0.039048 0.051749 0.000022
v 0.039121 0.006613 0.010224
v 0.039121 0.015466 0.017692
v 0.040875 0.009533 0.008802
v 0.040875 0.017152 0.015229
v 0.040875 0.027561 0.017581
v 0.040875 0.017152 0.015229
v 0.039121 0.027561 0.020426
v 0.039121 0.015466 0.017692
v -0.044045 0.045588 0.008802
v -0.040802 0.048377 0.000022
v -0.040802 0.045588 0.008802
v -0.044045 0.048377 0.000022
v -0.060622 0.051335 0.000022
v -0.060622 0.048150 -0.010005
v -0.066519 0.044440 0.000022
v -0.066519 0.042179 -0.007097
v -0.056687 0.049456 -0.008981
v -0.049235 0.082963 -0.008197
v -0.046963 0.081416 -0.006228
v -0.054015 0.049456 -0.006139
v -0.046341 0.081003 -0.000077
v -0.053101 0.049456 -0.000077
v -0.054015 0.049456 -0.006139
v -0.046963 0.081416 -0.006228
v 0.053759 0.049456 0.005985
v 0.046707 0.081416 0.006074
v 0.046085 0.081003 -0.000077
v 0.052845 0.049456 -0.000077
v 0.053759 0.049456 -0.006139
v 0.046707 0.081416 -0.006228
v 0.056430 0.049456 -0.008981
v 0.048979 0.082963 -0.008197
v -0.049235 0.082963 0.008043
v -0.059031 0.049456 -0.000077
v -0.056687 0.049456 0.008827
v -0.050803 0.084033 -0.000077
v -0.044085 0.079086 -0.000077
v -0.045035 0.079778 0.007611
v -0.046963 0.081416 0.006074
v -0.046341 0.081003 -0.000077
v -0.046341 0.081003 -0.000077
v -0.046963 0.081416 -0.006228
v -0.044085 0.079086 -0.000077
v -0.045035 0.079778 -0.007765
v -0.066519 0.027561 -0.014216
v -0.066519 0.012943 0.007141
v -0.066519 0.042179 0.007141
v -0.066519 0.012943 -0.007097
v 0.048979 0.082963 0.008043
v 0.056430 0.049456 0.008827
v 0.058775 0.049456 -0.000077
v 0.050546 0.084033 -0.000077
v -0.044045 0.027561 0.017581
v -0.044045 0.037969 -0.015185
v -0.044045 0.037969 0.015229
v -0.044045 0.045588 -0.008758
v -0.053058 0.085950 -0.000077
v -0.029285 0.108528 -0.010806
v -0.050138 0.083731 -0.010909
v -0.031011 0.111706 -0.000077
v 0.029028 0.108528 0.010652
v 0.049882 0.083731 0.010755
v 0.052802 0.085950 -0.000077
v 0.030754 0.111706 -0.000077
v 0.044118 0.027561 0.017581
v 0.044118 0.017152 -0.015185
v 0.044118 0.017152 0.015229
v 0.044118 0.009533 -0.008758
v 0.060696 0.048150 -0.010005
v 0.060696 0.051335 0.000022
v 0.066592 0.044440 0.000022
v 0.066592 0.042179 -0.007097
v 0.029028 0.108528 0.010652
v -0.000128 0.121416 -0.000077
v -0.000128 0.117753 0.010635
v 0.030754 0.111706 -0.000077
v -0.025792 0.102667 0.007710
v -0.050138 0.083731 0.010755
v -0.045035 0.079778 0.007611
v -0.029285 0.108528 0.010652
v -0.000128 0.110803 0.007756
v 0.024911 0.101519 -0.000077
v 0.025535 0.102667 0.007710
v -0.000128 0.109434 -0.000077
v -0.000128 0.110803 -0.007910
v 0.024911 0.101519 -0.000077
v -0.000128 0.109434 -0.000077
v 0.025535 0.102667 -0.007864
v -0.050138 0.083731 -0.010909
v -0.025792 0.102667 -0.007864
v -0.045035 0.079778 -0.007765
v -0.029285 0.108528 -0.010806
v -0.029285 0.108528 0.010652
v -0.000128 0.121416 -0.000077
v -0.031011 0.111706 -0.000077
v -0.000128 0.117753 0.010635
v 0.044118 0.037969 0.015229
v 0.044118 0.027561 -0.017537
v 0.044118 0.027561 0.017581
v 0.044118 0.017152 -0.015185
v -0.039048 0.015466 0.017692
v -0.040802 0.027561 0.023270
v -0.040802 0.013780 0.020156
v -0.039048 0.027561 0.020426
v -0.025167 0.101519 -0.000077
v -0.000128 0.110803 0.007756
v -0.025792 0.102667 0.007710
v -0.000128 0.109434 -0.000077
v -0.025167 0.101519 -0.000077
v -0.000128 0.110803 -0.007910
v -0.000128 0.109434 -0.000077
v -0.025792 0.102667 -0.007864
v -0.040802 0.017152 0.015229
v -0.039048 0.027561 0.020426
v -0.039048 0.015466 0.017692
v -0.040802 0.027561 0.017581
v -0.000128 0.121416 -0.000077
v 0.029028 0.108528 -0.010806
v -0.000128 0.117753 -0.010789
v 0.030754 0.111706 -0.000077
v -0.000128 0.121416 -0.000077
v -0.029285 0.108528 -0.010806
v -0.031011 0.111706 -0.000077
v -0.000128 0.117753 -0.010789
v -0.000128 0.117753 -0.010789
v 0.029028 0.108528 -0.010806
v -0.000128 0.110803 -0.007910
v 0.025535 0.102667 -0.007864
v 0.051837 0.053162 0.000022
v 0.060696 0.048150 -0.010005
v 0.051837 0.049732 -0.010776
v 0.060696 0.051335 0.000022
v -0.060622 0.048150 0.010049
v -0.051764 0.053162 0.000022
v -0.060622 0.051335 0.000022
v -0.051764 0.049732 0.010820
v -0.000128 0.110803 0.007756
v 0.025535 0.102667 0.007710
v 0.029028 0.108528 0.010652
v -0.000128 0.117753 0.010635
v -0.044045 0.027561 -0.017537
v -0.044045 0.027561 0.017581
v -0.044045 0.017152 0.015229
v -0.044045 0.037969 -0.015185
v -0.029285 0.108528 0.010652
v -0.053058 0.085950 -0.000077
v -0.050138 0.083731 0.010755
v -0.031011 0.111706 -0.000077
v -0.060622 0.015673 -0.017346
v -0.060622 0.006971 -0.010005
v -0.066519 0.012943 -0.007097
v -0.066519 0.019121 -0.012309
v 0.044779 0.079778 0.007611
v 0.025535 0.102667 0.007710
v 0.024911 0.101519 -0.000077
v 0.043829 0.079086 -0.000077
v 0.025535 0.102667 -0.007864
v 0.044779 0.079778 -0.007764
v 0.024911 0.101519 -0.000077
v 0.043829 0.079086 -0.000077
v -0.066519 0.036000 -0.012309
v -0.066519 0.042179 -0.007097
v -0.060622 0.039448 -0.017346
v -0.060622 0.048150 -0.010005
v 0.052802 0.085950 -0.000077
v 0.029028 0.108528 -0.010806
v 0.030754 0.111706 -0.000077
v 0.049882 0.083731 -0.010909
v -0.040802 0.041341 0.020156
v -0.050810 0.027561 0.023270
v -0.040802 0.027561 0.023270
v -0.050810 0.041341 0.020156
v 0.040875 0.027561 -0.017537
v 0.040875 0.017152 -0.015185
v 0.044118 0.027561 -0.017537
v 0.044118 0.017152 -0.015185
vt 0.396132 0.134829
vt 0.410577 0.127730
vt 0.426264 0.131369
vt 0.419442 0.128170
vt 0.397374 0.145567
vt 0.394422 0.140465
vt 0.396132 0.134829
vt 0.413061 0.149206
vt 0.404198 0.148766
vt 0.397374 0.145567
vt 0.427506 0.142106
vt 0.427506 0.142106
vt 0.421594 0.146768
vt 0.413061 0.149206
vt 0.426264 0.131369
vt 0.429215 0.136470
vt 0.396132 0.134829
vt 0.402045 0.130168
vt 0.410577 0.127730
vt 0.444261 0.155428
vt 0.447960 0.138975
vt 0.461761 0.135516
vt 0.468166 0.164966
vt 0.943382 0.267824
vt 0.953029 0.268540
vt 0.946440 0.270191
vt 0.461761 0.135516
vt 0.471864 0.148512
vt 0.468166 0.164966
vt 0.468166 0.140475
vt 0.471864 0.157478
vt 0.461761 0.168974
vt 0.454364 0.168424
vt 0.447960 0.138975
vt 0.454365 0.134967
vt 0.461761 0.135516
vt 0.444261 0.155428
vt 0.444261 0.146464
vt 0.447960 0.138975
vt 0.454364 0.168424
vt 0.447959 0.163467
vt 0.444261 0.155428
vt 0.949227 0.289039
vt 0.956681 0.290902
vt 0.951590 0.291748
vt 0.954318 0.292430
vt 0.943382 0.256130
vt 0.946440 0.254217
vt 0.949971 0.254479
vt 0.953029 0.256846
vt 0.943382 0.256130
vt 0.949971 0.254479
vt 0.953029 0.268540
vt 0.949971 0.270453
vt 0.946440 0.270191
vt 0.949227 0.277463
vt 0.951590 0.275935
vt 0.954318 0.276617
vt 0.956681 0.279326
vt 0.949227 0.277463
vt 0.954318 0.276617
vt 0.939475 0.273444
vt 0.937562 0.270423
vt 0.938456 0.270295
vt 0.939475 0.273444
vt 0.941118 0.273037
vt 0.939250 0.274576
vt 0.917809 0.277031
vt 0.916268 0.280264
vt 0.917444 0.275935
vt 0.917809 0.277031
vt 0.919501 0.277234
vt 0.918724 0.277836
vt 0.938679 0.266973
vt 0.940365 0.266910
vt 0.939677 0.267632
vt 0.917809 0.283552
vt 0.916268 0.280264
vt 0.917177 0.280282
vt 0.917809 0.283552
vt 0.919501 0.283407
vt 0.917444 0.284634
vt 0.938679 0.266973
vt 0.937562 0.270423
vt 0.938189 0.265943
vt 0.468166 0.164966
vt 0.454364 0.168424
vt 0.444261 0.155428
vt 0.939475 0.273444
vt 0.939250 0.274576
vt 0.937562 0.270423
vt 0.939475 0.273444
vt 0.940279 0.272534
vt 0.941118 0.273037
vt 0.917809 0.277031
vt 0.917177 0.280282
vt 0.916268 0.280264
vt 0.917809 0.277031
vt 0.917444 0.275935
vt 0.919501 0.277234
vt 0.938679 0.266973
vt 0.938189 0.265943
vt 0.940365 0.266910
vt 0.917809 0.283552
vt 0.917444 0.284634
vt 0.916268 0.280264
vt 0.917809 0.283552
vt 0.918724 0.282776
vt 0.919501 0.283407
vt 0.938679 0.266973
vt 0.938456 0.270295
vt 0.937562 0.270423
vt 0.452527 0.175701
vt 0.452527 0.211166
vt 0.449817 0.176889
vt 0.448967 0.210668
vt 0.949227 0.289039
vt 0.958045 0.287574
vt 0.956681 0.290902
vt 0.947863 0.285029
vt 0.401439 0.164453
vt 0.401555 0.157115
vt 0.414885 0.165120
vt 0.414041 0.157734
vt 0.447960 0.138975
vt 0.444261 0.146464
vt 0.436867 0.143922
vt 0.442076 0.133374
vt 0.404655 0.200759
vt 0.406461 0.209574
vt 0.395398 0.201682
vt 0.397344 0.211176
vt 0.397344 0.165193
vt 0.406461 0.166872
vt 0.395399 0.175134
vt 0.404655 0.176105
vt 0.455067 0.177260
vt 0.463806 0.175701
vt 0.461860 0.185643
vt 0.453260 0.186492
vt 0.442075 0.167871
vt 0.454364 0.168424
vt 0.451097 0.174855
vt 0.447959 0.163467
vt 0.394422 0.140465
vt 0.391947 0.152609
vt 0.387789 0.145424
vt 0.397374 0.145567
vt 0.919303 0.236856
vt 0.917537 0.240432
vt 0.916268 0.239972
vt 0.918319 0.235817
vt 0.426058 0.154301
vt 0.414885 0.165120
vt 0.414041 0.157734
vt 0.427826 0.161423
vt 0.483432 0.198982
vt 0.477349 0.209412
vt 0.477370 0.202043
vt 0.483403 0.209361
vt 0.919501 0.277234
vt 0.919884 0.280327
vt 0.918724 0.277836
vt 0.918974 0.280310
vt 0.917472 0.270616
vt 0.916268 0.265154
vt 0.918129 0.270249
vt 0.917010 0.265175
vt 0.969649 0.295125
vt 0.968838 0.291169
vt 0.970100 0.294438
vt 0.969346 0.290762
vt 0.411368 0.188384
vt 0.411837 0.197081
vt 0.403994 0.188507
vt 0.404655 0.200759
vt 0.958540 0.269292
vt 0.961515 0.272703
vt 0.961011 0.273385
vt 0.959220 0.268901
vt 0.908086 0.292750
vt 0.911260 0.291370
vt 0.911241 0.292051
vt 0.907825 0.293537
vt 0.961515 0.254897
vt 0.959220 0.258621
vt 0.958540 0.258225
vt 0.961011 0.254217
vt 0.968778 0.267461
vt 0.968778 0.270995
vt 0.967476 0.270991
vt 0.967476 0.267457
vt 0.913536 0.279748
vt 0.913320 0.283956
vt 0.912637 0.279766
vt 0.914220 0.283939
vt 0.961876 0.258360
vt 0.965484 0.263953
vt 0.961580 0.263926
vt 0.965781 0.258387
vt 0.917447 0.288989
vt 0.918060 0.285860
vt 0.918712 0.288997
vt 0.919325 0.285868
vt 0.933644 0.289356
vt 0.937663 0.289367
vt 0.933644 0.294034
vt 0.937663 0.294046
vt 0.968953 0.234475
vt 0.968942 0.236985
vt 0.967650 0.234478
vt 0.967640 0.236987
vt 0.944720 0.295605
vt 0.944678 0.285621
vt 0.947799 0.295903
vt 0.947799 0.285727
vt 0.959220 0.258621
vt 0.958380 0.263747
vt 0.957635 0.263743
vt 0.958540 0.258225
vt 0.925361 0.275130
vt 0.929752 0.274256
vt 0.925257 0.275871
vt 0.929536 0.273630
vt 0.917472 0.259616
vt 0.921186 0.256195
vt 0.918129 0.260031
vt 0.920762 0.255487
vt 0.925361 0.254696
vt 0.921186 0.256195
vt 0.920762 0.255487
vt 0.925257 0.253873
vt 0.902590 0.277332
vt 0.901739 0.282474
vt 0.900993 0.282474
vt 0.901908 0.276939
vt 0.968942 0.250600
vt 0.968953 0.254151
vt 0.967640 0.250602
vt 0.967651 0.254153
vt 0.404655 0.176105
vt 0.413119 0.173023
vt 0.411837 0.179579
vt 0.406461 0.166872
vt 0.941799 0.297492
vt 0.937780 0.297480
vt 0.941773 0.294046
vt 0.937753 0.294034
vt 0.932238 0.265367
vt 0.930749 0.261206
vt 0.932015 0.261215
vt 0.930973 0.265358
vt 0.968779 0.261272
vt 0.968799 0.263875
vt 0.967476 0.261269
vt 0.967496 0.263872
vt 0.968798 0.273597
vt 0.967476 0.270991
vt 0.968778 0.270995
vt 0.967496 0.273594
vt 0.961580 0.263926
vt 0.965484 0.263953
vt 0.961876 0.269424
vt 0.965781 0.269451
vt 0.483447 0.197338
vt 0.492613 0.186817
vt 0.492630 0.198098
vt 0.483432 0.186862
vt 0.461149 0.198999
vt 0.453261 0.211145
vt 0.452600 0.198894
vt 0.461860 0.212191
vt 0.492765 0.206373
vt 0.501909 0.197342
vt 0.501968 0.205020
vt 0.492703 0.198104
vt 0.443312 0.222355
vt 0.452527 0.212075
vt 0.452512 0.222398
vt 0.443329 0.211239
vt 0.453260 0.186492
vt 0.461860 0.185643
vt 0.461149 0.198999
vt 0.452600 0.198894
vt 0.417488 0.205805
vt 0.413192 0.193018
vt 0.424571 0.203581
vt 0.420582 0.191705
vt 0.421594 0.146768
vt 0.414041 0.157734
vt 0.413061 0.149206
vt 0.426058 0.154301
vt 0.413192 0.193018
vt 0.420583 0.179247
vt 0.420582 0.191705
vt 0.413192 0.179600
vt 0.420583 0.179247
vt 0.424571 0.169542
vt 0.431889 0.174577
vt 0.429056 0.181466
vt 0.404655 0.176105
vt 0.411837 0.179579
vt 0.403994 0.188507
vt 0.411368 0.188384
vt 0.958109 0.287337
vt 0.959592 0.275935
vt 0.960985 0.286570
vt 0.962400 0.276081
vt 0.420582 0.191705
vt 0.429056 0.181466
vt 0.429056 0.190312
vt 0.420583 0.179247
vt 0.454365 0.134967
vt 0.447960 0.138975
vt 0.442076 0.133374
vt 0.451098 0.127730
vt 0.931581 0.241109
vt 0.929529 0.236649
vt 0.932851 0.240875
vt 0.930513 0.235794
vt 0.961863 0.236155
vt 0.959693 0.239673
vt 0.958491 0.238993
vt 0.960963 0.234985
vt 0.947246 0.233571
vt 0.943423 0.234335
vt 0.946551 0.232313
vt 0.944500 0.235346
vt 0.925976 0.252460
vt 0.929530 0.250237
vt 0.930513 0.251275
vt 0.926464 0.253808
vt 0.917447 0.297345
vt 0.918060 0.300334
vt 0.916528 0.298045
vt 0.917239 0.301517
vt 0.919303 0.248549
vt 0.916268 0.244946
vt 0.917537 0.244712
vt 0.918319 0.249405
vt 0.917447 0.297345
vt 0.916268 0.293220
vt 0.917223 0.293193
vt 0.916528 0.298045
vt 0.912118 0.274917
vt 0.915187 0.272570
vt 0.913320 0.275598
vt 0.914287 0.271400
vt 0.444261 0.155428
vt 0.436867 0.156550
vt 0.444261 0.146464
vt 0.436867 0.143922
vt 0.947245 0.251946
vt 0.950415 0.252739
vt 0.946550 0.253250
vt 0.950162 0.254153
vt 0.920762 0.274538
vt 0.917472 0.270616
vt 0.921185 0.273892
vt 0.918129 0.270249
vt 0.968838 0.291169
vt 0.968541 0.285671
vt 0.969346 0.290762
vt 0.969071 0.285655
vt 0.477349 0.187029
vt 0.483447 0.197338
vt 0.477360 0.194467
vt 0.483432 0.186862
vt 0.941799 0.284709
vt 0.937753 0.289356
vt 0.937780 0.284698
vt 0.941773 0.289367
vt 0.937689 0.297492
vt 0.933670 0.297481
vt 0.937663 0.294046
vt 0.933644 0.294034
vt 0.964637 0.285644
vt 0.968838 0.291169
vt 0.964933 0.291142
vt 0.968541 0.285671
vt 0.923408 0.288021
vt 0.919389 0.288027
vt 0.923422 0.284698
vt 0.919403 0.284705
vt 0.919389 0.288027
vt 0.923408 0.292653
vt 0.919389 0.292660
vt 0.923408 0.288021
vt 0.958540 0.269292
vt 0.954859 0.263795
vt 0.957635 0.263743
vt 0.955763 0.269344
vt 0.969649 0.275962
vt 0.964933 0.280078
vt 0.965744 0.275935
vt 0.968838 0.280105
vt 0.944678 0.285621
vt 0.944720 0.295605
vt 0.941938 0.294887
vt 0.941863 0.284698
vt 0.930973 0.257002
vt 0.932851 0.253881
vt 0.932239 0.257011
vt 0.931586 0.253873
vt 0.967476 0.257735
vt 0.968799 0.254221
vt 0.968779 0.257739
vt 0.967496 0.254217
vt 0.941773 0.289367
vt 0.937753 0.294034
vt 0.937753 0.289356
vt 0.941773 0.294046
vt 0.917447 0.288989
vt 0.917223 0.293193
vt 0.916268 0.293220
vt 0.916528 0.288334
vt 0.944500 0.235346
vt 0.942915 0.239214
vt 0.941617 0.238742
vt 0.943423 0.234335
vt 0.925257 0.253873
vt 0.929752 0.255205
vt 0.925361 0.254696
vt 0.929536 0.255933
vt 0.946993 0.234985
vt 0.950416 0.234363
vt 0.949721 0.235667
vt 0.947246 0.233571
vt 0.954746 0.247096
vt 0.952083 0.249953
vt 0.953448 0.246624
vt 0.953161 0.250963
vt 0.959693 0.239673
vt 0.958900 0.244516
vt 0.957587 0.244511
vt 0.958491 0.238993
vt 0.912637 0.279766
vt 0.913320 0.283956
vt 0.911324 0.279760
vt 0.912118 0.284630
vt 0.959693 0.249386
vt 0.961863 0.252978
vt 0.958491 0.250060
vt 0.960963 0.254153
vt 0.925976 0.252460
vt 0.921873 0.252155
vt 0.925892 0.251178
vt 0.922361 0.250916
vt 0.922361 0.234943
vt 0.918319 0.235817
vt 0.921873 0.233594
vt 0.919303 0.236856
vt 0.926464 0.232659
vt 0.930513 0.235794
vt 0.925976 0.233899
vt 0.929529 0.236649
vt 0.966440 0.263927
vt 0.966700 0.268752
vt 0.965484 0.263953
vt 0.965781 0.269451
vt 0.461860 0.212191
vt 0.455067 0.219960
vt 0.453261 0.211145
vt 0.463806 0.221684
vt 0.404655 0.200759
vt 0.413119 0.203340
vt 0.406461 0.209574
vt 0.411837 0.197081
vt 0.492613 0.186817
vt 0.483447 0.176540
vt 0.492630 0.175701
vt 0.483432 0.186862
vt 0.501968 0.176538
vt 0.492703 0.186877
vt 0.492766 0.175701
vt 0.501909 0.186916
vt 0.431480 0.211690
vt 0.424928 0.214538
vt 0.417488 0.205805
vt 0.424571 0.203581
vt 0.946993 0.234985
vt 0.944500 0.235346
vt 0.947246 0.233571
vt 0.944630 0.236513
vt 0.431888 0.198744
vt 0.436794 0.204501
vt 0.424571 0.203581
vt 0.431480 0.211690
vt 0.932851 0.246542
vt 0.929530 0.250237
vt 0.931581 0.246082
vt 0.930513 0.251275
vt 0.442670 0.210244
vt 0.443476 0.176924
vt 0.448967 0.210668
vt 0.449817 0.176889
vt 0.451098 0.127730
vt 0.461515 0.128503
vt 0.454365 0.134967
vt 0.461761 0.135516
vt 0.918129 0.260031
vt 0.916268 0.265154
vt 0.917472 0.259616
vt 0.917010 0.265175
vt 0.393922 0.200610
vt 0.390875 0.235244
vt 0.390624 0.201405
vt 0.393922 0.236170
vt 0.903749 0.251613
vt 0.904696 0.240507
vt 0.907015 0.241573
vt 0.900993 0.251906
vt 0.925257 0.275871
vt 0.920762 0.274538
vt 0.925361 0.275130
vt 0.921185 0.273892
vt 0.904913 0.273567
vt 0.902590 0.277332
vt 0.901908 0.276939
vt 0.904409 0.272886
vt 0.907825 0.293537
vt 0.904409 0.292057
vt 0.908086 0.292750
vt 0.904913 0.291376
vt 0.959693 0.249386
vt 0.957587 0.244511
vt 0.958900 0.244516
vt 0.958491 0.250060
vt 0.932015 0.261215
vt 0.930973 0.257002
vt 0.932239 0.257011
vt 0.930749 0.261206
vt 0.965781 0.269451
vt 0.962687 0.273380
vt 0.961876 0.269424
vt 0.966592 0.273407
vt 0.492576 0.209347
vt 0.483432 0.219786
vt 0.483403 0.209361
vt 0.492607 0.220574
vt 0.967476 0.261269
vt 0.968779 0.257739
vt 0.968779 0.261272
vt 0.967476 0.257735
vt 0.918489 0.293202
vt 0.918712 0.297354
vt 0.917447 0.297345
vt 0.917223 0.293193
vt 0.928799 0.288866
vt 0.929483 0.293057
vt 0.927900 0.288883
vt 0.928583 0.293074
vt 0.968953 0.244591
vt 0.968942 0.247101
vt 0.967650 0.244594
vt 0.967640 0.247103
vt 0.919884 0.280327
vt 0.919501 0.283407
vt 0.918724 0.282776
vt 0.918974 0.280310
vt 0.907825 0.271400
vt 0.911241 0.272880
vt 0.908086 0.272186
vt 0.911260 0.273561
vt 0.961927 0.242891
vt 0.965016 0.234475
vt 0.967576 0.235896
vt 0.964874 0.243296
vt 0.447959 0.163467
vt 0.436867 0.156550
vt 0.444261 0.155428
vt 0.442075 0.167871
vt 0.958540 0.269292
vt 0.957635 0.263743
vt 0.959220 0.268901
vt 0.958380 0.263747
vt 0.966592 0.254244
vt 0.961876 0.258360
vt 0.962687 0.254217
vt 0.965781 0.258387
vt 0.949721 0.251481
vt 0.952083 0.249953
vt 0.953161 0.250963
vt 0.950415 0.252739
vt 0.932851 0.268355
vt 0.930973 0.265358
vt 0.932238 0.265367
vt 0.931586 0.268347
vt 0.964933 0.291142
vt 0.968838 0.291169
vt 0.965744 0.295098
vt 0.969649 0.295125
vt 0.967476 0.267457
vt 0.967496 0.263939
vt 0.968778 0.267461
vt 0.968798 0.263943
vt 0.914220 0.275581
vt 0.913536 0.279748
vt 0.913320 0.275598
vt 0.912637 0.279766
vt 0.954810 0.244563
vt 0.955715 0.239046
vt 0.957587 0.244511
vt 0.958491 0.238993
vt 0.452527 0.232874
vt 0.443312 0.222355
vt 0.452512 0.222398
vt 0.443329 0.233636
vt 0.395399 0.175134
vt 0.404655 0.176105
vt 0.394686 0.188490
vt 0.403994 0.188507
vt 0.394686 0.188490
vt 0.403994 0.188507
vt 0.404655 0.200759
vt 0.395398 0.201682
vt 0.426058 0.154301
vt 0.434386 0.147735
vt 0.427826 0.161423
vt 0.436794 0.154353
vt 0.468934 0.212021
vt 0.477276 0.175829
vt 0.477276 0.210896
vt 0.469921 0.175701
vt 0.391092 0.159601
vt 0.391947 0.152609
vt 0.401439 0.164453
vt 0.401555 0.157115
vt 0.919303 0.248549
vt 0.922361 0.250916
vt 0.918319 0.249405
vt 0.921873 0.252155
vt 0.475803 0.174228
vt 0.475937 0.140706
vt 0.480920 0.174572
vt 0.481126 0.141494
vt 0.908086 0.272186
vt 0.904409 0.272886
vt 0.907825 0.271400
vt 0.904913 0.273567
vt 0.431888 0.198744
vt 0.424571 0.203581
vt 0.420582 0.191705
vt 0.429056 0.190312
vt 0.907015 0.261599
vt 0.916203 0.269034
vt 0.914653 0.271335
vt 0.904696 0.263258
vt 0.404198 0.148766
vt 0.414041 0.157734
vt 0.401555 0.157115
vt 0.413061 0.149206
vt 0.461761 0.168974
vt 0.451097 0.174855
vt 0.454364 0.168424
vt 0.461514 0.175629
vt 0.966700 0.259041
vt 0.965484 0.263953
vt 0.965781 0.258387
vt 0.966440 0.263927
vt 0.914287 0.288222
vt 0.912118 0.284630
vt 0.915187 0.287048
vt 0.913320 0.283956
vt 0.950415 0.252739
vt 0.947245 0.251946
vt 0.949721 0.251481
vt 0.946992 0.250798
vt 0.921873 0.233594
vt 0.917740 0.234846
vt 0.921789 0.232313
vt 0.918319 0.235817
vt 0.965781 0.258387
vt 0.967412 0.255405
vt 0.966700 0.259041
vt 0.966592 0.254244
vt 0.953448 0.246624
vt 0.954746 0.242172
vt 0.954746 0.247096
vt 0.953448 0.242387
vt 0.917537 0.240432
vt 0.917537 0.244712
vt 0.916268 0.244946
vt 0.916268 0.239972
vt 0.918060 0.285860
vt 0.917447 0.288989
vt 0.916528 0.288334
vt 0.917239 0.284698
vt 0.921873 0.233594
vt 0.926464 0.232659
vt 0.925976 0.233899
vt 0.921789 0.232313
vt 0.921873 0.252155
vt 0.925976 0.252460
vt 0.921789 0.253462
vt 0.926464 0.253808
vt 0.901908 0.288008
vt 0.904913 0.291376
vt 0.904409 0.292057
vt 0.902590 0.287614
vt 0.969347 0.280485
vt 0.968541 0.285671
vt 0.968838 0.280105
vt 0.969071 0.285655
vt 0.954794 0.260684
vt 0.941616 0.259706
vt 0.953029 0.256846
vt 0.943382 0.256130
vt 0.400566 0.222875
vt 0.436794 0.214792
vt 0.436794 0.222079
vt 0.401827 0.214611
vt 0.958491 0.250060
vt 0.955715 0.250112
vt 0.957587 0.244511
vt 0.954810 0.244563
vt 0.957635 0.263743
vt 0.955763 0.258278
vt 0.958540 0.258225
vt 0.954859 0.263795
vt 0.968942 0.240484
vt 0.968953 0.244035
vt 0.967640 0.240486
vt 0.967650 0.244037
vt 0.933670 0.284698
vt 0.937689 0.284709
vt 0.933644 0.289356
vt 0.937663 0.289367
vt 0.929483 0.284698
vt 0.928799 0.288866
vt 0.928583 0.284715
vt 0.927900 0.288883
vt 0.933566 0.292653
vt 0.929547 0.292660
vt 0.929547 0.288027
vt 0.933566 0.288021
vt 0.918060 0.300334
vt 0.918712 0.297354
vt 0.919325 0.300342
vt 0.917447 0.297345
vt 0.929561 0.297361
vt 0.929547 0.292660
vt 0.933580 0.297355
vt 0.933566 0.292653
vt 0.919403 0.297361
vt 0.919389 0.292660
vt 0.923422 0.297355
vt 0.923408 0.292653
vt 0.929547 0.288027
vt 0.933580 0.284698
vt 0.933566 0.288021
vt 0.929561 0.284705
vt 0.968942 0.247101
vt 0.968942 0.250600
vt 0.967640 0.247103
vt 0.967640 0.250602
vt 0.901908 0.288008
vt 0.900993 0.282474
vt 0.902590 0.287614
vt 0.901739 0.282474
vt 0.968838 0.280105
vt 0.970100 0.276636
vt 0.969347 0.280485
vt 0.969649 0.275962
vt 0.950415 0.252739
vt 0.953161 0.250963
vt 0.953290 0.252130
vt 0.950162 0.254153
vt 0.925892 0.251178
vt 0.928951 0.249265
vt 0.929530 0.250237
vt 0.925976 0.252460
vt 0.966592 0.273407
vt 0.965781 0.269451
vt 0.967412 0.272224
vt 0.966700 0.268752
vt 0.944500 0.248798
vt 0.941616 0.244353
vt 0.942915 0.244138
vt 0.943422 0.249663
vt 0.942915 0.239214
vt 0.942915 0.244138
vt 0.941616 0.244353
vt 0.941617 0.238742
vt 0.944500 0.248798
vt 0.947245 0.251946
vt 0.943422 0.249663
vt 0.946550 0.253250
vt 0.947246 0.233571
vt 0.950163 0.233216
vt 0.950416 0.234363
vt 0.946551 0.232313
vt 0.922361 0.234943
vt 0.925976 0.233899
vt 0.925892 0.235205
vt 0.921873 0.233594
vt 0.950416 0.234363
vt 0.953161 0.237512
vt 0.949721 0.235667
vt 0.952084 0.238376
vt 0.953448 0.242387
vt 0.952084 0.238376
vt 0.954746 0.242172
vt 0.953161 0.237512
vt 0.968942 0.236985
vt 0.967640 0.240486
vt 0.967640 0.236987
vt 0.968942 0.240484
vt 0.436794 0.139796
vt 0.434386 0.147735
vt 0.429215 0.136470
vt 0.427506 0.142106
vt 0.394613 0.165193
vt 0.394613 0.200537
vt 0.391283 0.199482
vt 0.390624 0.165871
vt 0.443476 0.176924
vt 0.442670 0.210244
vt 0.436867 0.210065
vt 0.437540 0.176278
vt 0.485037 0.142086
vt 0.485037 0.175629
vt 0.480920 0.174572
vt 0.481126 0.141494
vt 0.475937 0.140706
vt 0.475803 0.174228
vt 0.471937 0.140098
vt 0.472496 0.175347
vt 0.465058 0.177482
vt 0.468934 0.212021
vt 0.463878 0.212708
vt 0.469921 0.175701
vt 0.941118 0.269921
vt 0.941118 0.273037
vt 0.940279 0.272534
vt 0.940225 0.270049
vt 0.940225 0.270049
vt 0.939677 0.267632
vt 0.941118 0.269921
vt 0.940365 0.266910
vt 0.413061 0.149206
vt 0.396132 0.134829
vt 0.426264 0.131369
vt 0.397374 0.145567
vt 0.486040 0.175174
vt 0.485110 0.141476
vt 0.494639 0.140825
vt 0.494639 0.175629
vt 0.941616 0.263986
vt 0.954794 0.264964
vt 0.943382 0.267824
vt 0.953029 0.268540
vt 0.927375 0.284698
vt 0.923601 0.297396
vt 0.923486 0.285938
vt 0.927375 0.296668
vt 0.932997 0.275476
vt 0.932915 0.266211
vt 0.937498 0.265943
vt 0.937498 0.275572
vt 0.958045 0.283336
vt 0.947863 0.280791
vt 0.956681 0.279326
vt 0.949227 0.277463
vt 0.424571 0.169542
vt 0.431480 0.165193
vt 0.436794 0.171488
vt 0.431889 0.174577
vt 0.932934 0.232994
vt 0.937207 0.244749
vt 0.932915 0.244736
vt 0.937234 0.232313
vt 0.907015 0.241573
vt 0.914653 0.232313
vt 0.916203 0.233993
vt 0.904696 0.240507
vt 0.937477 0.276885
vt 0.927439 0.280118
vt 0.927187 0.276981
vt 0.937480 0.280043
vt 0.937477 0.283175
vt 0.927439 0.280118
vt 0.937480 0.280043
vt 0.927186 0.283234
vt 0.964808 0.254153
vt 0.964874 0.243296
vt 0.967576 0.253651
vt 0.961927 0.242891
vt 0.932934 0.256412
vt 0.937207 0.244749
vt 0.937234 0.257117
vt 0.932915 0.244736
vt 0.958045 0.287574
vt 0.947863 0.285029
vt 0.958045 0.283336
vt 0.947863 0.280791
vt 0.931581 0.246082
vt 0.932851 0.240875
vt 0.932851 0.246542
vt 0.931581 0.241109
vt 0.947550 0.280115
vt 0.937477 0.276885
vt 0.947799 0.276978
vt 0.937480 0.280043
vt 0.947550 0.280115
vt 0.937477 0.283175
vt 0.937480 0.280043
vt 0.947799 0.283231
vt 0.913320 0.275598
vt 0.911324 0.279760
vt 0.912118 0.274917
vt 0.912637 0.279766
vt 0.937207 0.244749
vt 0.941552 0.232995
vt 0.941519 0.244736
vt 0.937234 0.232313
vt 0.937207 0.244749
vt 0.941552 0.256412
vt 0.937234 0.257117
vt 0.941519 0.244736
vt 0.962206 0.295132
vt 0.958109 0.287337
vt 0.964572 0.293426
vt 0.960985 0.286570
vt 0.492703 0.186877
vt 0.501909 0.197342
vt 0.492703 0.198104
vt 0.501909 0.186916
vt 0.483432 0.198982
vt 0.492576 0.209347
vt 0.483403 0.209361
vt 0.492607 0.198171
vt 0.903749 0.251613
vt 0.907015 0.261599
vt 0.904696 0.263258
vt 0.900993 0.251906
vt 0.954794 0.260684
vt 0.941616 0.263986
vt 0.941616 0.259706
vt 0.954794 0.264964
vt 0.932934 0.256412
vt 0.937308 0.265879
vt 0.932963 0.264698
vt 0.937234 0.257117
vt 0.401555 0.157115
vt 0.391947 0.152609
vt 0.397374 0.145567
vt 0.404198 0.148766
vt 0.919501 0.277234
vt 0.927187 0.276981
vt 0.927439 0.280118
vt 0.919884 0.280327
vt 0.960985 0.286570
vt 0.962400 0.276081
vt 0.963221 0.287695
vt 0.964572 0.277387
vt 0.421594 0.146768
vt 0.427506 0.142106
vt 0.426058 0.154301
vt 0.434386 0.147735
vt 0.915157 0.300991
vt 0.911440 0.288287
vt 0.915157 0.289074
vt 0.911324 0.299692
vt 0.964933 0.280078
vt 0.968541 0.285671
vt 0.964637 0.285644
vt 0.968838 0.280105
vt 0.917223 0.293193
vt 0.917447 0.288989
vt 0.918489 0.293202
vt 0.918712 0.288997
vn -1.000000 0.000000 0.000000
vn -1.000000 0.000000 0.000000
vn -1.000000 0.000000 0.000000
vn -1.000000 0.000000 0.000000
vn -1.000000 0.000002 0.000000
vn -1.000000 0.000002 0.000000
vn -1.000000 0.000002 0.000000
vn -1.000000 0.000000 0.000000
vn -1.000000 0.000000 0.000000
vn -1.000000 0.000000 0.000000
vn -1.000000 0.000000 0.000000
vn -1.000000 -0.000002 -0.000000
vn -1.000000 -0.000002 -0.000000
vn -1.000000 -0.000002 -0.000000
vn -1.000000 -0.000002 -0.000000
vn -1.000000 -0.000002 -0.000000
vn -1.000000 0.000001 0.000000
vn -1.000000 0.000001 0.000000
vn -1.000000 0.000001 0.000000
vn 1.000000 -0.000000 -0.000001
vn 1.000000 -0.000000 -0.000001
vn 1.000000 -0.000000 -0.000001
vn 1.000000 -0.000000 -0.000001
vn 1.000000 -0.000001 -0.000000
vn 1.000000 -0.000001 -0.000000
vn 1.000000 -0.000001 -0.000000
vn 1.000000 0.000000 0.000000
vn 1.000000 0.000000 0.000000
vn 1.000000 0.000000 0.000000
vn 1.000000 0.000000 0.000000
vn 1.000000 0.000000 0.000000
vn 1.000000 0.000000 0.000000
vn 1.000000 0.000000 0.000000
vn 1.000000 0.000002 0.000000
vn 1.000000 0.000002 0.000000
vn 1.000000 0.000002 0.000000
vn 1.000000 0.000000 -0.000004
vn 1.000000 0.000000 -0.000004
vn 1.000000 0.000000 -0.000004
vn 1.000000 -0.000002 -0.000004
vn 1.000000 -0.000002 -0.000004
vn 1.000000 -0.000002 -0.000004
vn -1.000000 0.000000 0.000000
vn -1.000000 0.000000 0.000000
vn -1.000000 0.000000 0.000000
vn -1.000000 0.000000 0.000000
vn 1.000000 0.000001 0.000000
vn 1.000000 0.000001 0.000000
vn 1.000000 0.000001 0.000000
vn 1.000000 0.000001 0.000000
vn 1.000000 0.000001 0.000000
vn 1.000000 0.000001 0.000000
vn 1.000000 0.000001 0.000000
vn 1.000000 0.000001 0.000000
vn 1.000000 0.000001 0.000000
vn -1.000000 0.000000 0.000000
vn -1.000000 0.000000 0.000000
vn -1.000000 0.000000 0.000000
vn -1.000000 0.000001 0.000000
vn -1.000000 0.000001 0.000000
vn -1.000000 0.000001 0.000000
vn -0.647411 -0.761746 0.024517
vn -0.647411 -0.761746 0.024517
vn -0.647411 -0.761746 0.024517
vn -0.602372 -0.797811 0.025415
vn -0.602372 -0.797811 0.025415
vn -0.602372 -0.797811 0.025415
vn 0.629477 -0.776948 0.010485
vn 0.629477 -0.776948 0.010485
vn 0.629477 -0.776948 0.010485
vn 0.607513 -0.790239 -0.080320
vn 0.607513 -0.790239 -0.080320
vn 0.607513 -0.790239 -0.080320
vn -0.607513 -0.790239 0.080314
vn -0.607513 -0.790239 0.080314
vn -0.607513 -0.790239 0.080314
vn 0.647411 -0.761747 -0.024520
vn 0.647411 -0.761747 -0.024520
vn 0.647411 -0.761747 -0.024520
vn 0.602374 -0.797809 -0.025411
vn 0.602374 -0.797809 -0.025411
vn 0.602374 -0.797809 -0.025411
vn -0.629479 -0.776946 -0.010485
vn -0.629479 -0.776946 -0.010485
vn -0.629479 -0.776946 -0.010485
vn 1.000000 0.000002 0.000000
vn 1.000000 0.000002 0.000000
vn 1.000000 0.000002 0.000000
vn -0.629481 -0.776945 0.010487
vn -0.629481 -0.776945 0.010487
vn -0.629481 -0.776945 0.010487
vn -0.607511 -0.790239 -0.080324
vn -0.607511 -0.790239 -0.080324
vn -0.607511 -0.790239 -0.080324
vn 0.647410 -0.761747 0.024520
vn 0.647410 -0.761747 0.024520
vn 0.647410 -0.761747 0.024520
vn 0.602374 -0.797809 0.025411
vn 0.602374 -0.797809 0.025411
vn 0.602374 -0.797809 0.025411
vn -0.602374 -0.797809 -0.025411
vn -0.602374 -0.797809 -0.025411
vn -0.602374 -0.797809 -0.025411
vn 0.629477 -0.776948 -0.010485
vn 0.629477 -0.776948 -0.010485
vn 0.629477 -0.776948 -0.010485
vn 0.607513 -0.790238 0.080320
vn 0.607513 -0.790238 0.080320
vn 0.607513 -0.790238 0.080320
vn -0.647410 -0.761747 -0.024522
vn -0.647410 -0.761747 -0.024522
vn -0.647410 -0.761747 -0.024522
vn 0.667700 -0.140151 0.731118
vn 0.667700 -0.140151 0.731118
vn 0.667700 -0.140151 0.731118
vn 0.667700 -0.140151 0.731118
vn -1.000000 0.000000 0.000000
vn -1.000000 0.000000 0.000000
vn -1.000000 0.000000 0.000000
vn -1.000000 0.000000 0.000000
vn -0.167329 -0.217354 -0.961643
vn -0.167329 -0.217354 -0.961643
vn -0.167329 -0.217354 -0.961643
vn -0.167329 -0.217354 -0.961643
vn 0.717474 -0.449139 0.532451
vn 0.717474 -0.449139 0.532451
vn 0.717474 -0.449139 0.532451
vn 0.717474 -0.449139 0.532451
vn -0.178759 -0.634388 0.752062
vn -0.178759 -0.634388 0.752062
vn -0.178759 -0.634388 0.752062
vn -0.178759 -0.634388 0.752062
vn -0.178759 0.634388 0.752062
vn -0.178759 0.634388 0.752062
vn -0.178759 0.634388 0.752062
vn -0.178759 0.634388 0.752062
vn 0.178759 0.634388 0.752062
vn 0.178759 0.634388 0.752062
vn 0.178759 0.634388 0.752062
vn 0.178759 0.634388 0.752062
vn 0.717474 0.449140 0.532451
vn 0.717474 0.449140 0.532451
vn 0.717474 0.449140 0.532451
vn 0.717474 0.449140 0.532451
vn -0.744315 -0.636489 -0.202182
vn -0.744315 -0.636489 -0.202182
vn -0.744315 -0.636489 -0.202182
vn -0.744315 -0.636489 -0.202182
vn 0.860959 -0.327979 0.388817
vn 0.860959 -0.327979 0.388817
vn 0.860959 -0.327979 0.388817
vn 0.860959 -0.327979 0.388817
vn -0.167329 0.217354 -0.961643
vn -0.167329 0.217354 -0.961643
vn -0.167329 0.217354 -0.961643
vn -0.167329 0.217354 -0.961643
vn -0.744315 0.636489 0.202182
vn -0.744315 0.636489 0.202182
vn -0.744315 0.636489 0.202182
vn -0.744315 0.636489 0.202182
vn 0.644963 -0.764115 -0.012293
vn 0.644963 -0.764115 -0.012293
vn 0.644963 -0.764115 -0.012293
vn 0.644963 -0.764115 -0.012293
vn 0.860456 0.112331 0.496987
vn 0.860456 0.112331 0.496987
vn 0.860456 0.112331 0.496987
vn 0.860456 0.112331 0.496987
vn -0.875046 -0.312097 0.369987
vn -0.875046 -0.312097 0.369987
vn -0.875046 -0.312097 0.369987
vn -0.875046 -0.312097 0.369987
vn -0.693342 -0.158867 0.702878
vn -0.693342 -0.158867 0.702878
vn -0.693342 -0.158867 0.702878
vn -0.693342 -0.158867 0.702878
vn 0.875047 -0.312095 -0.369985
vn 0.875047 -0.312095 -0.369985
vn 0.875047 -0.312095 -0.369985
vn 0.875047 -0.312095 -0.369985
vn -0.890403 0.433812 0.137801
vn -0.890403 0.433812 0.137801
vn -0.890403 0.433812 0.137801
vn -0.890403 0.433812 0.137801
vn 0.875047 0.312096 -0.369985
vn 0.875047 0.312096 -0.369985
vn 0.875047 0.312096 -0.369985
vn 0.875047 0.312096 -0.369985
vn 0.000000 0.953072 -0.302745
vn 0.000000 0.953072 -0.302745
vn 0.000000 0.953072 -0.302745
vn 0.000000 0.953072 -0.302745
vn 0.000000 -0.220462 -0.975396
vn 0.000000 -0.220462 -0.975396
vn 0.000000 -0.220462 -0.975396
vn 0.000000 -0.220462 -0.975396
vn 0.000000 0.220462 0.975395
vn 0.000000 0.220462 0.975395
vn 0.000000 0.220462 0.975395
vn 0.000000 0.220462 0.975395
vn 0.000000 0.644773 0.764374
vn 0.000000 0.644773 0.764374
vn 0.000000 0.644773 0.764374
vn 0.000000 0.644773 0.764374
vn -0.000000 0.953072 -0.302744
vn -0.000000 0.953072 -0.302744
vn -0.000000 0.953072 -0.302744
vn -0.000000 0.953072 -0.302744
vn 0.000000 -0.644774 -0.764373
vn 0.000000 -0.644774 -0.764373
vn 0.000000 -0.644774 -0.764373
vn 0.000000 -0.644774 -0.764373
vn 0.755822 -0.636752 0.152576
vn 0.755822 -0.636752 0.152576
vn 0.755822 -0.636752 0.152576
vn 0.755822 -0.636752 0.152576
vn 0.860459 0.112330 -0.496983
vn 0.860459 0.112330 -0.496983
vn 0.860459 0.112330 -0.496983
vn 0.860459 0.112330 -0.496983
vn 0.890403 0.433813 -0.137801
vn 0.890403 0.433813 -0.137801
vn 0.890403 0.433813 -0.137801
vn 0.890403 0.433813 -0.137801
vn 0.875046 -0.312096 0.369987
vn 0.875046 -0.312096 0.369987
vn 0.875046 -0.312096 0.369987
vn 0.875046 -0.312096 0.369987
vn 0.890404 -0.433811 0.137801
vn 0.890404 -0.433811 0.137801
vn 0.890404 -0.433811 0.137801
vn 0.890404 -0.433811 0.137801
vn -0.860458 -0.112331 -0.496985
vn -0.860458 -0.112331 -0.496985
vn -0.860458 -0.112331 -0.496985
vn -0.860458 -0.112331 -0.496985
vn 0.000000 -0.953072 0.302744
vn 0.000000 -0.953072 0.302744
vn 0.000000 -0.953072 0.302744
vn 0.000000 -0.953072 0.302744
vn -0.717474 0.449140 0.532451
vn -0.717474 0.449140 0.532451
vn -0.717474 0.449140 0.532451
vn -0.717474 0.449140 0.532451
vn 0.000000 0.644773 -0.764374
vn 0.000000 0.644773 -0.764374
vn 0.000000 0.644773 -0.764374
vn 0.000000 0.644773 -0.764374
vn 0.000000 -0.220462 0.975396
vn 0.000000 -0.220462 0.975396
vn 0.000000 -0.220462 0.975396
vn 0.000000 -0.220462 0.975396
vn 0.000000 0.644773 -0.764374
vn 0.000000 0.644773 -0.764374
vn 0.000000 0.644773 -0.764374
vn 0.000000 0.644773 -0.764374
vn 0.000000 0.644773 -0.764374
vn 0.000000 0.644773 -0.764374
vn 0.000000 0.644773 -0.764374
vn 0.000000 0.644773 -0.764374
vn 0.000000 -0.220463 0.975395
vn 0.000000 -0.220463 0.975395
vn 0.000000 -0.220463 0.975395
vn 0.000000 -0.220463 0.975395
vn -0.192906 -0.935170 0.297058
vn -0.192906 -0.935170 0.297058
vn -0.192906 -0.935170 0.297058
vn -0.192906 -0.935170 0.297058
vn 0.167329 -0.217354 0.961643
vn 0.167329 -0.217354 0.961643
vn 0.167329 -0.217354 0.961643
vn 0.167329 -0.217354 0.961643
vn 0.178759 0.634388 -0.752062
vn 0.178759 0.634388 -0.752062
vn 0.178759 0.634388 -0.752062
vn 0.178759 0.634388 -0.752062
vn 0.192906 -0.935170 -0.297059
vn 0.192906 -0.935170 -0.297059
vn 0.192906 -0.935170 -0.297059
vn 0.192906 -0.935170 -0.297059
vn 0.167329 0.217354 0.961644
vn 0.167329 0.217354 0.961644
vn 0.167329 0.217354 0.961644
vn 0.167329 0.217354 0.961644
vn 0.167328 -0.217354 -0.961644
vn 0.167328 -0.217354 -0.961644
vn 0.167328 -0.217354 -0.961644
vn 0.167328 -0.217354 -0.961644
vn -0.693342 0.158867 -0.702879
vn -0.693342 0.158867 -0.702879
vn -0.693342 0.158867 -0.702879
vn -0.693342 0.158867 -0.702879
vn 0.167328 0.217354 -0.961644
vn 0.167328 0.217354 -0.961644
vn 0.167328 0.217354 -0.961644
vn 0.167328 0.217354 -0.961644
vn 0.717474 0.449140 -0.532451
vn 0.717474 0.449140 -0.532451
vn 0.717474 0.449140 -0.532451
vn 0.717474 0.449140 -0.532451
vn -0.693342 0.158867 0.702878
vn -0.693342 0.158867 0.702878
vn -0.693342 0.158867 0.702878
vn -0.693342 0.158867 0.702878
vn -0.326753 -0.274676 -0.904315
vn -0.326753 -0.274676 -0.904315
vn -0.326753 -0.274676 -0.904315
vn -0.326753 -0.274676 -0.904315
vn 0.693342 0.158867 -0.702878
vn 0.693342 0.158867 -0.702878
vn 0.693342 0.158867 -0.702878
vn 0.693342 0.158867 -0.702878
vn 0.744315 -0.636489 0.202181
vn 0.744315 -0.636489 0.202181
vn 0.744315 -0.636489 0.202181
vn 0.744315 -0.636489 0.202181
vn 0.845148 0.117844 0.521380
vn 0.845148 0.117844 0.521380
vn 0.845148 0.117844 0.521380
vn 0.845148 0.117844 0.521380
vn 0.860959 0.327980 -0.388817
vn 0.860959 0.327980 -0.388817
vn 0.860959 0.327980 -0.388817
vn 0.860959 0.327980 -0.388817
vn -0.877693 -0.456735 -0.145082
vn -0.877693 -0.456735 -0.145082
vn -0.877693 -0.456735 -0.145082
vn -0.877693 -0.456735 -0.145082
vn 0.877692 -0.456735 0.145083
vn 0.877692 -0.456735 0.145083
vn 0.877692 -0.456735 0.145083
vn 0.877692 -0.456735 0.145083
vn -0.860960 -0.327979 0.388816
vn -0.860960 -0.327979 0.388816
vn -0.860960 -0.327979 0.388816
vn -0.860960 -0.327979 0.388816
vn 0.845148 0.117844 0.521380
vn 0.845148 0.117844 0.521380
vn 0.845148 0.117844 0.521380
vn 0.845148 0.117844 0.521380
vn -0.845149 -0.117844 0.521379
vn -0.845149 -0.117844 0.521379
vn -0.845149 -0.117844 0.521379
vn -0.845149 -0.117844 0.521379
vn 0.860959 0.327979 -0.388817
vn 0.860959 0.327979 -0.388817
vn 0.860959 0.327979 -0.388817
vn 0.860959 0.327979 -0.388817
vn 0.693342 -0.158867 0.702879
vn 0.693342 -0.158867 0.702879
vn 0.693342 -0.158867 0.702879
vn 0.693342 -0.158867 0.702879
vn -0.877692 0.456736 -0.145082
vn -0.877692 0.456736 -0.145082
vn -0.877692 0.456736 -0.145082
vn -0.877692 0.456736 -0.145082
vn 0.875047 0.312095 0.369987
vn 0.875047 0.312095 0.369987
vn 0.875047 0.312095 0.369987
vn 0.875047 0.312095 0.369987
vn -0.860457 -0.112331 0.496986
vn -0.860457 -0.112331 0.496986
vn -0.860457 -0.112331 0.496986
vn -0.860457 -0.112331 0.496986
vn -0.744315 -0.636489 0.202182
vn -0.744315 -0.636489 0.202182
vn -0.744315 -0.636489 0.202182
vn -0.744315 -0.636489 0.202182
vn 0.000000 0.953072 0.302744
vn 0.000000 0.953072 0.302744
vn 0.000000 0.953072 0.302744
vn 0.000000 0.953072 0.302744
vn 0.000000 0.644774 -0.764373
vn 0.000000 0.644774 -0.764373
vn 0.000000 0.644774 -0.764373
vn 0.000000 0.644774 -0.764373
vn 0.000000 -0.220462 0.975396
vn 0.000000 -0.220462 0.975396
vn 0.000000 -0.220462 0.975396
vn 0.000000 -0.220462 0.975396
vn 0.000000 -0.644773 -0.764374
vn 0.000000 -0.644773 -0.764374
vn 0.000000 -0.644773 -0.764374
vn 0.000000 -0.644773 -0.764374
vn 0.000000 -0.953072 -0.302745
vn 0.000000 -0.953072 -0.302745
vn 0.000000 -0.953072 -0.302745
vn 0.000000 -0.953072 -0.302745
vn 0.000000 -0.220462 -0.975396
vn 0.000000 -0.220462 -0.975396
vn 0.000000 -0.220462 -0.975396
vn 0.000000 -0.220462 -0.975396
vn 0.000000 0.644774 0.764373
vn 0.000000 0.644774 0.764373
vn 0.000000 0.644774 0.764373
vn 0.000000 0.644774 0.764373
vn 0.755822 -0.636752 -0.152576
vn 0.755822 -0.636752 -0.152576
vn 0.755822 -0.636752 -0.152576
vn 0.755822 -0.636752 -0.152576
vn 0.000000 0.644773 0.764374
vn 0.000000 0.644773 0.764374
vn 0.000000 0.644773 0.764374
vn 0.000000 0.644773 0.764374
vn 0.000000 0.953072 0.302745
vn 0.000000 0.953072 0.302745
vn 0.000000 0.953072 0.302745
vn 0.000000 0.953072 0.302745
vn 0.000000 0.953071 -0.302746
vn 0.000000 0.953071 -0.302746
vn 0.000000 0.953071 -0.302746
vn 0.000000 0.953071 -0.302746
vn -0.845149 0.117844 0.521379
vn -0.845149 0.117844 0.521379
vn -0.845149 0.117844 0.521379
vn -0.845149 0.117844 0.521379
vn -0.860960 -0.327979 -0.388816
vn -0.860960 -0.327979 -0.388816
vn -0.860960 -0.327979 -0.388816
vn -0.860960 -0.327979 -0.388816
vn 0.890404 -0.433811 -0.137800
vn 0.890404 -0.433811 -0.137800
vn 0.890404 -0.433811 -0.137800
vn 0.890404 -0.433811 -0.137800
vn -0.877692 0.456736 -0.145082
vn -0.877692 0.456736 -0.145082
vn -0.877692 0.456736 -0.145082
vn -0.877692 0.456736 -0.145082
vn -0.860960 -0.327978 -0.388816
vn -0.860960 -0.327978 -0.388816
vn -0.860960 -0.327978 -0.388816
vn -0.860960 -0.327978 -0.388816
vn 0.845149 0.117844 -0.521380
vn 0.845149 0.117844 -0.521380
vn 0.845149 0.117844 -0.521380
vn 0.845149 0.117844 -0.521380
vn 0.845148 -0.117844 -0.521380
vn 0.845148 -0.117844 -0.521380
vn 0.845148 -0.117844 -0.521380
vn 0.845148 -0.117844 -0.521380
vn 0.860959 -0.327979 -0.388818
vn 0.860959 -0.327979 -0.388818
vn 0.860959 -0.327979 -0.388818
vn 0.860959 -0.327979 -0.388818
vn 0.877692 0.456735 0.145083
vn 0.877692 0.456735 0.145083
vn 0.877692 0.456735 0.145083
vn 0.877692 0.456735 0.145083
vn 0.877692 -0.456737 0.145083
vn 0.877692 -0.456737 0.145083
vn 0.877692 -0.456737 0.145083
vn 0.877692 -0.456737 0.145083
vn 0.860959 0.327979 0.388817
vn 0.860959 0.327979 0.388817
vn 0.860959 0.327979 0.388817
vn 0.860959 0.327979 0.388817
vn -0.845149 -0.117844 0.521379
vn -0.845149 -0.117844 0.521379
vn -0.845149 -0.117844 0.521379
vn -0.845149 -0.117844 0.521379
vn 0.178759 -0.634388 0.752062
vn 0.178759 -0.634388 0.752062
vn 0.178759 -0.634388 0.752062
vn 0.178759 -0.634388 0.752062
vn -0.717474 -0.449140 0.532451
vn -0.717474 -0.449140 0.532451
vn -0.717474 -0.449140 0.532451
vn -0.717474 -0.449140 0.532451
vn -0.192906 -0.935170 -0.297058
vn -0.192906 -0.935170 -0.297058
vn -0.192906 -0.935170 -0.297058
vn -0.192906 -0.935170 -0.297058
vn 0.192906 0.935170 0.297059
vn 0.192906 0.935170 0.297059
vn 0.192906 0.935170 0.297059
vn 0.192906 0.935170 0.297059
vn 0.178759 -0.634388 -0.752062
vn 0.178759 -0.634388 -0.752062
vn 0.178759 -0.634388 -0.752062
vn 0.178759 -0.634388 -0.752062
vn -0.877693 0.456735 0.145083
vn -0.877693 0.456735 0.145083
vn -0.877693 0.456735 0.145083
vn -0.877693 0.456735 0.145083
vn 0.717474 -0.449140 -0.532451
vn 0.717474 -0.449140 -0.532451
vn 0.717474 -0.449140 -0.532451
vn 0.717474 -0.449140 -0.532451
vn 0.860960 -0.327979 0.388817
vn 0.860960 -0.327979 0.388817
vn 0.860960 -0.327979 0.388817
vn 0.860960 -0.327979 0.388817
vn 0.968952 -0.210920 0.129010
vn 0.968952 -0.210920 0.129010
vn 0.968952 -0.210920 0.129010
vn 0.968952 -0.210920 0.129010
vn 0.744315 -0.636489 -0.202182
vn 0.744315 -0.636489 -0.202182
vn 0.744315 -0.636489 -0.202182
vn 0.744315 -0.636489 -0.202182
vn 0.860457 -0.112331 0.496987
vn 0.860457 -0.112331 0.496987
vn 0.860457 -0.112331 0.496987
vn 0.860457 -0.112331 0.496987
vn -0.667699 -0.140151 0.731120
vn -0.667699 -0.140151 0.731120
vn -0.667699 -0.140151 0.731120
vn -0.667699 -0.140151 0.731120
vn 0.120842 -0.383121 0.915760
vn 0.120842 -0.383121 0.915760
vn 0.120842 -0.383121 0.915760
vn 0.120842 -0.383121 0.915760
vn 0.890402 0.433814 0.137802
vn 0.890402 0.433814 0.137802
vn 0.890402 0.433814 0.137802
vn 0.890402 0.433814 0.137802
vn -0.875047 -0.312095 -0.369987
vn -0.875047 -0.312095 -0.369987
vn -0.875047 -0.312095 -0.369987
vn -0.875047 -0.312095 -0.369987
vn -0.890402 0.433814 -0.137802
vn -0.890402 0.433814 -0.137802
vn -0.890402 0.433814 -0.137802
vn -0.890402 0.433814 -0.137802
vn 0.845148 -0.117844 -0.521380
vn 0.845148 -0.117844 -0.521380
vn 0.845148 -0.117844 -0.521380
vn 0.845148 -0.117844 -0.521380
vn 0.000000 0.220463 0.975395
vn 0.000000 0.220463 0.975395
vn 0.000000 0.220463 0.975395
vn 0.000000 0.220463 0.975395
vn 0.000000 -0.644773 0.764374
vn 0.000000 -0.644773 0.764374
vn 0.000000 -0.644773 0.764374
vn 0.000000 -0.644773 0.764374
vn -0.192906 0.935170 -0.297059
vn -0.192906 0.935170 -0.297059
vn -0.192906 0.935170 -0.297059
vn -0.192906 0.935170 -0.297059
vn 0.000000 0.953072 -0.302745
vn 0.000000 0.953072 -0.302745
vn 0.000000 0.953072 -0.302745
vn 0.000000 0.953072 -0.302745
vn 0.000000 -0.220462 0.975395
vn 0.000000 -0.220462 0.975395
vn 0.000000 -0.220462 0.975395
vn 0.000000 -0.220462 0.975395
vn 0.000000 -0.220462 -0.975396
vn 0.000000 -0.220462 -0.975396
vn 0.000000 -0.220462 -0.975396
vn 0.000000 -0.220462 -0.975396
vn 0.000000 -0.644773 -0.764374
vn 0.000000 -0.644773 -0.764374
vn 0.000000 -0.644773 -0.764374
vn 0.000000 -0.644773 -0.764374
vn 0.644962 -0.764115 0.012294
vn 0.644962 -0.764115 0.012294
vn 0.644962 -0.764115 0.012294
vn 0.644962 -0.764115 0.012294
vn -0.890402 -0.433814 0.137801
vn -0.890402 -0.433814 0.137801
vn -0.890402 -0.433814 0.137801
vn -0.890402 -0.433814 0.137801
vn 0.120842 -0.383120 -0.915760
vn 0.120842 -0.383120 -0.915760
vn 0.120842 -0.383120 -0.915760
vn 0.120842 -0.383120 -0.915760
vn 0.693342 0.158866 0.702879
vn 0.693342 0.158866 0.702879
vn 0.693342 0.158866 0.702879
vn 0.693342 0.158866 0.702879
vn 0.860459 -0.112330 -0.496983
vn 0.860459 -0.112330 -0.496983
vn 0.860459 -0.112330 -0.496983
vn 0.860459 -0.112330 -0.496983
vn 0.000000 0.644773 0.764374
vn 0.000000 0.644773 0.764374
vn 0.000000 0.644773 0.764374
vn 0.000000 0.644773 0.764374
vn -0.877693 -0.456734 -0.145083
vn -0.877693 -0.456734 -0.145083
vn -0.877693 -0.456734 -0.145083
vn -0.877693 -0.456734 -0.145083
vn -0.000000 -0.644773 0.764374
vn -0.000000 -0.644773 0.764374
vn -0.000000 -0.644773 0.764374
vn -0.000000 -0.644773 0.764374
vn 0.000000 -0.644773 0.764374
vn 0.000000 -0.644773 0.764374
vn 0.000000 -0.644773 0.764374
vn 0.000000 -0.644773 0.764374
vn 0.000000 0.953072 0.302745
vn 0.000000 0.953072 0.302745
vn 0.000000 0.953072 0.302745
vn 0.000000 0.953072 0.302745
vn 0.000000 0.220462 -0.975396
vn 0.000000 0.220462 -0.975396
vn 0.000000 0.220462 -0.975396
vn 0.000000 0.220462 -0.975396
vn 0.000000 0.220463 -0.975395
vn 0.000000 0.220463 -0.975395
vn 0.000000 0.220463 -0.975395
vn 0.000000 0.220463 -0.975395
vn 0.192906 -0.935170 0.297058
vn 0.192906 -0.935170 0.297058
vn 0.192906 -0.935170 0.297058
vn 0.192906 -0.935170 0.297058
vn -0.167329 0.217354 0.961643
vn -0.167329 0.217354 0.961643
vn -0.167329 0.217354 0.961643
vn -0.167329 0.217354 0.961643
vn -0.167328 -0.217354 0.961644
vn -0.167328 -0.217354 0.961644
vn -0.167328 -0.217354 0.961644
vn -0.167328 -0.217354 0.961644
vn -0.178759 0.634388 -0.752062
vn -0.178759 0.634388 -0.752062
vn -0.178759 0.634388 -0.752062
vn -0.178759 0.634388 -0.752062
vn -0.947410 0.220858 -0.231596
vn -0.947410 0.220858 -0.231596
vn -0.947410 0.220858 -0.231596
vn -0.947410 0.220858 -0.231596
vn -0.178759 -0.634388 -0.752062
vn -0.178759 -0.634388 -0.752062
vn -0.178759 -0.634388 -0.752062
vn -0.178759 -0.634388 -0.752062
vn 0.860959 0.327979 0.388818
vn 0.860959 0.327979 0.388818
vn 0.860959 0.327979 0.388818
vn 0.860959 0.327979 0.388818
vn -0.968952 -0.210921 -0.129011
vn -0.968952 -0.210921 -0.129011
vn -0.968952 -0.210921 -0.129011
vn -0.968952 -0.210921 -0.129011
vn -0.890403 -0.433813 -0.137801
vn -0.890403 -0.433813 -0.137801
vn -0.890403 -0.433813 -0.137801
vn -0.890403 -0.433813 -0.137801
vn 0.693343 -0.158866 -0.702878
vn 0.693343 -0.158866 -0.702878
vn 0.693343 -0.158866 -0.702878
vn 0.693343 -0.158866 -0.702878
vn -0.326754 -0.274675 0.904315
vn -0.326754 -0.274675 0.904315
vn -0.326754 -0.274675 0.904315
vn -0.326754 -0.274675 0.904315
vn -0.693342 -0.158867 -0.702879
vn -0.693342 -0.158867 -0.702879
vn -0.693342 -0.158867 -0.702879
vn -0.693342 -0.158867 -0.702879
vn 0.744315 0.636489 0.202182
vn 0.744315 0.636489 0.202182
vn 0.744315 0.636489 0.202182
vn 0.744315 0.636489 0.202182
vn -0.845149 0.117844 0.521379
vn -0.845149 0.117844 0.521379
vn -0.845149 0.117844 0.521379
vn -0.845149 0.117844 0.521379
vn 0.860959 -0.327980 -0.388817
vn 0.860959 -0.327980 -0.388817
vn 0.860959 -0.327980 -0.388817
vn 0.860959 -0.327980 -0.388817
vn -0.877693 -0.456734 0.145082
vn -0.877693 -0.456734 0.145082
vn -0.877693 -0.456734 0.145082
vn -0.877693 -0.456734 0.145082
vn 0.877692 0.456736 -0.145083
vn 0.877692 0.456736 -0.145083
vn 0.877692 0.456736 -0.145083
vn 0.877692 0.456736 -0.145083
vn -0.860960 0.327979 0.388816
vn -0.860960 0.327979 0.388816
vn -0.860960 0.327979 0.388816
vn -0.860960 0.327979 0.388816
vn -0.845149 -0.117844 -0.521379
vn -0.845149 -0.117844 -0.521379
vn -0.845149 -0.117844 -0.521379
vn -0.845149 -0.117844 -0.521379
vn 0.845149 -0.117844 0.521380
vn 0.845149 -0.117844 0.521380
vn 0.845149 -0.117844 0.521380
vn 0.845149 -0.117844 0.521380
vn -0.860960 0.327978 0.388816
vn -0.860960 0.327978 0.388816
vn -0.860960 0.327978 0.388816
vn -0.860960 0.327978 0.388816
vn 0.877692 0.456737 0.145083
vn 0.877692 0.456737 0.145083
vn 0.877692 0.456737 0.145083
vn 0.877692 0.456737 0.145083
vn 0.877692 -0.456735 -0.145083
vn 0.877692 -0.456735 -0.145083
vn 0.877692 -0.456735 -0.145083
vn 0.877692 -0.456735 -0.145083
vn -0.875046 0.312096 -0.369987
vn -0.875046 0.312096 -0.369987
vn -0.875046 0.312096 -0.369987
vn -0.875046 0.312096 -0.369987
vn -0.860457 0.112331 0.496986
vn -0.860457 0.112331 0.496986
vn -0.860457 0.112331 0.496986
vn -0.860457 0.112331 0.496986
vn 1.000000 -0.000001 0.000000
vn 1.000000 -0.000001 0.000000
vn 1.000000 -0.000001 0.000000
vn 1.000000 -0.000001 0.000000
vn 0.947410 0.220858 -0.231596
vn 0.947410 0.220858 -0.231596
vn 0.947410 0.220858 -0.231596
vn 0.947410 0.220858 -0.231596
vn 0.000000 -0.220463 -0.975395
vn 0.000000 -0.220463 -0.975395
vn 0.000000 -0.220463 -0.975395
vn 0.000000 -0.220463 -0.975395
vn 0.000000 0.220462 -0.975395
vn 0.000000 0.220462 -0.975395
vn 0.000000 0.220462 -0.975395
vn 0.000000 0.220462 -0.975395
vn 0.000000 -0.953071 0.302745
vn 0.000000 -0.953071 0.302745
vn 0.000000 -0.953071 0.302745
vn 0.000000 -0.953071 0.302745
vn 0.000000 0.953071 0.302745
vn 0.000000 0.953071 0.302745
vn 0.000000 0.953071 0.302745
vn 0.000000 0.953071 0.302745
vn 0.000000 0.220463 -0.975395
vn 0.000000 0.220463 -0.975395
vn 0.000000 0.220463 -0.975395
vn 0.000000 0.220463 -0.975395
vn -0.000000 -0.953072 -0.302745
vn -0.000000 -0.953072 -0.302745
vn -0.000000 -0.953072 -0.302745
vn -0.000000 -0.953072 -0.302745
vn 0.000000 -0.644774 0.764373
vn 0.000000 -0.644774 0.764373
vn 0.000000 -0.644774 0.764373
vn 0.000000 -0.644774 0.764373
vn 0.000000 -0.953072 0.302745
vn 0.000000 -0.953072 0.302745
vn 0.000000 -0.953072 0.302745
vn 0.000000 -0.953072 0.302745
vn 0.000000 -0.953072 0.302745
vn 0.000000 -0.953072 0.302745
vn 0.000000 -0.953072 0.302745
vn 0.000000 -0.953072 0.302745
vn 0.000000 -0.644773 -0.764374
vn 0.000000 -0.644773 -0.764374
vn 0.000000 -0.644773 -0.764374
vn 0.000000 -0.644773 -0.764374
vn 0.000000 -0.953072 -0.302745
vn 0.000000 -0.953072 -0.302745
vn 0.000000 -0.953072 -0.302745
vn 0.000000 -0.953072 -0.302745
vn -0.860457 0.112331 -0.496986
vn -0.860457 0.112331 -0.496986
vn -0.860457 0.112331 -0.496986
vn -0.860457 0.112331 -0.496986
vn -0.875046 0.312096 0.369987
vn -0.875046 0.312096 0.369987
vn -0.875046 0.312096 0.369987
vn -0.875046 0.312096 0.369987
vn -0.877693 0.456735 0.145083
vn -0.877693 0.456735 0.145083
vn -0.877693 0.456735 0.145083
vn -0.877693 0.456735 0.145083
vn 0.877692 0.456735 -0.145083
vn 0.877692 0.456735 -0.145083
vn 0.877692 0.456735 -0.145083
vn 0.877692 0.456735 -0.145083
vn -0.860960 -0.327978 0.388816
vn -0.860960 -0.327978 0.388816
vn -0.860960 -0.327978 0.388816
vn -0.860960 -0.327978 0.388816
vn -0.845149 0.117844 -0.521379
vn -0.845149 0.117844 -0.521379
vn -0.845149 0.117844 -0.521379
vn -0.845149 0.117844 -0.521379
vn -0.845149 -0.117844 -0.521379
vn -0.845149 -0.117844 -0.521379
vn -0.845149 -0.117844 -0.521379
vn -0.845149 -0.117844 -0.521379
vn -0.860960 0.327979 -0.388815
vn -0.860960 0.327979 -0.388815
vn -0.860960 0.327979 -0.388815
vn -0.860960 0.327979 -0.388815
vn -0.877693 -0.456735 0.145082
vn -0.877693 -0.456735 0.145082
vn -0.877693 -0.456735 0.145082
vn -0.877693 -0.456735 0.145082
vn 0.877692 -0.456735 -0.145083
vn 0.877692 -0.456735 -0.145083
vn 0.877692 -0.456735 -0.145083
vn 0.877692 -0.456735 -0.145083
vn -0.860960 0.327979 -0.388816
vn -0.860960 0.327979 -0.388816
vn -0.860960 0.327979 -0.388816
vn -0.860960 0.327979 -0.388816
vn -0.845149 0.117844 -0.521379
vn -0.845149 0.117844 -0.521379
vn -0.845149 0.117844 -0.521379
vn -0.845149 0.117844 -0.521379
vn 0.000000 -0.953072 -0.302744
vn 0.000000 -0.953072 -0.302744
vn 0.000000 -0.953072 -0.302744
vn 0.000000 -0.953072 -0.302744
vn -0.744315 0.636488 -0.202182
vn -0.744315 0.636488 -0.202182
vn -0.744315 0.636488 -0.202182
vn -0.744315 0.636488 -0.202182
vn 0.667699 -0.140151 -0.731120
vn 0.667699 -0.140151 -0.731120
vn 0.667699 -0.140151 -0.731120
vn 0.667699 -0.140151 -0.731120
vn 0.968952 -0.210920 -0.129011
vn 0.968952 -0.210920 -0.129011
vn 0.968952 -0.210920 -0.129011
vn 0.968952 -0.210920 -0.129011
vn -0.968952 -0.210921 0.129011
vn -0.968952 -0.210921 0.129011
vn -0.968952 -0.210921 0.129011
vn -0.968952 -0.210921 0.129011
vn -0.667700 -0.140151 -0.731118
vn -0.667700 -0.140151 -0.731118
vn -0.667700 -0.140151 -0.731118
vn -0.667700 -0.140151 -0.731118
vn -0.947410 0.220858 0.231596
vn -0.947410 0.220858 0.231596
vn -0.947410 0.220858 0.231596
vn -0.947410 0.220858 0.231596
vn -0.644963 -0.764115 -0.012293
vn -0.644963 -0.764115 -0.012293
vn -0.644963 -0.764115 -0.012293
vn -0.644963 -0.764115 -0.012293
vn -0.644963 -0.764115 0.012292
vn -0.644963 -0.764115 0.012292
vn -0.644963 -0.764115 0.012292
vn -0.644963 -0.764115 0.012292
vn -1.000000 -0.000000 -0.000000
vn -1.000000 -0.000000 -0.000000
vn -1.000000 -0.000000 -0.000000
vn -1.000000 -0.000000 -0.000000
vn 0.947410 0.220858 0.231596
vn 0.947410 0.220858 0.231596
vn 0.947410 0.220858 0.231596
vn 0.947410 0.220858 0.231596
vn 1.000000 0.000000 0.000000
vn 1.000000 0.000000 0.000000
vn 1.000000 0.000000 0.000000
vn 1.000000 0.000000 0.000000
vn -0.724529 0.615499 -0.310190
vn -0.724529 0.615499 -0.310190
vn -0.724529 0.615499 -0.310190
vn -0.724529 0.615499 -0.310190
vn 0.724529 0.615500 0.310190
vn 0.724529 0.615500 0.310190
vn 0.724529 0.615500 0.310190
vn 0.724529 0.615500 0.310190
vn -1.000000 0.000000 0.000000
vn -1.000000 0.000000 0.000000
vn -1.000000 0.000000 0.000000
vn -1.000000 0.000000 0.000000
vn 0.744315 0.636489 -0.202181
vn 0.744315 0.636489 -0.202181
vn 0.744315 0.636489 -0.202181
vn 0.744315 0.636489 -0.202181
vn 0.285677 0.906096 0.312054
vn 0.285677 0.906096 0.312054
vn 0.285677 0.906096 0.312054
vn 0.285677 0.906096 0.312054
vn 0.326752 -0.274674 0.904316
vn 0.326752 -0.274674 0.904316
vn 0.326752 -0.274674 0.904316
vn 0.326752 -0.274674 0.904316
vn -0.297616 -0.940587 0.163467
vn -0.297616 -0.940587 0.163467
vn -0.297616 -0.940587 0.163467
vn -0.297616 -0.940587 0.163467
vn -0.297616 -0.940587 -0.163466
vn -0.297616 -0.940587 -0.163466
vn -0.297616 -0.940587 -0.163466
vn -0.297616 -0.940587 -0.163466
vn 0.326751 -0.274674 -0.904316
vn 0.326751 -0.274674 -0.904316
vn 0.326751 -0.274674 -0.904316
vn 0.326751 -0.274674 -0.904316
vn -0.285678 0.906097 0.312053
vn -0.285678 0.906097 0.312053
vn -0.285678 0.906097 0.312053
vn -0.285678 0.906097 0.312053
vn -1.000000 -0.000000 -0.000000
vn -1.000000 -0.000000 -0.000000
vn -1.000000 -0.000000 -0.000000
vn -1.000000 -0.000000 -0.000000
vn 0.845148 -0.117844 0.521380
vn 0.845148 -0.117844 0.521380
vn 0.845148 -0.117844 0.521380
vn 0.845148 -0.117844 0.521380
vn 0.297616 -0.940587 0.163464
vn 0.297616 -0.940587 0.163464
vn 0.297616 -0.940587 0.163464
vn 0.297616 -0.940587 0.163464
vn 0.297617 -0.940587 -0.163464
vn 0.297617 -0.940587 -0.163464
vn 0.297617 -0.940587 -0.163464
vn 0.297617 -0.940587 -0.163464
vn 0.845149 0.117844 -0.521380
vn 0.845149 0.117844 -0.521380
vn 0.845149 0.117844 -0.521380
vn 0.845149 0.117844 -0.521380
vn 0.285677 0.906097 -0.312053
vn 0.285677 0.906097 -0.312053
vn 0.285677 0.906097 -0.312053
vn 0.285677 0.906097 -0.312053
vn -0.285677 0.906097 -0.312053
vn -0.285677 0.906097 -0.312053
vn -0.285677 0.906097 -0.312053
vn -0.285677 0.906097 -0.312053
vn -0.120842 -0.383123 -0.915759
vn -0.120842 -0.383123 -0.915759
vn -0.120842 -0.383123 -0.915759
vn -0.120842 -0.383123 -0.915759
vn 0.192906 0.935170 -0.297058
vn 0.192906 0.935170 -0.297058
vn 0.192906 0.935170 -0.297058
vn 0.192906 0.935170 -0.297058
vn -0.192906 0.935170 0.297058
vn -0.192906 0.935170 0.297058
vn -0.192906 0.935170 0.297058
vn -0.192906 0.935170 0.297058
vn -0.120842 -0.383123 0.915759
vn -0.120842 -0.383123 0.915759
vn -0.120842 -0.383123 0.915759
vn -0.120842 -0.383123 0.915759
vn 1.000000 0.000000 -0.000000
vn 1.000000 0.000000 -0.000000
vn 1.000000 0.000000 -0.000000
vn 1.000000 0.000000 -0.000000
vn -0.724529 0.615499 0.310190
vn -0.724529 0.615499 0.310190
vn -0.724529 0.615499 0.310190
vn -0.724529 0.615499 0.310190
vn -0.717474 -0.449140 -0.532452
vn -0.717474 -0.449140 -0.532452
vn -0.717474 -0.449140 -0.532452
vn -0.717474 -0.449140 -0.532452
vn -0.755823 -0.636752 0.152576
vn -0.755823 -0.636752 0.152576
vn -0.755823 -0.636752 0.152576
vn -0.755823 -0.636752 0.152576
vn -0.755823 -0.636752 -0.152576
vn -0.755823 -0.636752 -0.152576
vn -0.755823 -0.636752 -0.152576
vn -0.755823 -0.636752 -0.152576
vn -0.717474 0.449140 -0.532452
vn -0.717474 0.449140 -0.532452
vn -0.717474 0.449140 -0.532452
vn -0.717474 0.449140 -0.532452
vn 0.724529 0.615500 -0.310189
vn 0.724529 0.615500 -0.310189
vn 0.724529 0.615500 -0.310189
vn 0.724529 0.615500 -0.310189
vn 0.000000 0.220462 0.975396
vn 0.000000 0.220462 0.975396
vn 0.000000 0.220462 0.975396
vn 0.000000 0.220462 0.975396
vn 0.000000 0.220462 0.975396
vn 0.000000 0.220462 0.975396
vn 0.000000 0.220462 0.975396
vn 0.000000 0.220462 0.975396
usemtl headphones_Material
f 1/1/1 2/2/2 3/3/3
f 2/2/2 4/4/4 3/3/3
f 5/5/5 6/6/6 7/7/7
f 8/8/8 9/9/9 10/10/10
f 8/8/8 3/3/3 11/11/11
f 12/12/12 13/13/13 14/14/14
f 15/15/15 16/16/16 12/12/12
f 17/17/17 18/18/18 19/19/19
f 20/20/20 21/21/21 22/22/22
f 22/22/22 23/23/23 20/20/20
f 24/24/24 25/25/25 26/26/26
f 27/27/27 28/28/28 29/29/29
f 27/27/27 30/30/30 28/28/28
f 28/28/28 31/31/31 29/29/29
f 29/29/29 32/32/32 33/33/33
f 34/34/34 35/35/35 36/36/36
f 37/37/37 38/38/38 39/39/39
f 40/40/40 41/41/41 42/42/42
f 43/43/43 44/44/44 45/45/45
f 44/44/44 46/46/46 45/45/45
f 47/47/47 48/48/48 49/49/49
f 50/50/50 51/51/51 52/52/52
f 53/53/53 54/54/54 55/55/55
f 56/56/56 57/57/57 58/58/58
f 59/59/59 60/60/60 61/61/61
f 62/62/62 63/63/63 64/64/64
f 65/65/65 66/66/66 67/67/67
f 68/68/68 69/69/69 70/70/70
f 71/71/71 72/72/72 73/73/73
f 74/74/74 75/75/75 76/76/76
f 77/77/77 78/78/78 79/79/79
f 80/80/80 81/81/81 82/82/82
f 83/83/83 84/84/84 85/85/85
f 86/86/86 87/87/87 88/88/88
f 89/89/89 90/90/90 91/91/91
f 92/92/92 93/93/93 94/94/94
f 95/95/95 96/96/96 97/97/97
f 98/98/98 99/99/99 100/100/100
f 101/101/101 102/102/102 103/103/103
f 104/104/104 105/105/105 106/106/106
f 107/107/107 108/108/108 109/109/109
f 110/110/110 111/111/111 112/112/112
f 113/113/113 114/114/114 115/115/115
f 115/115/115 114/114/114 116/116/116
f 117/117/117 118/118/118 119/119/119
f 118/118/118 117/117/117 120/120/120
f 121/121/121 122/122/122 123/123/123
f 122/122/122 124/124/124 123/123/123
f 125/125/125 126/126/126 127/127/127
f 125/125/125 127/127/127 128/128/128
f 129/129/129 130/130/130 131/131/131
f 131/131/131 130/130/130 132/132/132
f 133/133/133 134/134/134 135/135/135
f 134/134/134 136/136/136 135/135/135
f 137/137/137 138/138/138 139/139/139
f 137/137/137 139/139/139 140/140/140
f 141/141/141 142/142/142 143/143/143
f 142/142/142 141/141/141 144/144/144
f 145/145/145 146/146/146 147/147/147
f 146/146/146 145/145/145 148/148/148
f 149/149/149 150/150/150 151/151/151
f 151/151/151 152/152/152 149/149/149
f 153/153/153 154/154/154 155/155/155
f 154/154/154 153/153/153 156/156/156
f 157/157/157 158/158/158 159/159/159
f 158/158/158 157/157/157 160/160/160
f 161/161/161 162/162/162 163/163/163
f 163/163/163 162/162/162 164/164/164
f 165/165/165 166/166/166 167/167/167
f 167/167/167 166/166/166 168/168/168
f 169/169/169 170/170/170 171/171/171
f 171/171/171 170/170/170 172/172/172
f 173/173/173 174/174/174 175/175/175
f 176/176/176 175/175/175 174/174/174
f 177/177/177 178/178/178 179/179/179
f 180/180/180 178/178/178 177/177/177
f 181/181/181 182/182/182 183/183/183
f 183/183/183 184/184/184 181/181/181
f 185/185/185 186/186/186 187/187/187
f 187/187/187 188/188/188 185/185/185
f 189/189/189 190/190/190 191/191/191
f 191/191/191 192/192/192 189/189/189
f 193/193/193 194/194/194 195/195/195
f 194/194/194 193/193/193 196/196/196
f 197/197/197 198/198/198 199/199/199
f 198/198/198 197/197/197 200/200/200
f 201/201/201 202/202/202 203/203/203
f 203/203/203 202/202/202 204/204/204
f 205/205/205 206/206/206 207/207/207
f 206/206/206 208/208/208 207/207/207
f 209/209/209 210/210/210 211/211/211
f 211/211/211 210/210/210 212/212/212
f 213/213/213 214/214/214 215/215/215
f 216/216/216 215/215/215 214/214/214
f 217/217/217 218/218/218 219/219/219
f 219/219/219 220/220/220 217/217/217
f 221/221/221 222/222/222 223/223/223
f 222/222/222 221/221/221 224/224/224
f 225/225/225 226/226/226 227/227/227
f 226/226/226 225/225/225 228/228/228
f 229/229/229 230/230/230 231/231/231
f 231/231/231 232/232/232 229/229/229
f 233/233/233 234/234/234 235/235/235
f 235/235/235 236/236/236 233/233/233
f 237/237/237 238/238/238 239/239/239
f 239/239/239 238/238/238 240/240/240
f 241/241/241 242/242/242 243/243/243
f 242/242/242 241/241/241 244/244/244
f 245/245/245 246/246/246 247/247/247
f 246/246/246 248/248/248 247/247/247
f 249/249/249 250/250/250 251/251/251
f 250/250/250 249/249/249 252/252/252
f 253/253/253 254/254/254 255/255/255
f 255/255/255 254/254/254 256/256/256
f 257/257/257 258/258/258 259/259/259
f 258/258/258 257/257/257 260/260/260
f 261/261/261 262/262/262 263/263/263
f 262/262/262 264/264/264 263/263/263
f 265/265/265 266/266/266 267/267/267
f 266/266/266 265/265/265 268/268/268
f 269/269/269 270/270/270 271/271/271
f 270/270/270 269/269/269 272/272/272
f 273/273/273 274/274/274 275/275/275
f 274/274/274 273/273/273 276/276/276
f 277/277/277 278/278/278 279/279/279
f 278/278/278 277/277/277 280/280/280
f 281/281/281 282/282/282 283/283/283
f 281/281/281 283/283/283 284/284/284
f 285/285/285 286/286/286 287/287/287
f 287/287/287 286/286/286 288/288/288
f 289/289/289 290/290/290 291/291/291
f 292/292/292 290/290/290 289/289/289
f 293/293/293 294/294/294 295/295/295
f 294/294/294 293/293/293 296/296/296
f 297/297/297 298/298/298 299/299/299
f 297/297/297 299/299/299 300/300/300
f 301/301/301 302/302/302 303/303/303
f 302/302/302 304/304/304 303/303/303
f 305/305/305 306/306/306 307/307/307
f 307/307/307 306/306/306 308/308/308
f 309/309/309 310/310/310 311/311/311
f 309/309/309 312/312/312 310/310/310
f 313/313/313 314/314/314 315/315/315
f 315/315/315 316/316/316 313/313/313
f 317/317/317 318/318/318 319/319/319
f 320/320/320 319/319/319 318/318/318
f 321/321/321 322/322/322 323/323/323
f 323/323/323 324/324/324 321/321/321
f 325/325/325 326/326/326 327/327/327
f 326/326/326 325/325/325 328/328/328
f 329/329/329 330/330/330 331/331/331
f 331/331/331 332/332/332 329/329/329
f 333/333/333 334/334/334 335/335/335
f 336/336/336 335/335/335 334/334/334
f 337/337/337 338/338/338 339/339/339
f 338/338/338 337/337/337 340/340/340
f 341/341/341 342/342/342 343/343/343
f 342/342/342 341/341/341 344/344/344
f 345/345/345 346/346/346 347/347/347
f 346/346/346 345/345/345 348/348/348
f 349/349/349 350/350/350 351/351/351
f 350/350/350 352/352/352 351/351/351
f 353/353/353 354/354/354 355/355/355
f 356/356/356 355/355/355 354/354/354
f 357/357/357 358/358/358 359/359/359
f 359/359/359 358/358/358 360/360/360
f 361/361/361 362/362/362 363/363/363
f 363/363/363 362/362/362 364/364/364
f 365/365/365 366/366/366 367/367/367
f 366/366/366 365/365/365 368/368/368
f 369/369/369 370/370/370 371/371/371
f 370/370/370 369/369/369 372/372/372
f 373/373/373 374/374/374 375/375/375
f 374/374/374 376/376/376 375/375/375
f 377/377/377 378/378/378 379/379/379
f 378/378/378 377/377/377 380/380/380
f 381/381/381 382/382/382 383/383/383
f 382/382/382 384/384/384 383/383/383
f 385/385/385 386/386/386 387/387/387
f 386/386/386 385/385/385 388/388/388
f 389/389/389 390/390/390 391/391/391
f 390/390/390 389/389/389 392/392/392
f 393/393/393 394/394/394 395/395/395
f 394/394/394 393/393/393 396/396/396
f 397/397/397 398/398/398 399/399/399
f 397/397/397 399/399/399 400/400/400
f 401/401/401 402/402/402 403/403/403
f 402/402/402 401/401/401 404/404/404
f 405/405/405 406/406/406 407/407/407
f 406/406/406 405/405/405 408/408/408
f 409/409/409 410/410/410 411/411/411
f 410/410/410 409/409/409 412/412/412
f 413/413/413 414/414/414 415/415/415
f 415/415/415 416/416/416 413/413/413
f 417/417/417 418/418/418 419/419/419
f 419/419/419 420/420/420 417/417/417
f 421/421/421 422/422/422 423/423/423
f 423/423/423 422/422/422 424/424/424
f 425/425/425 426/426/426 427/427/427
f 426/426/426 425/425/425 428/428/428
f 429/429/429 430/430/430 431/431/431
f 430/430/430 429/429/429 432/432/432
f 433/433/433 434/434/434 435/435/435
f 435/435/435 436/436/436 433/433/433
f 437/437/437 438/438/438 439/439/439
f 440/440/440 439/439/439 438/438/438
f 441/441/441 442/442/442 443/443/443
f 444/444/444 443/443/443 442/442/442
f 445/445/445 446/446/446 447/447/447
f 446/446/446 448/448/448 447/447/447
f 449/449/449 450/450/450 451/451/451
f 450/450/450 449/449/449 452/452/452
f 453/453/453 454/454/454 455/455/455
f 455/455/455 454/454/454 456/456/456
f 457/457/457 458/458/458 459/459/459
f 460/460/460 459/459/459 458/458/458
f 461/461/461 462/462/462 463/463/463
f 462/462/462 461/461/461 464/464/464
f 465/465/465 466/466/466 467/467/467
f 466/466/466 465/465/465 468/468/468
f 469/469/469 470/470/470 471/471/471
f 470/470/470 469/469/469 472/472/472
f 473/473/473 474/474/474 475/475/475
f 474/474/474 473/473/473 476/476/476
f 477/477/477 478/478/478 479/479/479
f 477/477/477 479/479/479 480/480/480
f 481/481/481 482/482/482 483/483/483
f 482/482/482 481/481/481 484/484/484
f 485/485/485 486/486/486 487/487/487
f 488/488/488 487/487/487 486/486/486
f 489/489/489 490/490/490 491/491/491
f 490/490/490 489/489/489 492/492/492
f 493/493/493 494/494/494 495/495/495
f 496/496/496 495/495/495 494/494/494
f 497/497/497 498/498/498 499/499/499
f 498/498/498 500/500/500 499/499/499
f 501/501/501 502/502/502 503/503/503
f 502/502/502 501/501/501 504/504/504
f 505/505/505 506/506/506 507/507/507
f 506/506/506 505/505/505 508/508/508
f 509/509/509 510/510/510 511/511/511
f 512/512/512 510/510/510 509/509/509
f 513/513/513 514/514/514 515/515/515
f 516/516/516 515/515/515 514/514/514
f 517/517/517 518/518/518 519/519/519
f 519/519/519 520/520/520 517/517/517
f 521/521/521 522/522/522 523/523/523
f 523/523/523 522/522/522 524/524/524
f 525/525/525 526/526/526 527/527/527
f 526/526/526 525/525/525 528/528/528
f 529/529/529 530/530/530 531/531/531
f 530/530/530 529/529/529 532/532/532
f 533/533/533 534/534/534 535/535/535
f 534/534/534 533/533/533 536/536/536
f 537/537/537 538/538/538 539/539/539
f 538/538/538 537/537/537 540/540/540
f 541/541/541 542/542/542 543/543/543
f 542/542/542 541/541/541 544/544/544
f 545/545/545 546/546/546 547/547/547
f 547/547/547 548/548/548 545/545/545
f 549/549/549 550/550/550 551/551/551
f 551/551/551 550/550/550 552/552/552
f 553/553/553 554/554/554 555/555/555
f 555/555/555 554/554/554 556/556/556
f 557/557/557 558/558/558 559/559/559
f 557/557/557 559/559/559 560/560/560
f 561/561/561 562/562/562 563/563/563
f 564/564/564 563/563/563 562/562/562
f 565/565/565 566/566/566 567/567/567
f 567/567/567 568/568/568 565/565/565
f 569/569/569 570/570/570 571/571/571
f 569/569/569 572/572/572 570/570/570
f 573/573/573 574/574/574 575/575/575
f 576/576/576 575/575/575 574/574/574
f 577/577/577 578/578/578 579/579/579
f 578/578/578 577/577/577 580/580/580
f 581/581/581 582/582/582 583/583/583
f 583/583/583 584/584/584 581/581/581
f 585/585/585 586/586/586 587/587/587
f 586/586/586 585/585/585 588/588/588
f 589/589/589 590/590/590 591/591/591
f 590/590/590 592/592/592 591/591/591
f 593/593/593 594/594/594 595/595/595
f 595/595/595 594/594/594 596/596/596
f 597/597/597 598/598/598 599/599/599
f 599/599/599 598/598/598 600/600/600
f 601/601/601 602/602/602 603/603/603
f 603/603/603 602/602/602 604/604/604
f 605/605/605 606/606/606 607/607/607
f 606/606/606 605/605/605 608/608/608
f 609/609/609 610/610/610 611/611/611
f 610/610/610 612/612/612 611/611/611
f 613/613/613 614/614/614 615/615/615
f 613/613/613 615/615/615 616/616/616
f 617/617/617 618/618/618 619/619/619
f 619/619/619 618/618/618 620/620/620
f 621/621/621 622/622/622 623/623/623
f 621/621/621 624/624/624 622/622/622
f 625/625/625 626/626/626 627/627/627
f 626/626/626 628/628/628 627/627/627
f 629/629/629 630/630/630 631/631/631
f 632/632/632 631/631/631 630/630/630
f 633/633/633 634/634/634 635/635/635
f 636/636/636 635/635/635 634/634/634
f 637/637/637 638/638/638 639/639/639
f 638/638/638 637/637/637 640/640/640
f 641/641/641 642/642/642 643/643/643
f 641/641/641 643/643/643 644/644/644
f 645/645/645 646/646/646 647/647/647
f 647/647/647 648/648/648 645/645/645
f 649/649/649 650/650/650 651/651/651
f 650/650/650 649/649/649 652/652/652
f 653/653/653 654/654/654 655/655/655
f 654/654/654 653/653/653 656/656/656
f 657/657/657 658/658/658 659/659/659
f 658/658/658 657/657/657 660/660/660
f 661/661/661 662/662/662 663/663/663
f 663/663/663 662/662/662 664/664/664
f 665/665/665 666/666/666 667/667/667
f 666/666/666 668/668/668 667/667/667
f 669/669/669 670/670/670 671/671/671
f 670/670/670 669/669/669 672/672/672
f 673/673/673 674/674/674 675/675/675
f 674/674/674 673/673/673 676/676/676
f 677/677/677 678/678/678 679/679/679
f 678/678/678 677/677/677 680/680/680
f 681/681/681 682/682/682 683/683/683
f 683/683/683 684/684/684 681/681/681
f 685/685/685 686/686/686 687/687/687
f 687/687/687 688/688/688 685/685/685
f 689/689/689 690/690/690 691/691/691
f 690/690/690 689/689/689 692/692/692
f 693/693/693 694/694/694 695/695/695
f 696/696/696 695/695/695 694/694/694
f 697/697/697 698/698/698 699/699/699
f 700/700/700 698/698/698 697/697/697
f 701/701/701 702/702/702 703/703/703
f 702/702/702 701/701/701 704/704/704
f 705/705/705 706/706/706 707/707/707
f 708/708/708 707/707/707 706/706/706
f 709/709/709 710/710/710 711/711/711
f 710/710/710 709/709/709 712/712/712
f 713/713/713 714/714/714 715/715/715
f 714/714/714 716/716/716 715/715/715
f 717/717/717 718/718/718 719/719/719
f 718/718/718 717/717/717 720/720/720
f 721/721/721 722/722/722 723/723/723
f 723/723/723 722/722/722 724/724/724
f 725/725/725 726/726/726 727/727/727
f 726/726/726 728/728/728 727/727/727
f 729/729/729 730/730/730 731/731/731
f 731/731/731 730/730/730 732/732/732
f 733/733/733 734/734/734 735/735/735
f 733/733/733 735/735/735 736/736/736
f 737/737/737 738/738/738 739/739/739
f 738/738/738 737/737/737 740/740/740
f 741/741/741 742/742/742 743/743/743
f 743/743/743 742/742/742 744/744/744
f 745/745/745 746/746/746 747/747/747
f 747/747/747 746/746/746 748/748/748
f 749/749/749 750/750/750 751/751/751
f 750/750/750 749/749/749 752/752/752
f 753/753/753 754/754/754 755/755/755
f 755/755/755 754/754/754 756/756/756
f 757/757/757 758/758/758 759/759/759
f 760/760/760 759/759/759 758/758/758
f 761/761/761 762/762/762 763/763/763
f 762/762/762 761/761/761 764/764/764
f 765/765/765 766/766/766 767/767/767
f 767/767/767 768/768/768 765/765/765
f 769/769/769 770/770/770 771/771/771
f 771/771/771 772/772/772 769/769/769
f 773/773/773 774/774/774 775/775/775
f 775/775/775 774/774/774 776/776/776
f 777/777/777 778/778/778 779/779/779
f 778/778/778 777/777/777 780/780/780
f 781/781/781 782/782/782 783/783/783
f 783/783/783 784/784/784 781/781/781
f 785/785/785 786/786/786 787/787/787
f 788/788/788 787/787/787 786/786/786
f 789/789/789 790/790/790 791/791/791
f 790/790/790 789/789/789 792/792/792
f 793/793/793 794/794/794 795/795/795
f 794/794/794 793/793/793 796/796/796
f 797/797/797 798/798/798 799/799/799
f 799/799/799 798/798/798 800/800/800
f 801/801/801 802/802/802 803/803/803
f 804/804/804 803/803/803 802/802/802
f 805/805/805 806/806/806 807/807/807
f 806/806/806 805/805/805 808/808/808
f 809/809/809 810/810/810 811/811/811
f 810/810/810 812/812/812 811/811/811
f 813/813/813 814/814/814 815/815/815
f 813/813/813 815/815/815 816/816/816
f 817/817/817 818/818/818 819/819/819
f 817/817/817 819/819/819 820/820/820
f 821/821/821 822/822/822 823/823/823
f 821/821/821 823/823/823 824/824/824
f 825/825/825 826/826/826 827/827/827
f 827/827/827 826/826/826 828/828/828
f 829/829/829 830/830/830 831/831/831
f 830/830/830 829/829/829 832/832/832
f 833/833/833 834/834/834 835/835/835
f 835/835/835 836/836/836 833/833/833
f 837/837/837 838/838/838 839/839/839
f 839/839/839 838/838/838 840/840/840
f 841/841/841 842/842/842 843/843/843
f 842/842/842 841/841/841 844/844/844
f 845/845/845 846/846/846 847/847/847
f 845/845/845 847/847/847 848/848/848
f 849/849/849 850/850/850 851/851/851
f 850/850/850 852/852/852 851/851/851
f 853/853/853 854/854/854 855/855/855
f 853/853/853 856/856/856 854/854/854
f 857/857/857 858/858/858 859/859/859
f 859/859/859 860/860/860 857/857/857
f 861/861/861 862/862/862 863/863/863
f 863/863/863 862/862/862 864/864/864
f 865/865/865 866/866/866 867/867/867
f 865/865/865 867/867/867 868/868/868
f 869/869/869 870/870/870 871/871/871
f 870/870/870 869/869/869 872/872/872
f 873/873/873 874/874/874 875/875/875
f 874/874/874 873/873/873 876/876/876
f 877/877/877 878/878/878 879/879/879
f 878/878/878 877/877/877 880/880/880
f 881/881/881 882/882/882 883/883/883
f 882/882/882 881/881/881 884/884/884
f 885/885/885 886/886/886 887/887/887
f 885/885/885 888/888/888 886/886/886
f 889/889/889 890/890/890 891/891/891
f 890/890/890 889/889/889 892/892/892
f 893/893/893 894/894/894 895/895/895
f 894/894/894 896/896/896 895/895/895
f 897/897/897 898/898/898 899/899/899
f 898/898/898 897/897/897 900/900/900
f 901/901/901 902/902/902 903/903/903
f 902/902/902 901/901/901 904/904/904
f 905/905/905 906/906/906 907/907/907
f 906/906/906 905/905/905 908/908/908
f 909/909/909 910/910/910 911/911/911
f 910/910/910 909/909/909 912/912/912
f 913/913/913 914/914/914 915/915/915
f 914/914/914 913/913/913 916/916/916
f 917/917/917 918/918/918 919/919/919
f 918/918/918 917/917/917 920/920/920
f 921/921/921 922/922/922 923/923/923
f 923/923/923 922/922/922 924/924/924
f 925/925/925 926/926/926 927/927/927
f 926/926/926 925/925/925 928/928/928
f 929/929/929 930/930/930 931/931/931
f 930/930/930 929/929/929 932/932/932
f 933/933/933 934/934/934 935/935/935
f 935/935/935 936/936/936 933/933/933
f 937/937/937 938/938/938 939/939/939
f 938/938/938 937/937/937 940/940/940
f 941/941/941 942/942/942 943/943/943
f 942/942/942 941/941/941 944/944/944
f 945/945/945 946/946/946 947/947/947
f 945/945/945 947/947/947 948/948/948
f 949/949/949 950/950/950 951/951/951
f 949/949/949 951/951/951 952/952/952
f 953/953/953 954/954/954 955/955/955
f 956/956/956 955/955/955 954/954/954
f 957/957/957 958/958/958 959/959/959
f 960/960/960 959/959/959 958/958/958
f 961/961/961 962/962/962 963/963/963
f 962/962/962 961/961/961 964/964/964
f 965/965/965 966/966/966 967/967/967
f 966/966/966 965/965/965 968/968/968
f 969/969/969 970/970/970 971/971/971
f 971/971/971 970/970/970 972/972/972
