mtllib laptop.mtl
o laptop
v 0.000000 0.000000 0.008800
v 0.000000 0.000000 0.170095
v -0.264000 0.000000 0.170095
v -0.008800 0.000000 0.000000
v -0.255200 0.000000 0.000000
v -0.264000 0.000000 0.008800
v 0.000000 0.000000 0.008800
v -0.008800 0.000000 0.000000
v -0.008800 0.013200 0.000000
v 0.000000 0.013200 0.008800
v -0.255200 0.000000 0.000000
v -0.264000 0.000000 0.008800
v -0.264000 0.013200 0.008800
v -0.255200 0.013200 0.000000
v -0.008800 0.000000 0.000000
v -0.255200 0.000000 0.000000
v -0.255200 0.013200 0.000000
v -0.008800 0.013200 0.000000
v 0.000000 0.148386 0.236472
v 0.000000 0.153776 0.224422
v -0.008800 0.161809 0.228016
v -0.008800 0.156419 0.240065
v -0.246265 0.029389 0.168781
v 0.000000 0.013200 0.161539
v -0.264000 0.013200 0.161539
v -0.264000 0.153776 0.224422
v -0.246265 0.145620 0.220774
v -0.017735 0.145620 0.220774
v -0.017735 0.029389 0.168781
v 0.000000 0.153776 0.224422
v -0.255200 0.161809 0.228016
v -0.008800 0.161809 0.228016
v 0.000000 0.000000 0.008800
v 0.000000 0.013200 0.008800
v 0.000000 0.013200 0.161539
v 0.000000 0.000000 0.170095
v 0.000000 0.153776 0.224422
v 0.000000 0.148386 0.236472
v -0.255200 0.161809 0.228016
v -0.264000 0.153776 0.224422
v -0.264000 0.148386 0.236472
v -0.255200 0.156419 0.240065
v -0.008800 0.156419 0.240065
v -0.008800 0.161809 0.228016
v -0.255200 0.161809 0.228016
v -0.255200 0.156419 0.240065
v -0.264000 0.000000 0.170095
v 0.000000 0.000000 0.170095
v 0.000000 0.148386 0.236472
v -0.264000 0.148386 0.236472
v -0.008800 0.156419 0.240065
v -0.255200 0.156419 0.240065
v -0.079888 0.013200 0.018991
v -0.025660 0.013200 0.068258
v -0.008800 0.013200 0.000000
v -0.255200 0.013200 0.000000
v -0.128287 0.013200 0.018991
v -0.128287 0.013200 0.045459
v -0.177401 0.013200 0.068258
v -0.190399 0.013200 0.068258
v -0.177401 0.013200 0.138346
v -0.242311 0.013200 0.068258
v -0.242311 0.013200 0.138346
v -0.025660 0.013200 0.138346
v 0.000000 0.013200 0.161539
v 0.000000 0.013200 0.008800
v -0.264000 0.013200 0.161539
v -0.190399 0.013200 0.138346
v -0.264000 0.013200 0.008800
v -0.079888 0.013200 0.045459
v -0.264000 0.013200 0.008800
v -0.264000 0.000000 0.008800
v -0.264000 0.000000 0.170095
v -0.264000 0.013200 0.161539
v -0.264000 0.153776 0.224422
v -0.264000 0.148386 0.236472
vt 0.000000 0.787402
vt 0.000000 15.219700
vt -23.622049 15.219700
vt -0.787402 0.000000
vt -22.834650 0.000000
vt -23.622049 0.787402
vt -0.556777 0.000000
vt 0.556777 0.000000
vt 0.556777 1.181102
vt -0.556777 1.181102
vt 16.146530 0.000000
vt 17.260090 0.000000
vt 17.260090 1.181102
vt 16.146530 1.181102
vt 0.787402 0.000000
vt 22.834650 0.000000
vt 22.834650 1.181102
vt 0.787402 1.181102
vt -19.588770 4.978031
vt -18.590630 5.609465
vt -19.185949 6.550525
vt -20.184090 5.919090
vt 22.035170 8.567098
vt 0.000000 6.980219
vt 23.622049 6.980219
vt 23.622049 20.759750
vt 22.035170 19.960270
vt 1.586879 19.960270
vt 1.586879 8.567098
vt 0.000000 20.759750
vt 22.834650 21.547150
vt 0.787402 21.547150
vt -0.787402 0.000000
vt -0.787402 1.181102
vt -14.454150 1.181102
vt -15.219700 0.000000
vt -20.080750 13.759530
vt -21.158899 13.277250
vt 10.256110 -7.565374
vt 9.660790 -8.506433
vt 10.658930 -9.137869
vt 11.254260 -8.196809
vt -0.787402 -13.893060
vt -0.787402 -12.711960
vt -22.834650 -12.711960
vt -22.834650 -13.893060
vt -23.622049 6.214667
vt 0.000000 6.214667
vt 0.000000 20.759750
vt -23.622049 20.759750
vt -0.787402 21.547150
vt -22.834650 21.547150
vt 7.148133 1.699285
vt 2.296001 6.107560
vt 0.787402 0.000000
vt 22.834650 0.000000
vt 11.478840 1.699285
vt 11.478840 4.067518
vt 15.873400 6.107560
vt 17.036400 6.107560
vt 15.873400 12.378870
vt 21.681370 6.107560
vt 21.681370 12.378870
vt 2.296001 12.378870
vt 0.000000 14.454150
vt 0.000000 0.787402
vt 23.622049 14.454150
vt 17.036400 12.378870
vt 23.622049 0.787402
vt 7.148133 4.067518
vt 0.787402 1.181102
vt 0.787402 0.000000
vt 15.219700 0.000000
vt 14.454150 1.181102
vt 20.080750 13.759530
vt 21.158899 13.277250
vn 0.000000 -1.000000 0.000000
vn 0.000000 -1.000000 0.000000
vn 0.000000 -1.000000 0.000000
vn 0.000000 -1.000000 0.000000
vn 0.000000 -1.000000 0.000000
vn 0.000000 -1.000000 0.000000
vn 0.707107 0.000000 -0.707107
vn 0.707107 0.000000 -0.707107
vn 0.707107 0.000000 -0.707107
vn 0.707107 0.000000 -0.707107
vn -0.707107 0.000000 -0.707107
vn -0.707107 0.000000 -0.707107
vn -0.707107 0.000000 -0.707107
vn -0.707107 0.000000 -0.707107
vn 0.000000 0.000000 -1.000000
vn 0.000000 0.000000 -1.000000
vn 0.000000 0.000000 -1.000000
vn 0.000000 0.000000 -1.000000
vn 0.707107 0.645471 0.288733
vn 0.707107 0.645471 0.288733
vn 0.707107 0.645471 0.288733
vn 0.707107 0.645471 0.288733
vn 0.000000 0.408330 -0.912834
vn 0.000000 0.408330 -0.912834
vn 0.000000 0.408330 -0.912834
vn 0.000000 0.408330 -0.912834
vn 0.000000 0.408330 -0.912834
vn 0.000000 0.408330 -0.912834
vn 0.000000 0.408330 -0.912834
vn 0.000000 0.408330 -0.912834
vn 0.000000 0.408330 -0.912834
vn 0.000000 0.408330 -0.912834
vn 1.000000 0.000000 0.000000
vn 1.000000 0.000000 0.000000
vn 1.000000 0.000000 0.000000
vn 1.000000 0.000000 0.000000
vn 1.000000 0.000000 0.000000
vn 1.000000 0.000000 0.000000
vn -0.707107 0.645471 0.288733
vn -0.707107 0.645471 0.288733
vn -0.707107 0.645471 0.288733
vn -0.707107 0.645471 0.288733
vn 0.000000 0.912834 0.408330
vn 0.000000 0.912834 0.408330
vn 0.000000 0.912834 0.408330
vn 0.000000 0.912834 0.408330
vn 0.000000 -0.408330 0.912834
vn 0.000000 -0.408330 0.912834
vn 0.000000 -0.408330 0.912834
vn 0.000000 -0.408330 0.912834
vn 0.000000 -0.408330 0.912834
vn 0.000000 -0.408330 0.912834
vn 0.000000 1.000000 0.000000
vn 0.000000 1.000000 0.000000
vn 0.000000 1.000000 0.000000
vn 0.000000 1.000000 0.000000
vn 0.000000 1.000000 0.000000
vn 0.000000 1.000000 0.000000
vn 0.000000 1.000000 0.000000
vn 0.000000 1.000000 0.000000
vn 0.000000 1.000000 0.000000
vn 0.000000 1.000000 0.000000
vn 0.000000 1.000000 0.000000
vn 0.000000 1.000000 0.000000
vn 0.000000 1.000000 0.000000
vn 0.000000 1.000000 0.000000
vn 0.000000 1.000000 0.000000
vn 0.000000 1.000000 0.000000
vn 0.000000 1.000000 0.000000
vn 0.000000 1.000000 0.000000
vn -1.000000 0.000000 0.000000
vn -1.000000 0.000000 0.000000
vn -1.000000 0.000000 0.000000
vn -1.000000 0.000000 0.000000
vn -1.000000 0.000000 0.000000
vn -1.000000 0.000000 0.000000
usemtl laptop_metalDark
f 1/1/1 2/2/2 3/3/3
f 3/3/3 4/4/4 1/1/1
f 3/3/3 5/5/5 4/4/4
f 3/3/3 6/6/6 5/5/5
f 7/7/7 8/8/8 9/9/9
f 9/9/9 10/10/10 7/7/7
f 11/11/11 12/12/12 13/13/13
f 13/13/13 14/14/14 11/11/11
f 15/15/15 16/16/16 17/17/17
f 17/17/17 18/18/18 15/15/15
f 19/19/19 20/20/20 21/21/21
f 21/21/21 22/22/22 19/19/19
f 23/23/23 24/24/24 25/25/25
f 25/25/25 26/26/26 23/23/23
f 26/26/26 27/27/27 23/23/23
f 26/26/26 28/28/28 27/27/27
f 24/24/24 23/23/23 29/29/29
f 29/29/29 30/30/30 24/24/24
f 29/29/29 28/28/28 30/30/30
f 28/28/28 26/26/26 30/30/30
f 26/26/26 31/31/31 30/30/30
f 31/31/31 32/32/32 30/30/30
f 33/33/33 34/34/34 35/35/35
f 35/35/35 36/36/36 33/33/33
f 35/35/35 37/37/37 36/36/36
f 37/37/37 38/38/38 36/36/36
f 39/39/39 40/40/40 41/41/41
f 41/41/41 42/42/42 39/39/39
f 43/43/43 44/44/44 45/45/45
f 45/45/45 46/46/46 43/43/43
f 47/47/47 48/48/48 49/49/49
f 49/49/49 50/50/50 47/47/47
f 49/49/49 51/51/51 50/50/50
f 51/51/51 52/52/52 50/50/50
f 53/53/53 54/54/54 55/55/55
f 55/55/55 56/56/56 53/53/53
f 56/56/56 57/57/57 53/53/53
f 56/56/56 58/58/58 57/57/57
f 56/56/56 59/59/59 58/58/58
f 56/56/56 60/60/60 59/59/59
f 60/60/60 61/61/61 59/59/59
f 56/56/56 62/62/62 60/60/60
f 56/56/56 63/63/63 62/62/62
f 55/55/55 54/54/54 64/64/64
f 55/55/55 64/64/64 65/65/65
f 65/65/65 66/66/66 55/55/55
f 64/64/64 67/67/67 65/65/65
f 64/64/64 61/61/61 67/67/67
f 63/63/63 56/56/56 67/67/67
f 61/61/61 68/68/68 67/67/67
f 61/61/61 60/60/60 68/68/68
f 68/68/68 63/63/63 67/67/67
f 56/56/56 69/69/69 67/67/67
f 70/70/70 58/58/58 59/59/59
f 70/70/70 59/59/59 54/54/54
f 54/54/54 53/53/53 70/70/70
f 71/71/71 72/72/72 73/73/73
f 73/73/73 74/74/74 71/71/71
f 73/73/73 75/75/75 74/74/74
f 73/73/73 76/76/76 75/75/75
v -0.017735 0.029389 0.168781
v -0.246265 0.029389 0.168781
v -0.246265 0.145620 0.220774
v -0.017735 0.145620 0.220774
vt 1.586879 8.567098
vt 22.035170 8.567098
vt 22.035170 19.960270
vt 1.586879 19.960270
vn 0.000000 0.408330 -0.912834
vn 0.000000 0.408330 -0.912834
vn 0.000000 0.408330 -0.912834
vn 0.000000 0.408330 -0.912834
usemtl laptop_metal
f 77/77/77 78/78/78 79/79/79
f 79/79/79 80/80/80 77/77/77
v -0.079888 0.013200 0.045459
v -0.079888 0.013200 0.018991
v -0.128287 0.013200 0.018991
v -0.128287 0.013200 0.045459
v -0.025660 0.013200 0.138346
v -0.025660 0.013200 0.068258
v -0.177401 0.013200 0.068258
v -0.177401 0.013200 0.138346
v -0.190399 0.013200 0.138346
v -0.190399 0.013200 0.068258
v -0.242311 0.013200 0.068258
v -0.242311 0.013200 0.138346
vt 7.148133 4.067518
vt 7.148133 1.699285
vt 11.478840 1.699285
vt 11.478840 4.067518
vt 2.296001 12.378870
vt 2.296001 6.107560
vt 15.873400 6.107560
vt 15.873400 12.378870
vt 17.036400 12.378870
vt 17.036400 6.107560
vt 21.681370 6.107560
vt 21.681370 12.378870
vn 0.000000 1.000000 0.000000
vn 0.000000 1.000000 0.000000
vn 0.000000 1.000000 0.000000
vn 0.000000 1.000000 0.000000
vn 0.000000 1.000000 0.000000
vn 0.000000 1.000000 0.000000
vn 0.000000 1.000000 0.000000
vn 0.000000 1.000000 0.000000
vn 0.000000 1.000000 0.000000
vn 0.000000 1.000000 0.000000
vn 0.000000 1.000000 0.000000
vn 0.000000 1.000000 0.000000
usemtl laptop_metalMedium
f 81/81/81 82/82/82 83/83/83
f 83/83/83 84/84/84 81/81/81
f 85/85/85 86/86/86 87/87/87
f 87/87/87 88/88/88 85/85/85
f 89/89/89 90/90/90 91/91/91
f 91/91/91 92/92/92 89/89/89
v -0.079888 0.013200 0.045459
v -0.079888 0.013200 0.018991
v -0.128287 0.013200 0.018991
v -0.128287 0.013200 0.045459
v -0.025660 0.013200 0.138346
v -0.025660 0.013200 0.068258
v -0.177401 0.013200 0.068258
v -0.177401 0.013200 0.138346
v -0.190399 0.013200 0.138346
v -0.190399 0.013200 0.068258
v -0.242311 0.013200 0.068258
v -0.242311 0.013200 0.138346
vt 7.148133 4.067518
vt 7.148133 1.699285
vt 11.478840 1.699285
vt 11.478840 4.067518
vt 2.296001 12.378870
vt 2.296001 6.107560
vt 15.873400 6.107560
vt 15.873400 12.378870
vt 17.036400 12.378870
vt 17.036400 6.107560
vt 21.681370 6.107560
vt 21.681370 12.378870
vn 0.000000 1.000000 0.000000
vn 0.000000 1.000000 0.000000
vn 0.000000 1.000000 0.000000
vn 0.000000 1.000000 0.000000
vn 0.000000 1.000000 0.000000
vn 0.000000 1.000000 0.000000
vn 0.000000 1.000000 0.000000
vn 0.000000 1.000000 0.000000
vn 0.000000 1.000000 0.000000
vn 0.000000 1.000000 0.000000
vn 0.000000 1.000000 0.000000
vn 0.000000 1.000000 0.000000
usemtl laptop_metalMedium
f 93/93/93 94/94/94 95/95/95
f 95/95/95 96/96/96 93/93/93
f 97/97/97 98/98/98 99/99/99
f 99/99/99 100/100/100 97/97/97
f 101/101/101 102/102/102 103/103/103
f 103/103/103 104/104/104 101/101/101
v 0.000000 0.000000 0.008800
v 0.000000 0.000000 0.170095
v -0.264000 0.000000 0.170095
v -0.008800 0.000000 0.000000
v -0.255200 0.000000 0.000000
v -0.264000 0.000000 0.008800
v 0.000000 0.000000 0.008800
v -0.008800 0.000000 0.000000
v -0.008800 0.013200 0.000000
v 0.000000 0.013200 0.008800
v -0.255200 0.000000 0.000000
v -0.264000 0.000000 0.008800
v -0.264000 0.013200 0.008800
v -0.255200 0.013200 0.000000
v -0.008800 0.000000 0.000000
v -0.255200 0.000000 0.000000
v -0.255200 0.013200 0.000000
v -0.008800 0.013200 0.000000
v 0.000000 0.148386 0.236472
v 0.000000 0.153776 0.224422
v -0.008800 0.161809 0.228016
v -0.008800 0.156419 0.240065
v -0.246265 0.029389 0.168781
v 0.000000 0.013200 0.161539
v -0.264000 0.013200 0.161539
v -0.264000 0.153776 0.224422
v -0.246265 0.145620 0.220774
v -0.017735 0.145620 0.220774
v -0.017735 0.029389 0.168781
v 0.000000 0.153776 0.224422
v -0.255200 0.161809 0.228016
v -0.008800 0.161809 0.228016
v 0.000000 0.000000 0.008800
v 0.000000 0.013200 0.008800
v 0.000000 0.013200 0.161539
v 0.000000 0.000000 0.170095
v 0.000000 0.153776 0.224422
v 0.000000 0.148386 0.236472
v -0.255200 0.161809 0.228016
v -0.264000 0.153776 0.224422
v -0.264000 0.148386 0.236472
v -0.255200 0.156419 0.240065
v -0.008800 0.156419 0.240065
v -0.008800 0.161809 0.228016
v -0.255200 0.161809 0.228016
v -0.255200 0.156419 0.240065
v -0.264000 0.000000 0.170095
v 0.000000 0.000000 0.170095
v 0.000000 0.148386 0.236472
v -0.264000 0.148386 0.236472
v -0.008800 0.156419 0.240065
v -0.255200 0.156419 0.240065
v -0.079888 0.013200 0.018991
v -0.025660 0.013200 0.068258
v -0.008800 0.013200 0.000000
v -0.255200 0.013200 0.000000
v -0.128287 0.013200 0.018991
v -0.128287 0.013200 0.045459
v -0.177401 0.013200 0.068258
v -0.190399 0.013200 0.068258
v -0.177401 0.013200 0.138346
v -0.242311 0.013200 0.068258
v -0.242311 0.013200 0.138346
v -0.025660 0.013200 0.138346
v 0.000000 0.013200 0.161539
v 0.000000 0.013200 0.008800
v -0.264000 0.013200 0.161539
v -0.190399 0.013200 0.138346
v -0.264000 0.013200 0.008800
v -0.079888 0.013200 0.045459
v -0.264000 0.013200 0.008800
v -0.264000 0.000000 0.008800
v -0.264000 0.000000 0.170095
v -0.264000 0.013200 0.161539
v -0.264000 0.153776 0.224422
v -0.264000 0.148386 0.236472
vt 0.000000 0.787402
vt 0.000000 15.219700
vt -23.622049 15.219700
vt -0.787402 0.000000
vt -22.834650 0.000000
vt -23.622049 0.787402
vt -0.556777 0.000000
vt 0.556777 0.000000
vt 0.556777 1.181102
vt -0.556777 1.181102
vt 16.146530 0.000000
vt 17.260090 0.000000
vt 17.260090 1.181102
vt 16.146530 1.181102
vt 0.787402 0.000000
vt 22.834650 0.000000
vt 22.834650 1.181102
vt 0.787402 1.181102
vt -19.588770 4.978031
vt -18.590630 5.609465
vt -19.185949 6.550525
vt -20.184090 5.919090
vt 22.035170 8.567098
vt 0.000000 6.980219
vt 23.622049 6.980219
vt 23.622049 20.759750
vt 22.035170 19.960270
vt 1.586879 19.960270
vt 1.586879 8.567098
vt 0.000000 20.759750
vt 22.834650 21.547150
vt 0.787402 21.547150
vt -0.787402 0.000000
vt -0.787402 1.181102
vt -14.454150 1.181102
vt -15.219700 0.000000
vt -20.080750 13.759530
vt -21.158899 13.277250
vt 10.256110 -7.565374
vt 9.660790 -8.506433
vt 10.658930 -9.137869
vt 11.254260 -8.196809
vt -0.787402 -13.893060
vt -0.787402 -12.711960
vt -22.834650 -12.711960
vt -22.834650 -13.893060
vt -23.622049 6.214667
vt 0.000000 6.214667
vt 0.000000 20.759750
vt -23.622049 20.759750
vt -0.787402 21.547150
vt -22.834650 21.547150
vt 7.148133 1.699285
vt 2.296001 6.107560
vt 0.787402 0.000000
vt 22.834650 0.000000
vt 11.478840 1.699285
vt 11.478840 4.067518
vt 15.873400 6.107560
vt 17.036400 6.107560
vt 15.873400 12.378870
vt 21.681370 6.107560
vt 21.681370 12.378870
vt 2.296001 12.378870
vt 0.000000 14.454150
vt 0.000000 0.787402
vt 23.622049 14.454150
vt 17.036400 12.378870
vt 23.622049 0.787402
vt 7.148133 4.067518
vt 0.787402 1.181102
vt 0.787402 0.000000
vt 15.219700 0.000000
vt 14.454150 1.181102
vt 20.080750 13.759530
vt 21.158899 13.277250
vn 0.000000 -1.000000 0.000000
vn 0.000000 -1.000000 0.000000
vn 0.000000 -1.000000 0.000000
vn 0.000000 -1.000000 0.000000
vn 0.000000 -1.000000 0.000000
vn 0.000000 -1.000000 0.000000
vn 0.707107 0.000000 -0.707107
vn 0.707107 0.000000 -0.707107
vn 0.707107 0.000000 -0.707107
vn 0.707107 0.000000 -0.707107
vn -0.707107 0.000000 -0.707107
vn -0.707107 0.000000 -0.707107
vn -0.707107 0.000000 -0.707107
vn -0.707107 0.000000 -0.707107
vn 0.000000 0.000000 -1.000000
vn 0.000000 0.000000 -1.000000
vn 0.000000 0.000000 -1.000000
vn 0.000000 0.000000 -1.000000
vn 0.707107 0.645471 0.288733
vn 0.707107 0.645471 0.288733
vn 0.707107 0.645471 0.288733
vn 0.707107 0.645471 0.288733
vn 0.000000 0.408330 -0.912834
vn 0.000000 0.408330 -0.912834
vn 0.000000 0.408330 -0.912834
vn 0.000000 0.408330 -0.912834
vn 0.000000 0.408330 -0.912834
vn 0.000000 0.408330 -0.912834
vn 0.000000 0.408330 -0.912834
vn 0.000000 0.408330 -0.912834
vn 0.000000 0.408330 -0.912834
vn 0.000000 0.408330 -0.912834
vn 1.000000 0.000000 0.000000
vn 1.000000 0.000000 0.000000
vn 1.000000 0.000000 0.000000
vn 1.000000 0.000000 0.000000
vn 1.000000 0.000000 0.000000
vn 1.000000 0.000000 0.000000
vn -0.707107 0.645471 0.288733
vn -0.707107 0.645471 0.288733
vn -0.707107 0.645471 0.288733
vn -0.707107 0.645471 0.288733
vn 0.000000 0.912834 0.408330
vn 0.000000 0.912834 0.408330
vn 0.000000 0.912834 0.408330
vn 0.000000 0.912834 0.408330
vn 0.000000 -0.408330 0.912834
vn 0.000000 -0.408330 0.912834
vn 0.000000 -0.408330 0.912834
vn 0.000000 -0.408330 0.912834
vn 0.000000 -0.408330 0.912834
vn 0.000000 -0.408330 0.912834
vn 0.000000 1.000000 0.000000
vn 0.000000 1.000000 0.000000
vn 0.000000 1.000000 0.000000
vn 0.000000 1.000000 0.000000
vn 0.000000 1.000000 0.000000
vn 0.000000 1.000000 0.000000
vn 0.000000 1.000000 0.000000
vn 0.000000 1.000000 0.000000
vn 0.000000 1.000000 0.000000
vn 0.000000 1.000000 0.000000
vn 0.000000 1.000000 0.000000
vn 0.000000 1.000000 0.000000
vn 0.000000 1.000000 0.000000
vn 0.000000 1.000000 0.000000
vn 0.000000 1.000000 0.000000
vn 0.000000 1.000000 0.000000
vn 0.000000 1.000000 0.000000
vn 0.000000 1.000000 0.000000
vn -1.000000 0.000000 0.000000
vn -1.000000 0.000000 0.000000
vn -1.000000 0.000000 0.000000
vn -1.000000 0.000000 0.000000
vn -1.000000 0.000000 0.000000
vn -1.000000 0.000000 0.000000
usemtl laptop_metalDark
f 105/105/105 106/106/106 107/107/107
f 107/107/107 108/108/108 105/105/105
f 107/107/107 109/109/109 108/108/108
f 107/107/107 110/110/110 109/109/109
f 111/111/111 112/112/112 113/113/113
f 113/113/113 114/114/114 111/111/111
f 115/115/115 116/116/116 117/117/117
f 117/117/117 118/118/118 115/115/115
f 119/119/119 120/120/120 121/121/121
f 121/121/121 122/122/122 119/119/119
f 123/123/123 124/124/124 125/125/125
f 125/125/125 126/126/126 123/123/123
f 127/127/127 128/128/128 129/129/129
f 129/129/129 130/130/130 127/127/127
f 130/130/130 131/131/131 127/127/127
f 130/130/130 132/132/132 131/131/131
f 128/128/128 127/127/127 133/133/133
f 133/133/133 134/134/134 128/128/128
f 133/133/133 132/132/132 134/134/134
f 132/132/132 130/130/130 134/134/134
f 130/130/130 135/135/135 134/134/134
f 135/135/135 136/136/136 134/134/134
f 137/137/137 138/138/138 139/139/139
f 139/139/139 140/140/140 137/137/137
f 139/139/139 141/141/141 140/140/140
f 141/141/141 142/142/142 140/140/140
f 143/143/143 144/144/144 145/145/145
f 145/145/145 146/146/146 143/143/143
f 147/147/147 148/148/148 149/149/149
f 149/149/149 150/150/150 147/147/147
f 151/151/151 152/152/152 153/153/153
f 153/153/153 154/154/154 151/151/151
f 153/153/153 155/155/155 154/154/154
f 155/155/155 156/156/156 154/154/154
f 157/157/157 158/158/158 159/159/159
f 159/159/159 160/160/160 157/157/157
f 160/160/160 161/161/161 157/157/157
f 160/160/160 162/162/162 161/161/161
f 160/160/160 163/163/163 162/162/162
f 160/160/160 164/164/164 163/163/163
f 164/164/164 165/165/165 163/163/163
f 160/160/160 166/166/166 164/164/164
f 160/160/160 167/167/167 166/166/166
f 159/159/159 158/158/158 168/168/168
f 159/159/159 168/168/168 169/169/169
f 169/169/169 170/170/170 159/159/159
f 168/168/168 171/171/171 169/169/169
f 168/168/168 165/165/165 171/171/171
f 167/167/167 160/160/160 171/171/171
f 165/165/165 172/172/172 171/171/171
f 165/165/165 164/164/164 172/172/172
f 172/172/172 167/167/167 171/171/171
f 160/160/160 173/173/173 171/171/171
f 174/174/174 162/162/162 163/163/163
f 174/174/174 163/163/163 158/158/158
f 158/158/158 157/157/157 174/174/174
f 175/175/175 176/176/176 177/177/177
f 177/177/177 178/178/178 175/175/175
f 177/177/177 179/179/179 178/178/178
f 177/177/177 180/180/180 179/179/179
v -0.017735 0.029389 0.168781
v -0.246265 0.029389 0.168781
v -0.246265 0.145620 0.220774
v -0.017735 0.145620 0.220774
vt 1.586879 8.567098
vt 22.035170 8.567098
vt 22.035170 19.960270
vt 1.586879 19.960270
vn 0.000000 0.408330 -0.912834
vn 0.000000 0.408330 -0.912834
vn 0.000000 0.408330 -0.912834
vn 0.000000 0.408330 -0.912834
usemtl laptop_metal
f 181/181/181 182/182/182 183/183/183
f 183/183/183 184/184/184 181/181/181
