mtllib phone.mtl
o phone
v -0.209152 0.405047 0.028838
v -0.209152 -0.383896 0.028838
v -0.192415 0.348621 0.028838
v -0.203971 0.427432 0.028838
v -0.170479 0.453805 0.028838
v -0.189816 0.446739 0.028838
v 0.203971 0.427432 0.028838
v 0.170479 0.453805 0.028838
v 0.209152 0.405047 0.028838
v -0.209152 0.405047 0.028838
v 0.189816 0.446739 0.028838
v 0.209152 -0.383896 0.028838
v 0.209152 0.405047 0.028838
v 0.192415 0.348621 0.028838
v 0.192415 -0.353195 0.028838
v 0.192415 0.348621 0.028838
v -0.209152 0.405047 0.028838
v -0.192415 0.348621 0.028838
v 0.209152 0.405047 0.028838
v 0.203971 0.427432 -0.028838
v 0.170479 0.453805 -0.028838
v 0.189816 0.446739 -0.028838
v -0.170479 0.453805 -0.028838
v -0.203971 0.427432 -0.028838
v -0.189816 0.446739 -0.028838
v -0.209152 0.405047 -0.028838
v 0.209152 0.405047 -0.028838
v -0.209152 -0.383896 -0.028838
v 0.209152 0.405047 -0.028838
v 0.209152 -0.383896 -0.028838
v -0.209152 0.405047 -0.028838
v -0.209152 -0.383896 0.028838
v 0.209152 -0.383896 0.028838
v 0.192415 -0.353195 0.028838
v -0.192415 -0.353195 0.028838
v -0.192415 -0.353195 0.028838
v 0.203971 -0.427432 -0.028838
v 0.170479 -0.452756 -0.028838
v 0.209152 -0.401060 -0.028838
v 0.209152 -0.383896 -0.028838
v -0.209152 -0.401060 -0.028838
v -0.170479 -0.452756 -0.028838
v -0.203971 -0.427432 -0.028838
v -0.189816 -0.446739 -0.028838
v 0.189816 -0.446739 -0.028838
v -0.209152 -0.383896 -0.028838
v -0.203971 -0.427432 0.028838
v -0.170479 -0.452756 0.028838
v -0.209152 -0.401059 0.028838
v -0.209152 -0.383896 0.028838
v -0.189816 -0.446739 0.028838
v 0.209152 -0.401059 0.028838
v 0.170479 -0.452756 0.028838
v 0.203971 -0.427432 0.028838
v 0.189816 -0.446739 0.028838
v 0.209152 -0.383896 0.028838
vn 0.000000 0.000000 1.000000
vn 0.000000 0.000000 1.000000
vn 0.000000 0.000000 1.000000
vn 0.000000 0.000000 1.000000
vn 0.000000 0.000000 1.000000
vn 0.000000 0.000000 1.000000
vn 0.000000 0.000000 1.000000
vn 0.000000 0.000000 1.000000
vn 0.000000 0.000000 1.000000
vn 0.000000 0.000000 1.000000
vn 0.000000 0.000000 1.000000
vn 0.000000 0.000000 1.000000
vn 0.000000 0.000000 1.000000
vn 0.000000 0.000000 1.000000
vn 0.000000 0.000000 1.000000
vn 0.000000 0.000000 1.000000
vn 0.000000 0.000000 1.000000
vn 0.000000 0.000000 1.000000
vn 0.000000 0.000000 1.000000
vn 0.000000 -0.000000 -1.000000
vn 0.000000 -0.000000 -1.000000
vn 0.000000 -0.000000 -1.000000
vn 0.000000 -0.000000 -1.000000
vn 0.000000 -0.000000 -1.000000
vn 0.000000 -0.000000 -1.000000
vn 0.000000 -0.000000 -1.000000
vn 0.000000 -0.000000 -1.000000
vn 0.000000 -0.000000 -1.000000
vn 0.000000 -0.000000 -1.000000
vn 0.000000 -0.000000 -1.000000
vn 0.000000 -0.000000 -1.000000
vn 0.000000 0.000000 1.000000
vn 0.000000 0.000000 1.000000
vn 0.000000 0.000000 1.000000
vn 0.000000 0.000000 1.000000
vn 0.000000 0.000000 1.000000
vn 0.000000 -0.000000 -1.000000
vn 0.000000 -0.000000 -1.000000
vn 0.000000 -0.000000 -1.000000
vn 0.000000 -0.000000 -1.000000
vn 0.000000 -0.000000 -1.000000
vn 0.000000 -0.000000 -1.000000
vn 0.000000 -0.000000 -1.000000
vn 0.000000 -0.000000 -1.000000
vn 0.000000 -0.000000 -1.000000
vn 0.000000 -0.000000 -1.000000
vn 0.000000 0.000000 1.000000
vn 0.000000 0.000000 1.000000
vn 0.000000 0.000000 1.000000
vn 0.000000 0.000000 1.000000
vn 0.000000 0.000000 1.000000
vn 0.000000 0.000000 1.000000
vn 0.000000 0.000000 1.000000
vn 0.000000 0.000000 1.000000
vn 0.000000 0.000000 1.000000
vn 0.000000 0.000000 1.000000
usemtl phone_White
f 1//1 2//2 3//3
f 4//4 5//5 6//6
f 7//7 8//8 9//9
f 5//5 4//4 10//10
f 8//8 7//7 11//11
f 8//8 10//10 9//9
f 10//10 8//8 5//5
f 12//12 13//13 14//14
f 12//12 14//14 15//15
f 16//16 17//17 18//18
f 17//17 16//16 19//19
f 20//20 21//21 22//22
f 23//23 24//24 25//25
f 24//24 23//23 26//26
f 21//21 20//20 27//27
f 26//26 23//23 21//21
f 27//27 26//26 21//21
f 28//28 29//29 30//30
f 29//29 28//28 31//31
f 32//32 33//33 34//34
f 32//32 34//34 35//35
f 3//3 2//2 36//36
f 37//37 38//38 39//39
f 39//39 38//38 40//40
f 41//41 42//42 43//43
f 43//43 42//42 44//44
f 38//38 37//37 45//45
f 38//38 46//46 40//40
f 46//46 42//42 41//41
f 46//46 38//38 42//42
f 47//47 48//48 49//49
f 49//49 48//48 50//50
f 48//48 47//47 51//51
f 52//52 53//53 54//54
f 54//54 53//53 55//55
f 50//50 48//48 53//53
f 56//56 53//53 52//52
f 53//53 56//56 50//50
v -0.034013 -0.452756 0.014038
v -0.170479 -0.452756 0.028838
v -0.034013 -0.452756 -0.014038
v -0.170479 -0.452756 -0.028838
v 0.170479 -0.452756 -0.028838
v 0.034013 -0.452756 0.014038
v 0.034013 -0.452756 -0.014038
v 0.170479 -0.452756 0.028838
v 0.170479 -0.452756 0.028838
v -0.034013 -0.452756 0.014038
v 0.034013 -0.452756 0.014038
v -0.170479 -0.452756 0.028838
v 0.052427 -0.403637 0.031790
v -0.063928 -0.399612 0.023744
v -0.052427 -0.403637 0.031790
v 0.063928 -0.399612 0.023744
v -0.052427 -0.431706 0.031790
v 0.063928 -0.435731 0.023744
v 0.052427 -0.431706 0.031790
v -0.063928 -0.435731 0.023744
v -0.052427 -0.403637 0.031790
v -0.063928 -0.435731 0.023744
v -0.052427 -0.431706 0.031790
v -0.063928 -0.399612 0.023744
v 0.063928 -0.399612 0.023744
v 0.052427 -0.431706 0.031790
v 0.063928 -0.435731 0.023744
v 0.052427 -0.403637 0.031790
v 0.052427 -0.403637 0.031790
v -0.052427 -0.431706 0.031790
v 0.052427 -0.431706 0.031790
v -0.052427 -0.403637 0.031790
v -0.203971 0.427432 0.028838
v -0.209152 0.405047 -0.028838
v -0.209152 0.405047 0.028838
v -0.203971 0.427432 -0.028838
v -0.209152 0.405047 0.028838
v -0.209152 -0.383896 -0.028838
v -0.209152 -0.383896 0.028838
v -0.209152 0.405047 -0.028838
v 0.209152 0.405047 -0.028838
v 0.209152 -0.383896 0.028838
v 0.209152 -0.383896 -0.028838
v 0.209152 0.405047 0.028838
v -0.170479 -0.452756 -0.028838
v 0.034013 -0.452756 -0.014038
v -0.034013 -0.452756 -0.014038
v 0.170479 -0.452756 -0.028838
v 0.189816 0.446739 -0.028838
v 0.203971 0.427432 0.028838
v 0.203971 0.427432 -0.028838
v 0.189816 0.446739 0.028838
v 0.170479 0.453805 -0.028838
v 0.170479 0.453805 0.028838
v 0.189816 0.446739 0.028838
v 0.189816 0.446739 -0.028838
v 0.209152 -0.401060 -0.028838
v 0.209152 -0.401059 0.028838
v 0.203971 -0.427432 0.028838
v 0.203971 -0.427432 -0.028838
v 0.203971 -0.427432 -0.028838
v 0.203971 -0.427432 0.028838
v 0.189816 -0.446739 0.028838
v 0.189816 -0.446739 -0.028838
v 0.170479 -0.452756 0.028838
v 0.170479 -0.452756 -0.028838
v 0.189816 -0.446739 -0.028838
v 0.189816 -0.446739 0.028838
v 0.203971 0.427432 -0.028838
v 0.203971 0.427432 0.028838
v 0.209152 0.405047 0.028838
v 0.209152 0.405047 -0.028838
v -0.189816 0.446739 0.028838
v -0.203971 0.427432 -0.028838
v -0.203971 0.427432 0.028838
v -0.189816 0.446739 -0.028838
v -0.170479 0.453805 0.028838
v -0.189816 0.446739 -0.028838
v -0.189816 0.446739 0.028838
v -0.170479 0.453805 -0.028838
v -0.209152 -0.401059 0.028838
v -0.203971 -0.427432 -0.028838
v -0.203971 -0.427432 0.028838
v -0.209152 -0.401060 -0.028838
v -0.203971 -0.427432 0.028838
v -0.203971 -0.427432 -0.028838
v -0.189816 -0.446739 -0.028838
v -0.189816 -0.446739 0.028838
v -0.170479 -0.452756 -0.028838
v -0.189816 -0.446739 0.028838
v -0.189816 -0.446739 -0.028838
v -0.170479 -0.452756 0.028838
v -0.209152 -0.401059 0.028838
v -0.209152 -0.383896 -0.028838
v -0.209152 -0.401060 -0.028838
v -0.209152 -0.383896 0.028838
v 0.170479 0.453805 -0.028838
v -0.170479 0.453805 0.028838
v 0.170479 0.453805 0.028838
v -0.170479 0.453805 -0.028838
v 0.209152 -0.401059 0.028838
v 0.209152 -0.401060 -0.028838
vn 0.000000 -1.000000 0.000000
vn 0.000000 -1.000000 0.000000
vn 0.000000 -1.000000 0.000000
vn 0.000000 -1.000000 0.000000
vn -0.000000 -1.000000 0.000000
vn -0.000000 -1.000000 0.000000
vn -0.000000 -1.000000 0.000000
vn -0.000000 -1.000000 0.000000
vn 0.000000 -1.000000 0.000000
vn 0.000000 -1.000000 0.000000
vn 0.000000 -1.000000 0.000000
vn 0.000000 -1.000000 0.000000
vn 0.000001 0.894326 0.447416
vn 0.000001 0.894326 0.447416
vn 0.000001 0.894326 0.447416
vn 0.000001 0.894326 0.447416
vn -0.000001 -0.894326 0.447415
vn -0.000001 -0.894326 0.447415
vn -0.000001 -0.894326 0.447415
vn -0.000001 -0.894326 0.447415
vn -0.573224 0.000000 0.819399
vn -0.573224 0.000000 0.819399
vn -0.573224 0.000000 0.819399
vn -0.573224 0.000000 0.819399
vn 0.573224 0.000000 0.819399
vn 0.573224 0.000000 0.819399
vn 0.573224 0.000000 0.819399
vn 0.573224 0.000000 0.819399
vn 0.000000 0.000000 1.000000
vn 0.000000 0.000000 1.000000
vn 0.000000 0.000000 1.000000
vn 0.000000 0.000000 1.000000
vn -0.974245 0.225492 0.000000
vn -0.974245 0.225492 0.000000
vn -0.974245 0.225492 0.000000
vn -0.974245 0.225492 0.000000
vn -1.000000 0.000000 0.000000
vn -1.000000 0.000000 0.000000
vn -1.000000 0.000000 0.000000
vn -1.000000 0.000000 0.000000
vn 1.000000 0.000000 0.000000
vn 1.000000 0.000000 0.000000
vn 1.000000 0.000000 0.000000
vn 1.000000 0.000000 0.000000
vn 0.000000 -1.000000 0.000000
vn 0.000000 -1.000000 0.000000
vn 0.000000 -1.000000 0.000000
vn 0.000000 -1.000000 0.000000
vn 0.806455 0.591295 -0.000000
vn 0.806455 0.591295 -0.000000
vn 0.806455 0.591295 -0.000000
vn 0.806455 0.591295 -0.000000
vn 0.343243 0.939247 -0.000000
vn 0.343243 0.939247 -0.000000
vn 0.343243 0.939247 -0.000000
vn 0.343243 0.939247 -0.000000
vn 0.981243 -0.192776 0.000000
vn 0.981243 -0.192776 0.000000
vn 0.981243 -0.192776 0.000000
vn 0.981243 -0.192776 0.000000
vn 0.806455 -0.591295 0.000000
vn 0.806455 -0.591295 0.000000
vn 0.806455 -0.591295 0.000000
vn 0.806455 -0.591295 0.000000
vn 0.297131 -0.954837 0.000000
vn 0.297131 -0.954837 0.000000
vn 0.297131 -0.954837 0.000000
vn 0.297131 -0.954837 0.000000
vn 0.974245 0.225493 -0.000000
vn 0.974245 0.225493 -0.000000
vn 0.974245 0.225493 -0.000000
vn 0.974245 0.225493 -0.000000
vn -0.806455 0.591295 -0.000000
vn -0.806455 0.591295 -0.000000
vn -0.806455 0.591295 -0.000000
vn -0.806455 0.591295 -0.000000
vn -0.343243 0.939247 -0.000000
vn -0.343243 0.939247 -0.000000
vn -0.343243 0.939247 -0.000000
vn -0.343243 0.939247 -0.000000
vn -0.981243 -0.192776 0.000000
vn -0.981243 -0.192776 0.000000
vn -0.981243 -0.192776 0.000000
vn -0.981243 -0.192776 0.000000
vn -0.806455 -0.591295 0.000000
vn -0.806455 -0.591295 0.000000
vn -0.806455 -0.591295 0.000000
vn -0.806455 -0.591295 0.000000
vn -0.297131 -0.954837 0.000000
vn -0.297131 -0.954837 0.000000
vn -0.297131 -0.954837 0.000000
vn -0.297131 -0.954837 0.000000
vn -1.000000 0.000000 -0.000000
vn -1.000000 0.000000 -0.000000
vn -1.000000 0.000000 -0.000000
vn -1.000000 0.000000 -0.000000
vn 0.000000 1.000000 -0.000000
vn 0.000000 1.000000 -0.000000
vn 0.000000 1.000000 -0.000000
vn 0.000000 1.000000 -0.000000
vn 1.000000 0.000000 0.000000
vn 1.000000 0.000000 0.000000
usemtl phone_Grey
f 57//57 58//58 59//59
f 60//60 59//59 58//58
f 61//61 62//62 63//63
f 62//62 61//61 64//64
f 65//65 66//66 67//67
f 66//66 65//65 68//68
f 69//69 70//70 71//71
f 72//72 70//70 69//69
f 73//73 74//74 75//75
f 76//76 74//74 73//73
f 77//77 78//78 79//79
f 80//80 78//78 77//77
f 81//81 82//82 83//83
f 84//84 82//82 81//81
f 85//85 86//86 87//87
f 85//85 88//88 86//86
f 89//89 90//90 91//91
f 89//89 92//92 90//90
f 93//93 94//94 95//95
f 96//96 94//94 93//93
f 97//97 98//98 99//99
f 100//100 98//98 97//97
f 101//101 102//102 103//103
f 102//102 101//101 104//104
f 105//105 106//106 107//107
f 105//105 108//108 106//106
f 109//109 110//110 111//111
f 111//111 112//112 109//109
f 113//113 114//114 115//115
f 113//113 115//115 116//116
f 117//117 118//118 119//119
f 117//117 119//119 120//120
f 121//121 122//122 123//123
f 123//123 124//124 121//121
f 125//125 126//126 127//127
f 125//125 127//127 128//128
f 129//129 130//130 131//131
f 129//129 132//132 130//130
f 133//133 134//134 135//135
f 134//134 133//133 136//136
f 137//137 138//138 139//139
f 137//137 140//140 138//138
f 141//141 142//142 143//143
f 141//141 143//143 144//144
f 145//145 146//146 147//147
f 146//146 145//145 148//148
f 149//149 150//150 151//151
f 150//150 149//149 152//152
f 153//153 154//154 155//155
f 153//153 156//156 154//154
f 157//157 99//99 98//98
f 99//99 157//157 158//158
v -0.047317 -0.448411 0.007905
v -0.047317 -0.454651 -0.007905
v -0.047317 -0.454651 0.007905
v -0.047317 -0.448411 -0.007905
v -0.047317 -0.448411 -0.007905
v -0.163823 -0.454651 -0.007905
v -0.047317 -0.454651 -0.007905
v -0.163823 -0.448411 -0.007905
v -0.163823 -0.448411 0.007905
v -0.047317 -0.448411 0.007905
v -0.047317 -0.454651 0.007905
v -0.163823 -0.454651 0.007905
v -0.163823 -0.448411 -0.007905
v -0.163823 -0.448411 0.007905
v -0.163823 -0.454651 0.007905
v -0.163823 -0.454651 -0.007905
v -0.047317 -0.448411 -0.007905
v -0.163823 -0.448411 0.007905
v -0.163823 -0.448411 -0.007905
v -0.047317 -0.448411 0.007905
v -0.047317 -0.454651 -0.007905
v -0.163823 -0.454651 0.007905
v -0.047317 -0.454651 0.007905
v -0.163823 -0.454651 -0.007905
v 0.161416 -0.448411 0.007905
v 0.161416 -0.448411 -0.007905
v 0.161416 -0.454651 -0.007905
v 0.161416 -0.454651 0.007905
v 0.161416 -0.448411 -0.007905
v 0.044911 -0.448411 -0.007905
v 0.044911 -0.454651 -0.007905
v 0.161416 -0.454651 -0.007905
v 0.044911 -0.448411 0.007905
v 0.161416 -0.448411 0.007905
v 0.161416 -0.454651 0.007905
v 0.044911 -0.454651 0.007905
v 0.044911 -0.448411 -0.007905
v 0.044911 -0.454651 0.007905
v 0.044911 -0.454651 -0.007905
v 0.044911 -0.448411 0.007905
v 0.161416 -0.448411 -0.007905
v 0.044911 -0.448411 0.007905
v 0.044911 -0.448411 -0.007905
v 0.161416 -0.448411 0.007905
v 0.161416 -0.454651 -0.007905
v 0.044911 -0.454651 0.007905
v 0.161416 -0.454651 0.007905
v 0.044911 -0.454651 -0.007905
v -0.034013 -0.442732 -0.014038
v -0.034013 -0.442732 0.014038
v -0.034013 -0.452756 0.014038
v -0.034013 -0.452756 -0.014038
v 0.034013 -0.442732 -0.014038
v -0.034013 -0.452756 -0.014038
v 0.034013 -0.452756 -0.014038
v -0.034013 -0.442732 -0.014038
v 0.034013 -0.442732 0.014038
v 0.034013 -0.442732 -0.014038
v 0.034013 -0.452756 -0.014038
v 0.034013 -0.452756 0.014038
v 0.034013 -0.442732 0.014038
v -0.034013 -0.442732 0.014038
v -0.034013 -0.442732 -0.014038
v 0.034013 -0.442732 -0.014038
v -0.034013 -0.442732 0.014038
v 0.034013 -0.452756 0.014038
v -0.034013 -0.452756 0.014038
v 0.034013 -0.442732 0.014038
v 0.213441 0.221001 -0.007663
v 0.204100 0.229241 0.008510
v 0.213441 0.221001 0.007662
v 0.204100 0.229241 -0.008511
v 0.213441 0.221001 0.007662
v 0.204100 0.112034 0.008510
v 0.213441 0.120274 0.007662
v 0.204100 0.229241 0.008510
v 0.213441 0.120274 0.007662
v 0.204100 0.112034 -0.008511
v 0.213441 0.120274 -0.007663
v 0.204100 0.112034 0.008510
v 0.213441 0.221001 -0.007663
v 0.204100 0.112034 -0.008511
v 0.204100 0.229241 -0.008511
v 0.213441 0.120274 -0.007663
v 0.204100 0.112034 0.008510
v 0.204100 0.229241 -0.008511
v 0.204100 0.112034 -0.008511
v 0.204100 0.229241 0.008510
v 0.213441 0.221001 -0.007663
v 0.213441 0.120274 0.007662
v 0.213441 0.120274 -0.007663
v 0.213441 0.221001 0.007662
v 0.211899 0.257206 0.017912
v 0.214954 0.247666 0.009540
v 0.214954 0.257206 0.013491
v 0.211899 0.244540 0.012666
v 0.214954 0.270697 -0.000000
v 0.211899 0.269872 0.012666
v 0.214954 0.266745 0.009540
v 0.211899 0.275118 -0.000000
v 0.214954 0.243714 -0.000000
v 0.211899 0.244540 0.012666
v 0.211899 0.239293 -0.000000
v 0.214954 0.247666 0.009540
v 0.211899 0.244540 -0.012666
v 0.214954 0.257206 -0.013491
v 0.214954 0.247666 -0.009540
v 0.211899 0.257206 -0.017912
v 0.211899 0.257206 -0.017912
v 0.214954 0.266745 -0.009540
v 0.214954 0.257206 -0.013491
v 0.211899 0.269872 -0.012666
v 0.214954 0.266745 0.009540
v 0.211899 0.257206 0.017912
v 0.214954 0.257206 0.013491
v 0.211899 0.269872 0.012666
v 0.211899 0.244540 -0.012666
v 0.214954 0.243714 -0.000000
v 0.211899 0.239293 -0.000000
v 0.214954 0.247666 -0.009540
v 0.214954 0.247666 -0.009540
v 0.214954 0.266745 -0.009540
v 0.214954 0.257206 0.013491
v 0.214954 0.257206 -0.013491
v 0.214954 0.270697 -0.000000
v 0.214954 0.266745 0.009540
v 0.214954 0.243714 -0.000000
v 0.214954 0.247666 0.009540
v 0.193617 0.269872 -0.012666
v 0.211899 0.257206 -0.017912
v 0.193617 0.257206 -0.017912
v 0.211899 0.269872 -0.012666
v 0.211899 0.275118 -0.000000
v 0.193617 0.269872 -0.012666
v 0.193617 0.275118 -0.000000
v 0.211899 0.269872 -0.012666
v 0.211899 0.269872 -0.012666
v 0.211899 0.275118 -0.000000
v 0.214954 0.270697 -0.000000
v 0.214954 0.266745 -0.009540
v 0.211899 0.269872 0.012666
v 0.193617 0.275118 -0.000000
v 0.193617 0.269872 0.012666
v 0.211899 0.275118 -0.000000
v 0.211899 0.269872 0.012666
v 0.193617 0.257206 0.017912
v 0.211899 0.257206 0.017912
v 0.193617 0.269872 0.012666
v 0.211899 0.257206 0.017912
v 0.193617 0.244540 0.012666
v 0.211899 0.244540 0.012666
v 0.193617 0.257206 0.017912
v 0.211899 0.244540 0.012666
v 0.193617 0.244540 0.012666
v 0.193617 0.239293 -0.000000
v 0.211899 0.239293 -0.000000
v 0.211899 0.244540 -0.012666
v 0.193617 0.239293 -0.000000
v 0.193617 0.244540 -0.012666
v 0.211899 0.239293 -0.000000
v 0.193617 0.257206 -0.017912
v 0.211899 0.244540 -0.012666
v 0.193617 0.244540 -0.012666
v 0.211899 0.257206 -0.017912
v 0.211899 0.299519 0.017912
v 0.214954 0.289980 0.009540
v 0.214954 0.299519 0.013491
v 0.211899 0.286853 0.012666
v 0.214954 0.313010 -0.000000
v 0.211899 0.312185 0.012666
v 0.214954 0.309059 0.009540
v 0.211899 0.317432 -0.000000
v 0.214954 0.286028 -0.000000
v 0.211899 0.286853 0.012666
v 0.211899 0.281607 -0.000000
v 0.214954 0.289980 0.009540
v 0.211899 0.286853 -0.012666
v 0.214954 0.299519 -0.013491
v 0.214954 0.289979 -0.009540
v 0.211899 0.299519 -0.017912
v 0.211899 0.299519 -0.017912
v 0.214954 0.309059 -0.009540
v 0.214954 0.299519 -0.013491
v 0.211899 0.312185 -0.012666
v 0.214954 0.309059 0.009540
v 0.211899 0.299519 0.017912
v 0.214954 0.299519 0.013491
v 0.211899 0.312185 0.012666
v 0.211899 0.286853 -0.012666
v 0.214954 0.286028 -0.000000
v 0.211899 0.281607 -0.000000
v 0.214954 0.289979 -0.009540
v 0.214954 0.299519 -0.013491
v 0.214954 0.299519 0.013491
v 0.214954 0.289979 -0.009540
v 0.214954 0.309059 -0.009540
v 0.214954 0.313010 -0.000000
v 0.214954 0.286028 -0.000000
v 0.214954 0.309059 0.009540
v 0.214954 0.289980 0.009540
v 0.193617 0.312185 -0.012666
v 0.211899 0.299519 -0.017912
v 0.193617 0.299519 -0.017912
v 0.211899 0.312185 -0.012666
v 0.211899 0.317432 -0.000000
v 0.193617 0.312185 -0.012666
v 0.193617 0.317432 -0.000000
v 0.211899 0.312185 -0.012666
v 0.211899 0.312185 -0.012666
v 0.211899 0.317432 -0.000000
v 0.214954 0.313010 -0.000000
v 0.214954 0.309059 -0.009540
v 0.211899 0.312185 0.012666
v 0.193617 0.317432 -0.000000
v 0.193617 0.312185 0.012666
v 0.211899 0.317432 -0.000000
v 0.211899 0.312185 0.012666
v 0.193617 0.312185 0.012666
v 0.193617 0.299519 0.017912
v 0.211899 0.299519 0.017912
v 0.211899 0.299519 0.017912
v 0.193617 0.299519 0.017912
v 0.193617 0.286853 0.012666
v 0.211899 0.286853 0.012666
v 0.211899 0.286853 0.012666
v 0.193617 0.281607 -0.000000
v 0.211899 0.281607 -0.000000
v 0.193617 0.286853 0.012666
v 0.211899 0.286853 -0.012666
v 0.193617 0.281607 -0.000000
v 0.193617 0.286853 -0.012666
v 0.211899 0.281607 -0.000000
v 0.193617 0.299519 -0.017912
v 0.211899 0.286853 -0.012666
v 0.193617 0.286853 -0.012666
v 0.211899 0.299519 -0.017912
v 0.052427 0.387522 0.031789
v -0.063928 0.388438 0.023744
v -0.052427 0.387522 0.031789
v 0.063928 0.388438 0.023744
v -0.052427 0.381131 0.031789
v 0.063928 0.380215 0.023744
v 0.052427 0.381131 0.031789
v -0.063928 0.380215 0.023744
v -0.052427 0.387522 0.031789
v -0.063928 0.380215 0.023744
v -0.052427 0.381131 0.031789
v -0.063928 0.388438 0.023744
v 0.063928 0.388438 0.023744
v 0.052427 0.387522 0.031789
v 0.052427 0.381131 0.031789
v 0.063928 0.380215 0.023744
v 0.052427 0.387522 0.031789
v -0.052427 0.387522 0.031789
v -0.052427 0.381131 0.031789
v 0.052427 0.381131 0.031789
v 0.192415 -0.353195 0.028838
v -0.192415 0.348621 0.028838
v -0.192415 -0.353195 0.028838
v 0.192415 0.348621 0.028838
vn -1.000000 0.000000 -0.000000
vn -1.000000 0.000000 -0.000000
vn -1.000000 0.000000 -0.000000
vn -1.000000 0.000000 -0.000000
vn -0.000000 0.000000 1.000000
vn -0.000000 0.000000 1.000000
vn -0.000000 0.000000 1.000000
vn -0.000000 0.000000 1.000000
vn 0.000000 -0.000000 -1.000000
vn 0.000000 -0.000000 -1.000000
vn 0.000000 -0.000000 -1.000000
vn 0.000000 -0.000000 -1.000000
vn 1.000000 0.000000 0.000000
vn 1.000000 0.000000 0.000000
vn 1.000000 0.000000 0.000000
vn 1.000000 0.000000 0.000000
vn -0.000001 -1.000000 0.000000
vn -0.000001 -1.000000 0.000000
vn -0.000001 -1.000000 0.000000
vn -0.000001 -1.000000 0.000000
vn 0.000001 1.000000 -0.000000
vn 0.000001 1.000000 -0.000000
vn 0.000001 1.000000 -0.000000
vn 0.000001 1.000000 -0.000000
vn -1.000000 0.000000 -0.000000
vn -1.000000 0.000000 -0.000000
vn -1.000000 0.000000 -0.000000
vn -1.000000 0.000000 -0.000000
vn -0.000000 0.000000 1.000000
vn -0.000000 0.000000 1.000000
vn -0.000000 0.000000 1.000000
vn -0.000000 0.000000 1.000000
vn 0.000000 -0.000000 -1.000000
vn 0.000000 -0.000000 -1.000000
vn 0.000000 -0.000000 -1.000000
vn 0.000000 -0.000000 -1.000000
vn 1.000000 0.000000 0.000000
vn 1.000000 0.000000 0.000000
vn 1.000000 0.000000 0.000000
vn 1.000000 0.000000 0.000000
vn -0.000001 -1.000000 0.000000
vn -0.000001 -1.000000 0.000000
vn -0.000001 -1.000000 0.000000
vn -0.000001 -1.000000 0.000000
vn 0.000001 1.000000 -0.000000
vn 0.000001 1.000000 -0.000000
vn 0.000001 1.000000 -0.000000
vn 0.000001 1.000000 -0.000000
vn 1.000000 0.000000 0.000000
vn 1.000000 0.000000 0.000000
vn 1.000000 0.000000 0.000000
vn 1.000000 0.000000 0.000000
vn 0.000000 0.000000 1.000000
vn 0.000000 0.000000 1.000000
vn 0.000000 0.000000 1.000000
vn 0.000000 0.000000 1.000000
vn -1.000000 0.000000 -0.000000
vn -1.000000 0.000000 -0.000000
vn -1.000000 0.000000 -0.000000
vn -1.000000 0.000000 -0.000000
vn 0.000000 -1.000000 0.000000
vn 0.000000 -1.000000 0.000000
vn 0.000000 -1.000000 0.000000
vn 0.000000 -1.000000 0.000000
vn 0.000000 0.000000 -1.000000
vn 0.000000 0.000000 -1.000000
vn 0.000000 0.000000 -1.000000
vn 0.000000 0.000000 -1.000000
vn 0.661548 0.749903 -0.000000
vn 0.661548 0.749903 -0.000000
vn 0.661548 0.749903 -0.000000
vn 0.661548 0.749903 -0.000000
vn 0.090420 0.000000 0.995904
vn 0.090420 0.000000 0.995904
vn 0.090420 0.000000 0.995904
vn 0.090420 0.000000 0.995904
vn 0.661548 -0.749903 0.000000
vn 0.661548 -0.749903 0.000000
vn 0.661548 -0.749903 0.000000
vn 0.661548 -0.749903 0.000000
vn 0.090420 -0.000000 -0.995904
vn 0.090420 -0.000000 -0.995904
vn 0.090420 -0.000000 -0.995904
vn 0.090420 -0.000000 -0.995904
vn -1.000000 0.000000 -0.000000
vn -1.000000 0.000000 -0.000000
vn -1.000000 0.000000 -0.000000
vn -1.000000 0.000000 -0.000000
vn 1.000000 0.000000 0.000000
vn 1.000000 0.000000 0.000000
vn 1.000000 0.000000 0.000000
vn 1.000000 0.000000 0.000000
vn 0.800790 -0.229206 0.553354
vn 0.800790 -0.229206 0.553354
vn 0.800790 -0.229206 0.553354
vn 0.800790 -0.229206 0.553354
vn 0.800789 0.553354 0.229208
vn 0.800789 0.553354 0.229208
vn 0.800789 0.553354 0.229208
vn 0.800789 0.553354 0.229208
vn 0.800789 -0.553354 0.229209
vn 0.800789 -0.553354 0.229209
vn 0.800789 -0.553354 0.229209
vn 0.800789 -0.553354 0.229209
vn 0.800791 -0.229207 -0.553352
vn 0.800791 -0.229207 -0.553352
vn 0.800791 -0.229207 -0.553352
vn 0.800791 -0.229207 -0.553352
vn 0.800789 0.229207 -0.553354
vn 0.800789 0.229207 -0.553354
vn 0.800789 0.229207 -0.553354
vn 0.800789 0.229207 -0.553354
vn 0.800791 0.229206 0.553352
vn 0.800791 0.229206 0.553352
vn 0.800791 0.229206 0.553352
vn 0.800791 0.229206 0.553352
vn 0.800789 -0.553354 -0.229208
vn 0.800789 -0.553354 -0.229208
vn 0.800789 -0.553354 -0.229208
vn 0.800789 -0.553354 -0.229208
vn 1.000000 -0.000000 -0.000001
vn 1.000000 -0.000000 -0.000001
vn 1.000000 -0.000000 -0.000001
vn 1.000000 -0.000000 -0.000001
vn 1.000000 -0.000000 -0.000001
vn 1.000000 -0.000000 -0.000001
vn 1.000000 -0.000000 -0.000001
vn 1.000000 -0.000000 -0.000001
vn -0.000000 0.382684 -0.923879
vn -0.000000 0.382684 -0.923879
vn -0.000000 0.382684 -0.923879
vn -0.000000 0.382684 -0.923879
vn -0.000001 0.923880 -0.382682
vn -0.000001 0.923880 -0.382682
vn -0.000001 0.923880 -0.382682
vn -0.000001 0.923880 -0.382682
vn 0.800791 0.553352 -0.229207
vn 0.800791 0.553352 -0.229207
vn 0.800791 0.553352 -0.229207
vn 0.800791 0.553352 -0.229207
vn -0.000000 0.923880 0.382682
vn -0.000000 0.923880 0.382682
vn -0.000000 0.923880 0.382682
vn -0.000000 0.923880 0.382682
vn 0.000001 0.382683 0.923880
vn 0.000001 0.382683 0.923880
vn 0.000001 0.382683 0.923880
vn 0.000001 0.382683 0.923880
vn 0.000000 -0.382683 0.923880
vn 0.000000 -0.382683 0.923880
vn 0.000000 -0.382683 0.923880
vn 0.000000 -0.382683 0.923880
vn -0.000000 -0.923879 0.382685
vn -0.000000 -0.923879 0.382685
vn -0.000000 -0.923879 0.382685
vn -0.000000 -0.923879 0.382685
vn -0.000000 -0.923879 -0.382685
vn -0.000000 -0.923879 -0.382685
vn -0.000000 -0.923879 -0.382685
vn -0.000000 -0.923879 -0.382685
vn -0.000000 -0.382684 -0.923879
vn -0.000000 -0.382684 -0.923879
vn -0.000000 -0.382684 -0.923879
vn -0.000000 -0.382684 -0.923879
vn 0.800788 -0.229206 0.553356
vn 0.800788 -0.229206 0.553356
vn 0.800788 -0.229206 0.553356
vn 0.800788 -0.229206 0.553356
vn 0.800789 0.553354 0.229208
vn 0.800789 0.553354 0.229208
vn 0.800789 0.553354 0.229208
vn 0.800789 0.553354 0.229208
vn 0.800790 -0.553352 0.229208
vn 0.800790 -0.553352 0.229208
vn 0.800790 -0.553352 0.229208
vn 0.800790 -0.553352 0.229208
vn 0.800787 -0.229207 -0.553357
vn 0.800787 -0.229207 -0.553357
vn 0.800787 -0.229207 -0.553357
vn 0.800787 -0.229207 -0.553357
vn 0.800791 0.229206 -0.553352
vn 0.800791 0.229206 -0.553352
vn 0.800791 0.229206 -0.553352
vn 0.800791 0.229206 -0.553352
vn 0.800791 0.229206 0.553352
vn 0.800791 0.229206 0.553352
vn 0.800791 0.229206 0.553352
vn 0.800791 0.229206 0.553352
vn 0.800791 -0.553352 -0.229207
vn 0.800791 -0.553352 -0.229207
vn 0.800791 -0.553352 -0.229207
vn 0.800791 -0.553352 -0.229207
vn 1.000000 0.000000 0.000000
vn 1.000000 0.000000 0.000000
vn 1.000000 0.000000 0.000000
vn 1.000000 0.000000 0.000000
vn 1.000000 0.000000 0.000000
vn 1.000000 0.000000 0.000000
vn 1.000000 0.000000 0.000000
vn 1.000000 0.000000 0.000000
vn -0.000001 0.382684 -0.923879
vn -0.000001 0.382684 -0.923879
vn -0.000001 0.382684 -0.923879
vn -0.000001 0.382684 -0.923879
vn -0.000001 0.923880 -0.382682
vn -0.000001 0.923880 -0.382682
vn -0.000001 0.923880 -0.382682
vn -0.000001 0.923880 -0.382682
vn 0.800791 0.553352 -0.229207
vn 0.800791 0.553352 -0.229207
vn 0.800791 0.553352 -0.229207
vn 0.800791 0.553352 -0.229207
vn 0.000001 0.923880 0.382682
vn 0.000001 0.923880 0.382682
vn 0.000001 0.923880 0.382682
vn 0.000001 0.923880 0.382682
vn 0.000000 0.382683 0.923880
vn 0.000000 0.382683 0.923880
vn 0.000000 0.382683 0.923880
vn 0.000000 0.382683 0.923880
vn 0.000001 -0.382683 0.923880
vn 0.000001 -0.382683 0.923880
vn 0.000001 -0.382683 0.923880
vn 0.000001 -0.382683 0.923880
vn -0.000001 -0.923879 0.382685
vn -0.000001 -0.923879 0.382685
vn -0.000001 -0.923879 0.382685
vn -0.000001 -0.923879 0.382685
vn 0.000001 -0.923879 -0.382685
vn 0.000001 -0.923879 -0.382685
vn 0.000001 -0.923879 -0.382685
vn 0.000001 -0.923879 -0.382685
vn -0.000000 -0.382684 -0.923879
vn -0.000000 -0.382684 -0.923879
vn -0.000000 -0.382684 -0.923879
vn -0.000000 -0.382684 -0.923879
vn 0.000000 0.993576 0.113167
vn 0.000000 0.993576 0.113167
vn 0.000000 0.993576 0.113167
vn 0.000000 0.993576 0.113167
vn 0.000000 -0.993576 0.113170
vn 0.000000 -0.993576 0.113170
vn 0.000000 -0.993576 0.113170
vn 0.000000 -0.993576 0.113170
vn -0.573223 0.000000 0.819400
vn -0.573223 0.000000 0.819400
vn -0.573223 0.000000 0.819400
vn -0.573223 0.000000 0.819400
vn 0.573224 0.000000 0.819399
vn 0.573224 0.000000 0.819399
vn 0.573224 0.000000 0.819399
vn 0.573224 0.000000 0.819399
vn 0.000000 0.000000 1.000000
vn 0.000000 0.000000 1.000000
vn 0.000000 0.000000 1.000000
vn 0.000000 0.000000 1.000000
vn 0.000000 0.000000 1.000000
vn 0.000000 0.000000 1.000000
vn 0.000000 0.000000 1.000000
vn 0.000000 0.000000 1.000000
usemtl phone_Black
f 159//159 160//160 161//161
f 159//159 162//162 160//160
f 163//163 164//164 165//165
f 163//163 166//166 164//164
f 167//167 168//168 169//169
f 167//167 169//169 170//170
f 171//171 172//172 173//173
f 171//171 173//173 174//174
f 175//175 176//176 177//177
f 176//176 175//175 178//178
f 179//179 180//180 181//181
f 180//180 179//179 182//182
f 183//183 184//184 185//185
f 183//183 185//185 186//186
f 187//187 188//188 189//189
f 187//187 189//189 190//190
f 191//191 192//192 193//193
f 191//191 193//193 194//194
f 195//195 196//196 197//197
f 195//195 198//198 196//196
f 199//199 200//200 201//201
f 200//200 199//199 202//202
f 203//203 204//204 205//205
f 204//204 203//203 206//206
f 207//207 208//208 209//209
f 207//207 209//209 210//210
f 211//211 212//212 213//213
f 211//211 214//214 212//212
f 215//215 216//216 217//217
f 215//215 217//217 218//218
f 219//219 220//220 221//221
f 219//219 221//221 222//222
f 223//223 224//224 225//225
f 223//223 226//226 224//224
f 227//227 228//228 229//229
f 230//230 228//228 227//227
f 231//231 232//232 233//233
f 234//234 232//232 231//231
f 235//235 236//236 237//237
f 238//238 236//236 235//235
f 239//239 240//240 241//241
f 240//240 239//239 242//242
f 243//243 244//244 245//245
f 244//244 243//243 246//246
f 247//247 248//248 249//249
f 250//250 248//248 247//247
f 251//251 252//252 253//253
f 251//251 254//254 252//252
f 255//255 256//256 257//257
f 256//256 255//255 258//258
f 259//259 260//260 261//261
f 260//260 259//259 262//262
f 263//263 264//264 265//265
f 264//264 263//263 266//266
f 267//267 268//268 269//269
f 267//267 270//270 268//268
f 271//271 272//272 273//273
f 272//272 271//271 274//274
f 275//275 276//276 277//277
f 276//276 275//275 278//278
f 279//279 280//280 281//281
f 280//280 279//279 282//282
f 281//281 280//280 283//283
f 281//281 283//283 284//284
f 281//281 285//285 279//279
f 285//285 281//281 286//286
f 287//287 288//288 289//289
f 290//290 288//288 287//287
f 291//291 292//292 293//293
f 292//292 291//291 294//294
f 295//295 296//296 297//297
f 297//297 298//298 295//295
f 299//299 300//300 301//301
f 300//300 299//299 302//302
f 303//303 304//304 305//305
f 303//303 306//306 304//304
f 307//307 308//308 309//309
f 307//307 310//310 308//308
f 311//311 312//312 313//313
f 311//311 313//313 314//314
f 315//315 316//316 317//317
f 316//316 315//315 318//318
f 319//319 320//320 321//321
f 322//322 320//320 319//319
f 323//323 324//324 325//325
f 323//323 326//326 324//324
f 327//327 328//328 329//329
f 328//328 327//327 330//330
f 331//331 332//332 333//333
f 332//332 331//331 334//334
f 335//335 336//336 337//337
f 336//336 335//335 338//338
f 339//339 340//340 341//341
f 339//339 342//342 340//340
f 343//343 344//344 345//345
f 344//344 343//343 346//346
f 347//347 348//348 349//349
f 348//348 347//347 350//350
f 351//351 352//352 353//353
f 352//352 354//354 355//355
f 352//352 351//351 354//354
f 352//352 356//356 353//353
f 352//352 355//355 357//357
f 356//356 352//352 358//358
f 359//359 360//360 361//361
f 362//362 360//360 359//359
f 363//363 364//364 365//365
f 364//364 363//363 366//366
f 367//367 368//368 369//369
f 369//369 370//370 367//367
f 371//371 372//372 373//373
f 372//372 371//371 374//374
f 375//375 376//376 377//377
f 375//375 377//377 378//378
f 379//379 380//380 381//381
f 379//379 381//381 382//382
f 383//383 384//384 385//385
f 383//383 386//386 384//384
f 387//387 388//388 389//389
f 388//388 387//387 390//390
f 391//391 392//392 393//393
f 394//394 392//392 391//391
f 395//395 396//396 397//397
f 398//398 396//396 395//395
f 399//399 400//400 401//401
f 402//402 400//400 399//399
f 403//403 404//404 405//405
f 406//406 404//404 403//403
f 407//407 408//408 409//409
f 407//407 409//409 410//410
f 411//411 412//412 413//413
f 411//411 413//413 414//414
f 415//415 416//416 417//417
f 416//416 415//415 418//418
