mtllib pouch.mtl
o pouch
v 0.074823 0.500663 -0.030137
v 0.105499 0.536069 -0.000000
v 0.079846 0.500609 -0.000000
v 0.098791 0.536140 -0.040246
v 0.076388 0.426199 0.001637
v 0.068651 0.509478 -0.026766
v 0.071453 0.426252 -0.027972
v 0.073312 0.509428 0.001203
v -0.061866 0.510871 -0.026766
v -0.071647 0.427779 0.001637
v -0.066712 0.427727 -0.027972
v -0.066527 0.510921 0.001203
v 0.068651 0.509478 0.029173
v 0.076388 0.426199 0.001637
v 0.071453 0.426252 0.031246
v 0.073312 0.509428 0.001203
v -0.047882 0.510722 -0.050074
v -0.066712 0.427727 -0.027972
v -0.051909 0.427569 -0.052645
v -0.061866 0.510871 -0.026766
v 0.054667 0.509627 0.052481
v 0.071453 0.426252 0.031246
v 0.056650 0.426410 0.055920
v 0.068651 0.509478 0.029173
v -0.027237 0.427305 -0.067450
v -0.047882 0.510722 -0.050074
v -0.051909 0.427569 -0.052645
v -0.024576 0.510473 -0.064059
v 0.031977 0.426673 0.070724
v 0.054667 0.509627 0.052481
v 0.056650 0.426410 0.055920
v 0.031360 0.509876 0.066465
v 0.002370 0.426989 -0.072384
v -0.024576 0.510473 -0.064059
v -0.027237 0.427305 -0.067450
v 0.003392 0.510174 -0.068721
v 0.002370 0.426989 0.075659
v 0.031360 0.509876 0.066465
v 0.031977 0.426673 0.070724
v 0.003392 0.510174 0.071127
v 0.031360 0.509876 -0.064059
v 0.002370 0.426989 -0.072384
v 0.031977 0.426673 -0.067450
v 0.003392 0.510174 -0.068721
v -0.024576 0.510473 0.066465
v 0.002370 0.426989 0.075659
v -0.027237 0.427305 0.070724
v 0.003392 0.510174 0.071127
v 0.054667 0.509627 -0.050074
v 0.031977 0.426673 -0.067450
v 0.056650 0.426410 -0.052645
v 0.031360 0.509876 -0.064059
v -0.066712 0.427727 0.031246
v -0.047882 0.510722 0.052481
v -0.051909 0.427569 0.055920
v -0.061866 0.510871 0.029173
v -0.047882 0.510722 0.052481
v -0.027237 0.427305 0.070724
v -0.051909 0.427569 0.055920
v -0.024576 0.510473 0.066465
v 0.071453 0.426252 -0.027972
v 0.054667 0.509627 -0.050074
v 0.056650 0.426410 -0.052645
v 0.068651 0.509478 -0.026766
v -0.071647 0.427779 0.001637
v -0.061866 0.510871 0.029173
v -0.066712 0.427727 0.031246
v -0.066527 0.510921 0.001203
v 0.095858 0.360419 0.041927
v 0.001867 0.361422 0.102353
v 0.042149 0.360992 0.095639
v 0.075717 0.360634 0.075497
v 0.102572 0.360347 0.001643
v -0.098837 0.362497 0.001643
v 0.042149 0.360992 -0.092353
v 0.095858 0.360419 -0.038641
v 0.075717 0.360634 -0.072211
v 0.001867 0.361422 -0.099067
v -0.092123 0.362426 -0.038641
v -0.038414 0.361852 0.095639
v -0.092123 0.362426 0.041927
v -0.071982 0.362211 0.075497
v -0.038414 0.361852 -0.092353
v -0.071982 0.362211 -0.072211
v -0.098837 0.362497 0.001643
v -0.066712 0.427727 0.031246
v -0.092123 0.362426 0.041927
v -0.071647 0.427779 0.001637
v 0.095858 0.360419 -0.038641
v 0.056650 0.426410 -0.052645
v 0.075717 0.360634 -0.072211
v 0.071453 0.426252 -0.027972
v -0.051909 0.427569 0.055920
v -0.038414 0.361852 0.095639
v -0.071982 0.362211 0.075497
v -0.027237 0.427305 0.070724
v -0.092123 0.362426 0.041927
v -0.051909 0.427569 0.055920
v -0.071982 0.362211 0.075497
v -0.066712 0.427727 0.031246
v 0.056650 0.426410 -0.052645
v 0.042149 0.360992 -0.092353
v 0.075717 0.360634 -0.072211
v 0.031977 0.426673 -0.067450
v -0.027237 0.427305 0.070724
v 0.001867 0.361422 0.102353
v -0.038414 0.361852 0.095639
v 0.002370 0.426989 0.075659
v 0.031977 0.426673 -0.067450
v 0.001867 0.361422 -0.099067
v 0.042149 0.360992 -0.092353
v 0.002370 0.426989 -0.072384
v 0.001867 0.361422 0.102353
v 0.031977 0.426673 0.070724
v 0.042149 0.360992 0.095639
v 0.002370 0.426989 0.075659
v 0.001867 0.361422 -0.099067
v -0.027237 0.427305 -0.067450
v -0.038414 0.361852 -0.092353
v 0.002370 0.426989 -0.072384
v 0.042149 0.360992 0.095639
v 0.056650 0.426410 0.055920
v 0.075717 0.360634 0.075497
v 0.031977 0.426673 0.070724
v -0.038414 0.361852 -0.092353
v -0.051909 0.427569 -0.052645
v -0.071982 0.362211 -0.072211
v -0.027237 0.427305 -0.067450
v 0.056650 0.426410 0.055920
v 0.095858 0.360419 0.041927
v 0.075717 0.360634 0.075497
v 0.071453 0.426252 0.031246
v -0.051909 0.427569 -0.052645
v -0.092123 0.362426 -0.038641
v -0.071982 0.362211 -0.072211
v -0.066712 0.427727 -0.027972
v 0.071453 0.426252 0.031246
v 0.102572 0.360347 0.001643
v 0.095858 0.360419 0.041927
v 0.076388 0.426199 0.001637
v -0.066712 0.427727 -0.027972
v -0.098837 0.362497 0.001643
v -0.092123 0.362426 -0.038641
v -0.071647 0.427779 0.001637
v 0.102572 0.360347 0.001643
v 0.071453 0.426252 -0.027972
v 0.095858 0.360419 -0.038641
v 0.076388 0.426199 0.001637
v 0.054667 0.509627 0.052481
v 0.089758 0.536236 0.036375
v 0.068651 0.509478 0.029173
v 0.071571 0.536431 0.066687
v -0.047882 0.510722 -0.050074
v -0.079981 0.538049 -0.036375
v -0.061866 0.510871 -0.026766
v -0.061795 0.537855 -0.066687
v 0.068651 0.509478 0.029173
v 0.095820 0.536172 -0.000000
v 0.073312 0.509428 0.001203
v 0.089758 0.536236 0.036375
v -0.061866 0.510871 -0.026766
v -0.086043 0.538114 -0.000000
v -0.066527 0.510921 0.001203
v -0.079981 0.538049 -0.036375
v 0.095820 0.536172 -0.000000
v 0.068651 0.509478 -0.026766
v 0.073312 0.509428 0.001203
v 0.089758 0.536236 -0.036375
v -0.086043 0.538114 -0.000000
v -0.061866 0.510871 0.029173
v -0.066527 0.510921 0.001203
v -0.079981 0.538049 0.036375
v 0.089758 0.536236 -0.036375
v 0.071571 0.536431 -0.066687
v 0.054667 0.509627 -0.050074
v 0.068651 0.509478 -0.026766
v -0.047882 0.510722 0.052481
v -0.031484 0.537531 0.084874
v -0.024576 0.510473 0.066465
v -0.061795 0.537855 0.066687
v -0.079981 0.538049 0.036375
v -0.047882 0.510722 0.052481
v -0.061866 0.510871 0.029173
v -0.061795 0.537855 0.066687
v 0.054667 0.509627 -0.050074
v 0.041261 0.536754 -0.084874
v 0.031360 0.509876 -0.064059
v 0.071571 0.536431 -0.066687
v -0.024576 0.510473 0.066465
v 0.004888 0.537143 0.090937
v 0.003392 0.510174 0.071127
v -0.031484 0.537531 0.084874
v 0.031360 0.509876 -0.064059
v 0.004888 0.537143 -0.090937
v 0.003392 0.510174 -0.068721
v 0.041261 0.536754 -0.084874
v 0.004888 0.537143 0.090937
v 0.031360 0.509876 0.066465
v 0.003392 0.510174 0.071127
v 0.041261 0.536754 0.084874
v 0.004888 0.537143 -0.090937
v -0.024576 0.510473 -0.064059
v 0.003392 0.510174 -0.068721
v -0.031484 0.537531 -0.084874
v 0.041261 0.536754 0.084874
v 0.054667 0.509627 0.052481
v 0.031360 0.509876 0.066465
v 0.071571 0.536431 0.066687
v -0.031484 0.537531 -0.084874
v -0.047882 0.510722 -0.050074
v -0.024576 0.510473 -0.064059
v -0.061795 0.537855 -0.066687
v 0.041261 0.536754 -0.084874
v 0.004888 0.537143 -0.100616
v 0.004888 0.537143 -0.090937
v 0.045132 0.536713 -0.093908
v 0.004888 0.537143 0.100616
v 0.045132 0.536713 0.093908
v 0.041261 0.536754 0.084874
v 0.004888 0.537143 0.090937
v 0.004888 0.537143 -0.100616
v -0.031484 0.537531 -0.084874
v 0.004888 0.537143 -0.090937
v -0.035356 0.537572 -0.093908
v 0.045132 0.536713 0.093908
v 0.078669 0.536355 0.073785
v 0.071571 0.536431 0.066687
v 0.041261 0.536754 0.084874
v -0.035356 0.537572 -0.093908
v -0.061795 0.537855 -0.066687
v -0.031484 0.537531 -0.084874
v -0.068893 0.537931 -0.073785
v 0.071571 0.536431 0.066687
v 0.098791 0.536140 0.040246
v 0.089758 0.536236 0.036375
v 0.078669 0.536355 0.073785
v -0.089015 0.538145 -0.040246
v -0.061795 0.537855 -0.066687
v -0.068893 0.537931 -0.073785
v -0.079981 0.538049 -0.036375
v 0.089758 0.536236 0.036375
v 0.105499 0.536069 -0.000000
v 0.095820 0.536172 -0.000000
v 0.098791 0.536140 0.040246
v -0.095722 0.538217 -0.000000
v -0.079981 0.538049 -0.036375
v -0.089015 0.538145 -0.040246
v -0.086043 0.538114 -0.000000
v 0.089758 0.536236 -0.036375
v 0.105499 0.536069 -0.000000
v 0.098791 0.536140 -0.040246
v 0.095820 0.536172 -0.000000
v -0.095722 0.538217 -0.000000
v -0.089015 0.538145 0.040246
v -0.079981 0.538049 0.036375
v -0.086043 0.538114 -0.000000
v 0.098791 0.536140 -0.040246
v 0.078669 0.536355 -0.073785
v 0.071571 0.536431 -0.066687
v 0.089758 0.536236 -0.036375
v -0.061795 0.537855 0.066687
v -0.035356 0.537572 0.093908
v -0.031484 0.537531 0.084874
v -0.068893 0.537931 0.073785
v -0.089015 0.538145 0.040246
v -0.061795 0.537855 0.066687
v -0.079981 0.538049 0.036375
v -0.068893 0.537931 0.073785
v 0.045132 0.536713 -0.093908
v 0.071571 0.536431 -0.066687
v 0.078669 0.536355 -0.073785
v 0.041261 0.536754 -0.084874
v 0.004888 0.537143 0.100616
v -0.031484 0.537531 0.084874
v -0.035356 0.537572 0.093908
v 0.004888 0.537143 0.090937
v 0.045132 0.536713 -0.093908
v 0.059755 0.500824 -0.055252
v 0.034642 0.501092 -0.070320
v 0.078669 0.536355 -0.073785
v 0.034642 0.501092 -0.070320
v 0.004888 0.537143 -0.100616
v 0.045132 0.536713 -0.093908
v 0.004507 0.501414 -0.075343
v -0.050742 0.502004 -0.055252
v -0.035356 0.537572 -0.093908
v -0.025629 0.501736 -0.070320
v -0.068893 0.537931 -0.073785
v -0.055002 0.466908 -0.059137
v -0.044850 0.393419 -0.112468
v -0.085014 0.393848 -0.088368
v -0.028123 0.466621 -0.075266
v -0.028123 0.466621 -0.075266
v 0.003348 0.392905 -0.120501
v -0.044850 0.393419 -0.112468
v 0.004132 0.466276 -0.080642
v -0.028123 0.466621 -0.075266
v -0.050742 0.502004 -0.055252
v -0.025629 0.501736 -0.070320
v -0.055002 0.466908 -0.059137
v 0.004132 0.466276 -0.080642
v -0.025629 0.501736 -0.070320
v 0.004507 0.501414 -0.075343
v -0.028123 0.466621 -0.075266
v 0.051546 0.392390 -0.112468
v 0.063266 0.465645 -0.059137
v 0.091711 0.391961 -0.088368
v 0.036387 0.465932 -0.075266
v 0.036387 0.465932 -0.075266
v 0.059755 0.500824 -0.055252
v 0.063266 0.465645 -0.059137
v 0.034642 0.501092 -0.070320
v 0.003348 0.392905 -0.120501
v 0.036387 0.465932 -0.075266
v 0.051546 0.392390 -0.112468
v 0.004132 0.466276 -0.080642
v 0.004132 0.466276 -0.080642
v 0.034642 0.501092 -0.070320
v 0.036387 0.465932 -0.075266
v 0.004507 0.501414 -0.075343
v -0.025629 0.501736 -0.070320
v 0.004888 0.537143 -0.100616
v 0.004507 0.501414 -0.075343
v -0.035356 0.537572 -0.093908
v -0.035356 0.537572 0.093908
v -0.050742 0.502004 0.055252
v -0.025629 0.501736 0.070320
v -0.068893 0.537931 0.073785
v -0.025629 0.501736 0.070320
v 0.004888 0.537143 0.100616
v -0.035356 0.537572 0.093908
v 0.004507 0.501414 0.075343
v 0.059755 0.500824 0.055252
v 0.045132 0.536713 0.093908
v 0.034642 0.501092 0.070320
v 0.078669 0.536355 0.073785
v 0.063266 0.465645 0.059137
v 0.051546 0.392390 0.112468
v 0.091711 0.391961 0.088368
v 0.036387 0.465932 0.075266
v 0.036387 0.465932 0.075266
v 0.003348 0.392905 0.120501
v 0.051546 0.392390 0.112468
v 0.004132 0.466276 0.080642
v 0.036387 0.465932 0.075266
v 0.059755 0.500824 0.055252
v 0.034642 0.501092 0.070320
v 0.063266 0.465645 0.059137
v 0.004132 0.466276 0.080642
v 0.034642 0.501092 0.070320
v 0.004507 0.501414 0.075343
v 0.036387 0.465932 0.075266
v -0.044850 0.393419 0.112468
v -0.055002 0.466908 0.059137
v -0.085014 0.393848 0.088368
v -0.028123 0.466621 0.075266
v -0.028123 0.466621 0.075266
v -0.050742 0.502004 0.055252
v -0.055002 0.466908 0.059137
v -0.025629 0.501736 0.070320
v 0.003348 0.392905 0.120501
v -0.028123 0.466621 0.075266
v -0.044850 0.393419 0.112468
v 0.004132 0.466276 0.080642
v 0.004132 0.466276 0.080642
v -0.025629 0.501736 0.070320
v -0.028123 0.466621 0.075266
v 0.004507 0.501414 0.075343
v 0.034642 0.501092 0.070320
v 0.004888 0.537143 0.100616
v 0.004507 0.501414 0.075343
v 0.045132 0.536713 0.093908
v -0.089015 0.538145 -0.040246
v -0.050742 0.502004 -0.055252
v -0.065809 0.502165 -0.030137
v -0.068893 0.537931 -0.073785
v -0.065809 0.502165 -0.030137
v -0.095722 0.538217 -0.000000
v -0.089015 0.538145 -0.040246
v -0.070832 0.502218 -0.000000
v -0.050742 0.502004 0.055252
v -0.089015 0.538145 0.040246
v -0.065809 0.502165 0.030137
v -0.068893 0.537931 0.073785
v -0.055002 0.466908 0.059137
v -0.109113 0.394105 0.048201
v -0.085014 0.393848 0.088368
v -0.071130 0.467080 0.032257
v -0.071130 0.467080 0.032257
v -0.117146 0.394191 -0.000000
v -0.109113 0.394105 0.048201
v -0.076506 0.467137 -0.000000
v -0.071130 0.467080 0.032257
v -0.050742 0.502004 0.055252
v -0.065809 0.502165 0.030137
v -0.055002 0.466908 0.059137
v -0.076506 0.467137 -0.000000
v -0.065809 0.502165 0.030137
v -0.070832 0.502218 -0.000000
v -0.071130 0.467080 0.032257
v -0.109113 0.394105 -0.048201
v -0.055002 0.466908 -0.059137
v -0.085014 0.393848 -0.088368
v -0.071130 0.467080 -0.032257
v -0.071130 0.467080 -0.032257
v -0.050742 0.502004 -0.055252
v -0.055002 0.466908 -0.059137
v -0.065809 0.502165 -0.030137
v -0.117146 0.394191 -0.000000
v -0.071130 0.467080 -0.032257
v -0.109113 0.394105 -0.048201
v -0.076506 0.467137 -0.000000
v -0.076506 0.467137 -0.000000
v -0.065809 0.502165 -0.030137
v -0.071130 0.467080 -0.032257
v -0.070832 0.502218 -0.000000
v -0.065809 0.502165 0.030137
v -0.095722 0.538217 -0.000000
v -0.070832 0.502218 -0.000000
v -0.089015 0.538145 0.040246
v 0.098791 0.536140 0.040246
v 0.059755 0.500824 0.055252
v 0.074823 0.500663 0.030137
v 0.078669 0.536355 0.073785
v 0.074823 0.500663 0.030137
v 0.105499 0.536069 -0.000000
v 0.098791 0.536140 0.040246
v 0.079846 0.500609 -0.000000
v 0.059755 0.500824 -0.055252
v 0.098791 0.536140 -0.040246
v 0.074823 0.500663 -0.030137
v 0.078669 0.536355 -0.073785
v 0.063266 0.465645 -0.059137
v 0.115810 0.391704 -0.048201
v 0.091711 0.391961 -0.088368
v 0.079393 0.465473 -0.032257
v 0.079393 0.465473 -0.032257
v 0.123843 0.391618 -0.000000
v 0.115810 0.391704 -0.048201
v 0.084769 0.465415 -0.000000
v 0.079393 0.465473 -0.032257
v 0.059755 0.500824 -0.055252
v 0.074823 0.500663 -0.030137
v 0.063266 0.465645 -0.059137
v 0.084769 0.465415 -0.000000
v 0.074823 0.500663 -0.030137
v 0.079846 0.500609 -0.000000
v 0.079393 0.465473 -0.032257
v 0.115810 0.391704 0.048201
v 0.063266 0.465645 0.059137
v 0.091711 0.391961 0.088368
v 0.079393 0.465473 0.032257
v 0.079393 0.465473 0.032257
v 0.059755 0.500824 0.055252
v 0.063266 0.465645 0.059137
v 0.074823 0.500663 0.030137
v 0.123843 0.391618 -0.000000
v 0.079393 0.465473 0.032257
v 0.115810 0.391704 0.048201
v 0.084769 0.465415 -0.000000
v 0.084769 0.465415 -0.000000
v 0.074823 0.500663 0.030137
v 0.079393 0.465473 0.032257
v 0.079846 0.500609 -0.000000
v -0.114582 0.021660 0.113960
v -0.094402 0.064506 0.196187
v -0.155092 0.088573 0.155182
v -0.196345 0.065594 0.094239
v -0.000784 0.005941 0.126997
v -0.094402 0.064506 0.196187
v -0.114582 0.021660 0.113960
v -0.000292 0.051942 0.217547
v -0.127774 0.007296 0.000000
v -0.196345 0.065594 0.094239
v -0.217827 0.054265 -0.000000
v -0.114582 0.021660 0.113960
v -0.000948 -0.009469 0.000000
v -0.114582 0.021660 0.113960
v -0.127774 0.007296 0.000000
v -0.000784 0.005941 0.126997
v 0.113325 0.019227 0.113960
v 0.196007 0.061405 0.094239
v 0.155254 0.085259 0.155182
v 0.094064 0.062493 0.196187
v 0.126207 0.004585 0.000000
v 0.217242 0.049620 -0.000000
v 0.196007 0.061405 0.094239
v 0.113325 0.019227 0.113960
v -0.000784 0.005941 0.126997
v 0.113325 0.019227 0.113960
v 0.094064 0.062493 0.196187
v -0.000292 0.051942 0.217547
v 0.113325 0.019227 0.113960
v -0.000784 0.005941 0.126997
v -0.000948 -0.009469 0.000000
v 0.126207 0.004585 0.000000
v 0.113325 0.019227 -0.113960
v 0.094064 0.062493 -0.196187
v 0.155254 0.085259 -0.155182
v 0.196007 0.061405 -0.094239
v -0.000784 0.005940 -0.126997
v -0.000292 0.051942 -0.217547
v 0.094064 0.062493 -0.196187
v 0.113325 0.019227 -0.113960
v 0.126207 0.004585 0.000000
v 0.113325 0.019227 -0.113960
v 0.196007 0.061405 -0.094239
v 0.217242 0.049620 -0.000000
v -0.000948 -0.009469 0.000000
v -0.000784 0.005940 -0.126997
v 0.113325 0.019227 -0.113960
v 0.126207 0.004585 0.000000
v -0.094402 0.064506 -0.196187
v -0.114582 0.021660 -0.113960
v -0.155092 0.088573 -0.155182
v -0.196345 0.065594 -0.094239
v -0.127774 0.007296 0.000000
v -0.196345 0.065594 -0.094239
v -0.114582 0.021660 -0.113960
v -0.217827 0.054265 -0.000000
v -0.000784 0.005940 -0.126997
v -0.094402 0.064506 -0.196187
v -0.000292 0.051942 -0.217547
v -0.114582 0.021660 -0.113960
v -0.000948 -0.009469 0.000000
v -0.114582 0.021660 -0.113960
v -0.000784 0.005940 -0.126997
v -0.127774 0.007296 0.000000
v -0.086628 0.135587 0.214948
v -0.155092 0.088573 0.155182
v -0.094402 0.064506 0.196187
v -0.162099 0.142738 0.162766
v -0.086628 0.135587 0.214948
v -0.147631 0.224287 0.149170
v -0.162099 0.142738 0.162766
v -0.079423 0.222032 0.191758
v 0.000523 0.128310 0.235199
v -0.094402 0.064506 0.196187
v -0.000292 0.051942 0.217547
v -0.086628 0.135587 0.214948
v 0.001499 0.219700 0.206571
v -0.086628 0.135587 0.214948
v 0.000523 0.128310 0.235199
v -0.079423 0.222032 0.191758
v -0.061296 0.312907 0.148835
v -0.085014 0.393848 0.088368
v -0.114394 0.313537 0.116888
v -0.044850 0.393419 0.112468
v 0.002486 0.312197 0.159500
v -0.044850 0.393419 0.112468
v -0.061296 0.312907 0.148835
v 0.003348 0.392905 0.120501
v -0.079423 0.222032 0.191758
v -0.114394 0.313537 0.116888
v -0.147631 0.224287 0.149170
v -0.061296 0.312907 0.148835
v 0.001499 0.219700 0.206571
v -0.061296 0.312907 0.148835
v -0.079423 0.222032 0.191758
v 0.002486 0.312197 0.159500
v 0.066250 0.311589 0.148788
v 0.119303 0.311120 0.116822
v 0.091711 0.391961 0.088368
v 0.051546 0.392390 0.112468
v 0.082436 0.220352 0.191718
v 0.150635 0.221190 0.149112
v 0.119303 0.311120 0.116822
v 0.066250 0.311589 0.148788
v 0.002486 0.312197 0.159500
v 0.066250 0.311589 0.148788
v 0.051546 0.392390 0.112468
v 0.003348 0.392905 0.120501
v 0.001499 0.219700 0.206571
v 0.082436 0.220352 0.191718
v 0.066250 0.311589 0.148788
v 0.002486 0.312197 0.159500
v 0.087809 0.133724 0.214948
v 0.094064 0.062493 0.196187
v 0.155254 0.085259 0.155182
v 0.163416 0.139263 0.162766
v 0.000523 0.128310 0.235199
v -0.000292 0.051942 0.217547
v 0.094064 0.062493 0.196187
v 0.087809 0.133724 0.214948
v 0.150635 0.221190 0.149112
v 0.087809 0.133724 0.214948
v 0.163416 0.139263 0.162766
v 0.082436 0.220352 0.191718
v 0.001499 0.219700 0.206571
v 0.000523 0.128310 0.235199
v 0.087809 0.133724 0.214948
v 0.082436 0.220352 0.191718
v 0.215527 0.132360 0.087223
v 0.155254 0.085259 0.155182
v 0.196007 0.061405 0.094239
v 0.163416 0.139263 0.162766
v 0.215527 0.132360 0.087223
v 0.150635 0.221190 0.149112
v 0.163416 0.139263 0.162766
v 0.193156 0.219249 0.080897
v 0.235709 0.125799 -0.000000
v 0.196007 0.061405 0.094239
v 0.217242 0.049620 -0.000000
v 0.215527 0.132360 0.087223
v 0.207928 0.217642 -0.000000
v 0.215527 0.132360 0.087223
v 0.235709 0.125799 -0.000000
v 0.193156 0.219249 0.080897
v 0.151192 0.310751 0.063734
v 0.091711 0.391961 0.088368
v 0.119303 0.311120 0.116822
v 0.115810 0.391704 0.048201
v 0.161826 0.310627 -0.000000
v 0.115810 0.391704 0.048201
v 0.151192 0.310751 0.063734
v 0.123843 0.391618 -0.000000
v 0.193156 0.219249 0.080897
v 0.119303 0.311120 0.116822
v 0.150635 0.221190 0.149112
v 0.151192 0.310751 0.063734
v 0.207928 0.217642 -0.000000
v 0.151192 0.310751 0.063734
v 0.193156 0.219249 0.080897
v 0.161826 0.310627 -0.000000
v 0.151126 0.310813 -0.063706
v 0.119209 0.311232 -0.116726
v 0.091711 0.391961 -0.088368
v 0.115810 0.391704 -0.048201
v 0.193101 0.219317 -0.080873
v 0.150555 0.221316 -0.149030
v 0.119209 0.311232 -0.116726
v 0.151126 0.310813 -0.063706
v 0.161826 0.310627 -0.000000
v 0.151126 0.310813 -0.063706
v 0.115810 0.391704 -0.048201
v 0.123843 0.391618 -0.000000
v 0.207928 0.217642 -0.000000
v 0.193101 0.219317 -0.080873
v 0.151126 0.310813 -0.063706
v 0.161826 0.310627 -0.000000
v 0.215527 0.132360 -0.087223
v 0.196007 0.061405 -0.094239
v 0.155254 0.085259 -0.155182
v 0.163416 0.139263 -0.162766
v 0.235709 0.125799 -0.000000
v 0.217242 0.049620 -0.000000
v 0.196007 0.061405 -0.094239
v 0.215527 0.132360 -0.087223
v 0.150555 0.221316 -0.149030
v 0.215527 0.132360 -0.087223
v 0.163416 0.139263 -0.162766
v 0.193101 0.219317 -0.080873
v 0.207928 0.217642 -0.000000
v 0.235709 0.125799 -0.000000
v 0.215527 0.132360 -0.087223
v 0.193101 0.219317 -0.080873
v 0.087809 0.133724 -0.214948
v 0.155254 0.085259 -0.155182
v 0.094064 0.062493 -0.196187
v 0.163416 0.139263 -0.162766
v 0.087809 0.133724 -0.214948
v 0.150555 0.221316 -0.149030
v 0.163416 0.139263 -0.162766
v 0.082380 0.220513 -0.191583
v 0.000523 0.128310 -0.235199
v 0.094064 0.062493 -0.196187
v -0.000292 0.051942 -0.217547
v 0.087809 0.133724 -0.214948
v 0.001501 0.219872 -0.206416
v 0.087809 0.133724 -0.214948
v 0.000523 0.128310 -0.235199
v 0.082380 0.220513 -0.191583
v 0.066185 0.311732 -0.148633
v 0.091711 0.391961 -0.088368
v 0.119209 0.311232 -0.116726
v 0.051546 0.392390 -0.112468
v 0.002488 0.312351 -0.159320
v 0.051546 0.392390 -0.112468
v 0.066185 0.311732 -0.148633
v 0.003348 0.392905 -0.120501
v 0.082380 0.220513 -0.191583
v 0.119209 0.311232 -0.116726
v 0.150555 0.221316 -0.149030
v 0.066185 0.311732 -0.148633
v 0.001501 0.219872 -0.206416
v 0.066185 0.311732 -0.148633
v 0.082380 0.220513 -0.191583
v 0.002488 0.312351 -0.159320
v -0.061228 0.313050 -0.148679
v -0.114297 0.313648 -0.116793
v -0.085014 0.393848 -0.088368
v -0.044850 0.393419 -0.112468
v -0.079364 0.222194 -0.191622
v -0.147546 0.224412 -0.149087
v -0.114297 0.313648 -0.116793
v -0.061228 0.313050 -0.148679
v 0.002488 0.312351 -0.159320
v -0.061228 0.313050 -0.148679
v -0.044850 0.393419 -0.112468
v 0.003348 0.392905 -0.120501
v 0.001501 0.219872 -0.206416
v -0.079364 0.222194 -0.191622
v -0.061228 0.313050 -0.148679
v 0.002488 0.312351 -0.159320
v -0.086628 0.135587 -0.214948
v -0.094402 0.064506 -0.196187
v -0.155092 0.088573 -0.155182
v -0.162099 0.142738 -0.162766
v 0.000523 0.128310 -0.235199
v -0.000292 0.051942 -0.217547
v -0.094402 0.064506 -0.196187
v -0.086628 0.135587 -0.214948
v -0.147546 0.224412 -0.149087
v -0.086628 0.135587 -0.214948
v -0.162099 0.142738 -0.162766
v -0.079364 0.222194 -0.191622
v 0.001501 0.219872 -0.206416
v 0.000523 0.128310 -0.235199
v -0.086628 0.135587 -0.214948
v -0.079364 0.222194 -0.191622
v -0.214345 0.136950 -0.087223
v -0.155092 0.088573 -0.155182
v -0.196345 0.065594 -0.094239
v -0.162099 0.142738 -0.162766
v -0.214345 0.136950 -0.087223
v -0.147546 0.224412 -0.149087
v -0.162099 0.142738 -0.162766
v -0.190163 0.223297 -0.080913
v -0.234663 0.130821 -0.000000
v -0.196345 0.065594 -0.094239
v -0.217827 0.054265 -0.000000
v -0.214345 0.136950 -0.087223
v -0.205036 0.221932 -0.000000
v -0.214345 0.136950 -0.087223
v -0.234663 0.130821 -0.000000
v -0.190163 0.223297 -0.080913
v -0.146258 0.313889 -0.063752
v -0.085014 0.393848 -0.088368
v -0.114297 0.313648 -0.116793
v -0.109113 0.394105 -0.048201
v -0.156977 0.313923 -0.000000
v -0.109113 0.394105 -0.048201
v -0.146258 0.313889 -0.063752
v -0.117146 0.394191 -0.000000
v -0.190163 0.223297 -0.080913
v -0.114297 0.313648 -0.116793
v -0.147546 0.224412 -0.149087
v -0.146258 0.313889 -0.063752
v -0.205036 0.221932 -0.000000
v -0.146258 0.313889 -0.063752
v -0.190163 0.223297 -0.080913
v -0.156977 0.313923 -0.000000
v -0.146326 0.313828 0.063780
v -0.114394 0.313537 0.116888
v -0.085014 0.393848 0.088368
v -0.109113 0.394105 0.048201
v -0.190221 0.223230 0.080937
v -0.147631 0.224287 0.149170
v -0.114394 0.313537 0.116888
v -0.146326 0.313828 0.063780
v -0.156977 0.313923 -0.000000
v -0.146326 0.313828 0.063780
v -0.109113 0.394105 0.048201
v -0.117146 0.394191 -0.000000
v -0.205036 0.221932 -0.000000
v -0.190221 0.223230 0.080937
v -0.146326 0.313828 0.063780
v -0.156977 0.313923 -0.000000
v -0.214345 0.136950 0.087223
v -0.196345 0.065594 0.094239
v -0.155092 0.088573 0.155182
v -0.162099 0.142738 0.162766
v -0.234663 0.130821 -0.000000
v -0.217827 0.054265 -0.000000
v -0.196345 0.065594 0.094239
v -0.214345 0.136950 0.087223
v -0.147631 0.224287 0.149170
v -0.214345 0.136950 0.087223
v -0.162099 0.142738 0.162766
v -0.190221 0.223230 0.080937
v -0.205036 0.221932 -0.000000
v -0.234663 0.130821 -0.000000
v -0.214345 0.136950 0.087223
v -0.190221 0.223230 0.080937
vn 0.802808 -0.580793 -0.134827
vn 0.802808 -0.580793 -0.134827
vn 0.802808 -0.580793 -0.134827
vn 0.802808 -0.580793 -0.134827
vn -0.985781 -0.035573 0.164224
vn -0.985781 -0.035573 0.164224
vn -0.985781 -0.035573 0.164224
vn -0.985781 -0.035573 0.164224
vn 0.984615 -0.059772 0.164200
vn 0.984615 -0.059772 0.164200
vn 0.984615 -0.059772 0.164200
vn 0.984615 -0.059772 0.164200
vn -0.985720 -0.037282 -0.164211
vn -0.985720 -0.037282 -0.164211
vn -0.985720 -0.037282 -0.164211
vn -0.985720 -0.037282 -0.164211
vn 0.855933 -0.057340 0.513898
vn 0.855933 -0.057340 0.513898
vn 0.855933 -0.057340 0.513898
vn 0.855933 -0.057340 0.513898
vn -0.856880 -0.041652 -0.513831
vn -0.856880 -0.041652 -0.513831
vn -0.856880 -0.041652 -0.513831
vn -0.856880 -0.041652 -0.513831
vn 0.513435 -0.051351 0.856591
vn 0.513435 -0.051351 0.856591
vn 0.513435 -0.051351 0.856591
vn 0.513435 -0.051351 0.856591
vn -0.514307 -0.047641 -0.856282
vn -0.514307 -0.047641 -0.856282
vn -0.514307 -0.047641 -0.856282
vn -0.514307 -0.047641 -0.856282
vn 0.163767 -0.045417 0.985453
vn 0.163767 -0.045417 0.985453
vn 0.163767 -0.045417 0.985453
vn 0.163767 -0.045417 0.985453
vn -0.164725 -0.051635 -0.984987
vn -0.164725 -0.051635 -0.984987
vn -0.164725 -0.051635 -0.984987
vn -0.164725 -0.051635 -0.984987
vn -0.164697 -0.041382 0.985476
vn -0.164697 -0.041382 0.985476
vn -0.164697 -0.041382 0.985476
vn -0.164697 -0.041382 0.985476
vn 0.163575 -0.055667 -0.984959
vn 0.163575 -0.055667 -0.984959
vn 0.163575 -0.055667 -0.984959
vn 0.163575 -0.055667 -0.984959
vn -0.514435 -0.038727 0.856655
vn -0.514435 -0.038727 0.856655
vn -0.514435 -0.038727 0.856655
vn -0.514435 -0.038727 0.856655
vn 0.855642 -0.062683 -0.513758
vn 0.855642 -0.062683 -0.513758
vn 0.855642 -0.062683 -0.513758
vn 0.855642 -0.062683 -0.513758
vn 0.513109 -0.060258 -0.856206
vn 0.513109 -0.060258 -0.856206
vn 0.513109 -0.060258 -0.856206
vn 0.513109 -0.060258 -0.856206
vn -0.857043 -0.036302 0.513964
vn -0.857043 -0.036302 0.513964
vn -0.857043 -0.036302 0.513964
vn -0.857043 -0.036302 0.513964
vn 0.984512 -0.061479 -0.164186
vn 0.984512 -0.061479 -0.164186
vn 0.984512 -0.061479 -0.164186
vn 0.984512 -0.061479 -0.164186
vn 0.010677 0.999943 -0.000000
vn 0.010677 0.999943 -0.000000
vn 0.010677 0.999943 -0.000000
vn 0.010677 0.999943 -0.000000
vn 0.010677 0.999943 -0.000000
vn 0.010677 0.999943 -0.000000
vn 0.010677 0.999943 -0.000000
vn 0.010677 0.999943 -0.000000
vn 0.010677 0.999943 -0.000000
vn 0.010677 0.999943 -0.000000
vn 0.010677 0.999943 -0.000000
vn 0.010677 0.999943 -0.000000
vn 0.010677 0.999943 -0.000000
vn 0.010677 0.999943 -0.000000
vn 0.010677 0.999943 -0.000000
vn 0.010677 0.999943 -0.000000
vn 0.912298 -0.379986 -0.152718
vn 0.912298 -0.379986 -0.152718
vn 0.912298 -0.379986 -0.152718
vn 0.912298 -0.379986 -0.152718
vn -0.796845 -0.372496 0.475694
vn -0.796845 -0.372496 0.475694
vn -0.796845 -0.372496 0.475694
vn -0.796845 -0.372496 0.475694
vn 0.472302 -0.382872 -0.793939
vn 0.472302 -0.382872 -0.793939
vn 0.472302 -0.382872 -0.793939
vn 0.472302 -0.382872 -0.793939
vn 0.790163 -0.385425 -0.476540
vn 0.790163 -0.385425 -0.476540
vn 0.790163 -0.385425 -0.476540
vn 0.790163 -0.385425 -0.476540
vn -0.479903 -0.375042 0.793119
vn -0.479903 -0.375042 0.793119
vn -0.479903 -0.375042 0.793119
vn -0.479903 -0.375042 0.793119
vn 0.148601 -0.373865 -0.915502
vn 0.148601 -0.373865 -0.915502
vn 0.148601 -0.373865 -0.915502
vn 0.148601 -0.373865 -0.915502
vn -0.156513 -0.371264 0.915241
vn -0.156513 -0.371264 0.915241
vn -0.156513 -0.371264 0.915241
vn -0.156513 -0.371264 0.915241
vn -0.156506 -0.371397 -0.915189
vn -0.156506 -0.371397 -0.915189
vn -0.156506 -0.371397 -0.915189
vn -0.156506 -0.371397 -0.915189
vn 0.148610 -0.373732 0.915554
vn 0.148610 -0.373732 0.915554
vn 0.148610 -0.373732 0.915554
vn 0.148610 -0.373732 0.915554
vn -0.479879 -0.375156 -0.793079
vn -0.479879 -0.375156 -0.793079
vn -0.479879 -0.375156 -0.793079
vn -0.479879 -0.375156 -0.793079
vn 0.472328 -0.382758 0.793979
vn 0.472328 -0.382758 0.793979
vn 0.472328 -0.382758 0.793979
vn 0.472328 -0.382758 0.793979
vn -0.796822 -0.372565 -0.475679
vn -0.796822 -0.372565 -0.475679
vn -0.796822 -0.372565 -0.475679
vn -0.796822 -0.372565 -0.475679
vn 0.790188 -0.385356 0.476554
vn 0.790188 -0.385356 0.476554
vn 0.790188 -0.385356 0.476554
vn 0.790188 -0.385356 0.476554
vn -0.918378 -0.365177 -0.152404
vn -0.918378 -0.365177 -0.152404
vn -0.918378 -0.365177 -0.152404
vn -0.918378 -0.365177 -0.152404
vn 0.912307 -0.379964 0.152719
vn 0.912307 -0.379964 0.152719
vn 0.912307 -0.379964 0.152719
vn 0.912307 -0.379964 0.152719
vn -0.918387 -0.365155 0.152406
vn -0.918387 -0.365155 0.152406
vn -0.918387 -0.365155 0.152406
vn -0.918387 -0.365155 0.152406
vn -0.663221 0.631325 -0.401954
vn -0.663221 0.631325 -0.401954
vn -0.663221 0.631325 -0.401954
vn -0.663221 0.631325 -0.401954
vn 0.686511 0.601844 0.408027
vn 0.686511 0.601844 0.408027
vn 0.686511 0.601844 0.408027
vn 0.686511 0.601844 0.408027
vn -0.761629 0.635233 -0.128061
vn -0.761629 0.635233 -0.128061
vn -0.761629 0.635233 -0.128061
vn -0.761629 0.635233 -0.128061
vn 0.802448 0.581780 0.132699
vn 0.802448 0.581780 0.132699
vn 0.802448 0.581780 0.132699
vn 0.802448 0.581780 0.132699
vn -0.756063 0.642030 0.127145
vn -0.756063 0.642030 0.127145
vn -0.756063 0.642030 0.127145
vn -0.756063 0.642030 0.127145
vn 0.807928 0.573930 -0.133627
vn 0.807928 0.573930 -0.133627
vn 0.807928 0.573930 -0.133627
vn 0.807928 0.573930 -0.133627
vn -0.648086 0.652325 0.393008
vn -0.648086 0.652325 0.393008
vn -0.648086 0.652325 0.393008
vn -0.648086 0.652325 0.393008
vn 0.423311 0.581023 -0.695141
vn 0.423311 0.581023 -0.695141
vn 0.423311 0.581023 -0.695141
vn 0.423311 0.581023 -0.695141
vn 0.701372 0.578021 -0.417095
vn 0.701372 0.578021 -0.417095
vn 0.701372 0.578021 -0.417095
vn 0.701372 0.578021 -0.417095
vn -0.386107 0.649502 0.655034
vn -0.386107 0.649502 0.655034
vn -0.386107 0.649502 0.655034
vn -0.386107 0.649502 0.655034
vn 0.139831 0.581140 -0.801700
vn 0.139831 0.581140 -0.801700
vn 0.139831 0.581140 -0.801700
vn 0.139831 0.581140 -0.801700
vn -0.120381 0.635175 0.762929
vn -0.120381 0.635175 0.762929
vn -0.120381 0.635175 0.762929
vn -0.120381 0.635175 0.762929
vn -0.126375 0.591803 -0.796115
vn -0.126375 0.591803 -0.796115
vn -0.126375 0.591803 -0.796115
vn -0.126375 0.591803 -0.796115
vn 0.134763 0.625566 0.768444
vn 0.134763 0.625566 0.768444
vn 0.134763 0.625566 0.768444
vn 0.134763 0.625566 0.768444
vn -0.401452 0.613581 -0.679966
vn -0.401452 0.613581 -0.679966
vn -0.401452 0.613581 -0.679966
vn -0.401452 0.613581 -0.679966
vn 0.408641 0.619766 0.670003
vn 0.408641 0.619766 0.670003
vn 0.408641 0.619766 0.670003
vn 0.408641 0.619766 0.670003
vn 0.010674 0.999943 0.000004
vn 0.010674 0.999943 0.000004
vn 0.010674 0.999943 0.000004
vn 0.010674 0.999943 0.000004
vn 0.010675 0.999943 -0.000005
vn 0.010675 0.999943 -0.000005
vn 0.010675 0.999943 -0.000005
vn 0.010675 0.999943 -0.000005
vn 0.010678 0.999943 0.000001
vn 0.010678 0.999943 0.000001
vn 0.010678 0.999943 0.000001
vn 0.010678 0.999943 0.000001
vn 0.010673 0.999943 -0.000008
vn 0.010673 0.999943 -0.000008
vn 0.010673 0.999943 -0.000008
vn 0.010673 0.999943 -0.000008
vn 0.010678 0.999943 0.000002
vn 0.010678 0.999943 0.000002
vn 0.010678 0.999943 0.000002
vn 0.010678 0.999943 0.000002
vn 0.010675 0.999943 -0.000004
vn 0.010675 0.999943 -0.000004
vn 0.010675 0.999943 -0.000004
vn 0.010675 0.999943 -0.000004
vn 0.010680 0.999943 0.000001
vn 0.010680 0.999943 0.000001
vn 0.010680 0.999943 0.000001
vn 0.010680 0.999943 0.000001
vn 0.010674 0.999943 -0.000000
vn 0.010674 0.999943 -0.000000
vn 0.010674 0.999943 -0.000000
vn 0.010674 0.999943 -0.000000
vn 0.010679 0.999943 -0.000001
vn 0.010679 0.999943 -0.000001
vn 0.010679 0.999943 -0.000001
vn 0.010679 0.999943 -0.000001
vn 0.010674 0.999943 -0.000000
vn 0.010674 0.999943 -0.000000
vn 0.010674 0.999943 -0.000000
vn 0.010674 0.999943 -0.000000
vn 0.010679 0.999943 0.000000
vn 0.010679 0.999943 0.000000
vn 0.010679 0.999943 0.000000
vn 0.010679 0.999943 0.000000
vn 0.010675 0.999943 0.000004
vn 0.010675 0.999943 0.000004
vn 0.010675 0.999943 0.000004
vn 0.010675 0.999943 0.000004
vn 0.010675 0.999943 -0.000003
vn 0.010675 0.999943 -0.000003
vn 0.010675 0.999943 -0.000003
vn 0.010675 0.999943 -0.000003
vn 0.010680 0.999943 -0.000001
vn 0.010680 0.999943 -0.000001
vn 0.010680 0.999943 -0.000001
vn 0.010680 0.999943 -0.000001
vn 0.010670 0.999943 0.000008
vn 0.010670 0.999943 0.000008
vn 0.010670 0.999943 0.000008
vn 0.010670 0.999943 0.000008
vn 0.010678 0.999943 -0.000001
vn 0.010678 0.999943 -0.000001
vn 0.010678 0.999943 -0.000001
vn 0.010678 0.999943 -0.000001
vn 0.412971 -0.584253 -0.698644
vn 0.412971 -0.584253 -0.698644
vn 0.412971 -0.584253 -0.698644
vn 0.412971 -0.584253 -0.698644
vn 0.128712 -0.573595 -0.808963
vn 0.128712 -0.573595 -0.808963
vn 0.128712 -0.573595 -0.808963
vn 0.128712 -0.573595 -0.808963
vn -0.425353 -0.575303 -0.698643
vn -0.425353 -0.575303 -0.698643
vn -0.425353 -0.575303 -0.698643
vn -0.425353 -0.575303 -0.698643
vn -0.446319 0.484387 -0.752442
vn -0.446319 0.484387 -0.752442
vn -0.446319 0.484387 -0.752442
vn -0.446319 0.484387 -0.752442
vn -0.139856 0.473823 -0.869444
vn -0.139856 0.473823 -0.869444
vn -0.139856 0.473823 -0.869444
vn -0.139856 0.473823 -0.869444
vn -0.507045 0.155419 -0.847792
vn -0.507045 0.155419 -0.847792
vn -0.507045 0.155419 -0.847792
vn -0.507045 0.155419 -0.847792
vn -0.161030 0.148847 -0.975661
vn -0.161030 0.148847 -0.975661
vn -0.161030 0.148847 -0.975661
vn -0.161030 0.148847 -0.975661
vn 0.456561 0.474746 -0.752442
vn 0.456561 0.474746 -0.752442
vn 0.456561 0.474746 -0.752442
vn 0.456561 0.474746 -0.752442
vn 0.510247 0.144556 -0.847792
vn 0.510247 0.144556 -0.847792
vn 0.510247 0.144556 -0.847792
vn 0.510247 0.144556 -0.847792
vn 0.149942 0.470728 -0.869444
vn 0.149942 0.470728 -0.869444
vn 0.149942 0.470728 -0.869444
vn 0.149942 0.470728 -0.869444
vn 0.164172 0.145375 -0.975661
vn 0.164172 0.145375 -0.975661
vn 0.164172 0.145375 -0.975661
vn 0.164172 0.145375 -0.975661
vn -0.140930 -0.570716 -0.808964
vn -0.140930 -0.570716 -0.808964
vn -0.140930 -0.570716 -0.808964
vn -0.140930 -0.570716 -0.808964
vn -0.425353 -0.575303 0.698643
vn -0.425353 -0.575303 0.698643
vn -0.425353 -0.575303 0.698643
vn -0.425353 -0.575303 0.698643
vn -0.140929 -0.570716 0.808964
vn -0.140929 -0.570716 0.808964
vn -0.140929 -0.570716 0.808964
vn -0.140929 -0.570716 0.808964
vn 0.412971 -0.584253 0.698644
vn 0.412971 -0.584253 0.698644
vn 0.412971 -0.584253 0.698644
vn 0.412971 -0.584253 0.698644
vn 0.456561 0.474746 0.752441
vn 0.456561 0.474746 0.752441
vn 0.456561 0.474746 0.752441
vn 0.456561 0.474746 0.752441
vn 0.149942 0.470728 0.869444
vn 0.149942 0.470728 0.869444
vn 0.149942 0.470728 0.869444
vn 0.149942 0.470728 0.869444
vn 0.510248 0.144557 0.847791
vn 0.510248 0.144557 0.847791
vn 0.510248 0.144557 0.847791
vn 0.510248 0.144557 0.847791
vn 0.164172 0.145375 0.975661
vn 0.164172 0.145375 0.975661
vn 0.164172 0.145375 0.975661
vn 0.164172 0.145375 0.975661
vn -0.446319 0.484387 0.752442
vn -0.446319 0.484387 0.752442
vn -0.446319 0.484387 0.752442
vn -0.446319 0.484387 0.752442
vn -0.507045 0.155419 0.847792
vn -0.507045 0.155419 0.847792
vn -0.507045 0.155419 0.847792
vn -0.507045 0.155419 0.847792
vn -0.139857 0.473823 0.869444
vn -0.139857 0.473823 0.869444
vn -0.139857 0.473823 0.869444
vn -0.139857 0.473823 0.869444
vn -0.161030 0.148847 0.975661
vn -0.161030 0.148847 0.975661
vn -0.161030 0.148847 0.975661
vn -0.161030 0.148847 0.975661
vn 0.128712 -0.573595 0.808963
vn 0.128712 -0.573595 0.808963
vn 0.128712 -0.573595 0.808963
vn 0.128712 -0.573595 0.808963
vn -0.704794 -0.572319 -0.419186
vn -0.704794 -0.572319 -0.419186
vn -0.704794 -0.572319 -0.419186
vn -0.704794 -0.572319 -0.419186
vn -0.815027 -0.563518 -0.134827
vn -0.815027 -0.563518 -0.134827
vn -0.815027 -0.563518 -0.134827
vn -0.815027 -0.563518 -0.134827
vn -0.704794 -0.572319 0.419186
vn -0.704794 -0.572319 0.419186
vn -0.704794 -0.572319 0.419186
vn -0.704794 -0.572319 0.419186
vn -0.747278 0.487601 0.451465
vn -0.747278 0.487601 0.451465
vn -0.747278 0.487601 0.451465
vn -0.747278 0.487601 0.451465
vn -0.864351 0.481559 0.144907
vn -0.864351 0.481559 0.144907
vn -0.864351 0.481559 0.144907
vn -0.864351 0.481559 0.144907
vn -0.846142 0.159040 0.508675
vn -0.846142 0.159040 0.508675
vn -0.846142 0.159040 0.508675
vn -0.846142 0.159040 0.508675
vn -0.974034 0.157528 0.162610
vn -0.974034 0.157528 0.162610
vn -0.974034 0.157528 0.162610
vn -0.974034 0.157528 0.162610
vn -0.747278 0.487600 -0.451466
vn -0.747278 0.487600 -0.451466
vn -0.747278 0.487600 -0.451466
vn -0.747278 0.487600 -0.451466
vn -0.846142 0.159040 -0.508675
vn -0.846142 0.159040 -0.508675
vn -0.846142 0.159040 -0.508675
vn -0.846142 0.159040 -0.508675
vn -0.864351 0.481559 -0.144907
vn -0.864351 0.481559 -0.144907
vn -0.864351 0.481559 -0.144907
vn -0.864351 0.481559 -0.144907
vn -0.974034 0.157528 -0.162610
vn -0.974034 0.157528 -0.162610
vn -0.974034 0.157528 -0.162610
vn -0.974034 0.157528 -0.162610
vn -0.815027 -0.563518 0.134827
vn -0.815027 -0.563518 0.134827
vn -0.815027 -0.563518 0.134827
vn -0.815027 -0.563518 0.134827
vn 0.692413 -0.587238 0.419186
vn 0.692413 -0.587238 0.419186
vn 0.692413 -0.587238 0.419186
vn 0.692413 -0.587238 0.419186
vn 0.802808 -0.580794 0.134827
vn 0.802808 -0.580794 0.134827
vn 0.802808 -0.580794 0.134827
vn 0.802808 -0.580794 0.134827
vn 0.692413 -0.587237 -0.419186
vn 0.692413 -0.587237 -0.419186
vn 0.692413 -0.587237 -0.419186
vn 0.692413 -0.587237 -0.419186
vn 0.757519 0.471533 -0.451466
vn 0.757519 0.471533 -0.451466
vn 0.757519 0.471533 -0.451466
vn 0.757519 0.471533 -0.451466
vn 0.874437 0.462992 -0.144908
vn 0.874437 0.462992 -0.144908
vn 0.874437 0.462992 -0.144908
vn 0.874437 0.462992 -0.144908
vn 0.849345 0.140936 -0.508676
vn 0.849345 0.140936 -0.508676
vn 0.849345 0.140936 -0.508676
vn 0.849345 0.140936 -0.508676
vn 0.977176 0.136694 -0.162610
vn 0.977176 0.136694 -0.162610
vn 0.977176 0.136694 -0.162610
vn 0.977176 0.136694 -0.162610
vn 0.757520 0.471533 0.451465
vn 0.757520 0.471533 0.451465
vn 0.757520 0.471533 0.451465
vn 0.757520 0.471533 0.451465
vn 0.849344 0.140936 0.508676
vn 0.849344 0.140936 0.508676
vn 0.849344 0.140936 0.508676
vn 0.849344 0.140936 0.508676
vn 0.874437 0.462993 0.144908
vn 0.874437 0.462993 0.144908
vn 0.874437 0.462993 0.144908
vn 0.874437 0.462993 0.144908
vn 0.977176 0.136694 0.162610
vn 0.977176 0.136694 0.162610
vn 0.977176 0.136694 0.162610
vn 0.977176 0.136694 0.162610
vn -0.538647 -0.653621 0.531638
vn -0.538647 -0.653621 0.531638
vn -0.538647 -0.653621 0.531638
vn -0.538647 -0.653621 0.531638
vn -0.194593 -0.862644 0.466882
vn -0.194593 -0.862644 0.466882
vn -0.194593 -0.862644 0.466882
vn -0.194593 -0.862644 0.466882
vn -0.476088 -0.859638 0.185371
vn -0.476088 -0.859638 0.185371
vn -0.476088 -0.859638 0.185371
vn -0.476088 -0.859638 0.185371
vn -0.139535 -0.981773 0.129045
vn -0.139535 -0.981773 0.129045
vn -0.139535 -0.981773 0.129045
vn -0.139535 -0.981773 0.129045
vn 0.524568 -0.664973 0.531638
vn 0.524568 -0.664973 0.531638
vn 0.524568 -0.664973 0.531638
vn 0.524568 -0.664973 0.531638
vn 0.457624 -0.869608 0.185371
vn 0.457624 -0.869608 0.185371
vn 0.457624 -0.869608 0.185371
vn 0.457624 -0.869608 0.185371
vn 0.176128 -0.866602 0.466882
vn 0.176128 -0.866602 0.466882
vn 0.176128 -0.866602 0.466882
vn 0.176128 -0.866602 0.466882
vn 0.118539 -0.984528 0.129045
vn 0.118539 -0.984528 0.129045
vn 0.118539 -0.984528 0.129045
vn 0.118539 -0.984528 0.129045
vn 0.524568 -0.664974 -0.531638
vn 0.524568 -0.664974 -0.531638
vn 0.524568 -0.664974 -0.531638
vn 0.524568 -0.664974 -0.531638
vn 0.176128 -0.866602 -0.466882
vn 0.176128 -0.866602 -0.466882
vn 0.176128 -0.866602 -0.466882
vn 0.176128 -0.866602 -0.466882
vn 0.457624 -0.869608 -0.185371
vn 0.457624 -0.869608 -0.185371
vn 0.457624 -0.869608 -0.185371
vn 0.457624 -0.869608 -0.185371
vn 0.118539 -0.984528 -0.129045
vn 0.118539 -0.984528 -0.129045
vn 0.118539 -0.984528 -0.129045
vn 0.118539 -0.984528 -0.129045
vn -0.538647 -0.653621 -0.531638
vn -0.538647 -0.653621 -0.531638
vn -0.538647 -0.653621 -0.531638
vn -0.538647 -0.653621 -0.531638
vn -0.476088 -0.859638 -0.185371
vn -0.476088 -0.859638 -0.185371
vn -0.476088 -0.859638 -0.185371
vn -0.476088 -0.859638 -0.185371
vn -0.194593 -0.862644 -0.466882
vn -0.194593 -0.862644 -0.466882
vn -0.194593 -0.862644 -0.466882
vn -0.194593 -0.862644 -0.466882
vn -0.139535 -0.981773 -0.129045
vn -0.139535 -0.981773 -0.129045
vn -0.139535 -0.981773 -0.129045
vn -0.139535 -0.981773 -0.129045
vn -0.582465 -0.163899 0.796161
vn -0.582465 -0.163899 0.796161
vn -0.582465 -0.163899 0.796161
vn -0.582465 -0.163899 0.796161
vn -0.522384 0.246160 0.816407
vn -0.522384 0.246160 0.816407
vn -0.522384 0.246160 0.816407
vn -0.522384 0.246160 0.816407
vn -0.241040 -0.219427 0.945384
vn -0.241040 -0.219427 0.945384
vn -0.241040 -0.219427 0.945384
vn -0.241040 -0.219427 0.945384
vn -0.180366 0.282800 0.942068
vn -0.180366 0.282800 0.942068
vn -0.180366 0.282800 0.942068
vn -0.180366 0.282800 0.942068
vn -0.458419 0.441768 0.771163
vn -0.458419 0.441768 0.771163
vn -0.458419 0.441768 0.771163
vn -0.458419 0.441768 0.771163
vn -0.143964 0.431714 0.890448
vn -0.143964 0.431714 0.890448
vn -0.143964 0.431714 0.890448
vn -0.143964 0.431714 0.890448
vn -0.459550 0.450595 0.765361
vn -0.459550 0.450595 0.765361
vn -0.459550 0.450595 0.765361
vn -0.459550 0.450595 0.765361
vn -0.145871 0.448076 0.882015
vn -0.145871 0.448076 0.882015
vn -0.145871 0.448076 0.882015
vn -0.145871 0.448076 0.882015
vn 0.468008 0.431505 0.771215
vn 0.468008 0.431505 0.771215
vn 0.468008 0.431505 0.771215
vn 0.468008 0.431505 0.771215
vn 0.469257 0.440787 0.765183
vn 0.469257 0.440787 0.765183
vn 0.469257 0.440787 0.765183
vn 0.469257 0.440787 0.765183
vn 0.153385 0.428410 0.890470
vn 0.153385 0.428410 0.890470
vn 0.153385 0.428410 0.890470
vn 0.153385 0.428410 0.890470
vn 0.155681 0.444895 0.881948
vn 0.155681 0.444895 0.881948
vn 0.155681 0.444895 0.881948
vn 0.155681 0.444895 0.881948
vn 0.578833 -0.176299 0.796160
vn 0.578833 -0.176299 0.796160
vn 0.578833 -0.176299 0.796160
vn 0.578833 -0.176299 0.796160
vn 0.236299 -0.224524 0.945385
vn 0.236299 -0.224524 0.945385
vn 0.236299 -0.224524 0.945385
vn 0.236299 -0.224524 0.945385
vn 0.527572 0.235433 0.816235
vn 0.527572 0.235433 0.816235
vn 0.527572 0.235433 0.816235
vn 0.527572 0.235433 0.816235
vn 0.186507 0.279021 0.941999
vn 0.186507 0.279021 0.941999
vn 0.186507 0.279021 0.941999
vn 0.186507 0.279021 0.941999
vn 0.794299 -0.178600 0.580682
vn 0.794299 -0.178600 0.580682
vn 0.794299 -0.178600 0.580682
vn 0.794299 -0.178600 0.580682
vn 0.818871 0.232611 0.524730
vn 0.818871 0.232611 0.524730
vn 0.818871 0.232611 0.524730
vn 0.818871 0.232611 0.524730
vn 0.942960 -0.232069 0.238683
vn 0.942960 -0.232069 0.238683
vn 0.942960 -0.232069 0.238683
vn 0.942960 -0.232069 0.238683
vn 0.944806 0.271597 0.183238
vn 0.944806 0.271597 0.183238
vn 0.944806 0.271597 0.183238
vn 0.944806 0.271597 0.183238
vn 0.776125 0.427990 0.463092
vn 0.776125 0.427990 0.463092
vn 0.776125 0.427990 0.463092
vn 0.776125 0.427990 0.463092
vn 0.895349 0.419868 0.148528
vn 0.895349 0.419868 0.148528
vn 0.895349 0.419868 0.148528
vn 0.895349 0.419868 0.148528
vn 0.770137 0.437624 0.464084
vn 0.770137 0.437624 0.464084
vn 0.770137 0.437624 0.464084
vn 0.770137 0.437624 0.464084
vn 0.886655 0.437251 0.150515
vn 0.886655 0.437251 0.150515
vn 0.886655 0.437251 0.150515
vn 0.886655 0.437251 0.150515
vn 0.776192 0.427460 -0.463470
vn 0.776192 0.427460 -0.463470
vn 0.776192 0.427460 -0.463470
vn 0.776192 0.427460 -0.463470
vn 0.769884 0.437785 -0.464352
vn 0.769884 0.437785 -0.464352
vn 0.769884 0.437785 -0.464352
vn 0.769884 0.437785 -0.464352
vn 0.895379 0.419685 -0.148865
vn 0.895379 0.419685 -0.148865
vn 0.895379 0.419685 -0.148865
vn 0.895379 0.419685 -0.148865
vn 0.886560 0.437309 -0.150904
vn 0.886560 0.437309 -0.150904
vn 0.886560 0.437309 -0.150904
vn 0.886560 0.437309 -0.150904
vn 0.794299 -0.178600 -0.580682
vn 0.794299 -0.178600 -0.580682
vn 0.794299 -0.178600 -0.580682
vn 0.794299 -0.178600 -0.580682
vn 0.942960 -0.232069 -0.238683
vn 0.942960 -0.232069 -0.238683
vn 0.942960 -0.232069 -0.238683
vn 0.942960 -0.232069 -0.238683
vn 0.818635 0.233291 -0.524797
vn 0.818635 0.233291 -0.524797
vn 0.818635 0.233291 -0.524797
vn 0.818635 0.233291 -0.524797
vn 0.944712 0.271791 -0.183436
vn 0.944712 0.271791 -0.183436
vn 0.944712 0.271791 -0.183436
vn 0.944712 0.271791 -0.183436
vn 0.578832 -0.176299 -0.796160
vn 0.578832 -0.176299 -0.796160
vn 0.578832 -0.176299 -0.796160
vn 0.578832 -0.176299 -0.796160
vn 0.527299 0.236452 -0.816116
vn 0.527299 0.236452 -0.816116
vn 0.527299 0.236452 -0.816116
vn 0.527299 0.236452 -0.816116
vn 0.236299 -0.224524 -0.945384
vn 0.236299 -0.224524 -0.945384
vn 0.236299 -0.224524 -0.945384
vn 0.236299 -0.224524 -0.945384
vn 0.186387 0.280006 -0.941731
vn 0.186387 0.280006 -0.941731
vn 0.186387 0.280006 -0.941731
vn 0.186387 0.280006 -0.941731
vn 0.468045 0.430710 -0.771636
vn 0.468045 0.430710 -0.771636
vn 0.468045 0.430710 -0.771636
vn 0.468045 0.430710 -0.771636
vn 0.153389 0.427497 -0.890909
vn 0.153389 0.427497 -0.890909
vn 0.153389 0.427497 -0.890909
vn 0.153389 0.427497 -0.890909
vn 0.469010 0.441007 -0.765208
vn 0.469010 0.441007 -0.765208
vn 0.469010 0.441007 -0.765208
vn 0.469010 0.441007 -0.765208
vn 0.155593 0.445143 -0.881838
vn 0.155593 0.445143 -0.881838
vn 0.155593 0.445143 -0.881838
vn 0.155593 0.445143 -0.881838
vn -0.458475 0.440972 -0.771586
vn -0.458475 0.440972 -0.771586
vn -0.458475 0.440972 -0.771586
vn -0.458475 0.440972 -0.771586
vn -0.459302 0.450808 -0.765385
vn -0.459302 0.450808 -0.765385
vn -0.459302 0.450808 -0.765385
vn -0.459302 0.450808 -0.765385
vn -0.143990 0.430799 -0.890886
vn -0.143990 0.430799 -0.890886
vn -0.143990 0.430799 -0.890886
vn -0.143990 0.430799 -0.890886
vn -0.145783 0.448321 -0.881904
vn -0.145783 0.448321 -0.881904
vn -0.145783 0.448321 -0.881904
vn -0.145783 0.448321 -0.881904
vn -0.582465 -0.163900 -0.796160
vn -0.582465 -0.163900 -0.796160
vn -0.582465 -0.163900 -0.796160
vn -0.582465 -0.163900 -0.796160
vn -0.241040 -0.219427 -0.945384
vn -0.241040 -0.219427 -0.945384
vn -0.241040 -0.219427 -0.945384
vn -0.241040 -0.219427 -0.945384
vn -0.522089 0.247187 -0.816285
vn -0.522089 0.247187 -0.816285
vn -0.522089 0.247187 -0.816285
vn -0.522089 0.247187 -0.816285
vn -0.180229 0.283786 -0.941798
vn -0.180229 0.283786 -0.941798
vn -0.180229 0.283786 -0.941798
vn -0.180229 0.283786 -0.941798
vn -0.797931 -0.161599 -0.580682
vn -0.797931 -0.161599 -0.580682
vn -0.797931 -0.161599 -0.580682
vn -0.797931 -0.161599 -0.580682
vn -0.813556 0.250013 -0.524995
vn -0.813556 0.250013 -0.524995
vn -0.813556 0.250013 -0.524995
vn -0.813556 0.250013 -0.524995
vn -0.947701 -0.211882 -0.238683
vn -0.947701 -0.211882 -0.238683
vn -0.947701 -0.211882 -0.238683
vn -0.947701 -0.211882 -0.238683
vn -0.938887 0.291219 -0.183528
vn -0.938887 0.291219 -0.183528
vn -0.938887 0.291219 -0.183528
vn -0.938887 0.291219 -0.183528
vn -0.766588 0.444486 -0.463439
vn -0.766588 0.444486 -0.463439
vn -0.766588 0.444486 -0.463439
vn -0.766588 0.444486 -0.463439
vn -0.885902 0.439340 -0.148856
vn -0.885902 0.439340 -0.148856
vn -0.885902 0.439340 -0.148856
vn -0.885902 0.439340 -0.148856
vn -0.760345 0.453973 -0.464526
vn -0.760345 0.453973 -0.464526
vn -0.760345 0.453973 -0.464526
vn -0.760345 0.453973 -0.464526
vn -0.877098 0.455968 -0.150968
vn -0.877098 0.455968 -0.150968
vn -0.877098 0.455968 -0.150968
vn -0.877098 0.455968 -0.150968
vn -0.766509 0.445017 0.463059
vn -0.766509 0.445017 0.463059
vn -0.766509 0.445017 0.463059
vn -0.766509 0.445017 0.463059
vn -0.760602 0.453819 0.464255
vn -0.760602 0.453819 0.464255
vn -0.760602 0.453819 0.464255
vn -0.760602 0.453819 0.464255
vn -0.885868 0.439524 0.148516
vn -0.885868 0.439524 0.148516
vn -0.885868 0.439524 0.148516
vn -0.885868 0.439524 0.148516
vn -0.877195 0.455913 0.150573
vn -0.877195 0.455913 0.150573
vn -0.877195 0.455913 0.150573
vn -0.877195 0.455913 0.150573
vn -0.797931 -0.161599 0.580682
vn -0.797931 -0.161599 0.580682
vn -0.797931 -0.161599 0.580682
vn -0.797931 -0.161599 0.580682
vn -0.947701 -0.211882 0.238683
vn -0.947701 -0.211882 0.238683
vn -0.947701 -0.211882 0.238683
vn -0.947701 -0.211882 0.238683
vn -0.813811 0.249323 0.524929
vn -0.813811 0.249323 0.524929
vn -0.813811 0.249323 0.524929
vn -0.813811 0.249323 0.524929
vn -0.938988 0.291022 0.183324
vn -0.938988 0.291022 0.183324
vn -0.938988 0.291022 0.183324
vn -0.938988 0.291022 0.183324
usemtl pouch_Brown
f 1//1 2//2 3//3
f 2//2 1//1 4//4
f 5//5 6//6 7//7
f 6//6 5//5 8//8
f 9//9 10//10 11//11
f 12//12 10//10 9//9
f 13//13 14//14 15//15
f 16//16 14//14 13//13
f 17//17 18//18 19//19
f 20//20 18//18 17//17
f 21//21 22//22 23//23
f 24//24 22//22 21//21
f 25//25 26//26 27//27
f 26//26 25//25 28//28
f 29//29 30//30 31//31
f 30//30 29//29 32//32
f 33//33 34//34 35//35
f 34//34 33//33 36//36
f 37//37 38//38 39//39
f 38//38 37//37 40//40
f 41//41 42//42 43//43
f 44//44 42//42 41//41
f 45//45 46//46 47//47
f 46//46 45//45 48//48
f 49//49 50//50 51//51
f 52//52 50//50 49//49
f 53//53 54//54 55//55
f 54//54 53//53 56//56
f 57//57 58//58 59//59
f 60//60 58//58 57//57
f 61//61 62//62 63//63
f 62//62 61//61 64//64
f 65//65 66//66 67//67
f 66//66 65//65 68//68
f 69//69 70//70 71//71
f 69//69 71//71 72//72
f 73//73 74//74 70//70
f 73//73 70//70 69//69
f 75//75 76//76 77//77
f 76//76 78//78 73//73
f 76//76 75//75 78//78
f 74//74 73//73 78//78
f 74//74 78//78 79//79
f 80//80 81//81 82//82
f 70//70 81//81 80//80
f 70//70 74//74 81//81
f 79//79 83//83 84//84
f 79//79 78//78 83//83
f 85//85 86//86 87//87
f 86//86 85//85 88//88
f 89//89 90//90 91//91
f 90//90 89//89 92//92
f 93//93 94//94 95//95
f 96//96 94//94 93//93
f 97//97 98//98 99//99
f 98//98 97//97 100//100
f 101//101 102//102 103//103
f 104//104 102//102 101//101
f 105//105 106//106 107//107
f 108//108 106//106 105//105
f 109//109 110//110 111//111
f 112//112 110//110 109//109
f 113//113 114//114 115//115
f 114//114 113//113 116//116
f 117//117 118//118 119//119
f 118//118 117//117 120//120
f 121//121 122//122 123//123
f 122//122 121//121 124//124
f 125//125 126//126 127//127
f 126//126 125//125 128//128
f 129//129 130//130 131//131
f 132//132 130//130 129//129
f 133//133 134//134 135//135
f 136//136 134//134 133//133
f 137//137 138//138 139//139
f 140//140 138//138 137//137
f 141//141 142//142 143//143
f 144//144 142//142 141//141
f 145//145 146//146 147//147
f 146//146 145//145 148//148
f 149//149 150//150 151//151
f 150//150 149//149 152//152
f 153//153 154//154 155//155
f 154//154 153//153 156//156
f 157//157 158//158 159//159
f 158//158 157//157 160//160
f 161//161 162//162 163//163
f 162//162 161//161 164//164
f 165//165 166//166 167//167
f 168//168 166//166 165//165
f 169//169 170//170 171//171
f 170//170 169//169 172//172
f 173//173 174//174 175//175
f 175//175 176//176 173//173
f 177//177 178//178 179//179
f 178//178 177//177 180//180
f 181//181 182//182 183//183
f 184//184 182//182 181//181
f 185//185 186//186 187//187
f 186//186 185//185 188//188
f 189//189 190//190 191//191
f 190//190 189//189 192//192
f 193//193 194//194 195//195
f 194//194 193//193 196//196
f 197//197 198//198 199//199
f 198//198 197//197 200//200
f 201//201 202//202 203//203
f 204//204 202//202 201//201
f 205//205 206//206 207//207
f 208//208 206//206 205//205
f 209//209 210//210 211//211
f 212//212 210//210 209//209
f 213//213 214//214 215//215
f 214//214 213//213 216//216
f 217//217 218//218 219//219
f 219//219 220//220 217//217
f 221//221 222//222 223//223
f 222//222 221//221 224//224
f 225//225 226//226 227//227
f 227//227 228//228 225//225
f 229//229 230//230 231//231
f 230//230 229//229 232//232
f 233//233 234//234 235//235
f 234//234 233//233 236//236
f 237//237 238//238 239//239
f 238//238 237//237 240//240
f 241//241 242//242 243//243
f 242//242 241//241 244//244
f 245//245 246//246 247//247
f 246//246 245//245 248//248
f 249//249 250//250 251//251
f 250//250 249//249 252//252
f 253//253 254//254 255//255
f 255//255 256//256 253//253
f 257//257 258//258 259//259
f 259//259 260//260 257//257
f 261//261 262//262 263//263
f 262//262 261//261 264//264
f 265//265 266//266 267//267
f 266//266 265//265 268//268
f 269//269 270//270 271//271
f 270//270 269//269 272//272
f 273//273 274//274 275//275
f 274//274 273//273 276//276
f 277//277 278//278 279//279
f 278//278 277//277 280//280
f 281//281 282//282 283//283
f 282//282 281//281 284//284
f 285//285 286//286 287//287
f 286//286 285//285 288//288
f 289//289 290//290 291//291
f 290//290 289//289 292//292
f 293//293 294//294 295//295
f 294//294 293//293 296//296
f 297//297 298//298 299//299
f 298//298 297//297 300//300
f 301//301 302//302 303//303
f 302//302 301//301 304//304
f 305//305 306//306 307//307
f 306//306 305//305 308//308
f 309//309 310//310 311//311
f 310//310 309//309 312//312
f 313//313 314//314 315//315
f 314//314 313//313 316//316
f 317//317 318//318 319//319
f 318//318 317//317 320//320
f 321//321 322//322 323//323
f 322//322 321//321 324//324
f 325//325 326//326 327//327
f 326//326 325//325 328//328
f 329//329 330//330 331//331
f 330//330 329//329 332//332
f 333//333 334//334 335//335
f 334//334 333//333 336//336
f 337//337 338//338 339//339
f 338//338 337//337 340//340
f 341//341 342//342 343//343
f 342//342 341//341 344//344
f 345//345 346//346 347//347
f 346//346 345//345 348//348
f 349//349 350//350 351//351
f 350//350 349//349 352//352
f 353//353 354//354 355//355
f 354//354 353//353 356//356
f 357//357 358//358 359//359
f 358//358 357//357 360//360
f 361//361 362//362 363//363
f 362//362 361//361 364//364
f 365//365 366//366 367//367
f 366//366 365//365 368//368
f 369//369 370//370 371//371
f 370//370 369//369 372//372
f 373//373 374//374 375//375
f 374//374 373//373 376//376
f 377//377 378//378 379//379
f 378//378 377//377 380//380
f 381//381 382//382 383//383
f 384//384 382//382 381//381
f 385//385 386//386 387//387
f 386//386 385//385 388//388
f 389//389 390//390 391//391
f 390//390 389//389 392//392
f 393//393 394//394 395//395
f 394//394 393//393 396//396
f 397//397 398//398 399//399
f 398//398 397//397 400//400
f 401//401 402//402 403//403
f 402//402 401//401 404//404
f 405//405 406//406 407//407
f 406//406 405//405 408//408
f 409//409 410//410 411//411
f 410//410 409//409 412//412
f 413//413 414//414 415//415
f 414//414 413//413 416//416
f 417//417 418//418 419//419
f 418//418 417//417 420//420
f 421//421 422//422 423//423
f 422//422 421//421 424//424
f 425//425 426//426 427//427
f 426//426 425//425 428//428
f 429//429 430//430 431//431
f 432//432 430//430 429//429
f 433//433 434//434 435//435
f 434//434 433//433 436//436
f 437//437 438//438 439//439
f 438//438 437//437 440//440
f 441//441 442//442 443//443
f 442//442 441//441 444//444
f 445//445 446//446 447//447
f 446//446 445//445 448//448
f 449//449 450//450 451//451
f 450//450 449//449 452//452
f 453//453 454//454 455//455
f 454//454 453//453 456//456
f 457//457 458//458 459//459
f 458//458 457//457 460//460
f 461//461 462//462 463//463
f 462//462 461//461 464//464
f 465//465 466//466 467//467
f 465//465 467//467 468//468
f 469//469 470//470 471//471
f 470//470 469//469 472//472
f 473//473 474//474 475//475
f 474//474 473//473 476//476
f 477//477 478//478 479//479
f 478//478 477//477 480//480
f 481//481 482//482 483//483
f 483//483 484//484 481//481
f 485//485 486//486 487//487
f 487//487 488//488 485//485
f 489//489 490//490 491//491
f 491//491 492//492 489//489
f 493//493 494//494 495//495
f 493//493 495//495 496//496
f 497//497 498//498 499//499
f 500//500 497//497 499//499
f 501//501 502//502 503//503
f 504//504 501//501 503//503
f 505//505 506//506 507//507
f 508//508 505//505 507//507
f 509//509 510//510 511//511
f 512//512 509//509 511//511
f 513//513 514//514 515//515
f 516//516 515//515 514//514
f 517//517 518//518 519//519
f 520//520 518//518 517//517
f 521//521 522//522 523//523
f 524//524 522//522 521//521
f 525//525 526//526 527//527
f 528//528 526//526 525//525
f 529//529 530//530 531//531
f 532//532 530//530 529//529
f 533//533 534//534 535//535
f 534//534 533//533 536//536
f 537//537 538//538 539//539
f 540//540 538//538 537//537
f 541//541 542//542 543//543
f 544//544 542//542 541//541
f 545//545 546//546 547//547
f 546//546 545//545 548//548
f 549//549 550//550 551//551
f 550//550 549//549 552//552
f 553//553 554//554 555//555
f 554//554 553//553 556//556
f 557//557 558//558 559//559
f 558//558 557//557 560//560
f 561//561 562//562 563//563
f 564//564 561//561 563//563
f 565//565 566//566 567//567
f 568//568 565//565 567//567
f 569//569 570//570 571//571
f 571//571 572//572 569//569
f 573//573 574//574 575//575
f 575//575 576//576 573//573
f 577//577 578//578 579//579
f 580//580 577//577 579//579
f 581//581 582//582 583//583
f 584//584 581//581 583//583
f 585//585 586//586 587//587
f 586//586 585//585 588//588
f 589//589 590//590 591//591
f 592//592 589//589 591//591
f 593//593 594//594 595//595
f 596//596 594//594 593//593
f 597//597 598//598 599//599
f 598//598 597//597 600//600
f 601//601 602//602 603//603
f 604//604 602//602 601//601
f 605//605 606//606 607//607
f 608//608 606//606 605//605
f 609//609 610//610 611//611
f 610//610 609//609 612//612
f 613//613 614//614 615//615
f 614//614 613//613 616//616
f 617//617 618//618 619//619
f 618//618 617//617 620//620
f 621//621 622//622 623//623
f 622//622 621//621 624//624
f 625//625 626//626 627//627
f 628//628 625//625 627//627
f 629//629 630//630 631//631
f 632//632 629//629 631//631
f 633//633 634//634 635//635
f 636//636 633//633 635//635
f 637//637 638//638 639//639
f 639//639 640//640 637//637
f 641//641 642//642 643//643
f 644//644 641//641 643//643
f 645//645 646//646 647//647
f 648//648 645//645 647//647
f 649//649 650//650 651//651
f 650//650 649//649 652//652
f 653//653 654//654 655//655
f 656//656 653//653 655//655
f 657//657 658//658 659//659
f 660//660 658//658 657//657
f 661//661 662//662 663//663
f 662//662 661//661 664//664
f 665//665 666//666 667//667
f 668//668 666//666 665//665
f 669//669 670//670 671//671
f 670//670 669//669 672//672
f 673//673 674//674 675//675
f 674//674 673//673 676//676
f 677//677 678//678 679//679
f 678//678 677//677 680//680
f 681//681 682//682 683//683
f 682//682 681//681 684//684
f 685//685 686//686 687//687
f 686//686 685//685 688//688
f 689//689 690//690 691//691
f 692//692 689//689 691//691
f 693//693 694//694 695//695
f 696//696 693//693 695//695
f 697//697 698//698 699//699
f 700//700 697//697 699//699
f 701//701 702//702 703//703
f 703//703 704//704 701//701
f 705//705 706//706 707//707
f 708//708 705//705 707//707
f 709//709 710//710 711//711
f 712//712 709//709 711//711
f 713//713 714//714 715//715
f 714//714 713//713 716//716
f 717//717 718//718 719//719
f 720//720 717//717 719//719
f 721//721 722//722 723//723
f 724//724 722//722 721//721
f 725//725 726//726 727//727
f 726//726 725//725 728//728
f 729//729 730//730 731//731
f 732//732 730//730 729//729
f 733//733 734//734 735//735
f 736//736 734//734 733//733
f 737//737 738//738 739//739
f 738//738 737//737 740//740
f 741//741 742//742 743//743
f 742//742 741//741 744//744
f 745//745 746//746 747//747
f 746//746 745//745 748//748
f 749//749 750//750 751//751
f 750//750 749//749 752//752
f 753//753 754//754 755//755
f 756//756 753//753 755//755
f 757//757 758//758 759//759
f 760//760 757//757 759//759
f 761//761 762//762 763//763
f 764//764 761//761 763//763
f 765//765 766//766 767//767
f 767//767 768//768 765//765
f 769//769 770//770 771//771
f 772//772 769//769 771//771
f 773//773 774//774 775//775
f 776//776 773//773 775//775
f 777//777 778//778 779//779
f 778//778 777//777 780//780
f 781//781 782//782 783//783
f 784//784 781//781 783//783
v -0.059496 0.504801 0.064330
v -0.082750 0.477455 -0.000000
v -0.061308 0.477226 0.064330
v -0.080938 0.505030 -0.000000
v 0.067344 0.475853 -0.064330
v 0.090598 0.503198 -0.000000
v 0.088786 0.475624 -0.000000
v 0.069156 0.503427 -0.064330
v 0.004830 0.504114 -0.085773
v 0.067344 0.475853 -0.064330
v 0.003018 0.476539 -0.085773
v 0.069156 0.503427 -0.064330
v 0.004830 0.504114 0.085773
v -0.059496 0.504801 0.064330
v 0.003018 0.476539 0.085773
v -0.061308 0.477226 0.064330
v 0.003018 0.476539 -0.085773
v -0.059496 0.504801 -0.064330
v 0.004830 0.504114 -0.085773
v -0.061308 0.477226 -0.064330
v -0.082750 0.477455 -0.000000
v -0.059496 0.504801 -0.064330
v -0.061308 0.477226 -0.064330
v -0.080938 0.505030 -0.000000
v 0.067344 0.475853 0.064330
v 0.004830 0.504114 0.085773
v 0.003018 0.476539 0.085773
v 0.069156 0.503427 0.064330
v 0.090598 0.503198 -0.000000
v 0.067344 0.475853 0.064330
v 0.088786 0.475624 -0.000000
v 0.069156 0.503427 0.064330
vn -0.946785 0.062212 0.315798
vn -0.946785 0.062212 0.315798
vn -0.946785 0.062212 0.315798
vn -0.946785 0.062212 0.315798
vn 0.946785 -0.062212 -0.315798
vn 0.946785 -0.062212 -0.315798
vn 0.946785 -0.062212 -0.315798
vn 0.946785 -0.062212 -0.315798
vn 0.315976 -0.020763 -0.948540
vn 0.315976 -0.020763 -0.948540
vn 0.315976 -0.020763 -0.948540
vn 0.315976 -0.020763 -0.948540
vn -0.315976 0.020763 0.948540
vn -0.315976 0.020763 0.948540
vn -0.315976 0.020763 0.948540
vn -0.315976 0.020763 0.948540
vn -0.315976 0.020762 -0.948540
vn -0.315976 0.020762 -0.948540
vn -0.315976 0.020762 -0.948540
vn -0.315976 0.020762 -0.948540
vn -0.946785 0.062212 -0.315799
vn -0.946785 0.062212 -0.315799
vn -0.946785 0.062212 -0.315799
vn -0.946785 0.062212 -0.315799
vn 0.315976 -0.020762 0.948540
vn 0.315976 -0.020762 0.948540
vn 0.315976 -0.020762 0.948540
vn 0.315976 -0.020762 0.948540
vn 0.946785 -0.062212 0.315798
vn 0.946785 -0.062212 0.315798
vn 0.946785 -0.062212 0.315798
vn 0.946785 -0.062212 0.315798
usemtl pouch_DarkRed
f 785//785 786//786 787//787
f 785//785 788//788 786//786
f 789//789 790//790 791//791
f 790//790 789//789 792//792
f 793//793 794//794 795//795
f 794//794 793//793 796//796
f 797//797 798//798 799//799
f 800//800 799//799 798//798
f 801//801 802//802 803//803
f 802//802 801//801 804//804
f 805//805 806//806 807//807
f 806//806 805//805 808//808
f 809//809 810//810 811//811
f 810//810 809//809 812//812
f 813//813 814//814 815//815
f 813//813 816//816 814//814
