mtllib soda.mtl
o soda
v -0.063640 0.000000 -0.063640
v -0.093600 0.010000 0.000000
v -0.066185 0.010000 -0.066185
v -0.090000 0.000000 0.000000
v 0.066185 0.010000 0.066185
v 0.090000 0.000000 0.000000
v 0.093600 0.010000 0.000000
v 0.063640 0.000000 0.063640
v 0.066185 0.010000 0.066185
v -0.000000 0.000000 0.090000
v 0.063640 0.000000 0.063640
v -0.000000 0.010000 0.093600
v -0.000000 0.010000 -0.093600
v 0.063640 0.000000 -0.063640
v -0.000000 0.000000 -0.090000
v 0.066185 0.010000 -0.066185
v -0.063640 0.000000 0.063640
v -0.093600 0.010000 0.000000
v -0.090000 0.000000 0.000000
v -0.066185 0.010000 0.066185
v 0.093600 0.010000 0.000000
v 0.063640 0.000000 -0.063640
v 0.066185 0.010000 -0.066185
v 0.090000 0.000000 0.000000
v -0.066185 0.010000 -0.066185
v -0.000000 0.000000 -0.090000
v -0.063640 0.000000 -0.063640
v -0.000000 0.010000 -0.093600
v -0.000000 0.010000 0.093600
v -0.063640 0.000000 0.063640
v -0.000000 0.000000 0.090000
v -0.066185 0.010000 0.066185
v -0.070686 0.310000 0.070686
v -0.099965 0.330000 0.000000
v -0.099965 0.310000 0.000000
v -0.070686 0.330000 0.070686
v 0.000000 0.330000 0.099965
v -0.070686 0.310000 0.070686
v 0.000000 0.310000 0.099965
v -0.070686 0.330000 0.070686
v 0.070686 0.330000 0.070686
v 0.000000 0.310000 0.099965
v 0.070686 0.310000 0.070686
v 0.000000 0.330000 0.099965
v -0.070686 0.330000 -0.070686
v 0.000000 0.310000 -0.099965
v -0.070686 0.310000 -0.070686
v 0.000000 0.330000 -0.099965
v -0.099965 0.310000 0.000000
v -0.070686 0.330000 -0.070686
v -0.070686 0.310000 -0.070686
v -0.099965 0.330000 0.000000
v 0.063640 0.000000 0.063640
v 0.063640 0.000000 -0.063640
v 0.090000 0.000000 0.000000
v -0.000000 0.000000 0.090000
v -0.000000 0.000000 -0.090000
v -0.063640 0.000000 0.063640
v -0.063640 0.000000 -0.063640
v -0.090000 0.000000 0.000000
v 0.000000 0.330000 -0.099965
v 0.070686 0.310000 -0.070686
v 0.000000 0.310000 -0.099965
v 0.070686 0.330000 -0.070686
v 0.099965 0.330000 -0.000000
v 0.070686 0.310000 -0.070686
v 0.070686 0.330000 -0.070686
v 0.099965 0.310000 -0.000000
v 0.070686 0.330000 0.070686
v 0.099965 0.310000 -0.000000
v 0.099965 0.330000 -0.000000
v 0.070686 0.310000 0.070686
v 0.049982 0.320000 0.049982
v 0.000000 0.330000 0.081926
v 0.057931 0.330000 0.057931
v 0.000000 0.320000 0.070686
v -0.049982 0.320000 0.049982
v 0.000000 0.330000 0.081926
v 0.000000 0.320000 0.070686
v -0.057931 0.330000 0.057931
v 0.057931 0.330000 -0.057931
v 0.070686 0.320000 0.000000
v 0.081926 0.330000 -0.000000
v 0.049982 0.320000 -0.049982
v 0.000000 0.330000 -0.081926
v -0.049982 0.320000 -0.049982
v 0.000000 0.320000 -0.070686
v -0.057931 0.330000 -0.057931
v 0.000000 0.330000 -0.081926
v 0.049982 0.320000 -0.049982
v 0.057931 0.330000 -0.057931
v 0.000000 0.320000 -0.070686
v -0.060334 0.320000 0.024991
v -0.057931 0.330000 0.057931
v -0.049982 0.320000 0.049982
v -0.081926 0.330000 0.000000
v -0.070686 0.320000 0.000000
v -0.057931 0.330000 -0.057931
v -0.070686 0.320000 0.000000
v -0.049982 0.320000 -0.049982
v -0.081926 0.330000 0.000000
v 0.070686 0.320000 0.000000
v 0.057931 0.330000 0.057931
v 0.081926 0.330000 -0.000000
v 0.049982 0.320000 0.049982
v 0.027319 0.320000 -0.026028
v 0.027319 0.320000 0.026028
v 0.038100 0.320000 0.000000
v 0.025585 0.320000 0.000000
v 0.020439 0.320000 -0.012424
v 0.020439 0.320000 0.012424
v -0.018288 0.320000 -0.014793
v -0.006726 0.320000 -0.005733
v -0.018288 0.320000 0.014793
v -0.006726 0.320000 0.005733
v 0.070686 0.330000 -0.070686
v 0.081926 0.330000 -0.000000
v 0.099965 0.330000 -0.000000
v 0.070686 0.330000 0.070686
v 0.057931 0.330000 -0.057931
v 0.057931 0.330000 0.057931
v 0.000000 0.330000 0.099965
v 0.000000 0.330000 0.081926
v 0.000000 0.330000 -0.099965
v 0.000000 0.330000 -0.081926
v -0.057931 0.330000 -0.057931
v -0.070686 0.330000 -0.070686
v -0.070686 0.330000 0.070686
v -0.057931 0.330000 0.057931
v -0.081926 0.330000 0.000000
v -0.099965 0.330000 0.000000
vt -1.355965 1.033140
vt 1.410203 1.448045
vt -1.410203 1.448045
vt 1.355965 1.033140
vt -1.410203 1.448045
vt 1.355965 1.033140
vt 1.410203 1.448045
vt -1.355965 1.033140
vt 1.410203 1.448045
vt -1.355965 1.033140
vt 1.355965 1.033140
vt -1.410203 1.448045
vt 1.410203 1.448045
vt -1.355965 1.033140
vt 1.355965 1.033140
vt -1.410203 1.448045
vt 1.355965 1.033140
vt -1.410203 1.448045
vt -1.355965 1.033140
vt 1.410203 1.448045
vt -1.410203 1.448045
vt 1.355965 1.033140
vt 1.410203 1.448045
vt -1.355965 1.033140
vt 1.410203 1.448045
vt -1.355965 1.033140
vt 1.355965 1.033140
vt -1.410203 1.448045
vt 1.410203 1.448045
vt -1.355965 1.033140
vt 1.355965 1.033140
vt -1.410203 1.448045
vt 1.506097 12.204720
vt -1.506097 12.992130
vt -1.506097 12.204720
vt 1.506097 12.992130
vt 1.506097 12.992130
vt -1.506097 12.204720
vt 1.506097 12.204720
vt -1.506097 12.992130
vt 1.506097 12.992130
vt -1.506097 12.204720
vt 1.506097 12.204720
vt -1.506097 12.992130
vt 1.506097 12.992130
vt -1.506097 12.204720
vt 1.506097 12.204720
vt -1.506097 12.992130
vt 1.506097 12.204720
vt -1.506097 12.992130
vt -1.506097 12.204720
vt 1.506097 12.992130
vt 2.505497 2.505497
vt 2.505497 -2.505497
vt 3.543307 0.000000
vt -0.000000 3.543307
vt -0.000000 -3.543307
vt -2.505497 2.505497
vt -2.505497 -2.505497
vt -3.543307 0.000000
vt 1.506097 12.992130
vt -1.506097 12.204720
vt 1.506097 12.204720
vt -1.506097 12.992130
vt -1.506097 12.992130
vt 1.506097 12.204720
vt 1.506097 12.992130
vt -1.506097 12.204720
vt -1.506097 12.992130
vt 1.506097 12.204720
vt 1.506097 12.992130
vt -1.506097 12.204720
vt -1.064972 10.590740
vt 1.234322 11.158330
vt -1.234322 11.158330
vt 1.064972 10.590740
vt 1.064972 10.590740
vt -1.234322 11.158330
vt -1.064972 10.590740
vt 1.234322 11.158330
vt -1.234322 11.158330
vt 1.064972 10.590740
vt 1.234322 11.158330
vt -1.064972 10.590740
vt 1.234322 11.158330
vt -1.064972 10.590740
vt 1.064972 10.590740
vt -1.234322 11.158330
vt -1.234322 11.158330
vt 1.064972 10.590740
vt 1.234322 11.158330
vt -1.064972 10.590740
vt -0.000000 10.590740
vt -1.234322 11.158330
vt -1.064972 10.590740
vt 1.234322 11.158330
vt 1.064972 10.590740
vt 1.234322 11.158330
vt -1.064972 10.590740
vt 1.064972 10.590740
vt -1.234322 11.158330
vt -1.064972 10.590740
vt 1.234322 11.158330
vt -1.234322 11.158330
vt 1.064972 10.590740
vt -1.075565 -1.024713
vt -1.075565 1.024713
vt -1.500015 0.000000
vt -1.007284 0.000000
vt -0.804672 -0.489147
vt -0.804672 0.489147
vt 0.720019 -0.582383
vt 0.264795 -0.225691
vt 0.720019 0.582383
vt 0.264795 0.225691
vt -2.782905 -2.782905
vt -3.225440 0.000000
vt -3.935622 0.000000
vt -2.782905 2.782905
vt -2.280730 -2.280730
vt -2.280730 2.280730
vt -0.000000 3.935622
vt -0.000000 3.225440
vt -0.000000 -3.935622
vt -0.000000 -3.225440
vt 2.280730 -2.280730
vt 2.782905 -2.782905
vt 2.782905 2.782905
vt 2.280730 2.280730
vt 3.225440 0.000000
vt 3.935622 0.000000
vn -0.665308 -0.338719 -0.665308
vn -0.940887 -0.338719 0.000000
vn -0.665308 -0.338719 -0.665308
vn -0.940887 -0.338719 0.000000
vn 0.665308 -0.338719 0.665308
vn 0.940887 -0.338719 0.000000
vn 0.940887 -0.338719 0.000000
vn 0.665308 -0.338719 0.665308
vn 0.665308 -0.338719 0.665308
vn 0.000000 -0.338719 0.940887
vn 0.665308 -0.338719 0.665308
vn 0.000000 -0.338719 0.940887
vn 0.000000 -0.338719 -0.940887
vn 0.665308 -0.338719 -0.665308
vn 0.000000 -0.338719 -0.940887
vn 0.665308 -0.338719 -0.665308
vn -0.665308 -0.338719 0.665308
vn -0.940887 -0.338719 0.000000
vn -0.940887 -0.338719 0.000000
vn -0.665308 -0.338719 0.665308
vn 0.940887 -0.338719 0.000000
vn 0.665308 -0.338719 -0.665308
vn 0.665308 -0.338719 -0.665308
vn 0.940887 -0.338719 0.000000
vn -0.665308 -0.338719 -0.665308
vn 0.000000 -0.338719 -0.940887
vn -0.665308 -0.338719 -0.665308
vn 0.000000 -0.338719 -0.940887
vn 0.000000 -0.338719 0.940887
vn -0.665308 -0.338719 0.665308
vn 0.000000 -0.338719 0.940887
vn -0.665308 -0.338719 0.665308
vn -0.707107 0.000000 0.707107
vn -1.000000 0.000000 0.000000
vn -1.000000 0.000000 0.000000
vn -0.707107 0.000000 0.707107
vn 0.000000 0.000000 1.000000
vn -0.707107 0.000000 0.707107
vn 0.000000 0.000000 1.000000
vn -0.707107 0.000000 0.707107
vn 0.707107 0.000000 0.707107
vn 0.000000 0.000000 1.000000
vn 0.707107 0.000000 0.707107
vn 0.000000 0.000000 1.000000
vn -0.707107 0.000000 -0.707107
vn 0.000000 0.000000 -1.000000
vn -0.707107 0.000000 -0.707107
vn 0.000000 0.000000 -1.000000
vn -1.000000 0.000000 0.000000
vn -0.707107 0.000000 -0.707107
vn -0.707107 0.000000 -0.707107
vn -1.000000 0.000000 0.000000
vn 0.000000 -1.000000 0.000000
vn 0.000000 -1.000000 0.000000
vn 0.000000 -1.000000 0.000000
vn 0.000000 -1.000000 0.000000
vn 0.000000 -1.000000 0.000000
vn 0.000000 -1.000000 0.000000
vn 0.000000 -1.000000 0.000000
vn 0.000000 -1.000000 0.000000
vn 0.000000 0.000000 -1.000000
vn 0.707107 0.000000 -0.707107
vn 0.000000 0.000000 -1.000000
vn 0.707107 0.000000 -0.707107
vn 1.000000 0.000000 0.000000
vn 0.707107 0.000000 -0.707107
vn 0.707107 0.000000 -0.707107
vn 1.000000 0.000000 0.000000
vn 0.707107 0.000000 0.707107
vn 1.000000 0.000000 0.000000
vn 1.000000 0.000000 0.000000
vn 0.707107 0.000000 0.707107
vn -0.470001 0.747127 -0.470001
vn 0.000000 0.747127 -0.664681
vn -0.470001 0.747127 -0.470001
vn 0.000000 0.747127 -0.664681
vn 0.470001 0.747127 -0.470001
vn 0.000000 0.747127 -0.664681
vn 0.000000 0.747127 -0.664681
vn 0.470001 0.747127 -0.470001
vn -0.470001 0.747127 0.470001
vn -0.664681 0.747127 0.000000
vn -0.664681 0.747127 0.000000
vn -0.470001 0.747127 0.470001
vn 0.000000 0.747127 0.664681
vn 0.470001 0.747127 0.470001
vn 0.000000 0.747127 0.664681
vn 0.470001 0.747127 0.470001
vn 0.000000 0.747127 0.664681
vn -0.470001 0.747127 0.470001
vn -0.470001 0.747127 0.470001
vn 0.000000 0.747127 0.664681
vn 0.640837 0.720325 -0.265443
vn 0.470001 0.747127 -0.470001
vn 0.470001 0.747127 -0.470001
vn 0.664681 0.747127 0.000000
vn 0.664681 0.747127 0.000000
vn 0.470001 0.747127 0.470001
vn 0.664681 0.747127 0.000000
vn 0.470001 0.747127 0.470001
vn 0.664681 0.747127 0.000000
vn -0.664681 0.747127 0.000000
vn -0.470001 0.747127 -0.470001
vn -0.664681 0.747127 0.000000
vn -0.470001 0.747127 -0.470001
vn 0.000000 1.000000 0.000000
vn 0.000000 1.000000 0.000000
vn 0.000000 1.000000 0.000000
vn 0.000000 1.000000 0.000000
vn 0.000000 1.000000 0.000000
vn 0.000000 1.000000 0.000000
vn 0.000000 1.000000 0.000000
vn 0.000000 1.000000 0.000000
vn 0.000000 1.000000 0.000000
vn 0.000000 1.000000 0.000000
vn 0.000000 1.000000 0.000000
vn 0.000000 1.000000 0.000000
vn 0.000000 1.000000 0.000000
vn 0.000000 1.000000 0.000000
vn 0.000000 1.000000 0.000000
vn 0.000000 1.000000 0.000000
vn 0.000000 1.000000 0.000000
vn 0.000000 1.000000 0.000000
vn 0.000000 1.000000 0.000000
vn 0.000000 1.000000 0.000000
vn 0.000000 1.000000 0.000000
vn 0.000000 1.000000 0.000000
vn 0.000000 1.000000 0.000000
vn 0.000000 1.000000 0.000000
vn 0.000000 1.000000 0.000000
vn 0.000000 1.000000 0.000000
usemtl soda_greyDark
f 1/1/1 2/2/2 3/3/3
f 2/2/2 1/1/1 4/4/4
f 5/5/5 6/6/6 7/7/7
f 6/6/6 5/5/5 8/8/8
f 9/9/9 10/10/10 11/11/11
f 10/10/10 9/9/9 12/12/12
f 13/13/13 14/14/14 15/15/15
f 14/14/14 13/13/13 16/16/16
f 17/17/17 18/18/18 19/19/19
f 18/18/18 17/17/17 20/20/20
f 21/21/21 22/22/22 23/23/23
f 22/22/22 21/21/21 24/24/24
f 25/25/25 26/26/26 27/27/27
f 26/26/26 25/25/25 28/28/28
f 29/29/29 30/30/30 31/31/31
f 30/30/30 29/29/29 32/32/32
f 33/33/33 34/34/34 35/35/35
f 34/34/34 33/33/33 36/36/36
f 37/37/37 38/38/38 39/39/39
f 38/38/38 37/37/37 40/40/40
f 41/41/41 42/42/42 43/43/43
f 42/42/42 41/41/41 44/44/44
f 45/45/45 46/46/46 47/47/47
f 46/46/46 45/45/45 48/48/48
f 49/49/49 50/50/50 51/51/51
f 50/50/50 49/49/49 52/52/52
f 53/53/53 54/54/54 55/55/55
f 54/54/54 53/53/53 56/56/56
f 54/54/54 56/56/56 57/57/57
f 57/57/57 56/56/56 58/58/58
f 57/57/57 58/58/58 59/59/59
f 59/59/59 58/58/58 60/60/60
f 61/61/61 62/62/62 63/63/63
f 62/62/62 61/61/61 64/64/64
f 65/65/65 66/66/66 67/67/67
f 66/66/66 65/65/65 68/68/68
f 69/69/69 70/70/70 71/71/71
f 70/70/70 69/69/69 72/72/72
f 73/73/73 74/74/74 75/75/75
f 74/74/74 73/73/73 76/76/76
f 77/77/77 78/78/78 79/79/79
f 78/78/78 77/77/77 80/80/80
f 81/81/81 82/82/82 83/83/83
f 82/82/82 81/81/81 84/84/84
f 85/85/85 86/86/86 87/87/87
f 86/86/86 85/85/85 88/88/88
f 89/89/89 90/90/90 91/91/91
f 90/90/90 89/89/89 92/92/92
f 93/93/93 94/94/94 95/95/95
f 94/94/94 93/93/93 96/96/96
f 96/96/96 93/93/93 97/97/97
f 98/98/98 99/99/99 100/100/100
f 99/99/99 98/98/98 101/101/101
f 102/102/102 103/103/103 104/104/104
f 103/103/103 102/102/102 105/105/105
f 106/106/106 107/107/107 108/108/108
f 107/107/107 106/106/106 109/109/109
f 109/109/109 106/106/106 110/110/110
f 111/111/111 107/107/107 109/109/109
f 110/110/110 106/106/106 112/112/112
f 110/110/110 112/112/112 113/113/113
f 107/107/107 111/111/111 114/114/114
f 114/114/114 113/113/113 112/112/112
f 114/114/114 111/111/111 115/115/115
f 114/114/114 115/115/115 113/113/113
f 116/116/116 117/117/117 118/118/118
f 117/117/117 119/119/119 118/118/118
f 117/117/117 116/116/116 120/120/120
f 119/119/119 117/117/117 121/121/121
f 119/119/119 121/121/121 122/122/122
f 122/122/122 121/121/121 123/123/123
f 120/120/120 116/116/116 124/124/124
f 120/120/120 124/124/124 125/125/125
f 125/125/125 124/124/124 126/126/126
f 126/126/126 124/124/124 127/127/127
f 122/122/122 123/123/123 128/128/128
f 128/128/128 123/123/123 129/129/129
f 126/126/126 127/127/127 130/130/130
f 128/128/128 129/129/129 130/130/130
f 130/130/130 127/127/127 131/131/131
f 128/128/128 130/130/130 131/131/131
v 0.070686 0.310000 -0.070686
v 0.112320 0.280000 0.000000
v 0.079422 0.280000 -0.079422
v 0.099965 0.310000 -0.000000
v 0.070686 0.310000 0.070686
v 0.000000 0.280000 0.112320
v 0.079422 0.280000 0.079422
v 0.000000 0.310000 0.099965
v -0.079422 0.280000 0.079422
v -0.099965 0.310000 0.000000
v -0.112320 0.280000 0.000000
v -0.070686 0.310000 0.070686
v -0.112320 0.280000 0.000000
v -0.070686 0.310000 -0.070686
v -0.079422 0.280000 -0.079422
v -0.099965 0.310000 0.000000
v 0.000000 0.310000 -0.099965
v 0.079422 0.280000 -0.079422
v 0.000000 0.280000 -0.112320
v 0.070686 0.310000 -0.070686
v -0.070686 0.310000 -0.070686
v 0.000000 0.280000 -0.112320
v -0.079422 0.280000 -0.079422
v 0.000000 0.310000 -0.099965
v 0.000000 0.310000 0.099965
v -0.079422 0.280000 0.079422
v 0.000000 0.280000 0.112320
v -0.070686 0.310000 0.070686
v 0.070686 0.310000 0.070686
v 0.112320 0.280000 0.000000
v 0.099965 0.310000 -0.000000
v 0.079422 0.280000 0.079422
v 0.049982 0.320000 -0.049982
v 0.049982 0.320000 0.049982
v 0.070686 0.320000 0.000000
v 0.038100 0.320000 0.000000
v 0.027319 0.320000 -0.026028
v 0.027319 0.320000 0.026028
v 0.000000 0.320000 -0.070686
v 0.000000 0.320000 0.070686
v -0.018288 0.320000 -0.014793
v -0.018288 0.320000 0.014793
v -0.049982 0.320000 -0.049982
v -0.049982 0.320000 0.049982
v -0.048288 0.320000 -0.014793
v -0.048288 0.320000 0.014793
v -0.060334 0.320000 0.024991
v -0.070686 0.320000 0.000000
v 0.079422 0.030000 0.079422
v -0.000000 0.010000 0.093600
v 0.066185 0.010000 0.066185
v 0.000000 0.030000 0.112320
v 0.000000 0.030000 -0.112320
v 0.066185 0.010000 -0.066185
v -0.000000 0.010000 -0.093600
v 0.079422 0.030000 -0.079422
v -0.079422 0.030000 -0.079422
v -0.000000 0.010000 -0.093600
v -0.066185 0.010000 -0.066185
v 0.000000 0.030000 -0.112320
v 0.112320 0.030000 0.000000
v 0.066185 0.010000 -0.066185
v 0.079422 0.030000 -0.079422
v 0.093600 0.010000 0.000000
v 0.079422 0.030000 0.079422
v 0.093600 0.010000 0.000000
v 0.112320 0.030000 0.000000
v 0.066185 0.010000 0.066185
v -0.066185 0.010000 -0.066185
v -0.112320 0.030000 0.000000
v -0.079422 0.030000 -0.079422
v -0.093600 0.010000 0.000000
v -0.093600 0.010000 0.000000
v -0.079422 0.030000 0.079422
v -0.112320 0.030000 0.000000
v -0.066185 0.010000 0.066185
v 0.000000 0.030000 0.112320
v -0.066185 0.010000 0.066185
v -0.000000 0.010000 0.093600
v -0.079422 0.030000 0.079422
v 0.020439 0.320000 -0.012424
v 0.020439 0.320000 0.012424
v 0.025585 0.320000 0.000000
v -0.006726 0.320000 -0.005733
v -0.006726 0.320000 0.005733
vt 1.506097 10.113870
vt -1.692244 8.850164
vt 1.692244 8.850164
vt -1.506097 10.113870
vt 1.506097 10.113870
vt -1.692244 8.850164
vt 1.692244 8.850164
vt -1.506097 10.113870
vt 1.692244 8.850164
vt -1.506097 10.113870
vt -1.692244 8.850164
vt 1.506097 10.113870
vt 1.692244 8.850164
vt -1.506097 10.113870
vt -1.692244 8.850164
vt 1.506097 10.113870
vt 1.506097 10.113870
vt -1.692244 8.850164
vt 1.692244 8.850164
vt -1.506097 10.113870
vt 1.506097 10.113870
vt -1.692244 8.850164
vt 1.692244 8.850164
vt -1.506097 10.113870
vt 1.506097 10.113870
vt -1.692244 8.850164
vt 1.692244 8.850164
vt -1.506097 10.113870
vt -1.506097 10.113870
vt 1.692244 8.850164
vt 1.506097 10.113870
vt -1.692244 8.850164
vt -1.967811 -1.967811
vt -1.967811 1.967811
vt -2.782905 0.000000
vt -1.500015 0.000000
vt -1.075565 -1.024713
vt -1.075565 1.024713
vt -0.000000 -2.782905
vt -0.000000 2.782905
vt 0.720019 -0.582383
vt 0.720019 0.582383
vt 1.967811 -1.967811
vt 1.967811 1.967811
vt 1.901121 -0.582383
vt 1.901121 0.582383
vt 2.375358 0.983905
vt 2.782905 0.000000
vt 1.692244 3.565690
vt -1.410203 2.524712
vt 1.410203 2.524712
vt -1.692244 3.565690
vt 1.692244 3.565690
vt -1.410203 2.524712
vt 1.410203 2.524712
vt -1.692244 3.565690
vt 1.692244 3.565690
vt -1.410203 2.524712
vt 1.410203 2.524712
vt -1.692244 3.565690
vt -1.692244 3.565690
vt 1.410203 2.524712
vt 1.692244 3.565690
vt -1.410203 2.524712
vt -1.692244 3.565690
vt 1.410203 2.524712
vt 1.692244 3.565690
vt -1.410203 2.524712
vt -1.410203 2.524712
vt 1.692244 3.565690
vt -1.692244 3.565690
vt 1.410203 2.524712
vt -1.410203 2.524712
vt 1.692244 3.565690
vt -1.692244 3.565690
vt 1.410203 2.524712
vt 1.692244 3.565690
vt -1.410203 2.524712
vt 1.410203 2.524712
vt -1.692244 3.565690
vt -0.804672 -0.489147
vt -0.804672 0.489147
vt -1.007284 0.000000
vt 0.264795 -0.225691
vt 0.264795 0.225691
vn 0.653829 0.380809 -0.653829
vn 0.924654 0.380809 0.000000
vn 0.653829 0.380809 -0.653829
vn 0.924654 0.380809 0.000000
vn 0.653829 0.380809 0.653829
vn 0.000000 0.380809 0.924654
vn 0.653829 0.380809 0.653829
vn 0.000000 0.380809 0.924654
vn -0.653829 0.380809 0.653829
vn -0.924654 0.380809 0.000000
vn -0.924654 0.380809 0.000000
vn -0.653829 0.380809 0.653829
vn -0.924654 0.380809 0.000000
vn -0.653829 0.380809 -0.653829
vn -0.653829 0.380809 -0.653829
vn -0.924654 0.380809 0.000000
vn 0.000000 0.380809 -0.924654
vn 0.653829 0.380809 -0.653829
vn 0.000000 0.380809 -0.924654
vn 0.653829 0.380809 -0.653829
vn -0.653829 0.380809 -0.653829
vn 0.000000 0.380809 -0.924654
vn -0.653829 0.380809 -0.653829
vn 0.000000 0.380809 -0.924654
vn 0.000000 0.380809 0.924654
vn -0.653829 0.380809 0.653829
vn 0.000000 0.380809 0.924654
vn -0.653829 0.380809 0.653829
vn 0.653829 0.380809 0.653829
vn 0.924654 0.380809 0.000000
vn 0.924654 0.380809 0.000000
vn 0.653829 0.380809 0.653829
vn 0.000000 1.000000 0.000000
vn 0.000000 1.000000 0.000000
vn 0.000000 1.000000 0.000000
vn 0.000000 1.000000 0.000000
vn 0.000000 1.000000 0.000000
vn 0.000000 1.000000 0.000000
vn 0.000000 1.000000 0.000000
vn 0.000000 1.000000 0.000000
vn 0.000000 1.000000 0.000000
vn 0.000000 1.000000 0.000000
vn 0.000000 1.000000 0.000000
vn 0.000000 1.000000 0.000000
vn 0.000000 1.000000 0.000000
vn 0.000000 1.000000 0.000000
vn 0.000000 1.000000 0.000000
vn 0.000000 1.000000 0.000000
vn 0.516247 -0.683358 0.516247
vn 0.000000 -0.683358 0.730083
vn 0.516247 -0.683358 0.516247
vn 0.000000 -0.683358 0.730083
vn 0.000000 -0.683358 -0.730083
vn 0.516247 -0.683358 -0.516247
vn 0.000000 -0.683358 -0.730083
vn 0.516247 -0.683358 -0.516247
vn -0.516247 -0.683358 -0.516247
vn 0.000000 -0.683358 -0.730083
vn -0.516247 -0.683358 -0.516247
vn 0.000000 -0.683358 -0.730083
vn 0.730083 -0.683358 0.000000
vn 0.516247 -0.683358 -0.516247
vn 0.516247 -0.683358 -0.516247
vn 0.730083 -0.683358 0.000000
vn 0.516247 -0.683358 0.516247
vn 0.730083 -0.683358 0.000000
vn 0.730083 -0.683358 0.000000
vn 0.516247 -0.683358 0.516247
vn -0.516247 -0.683358 -0.516247
vn -0.730083 -0.683358 0.000000
vn -0.516247 -0.683358 -0.516247
vn -0.730083 -0.683358 0.000000
vn -0.730083 -0.683358 0.000000
vn -0.516247 -0.683358 0.516247
vn -0.730083 -0.683358 0.000000
vn -0.516247 -0.683358 0.516247
vn 0.000000 -0.683358 0.730083
vn -0.516247 -0.683358 0.516247
vn 0.000000 -0.683358 0.730083
vn -0.516247 -0.683358 0.516247
vn 0.000000 1.000000 0.000000
vn 0.000000 1.000000 0.000000
vn 0.000000 1.000000 0.000000
vn 0.000000 1.000000 0.000000
vn 0.000000 1.000000 0.000000
usemtl soda_greyLight
f 132/132/132 133/133/133 134/134/134
f 133/133/133 132/132/132 135/135/135
f 136/136/136 137/137/137 138/138/138
f 137/137/137 136/136/136 139/139/139
f 140/140/140 141/141/141 142/142/142
f 141/141/141 140/140/140 143/143/143
f 144/144/144 145/145/145 146/146/146
f 145/145/145 144/144/144 147/147/147
f 148/148/148 149/149/149 150/150/150
f 149/149/149 148/148/148 151/151/151
f 152/152/152 153/153/153 154/154/154
f 153/153/153 152/152/152 155/155/155
f 156/156/156 157/157/157 158/158/158
f 157/157/157 156/156/156 159/159/159
f 160/160/160 161/161/161 162/162/162
f 161/161/161 160/160/160 163/163/163
f 164/164/164 165/165/165 166/166/166
f 165/165/165 164/164/164 167/167/167
f 167/167/167 164/164/164 168/168/168
f 169/169/169 165/165/165 167/167/167
f 168/168/168 164/164/164 170/170/170
f 165/165/165 169/169/169 171/171/171
f 168/168/168 170/170/170 172/172/172
f 171/171/171 169/169/169 173/173/173
f 172/172/172 170/170/170 174/174/174
f 171/171/171 173/173/173 175/175/175
f 172/172/172 174/174/174 176/176/176
f 175/175/175 173/173/173 177/177/177
f 176/176/176 174/174/174 177/177/177
f 175/175/175 177/177/177 174/174/174
f 175/175/175 174/174/174 178/178/178
f 178/178/178 174/174/174 179/179/179
f 180/180/180 181/181/181 182/182/182
f 181/181/181 180/180/180 183/183/183
f 184/184/184 185/185/185 186/186/186
f 185/185/185 184/184/184 187/187/187
f 188/188/188 189/189/189 190/190/190
f 189/189/189 188/188/188 191/191/191
f 192/192/192 193/193/193 194/194/194
f 193/193/193 192/192/192 195/195/195
f 196/196/196 197/197/197 198/198/198
f 197/197/197 196/196/196 199/199/199
f 200/200/200 201/201/201 202/202/202
f 201/201/201 200/200/200 203/203/203
f 204/204/204 205/205/205 206/206/206
f 205/205/205 204/204/204 207/207/207
f 208/208/208 209/209/209 210/210/210
f 209/209/209 208/208/208 211/211/211
f 212/212/212 213/213/213 214/214/214
f 213/213/213 212/212/212 215/215/215
f 213/213/213 215/215/215 216/216/216
v 0.079422 0.280000 0.079422
v 0.112320 0.030000 0.000000
v 0.112320 0.280000 0.000000
v 0.079422 0.030000 0.079422
v -0.079422 0.030000 0.079422
v -0.112320 0.280000 0.000000
v -0.112320 0.030000 0.000000
v -0.079422 0.280000 0.079422
v 0.112320 0.280000 0.000000
v 0.079422 0.030000 -0.079422
v 0.079422 0.280000 -0.079422
v 0.112320 0.030000 0.000000
v -0.112320 0.030000 0.000000
v -0.079422 0.280000 -0.079422
v -0.079422 0.030000 -0.079422
v -0.112320 0.280000 0.000000
v -0.079422 0.280000 -0.079422
v 0.000000 0.030000 -0.112320
v -0.079422 0.030000 -0.079422
v 0.000000 0.280000 -0.112320
v 0.000000 0.280000 0.112320
v -0.079422 0.030000 0.079422
v 0.000000 0.030000 0.112320
v -0.079422 0.280000 0.079422
v 0.000000 0.280000 -0.112320
v 0.079422 0.030000 -0.079422
v 0.000000 0.030000 -0.112320
v 0.079422 0.280000 -0.079422
v 0.079422 0.280000 0.079422
v 0.000000 0.030000 0.112320
v 0.079422 0.030000 0.079422
v 0.000000 0.280000 0.112320
vt -1.692244 11.023620
vt 1.692244 1.181102
vt 1.692244 11.023620
vt -1.692244 1.181102
vt 1.692244 1.181102
vt -1.692244 11.023620
vt -1.692244 1.181102
vt 1.692244 11.023620
vt -1.692244 11.023620
vt 1.692244 1.181102
vt 1.692244 11.023620
vt -1.692244 1.181102
vt 1.692244 1.181102
vt -1.692244 11.023620
vt -1.692244 1.181102
vt 1.692244 11.023620
vt 1.692244 11.023620
vt -1.692244 1.181102
vt 1.692244 1.181102
vt -1.692244 11.023620
vt 1.692244 11.023620
vt -1.692244 1.181102
vt 1.692244 1.181102
vt -1.692244 11.023620
vt 1.692244 11.023620
vt -1.692244 1.181102
vt 1.692244 1.181102
vt -1.692244 11.023620
vt 1.692244 11.023620
vt -1.692244 1.181102
vt 1.692244 1.181102
vt -1.692244 11.023620
vn 0.707107 0.000000 0.707107
vn 1.000000 0.000000 0.000000
vn 1.000000 0.000000 0.000000
vn 0.707107 0.000000 0.707107
vn -0.707107 0.000000 0.707107
vn -1.000000 0.000000 0.000000
vn -1.000000 0.000000 0.000000
vn -0.707107 0.000000 0.707107
vn 1.000000 0.000000 0.000000
vn 0.707107 0.000000 -0.707107
vn 0.707107 0.000000 -0.707107
vn 1.000000 0.000000 0.000000
vn -1.000000 0.000000 0.000000
vn -0.707107 0.000000 -0.707107
vn -0.707107 0.000000 -0.707107
vn -1.000000 0.000000 0.000000
vn -0.707107 0.000000 -0.707107
vn 0.000000 0.000000 -1.000000
vn -0.707107 0.000000 -0.707107
vn 0.000000 0.000000 -1.000000
vn 0.000000 0.000000 1.000000
vn -0.707107 0.000000 0.707107
vn 0.000000 0.000000 1.000000
vn -0.707107 0.000000 0.707107
vn 0.000000 0.000000 -1.000000
vn 0.707107 0.000000 -0.707107
vn 0.000000 0.000000 -1.000000
vn 0.707107 0.000000 -0.707107
vn 0.707107 0.000000 0.707107
vn 0.000000 0.000000 1.000000
vn 0.707107 0.000000 0.707107
vn 0.000000 0.000000 1.000000
usemtl soda_red
f 217/217/217 218/218/218 219/219/219
f 218/218/218 217/217/217 220/220/220
f 221/221/221 222/222/222 223/223/223
f 222/222/222 221/221/221 224/224/224
f 225/225/225 226/226/226 227/227/227
f 226/226/226 225/225/225 228/228/228
f 229/229/229 230/230/230 231/231/231
f 230/230/230 229/229/229 232/232/232
f 233/233/233 234/234/234 235/235/235
f 234/234/234 233/233/233 236/236/236
f 237/237/237 238/238/238 239/239/239
f 238/238/238 237/237/237 240/240/240
f 241/241/241 242/242/242 243/243/243
f 242/242/242 241/241/241 244/244/244
f 245/245/245 246/246/246 247/247/247
f 246/246/246 245/245/245 248/248/248
v -0.048288 0.320000 -0.014793
v -0.018288 0.320000 0.014793
v -0.018288 0.320000 -0.014793
v -0.048288 0.320000 0.014793
vt 1.901121 -0.582383
vt 0.720019 0.582383
vt 0.720019 -0.582383
vt 1.901121 0.582383
vn 0.000000 1.000000 0.000000
vn 0.000000 1.000000 0.000000
vn 0.000000 1.000000 0.000000
vn 0.000000 1.000000 0.000000
usemtl soda_brownDarkest
f 249/249/249 250/250/250 251/251/251
f 250/250/250 249/249/249 252/252/252
