mtllib umbrella.mtl
o umbrella
v 0.156660 0.513520 0.046942
v 0.003628 0.068928 0.002893
v 0.150431 0.518214 0.013261
v 0.003366 0.068928 0.003603
v -0.014444 0.068928 0.003603
v -0.123991 0.518232 0.102075
v -0.152608 0.513712 0.083223
v -0.014127 0.068928 0.004290
v -0.027993 0.578280 0.019027
v -0.012900 0.068928 0.006139
v -0.011764 0.068928 0.007276
v -0.024389 0.578280 0.022631
v -0.015146 0.068928 0.000718
v -0.034931 0.578280 -0.002449
v -0.015146 0.068928 -0.000889
v -0.034931 0.578280 0.002648
v -0.131857 0.533500 0.025647
v -0.014911 0.068928 0.002164
v -0.155287 0.520250 0.049423
v 0.005609 0.516986 -0.155545
v -0.002561 0.068928 -0.009253
v -0.011452 0.530229 -0.126932
v -0.002561 0.068928 0.009081
v 0.042288 0.520135 0.150107
v 0.018551 0.533458 0.126580
v 0.003049 0.068928 0.004290
v 0.156660 0.513520 0.046942
v 0.134320 0.520088 0.072512
v 0.003366 0.068928 0.003603
v 0.016915 0.578280 -0.019198
v 0.001822 0.068928 -0.006311
v 0.013311 0.578280 -0.022802
v 0.000686 0.068928 -0.007447
v -0.168559 0.512962 -0.044053
v -0.014706 0.068928 -0.003064
v -0.161515 0.517824 -0.010581
v -0.014444 0.068928 -0.003774
v 0.039169 0.511800 -0.162016
v -0.002561 0.068928 -0.009253
v 0.005609 0.516986 -0.155545
v -0.001850 0.068928 -0.008991
v -0.001850 0.068928 0.008819
v 0.095440 0.518115 0.119512
v 0.076143 0.513511 0.147802
v -0.001163 0.068928 0.008502
v -0.146657 0.519362 -0.069948
v -0.014127 0.068928 -0.004462
v -0.168559 0.512962 -0.044053
v -0.014444 0.068928 -0.003774
v 0.065765 0.531617 -0.106603
v -0.001163 0.068928 -0.008674
v 0.065041 0.518090 -0.139913
v -0.000503 0.068928 -0.008304
v -0.100142 0.530999 -0.085198
v -0.009915 0.068928 -0.008674
v -0.010575 0.068928 -0.008304
v -0.108482 0.518165 -0.117689
v 0.142326 0.513861 -0.081759
v 0.003366 0.068928 -0.003774
v 0.114154 0.518796 -0.101217
v 0.003049 0.068928 -0.004462
v -0.000503 0.068928 0.008132
v 0.087445 0.530868 0.086998
v -0.001163 0.068928 0.008502
v 0.095440 0.518115 0.119512
v -0.155287 0.520250 0.049423
v -0.014444 0.068928 0.003603
v -0.152608 0.513712 0.083223
v -0.014706 0.068928 0.002893
v -0.008517 0.068928 -0.009253
v -0.055757 0.519580 -0.149194
v -0.031563 0.532929 -0.126165
v -0.014911 0.068928 -0.002336
v -0.132508 0.530566 0.006316
v -0.161515 0.517824 -0.010581
v 0.144644 0.520217 -0.047836
v 0.003628 0.068928 -0.003064
v 0.003366 0.068928 -0.003774
v 0.142326 0.513861 -0.081759
v 0.100904 0.533431 0.072658
v 0.003049 0.068928 0.004290
v 0.134320 0.520088 0.072512
v 0.002679 0.068928 0.004950
v -0.028255 0.578280 -0.018936
v -0.011764 0.068928 -0.007447
v -0.012900 0.068928 -0.006311
v -0.024651 0.578280 -0.022540
v 0.042288 0.520135 0.150107
v -0.001850 0.068928 0.008819
v 0.076143 0.513511 0.147802
v -0.002561 0.068928 0.009081
v -0.089621 0.513241 -0.146256
v -0.009228 0.068928 -0.008991
v -0.108482 0.518165 -0.117689
v -0.009915 0.068928 -0.008674
v -0.055757 0.519580 -0.149194
v -0.008517 0.068928 -0.009253
v -0.009228 0.068928 -0.008991
v -0.089621 0.513241 -0.146256
v -0.007789 0.068928 0.009286
v -0.001159 0.530988 0.127301
v -0.018363 0.518199 0.156040
v -0.077517 0.520152 0.140286
v -0.009915 0.068928 0.008502
v -0.051954 0.513530 0.162554
v -0.009228 0.068928 0.008819
v -0.014127 0.068928 -0.004462
v -0.113337 0.532751 -0.070330
v -0.013757 0.068928 -0.005122
v -0.146657 0.519362 -0.069948
v 0.013574 0.578280 0.022368
v 0.001822 0.068928 0.006139
v 0.017178 0.578280 0.018764
v 0.000686 0.068928 0.007276
v -0.077576 0.533494 0.106888
v -0.010575 0.068928 0.008132
v -0.009915 0.068928 0.008502
v -0.077517 0.520152 0.140286
v -0.051954 0.513530 0.162554
v -0.008517 0.068928 0.009081
v -0.018363 0.518199 0.156040
v -0.009228 0.068928 0.008819
v -0.014127 0.068928 0.004290
v -0.091439 0.530696 0.093710
v -0.123991 0.518232 0.102075
v -0.013757 0.068928 0.004950
v 0.114154 0.518796 -0.101217
v 0.003049 0.068928 -0.004462
v 0.081551 0.531639 -0.093502
v 0.002679 0.068928 -0.005122
v 0.003833 0.068928 0.002164
v 0.121888 0.531025 -0.004264
v 0.150431 0.518214 0.013261
v 0.003628 0.068928 -0.003064
v 0.144644 0.520217 -0.047836
v 0.121150 0.533473 -0.024078
v -0.001163 0.068928 -0.008674
v 0.039169 0.511800 -0.162016
v 0.065041 0.518090 -0.139913
v -0.001850 0.068928 -0.008991
v 0.000850 0.714468 -0.005398
v -0.013072 0.684342 -0.000086
v -0.000716 0.716003 -0.000086
v -0.010866 0.684342 -0.005412
v 0.010040 0.705454 -0.000086
v 0.001994 0.684342 -0.000086
v -0.000212 0.684342 -0.005412
v 0.008454 0.707010 -0.005428
v 0.004641 0.710750 0.007446
v -0.010866 0.684342 0.005241
v -0.005539 0.684342 0.007447
v 0.000850 0.714468 0.005227
v -0.005539 0.684342 -0.007619
v 0.004641 0.710750 -0.007618
v 0.008454 0.707010 -0.005428
v -0.000212 0.684342 -0.005412
v 0.004641 0.710750 -0.007618
v -0.010866 0.684342 -0.005412
v 0.000850 0.714468 -0.005398
v -0.005539 0.684342 -0.007619
v -0.000716 0.716003 -0.000086
v -0.013072 0.684342 -0.000086
v 0.000850 0.714468 0.005227
v -0.010866 0.684342 0.005241
v -0.000212 0.684342 0.005241
v 0.010040 0.705454 -0.000086
v 0.008454 0.707010 0.005256
v 0.001994 0.684342 -0.000086
v 0.000850 0.714468 0.005227
v 0.029327 0.726752 0.005227
v 0.029284 0.728944 -0.000086
v -0.000716 0.716003 -0.000086
v 0.004641 0.710750 -0.007618
v 0.029327 0.726752 -0.005398
v 0.029430 0.721442 -0.007618
v 0.000850 0.714468 -0.005398
v 0.004641 0.710750 0.007446
v 0.029533 0.716103 0.005256
v 0.029430 0.721442 0.007446
v 0.008454 0.707010 0.005256
v 0.029533 0.716103 0.005256
v 0.008454 0.707010 0.005256
v 0.010040 0.705454 -0.000086
v 0.029576 0.713881 -0.000086
v 0.029327 0.726752 -0.005398
v 0.000850 0.714468 -0.005398
v 0.029284 0.728944 -0.000086
v -0.000716 0.716003 -0.000086
v 0.029327 0.726752 0.005227
v 0.000850 0.714468 0.005227
v 0.004641 0.710750 0.007446
v 0.029430 0.721442 0.007446
v 0.010040 0.705454 -0.000086
v 0.029533 0.716103 -0.005428
v 0.029576 0.713881 -0.000086
v 0.008454 0.707010 -0.005428
v 0.058258 0.715582 -0.005398
v 0.029284 0.728944 -0.000086
v 0.059763 0.717176 -0.000086
v 0.029327 0.726752 -0.005398
v 0.049424 0.706218 -0.000086
v 0.029576 0.713881 -0.000086
v 0.029533 0.716103 -0.005428
v 0.050949 0.707834 -0.005428
v 0.054614 0.711719 0.007446
v 0.029430 0.721442 0.007446
v 0.050949 0.707834 0.005256
v 0.029533 0.716103 0.005256
v 0.029430 0.721442 -0.007618
v 0.058258 0.715582 -0.005398
v 0.054614 0.711719 -0.007618
v 0.029327 0.726752 -0.005398
v 0.029533 0.716103 0.005256
v 0.049424 0.706218 -0.000086
v 0.050949 0.707834 0.005256
v 0.029576 0.713881 -0.000086
v 0.029430 0.721442 -0.007618
v 0.050949 0.707834 -0.005428
v 0.029533 0.716103 -0.005428
v 0.054614 0.711719 -0.007618
v 0.058258 0.715582 0.005227
v 0.029284 0.728944 -0.000086
v 0.029327 0.726752 0.005227
v 0.059763 0.717176 -0.000086
v 0.050949 0.707834 -0.005428
v 0.065785 0.687142 -0.007618
v 0.060449 0.686935 -0.005428
v 0.054614 0.711719 -0.007618
v 0.065785 0.687142 0.007446
v 0.050949 0.707834 0.005256
v 0.060449 0.686935 0.005256
v 0.054614 0.711719 0.007446
v 0.049424 0.706218 -0.000086
v 0.060449 0.686935 -0.005428
v 0.058228 0.686849 -0.000086
v 0.050949 0.707834 -0.005428
v 0.058258 0.715582 0.005227
v 0.071092 0.687348 0.005227
v 0.073283 0.687433 -0.000086
v 0.059763 0.717176 -0.000086
v 0.073283 0.687433 -0.000086
v 0.058258 0.715582 -0.005398
v 0.059763 0.717176 -0.000086
v 0.071092 0.687348 -0.005398
v 0.060449 0.686935 0.005256
v 0.049424 0.706218 -0.000086
v 0.058228 0.686849 -0.000086
v 0.050949 0.707834 0.005256
v 0.054614 0.711719 0.007446
v 0.065785 0.687142 0.007446
v 0.071092 0.687348 0.005227
v 0.058258 0.715582 0.005227
v 0.063607 0.673449 -0.006077
v 0.065785 0.687142 -0.007618
v 0.067596 0.672031 -0.004320
v 0.071092 0.687348 -0.005398
v 0.073283 0.687433 -0.000086
v 0.067596 0.672031 -0.004320
v 0.071092 0.687348 -0.005398
v 0.069246 0.671444 -0.000086
v 0.067596 0.672031 0.004148
v 0.073283 0.687433 -0.000086
v 0.071092 0.687348 0.005227
v 0.069246 0.671444 -0.000086
v 0.065785 0.687142 0.007446
v 0.067596 0.672031 0.004148
v 0.071092 0.687348 0.005227
v 0.063607 0.673449 0.005905
v 0.059614 0.674865 -0.004323
v 0.065785 0.687142 -0.007618
v 0.063607 0.673449 -0.006077
v 0.060449 0.686935 -0.005428
v 0.060449 0.686935 -0.005428
v 0.057960 0.675451 -0.000086
v 0.058228 0.686849 -0.000086
v 0.059614 0.674865 -0.004323
v 0.058228 0.686849 -0.000086
v 0.057960 0.675451 -0.000086
v 0.060449 0.686935 0.005256
v 0.059614 0.674865 0.004151
v 0.059614 0.674865 0.004151
v 0.065785 0.687142 0.007446
v 0.060449 0.686935 0.005256
v 0.063607 0.673449 0.005905
v 0.067596 0.672031 -0.004320
v 0.059614 0.674865 -0.004323
v 0.063607 0.673449 -0.006077
v 0.069246 0.671444 -0.000086
v 0.057960 0.675451 -0.000086
v 0.059614 0.674865 0.004151
v 0.067596 0.672031 0.004148
v 0.063607 0.673449 0.005905
v 0.001994 0.607107 -0.000086
v -0.000212 0.684342 -0.005412
v 0.001994 0.684342 -0.000086
v -0.000212 0.607107 -0.005412
v -0.000212 0.607107 0.005241
v 0.001994 0.684342 -0.000086
v -0.000212 0.684342 0.005241
v 0.001994 0.607107 -0.000086
v -0.005539 0.684342 0.007447
v -0.000212 0.607107 0.005241
v -0.000212 0.684342 0.005241
v -0.005539 0.607107 0.007447
v -0.010866 0.684342 0.005241
v -0.005539 0.607107 0.007447
v -0.005539 0.684342 0.007447
v -0.010866 0.607107 0.005241
v -0.010866 0.607107 0.005241
v -0.010866 0.684342 0.005241
v -0.013072 0.684342 -0.000086
v -0.013072 0.607107 -0.000086
v -0.005539 0.684342 -0.007619
v -0.005539 0.607107 -0.007619
v -0.010866 0.607107 -0.005412
v -0.010866 0.684342 -0.005412
v -0.013072 0.607107 -0.000086
v -0.013072 0.684342 -0.000086
v -0.010866 0.684342 -0.005412
v -0.010866 0.607107 -0.005412
v -0.000212 0.684342 -0.005412
v -0.000212 0.607107 -0.005412
v -0.005539 0.607107 -0.007619
v -0.005539 0.684342 -0.007619
v -0.005539 0.607107 0.009019
v -0.005539 0.586308 0.009019
v 0.000899 0.607107 0.006352
v 0.000899 0.586308 0.006352
v 0.000899 0.607107 0.006352
v 0.001994 0.607107 -0.000086
v -0.000212 0.607107 0.005241
v -0.005539 0.607107 0.007447
v -0.005539 0.607107 0.009019
v 0.003566 0.607107 -0.000086
v 0.000899 0.607107 -0.006524
v -0.000212 0.607107 -0.005412
v -0.011977 0.607107 -0.006524
v -0.013072 0.607107 -0.000086
v -0.010866 0.607107 -0.005412
v -0.005539 0.607107 -0.007619
v -0.005539 0.607107 -0.009190
v -0.014644 0.607107 -0.000086
v -0.011977 0.607107 0.006352
v -0.010866 0.607107 0.005241
v -0.001355 0.601794 -0.004270
v -0.001355 0.060586 -0.004270
v -0.005539 0.060586 -0.006003
v -0.005539 0.601794 -0.006003
v 0.000378 0.060586 -0.000086
v -0.001355 0.601794 -0.004270
v 0.000378 0.601794 -0.000086
v -0.001355 0.060586 -0.004270
v -0.001355 0.060586 0.004098
v 0.000378 0.601794 -0.000086
v -0.001355 0.601794 0.004098
v 0.000378 0.060586 -0.000086
v -0.005539 0.601794 0.005831
v -0.001355 0.060586 0.004098
v -0.001355 0.601794 0.004098
v -0.005539 0.060586 0.005831
v -0.009723 0.601794 0.004098
v -0.005539 0.060586 0.005831
v -0.005539 0.601794 0.005831
v -0.009723 0.060586 0.004098
v -0.009723 0.060586 0.004098
v -0.009723 0.601794 0.004098
v -0.011456 0.601794 -0.000086
v -0.011456 0.060586 -0.000086
v -0.005539 0.601794 -0.006003
v -0.005539 0.060586 -0.006003
v -0.009723 0.060586 -0.004270
v -0.009723 0.601794 -0.004270
v -0.011456 0.060586 -0.000086
v -0.009723 0.601794 -0.004270
v -0.009723 0.060586 -0.004270
v -0.011456 0.601794 -0.000086
v 0.003218 0.068644 0.008671
v -0.014296 0.068644 0.008671
v -0.005539 0.068644 0.012298
v -0.014296 0.068644 -0.008843
v -0.017923 0.068644 -0.000086
v 0.003218 0.068644 -0.008843
v 0.006845 0.068644 -0.000086
v -0.005539 0.068644 -0.012470
v -0.005539 0.068644 -0.012470
v 0.001294 0.064264 -0.006919
v -0.005539 0.064264 -0.009750
v 0.003218 0.068644 -0.008843
v -0.009970 0.000000 0.004345
v -0.001108 0.000000 0.004345
v -0.005539 0.000000 0.006181
v -0.001108 0.000000 -0.004517
v 0.000728 0.000000 -0.000086
v -0.009970 0.000000 -0.004517
v -0.005539 0.000000 -0.006352
v -0.011806 0.000000 -0.000086
v -0.009970 0.000000 -0.004517
v -0.005539 0.064264 -0.009750
v -0.005539 0.000000 -0.006352
v -0.012372 0.064264 -0.006919
v -0.012372 0.064264 -0.006919
v -0.009970 0.000000 -0.004517
v -0.015203 0.064264 -0.000086
v -0.011806 0.000000 -0.000086
v -0.015203 0.064264 -0.000086
v -0.009970 0.000000 0.004345
v -0.012372 0.064264 0.006747
v -0.011806 0.000000 -0.000086
v -0.012372 0.064264 0.006747
v -0.009970 0.000000 0.004345
v -0.005539 0.064264 0.009578
v -0.005539 0.000000 0.006181
v -0.005539 0.064264 0.009578
v -0.001108 0.000000 0.004345
v 0.001294 0.064264 0.006747
v -0.005539 0.000000 0.006181
v -0.001108 0.000000 0.004345
v 0.004125 0.064264 -0.000086
v 0.001294 0.064264 0.006747
v 0.000728 0.000000 -0.000086
v 0.004125 0.064264 -0.000086
v -0.001108 0.000000 -0.004517
v 0.001294 0.064264 -0.006919
v 0.000728 0.000000 -0.000086
v 0.006845 0.068644 -0.000086
v 0.001294 0.064264 -0.006919
v 0.003218 0.068644 -0.008843
v 0.004125 0.064264 -0.000086
v 0.001294 0.064264 0.006747
v 0.006845 0.068644 -0.000086
v 0.003218 0.068644 0.008671
v 0.004125 0.064264 -0.000086
v -0.005539 0.068644 0.012298
v 0.001294 0.064264 0.006747
v 0.003218 0.068644 0.008671
v -0.005539 0.064264 0.009578
v -0.005539 0.068644 0.012298
v -0.012372 0.064264 0.006747
v -0.005539 0.064264 0.009578
v -0.014296 0.068644 0.008671
v -0.014296 0.068644 0.008671
v -0.017923 0.068644 -0.000086
v -0.012372 0.064264 0.006747
v -0.015203 0.064264 -0.000086
v -0.005539 0.064264 -0.009750
v -0.012372 0.064264 -0.006919
v -0.005539 0.068644 -0.012470
v -0.014296 0.068644 -0.008843
v -0.017923 0.068644 -0.000086
v -0.012372 0.064264 -0.006919
v -0.015203 0.064264 -0.000086
v -0.014296 0.068644 -0.008843
v -0.005539 0.000000 -0.006352
v -0.005539 0.064264 -0.009750
v -0.001108 0.000000 -0.004517
v 0.001294 0.064264 -0.006919
v -0.004008 0.575873 -0.026158
v -0.004372 0.589397 -0.029332
v -0.004372 0.589484 -0.027038
v -0.004008 0.575758 -0.029181
v 0.012440 0.575816 0.020945
v 0.013169 0.589440 0.020945
v 0.013170 0.589502 0.018649
v 0.012441 0.575897 0.017920
v -0.026542 0.575735 -0.021115
v -0.026542 0.589379 -0.021115
v -0.023518 0.575816 -0.021116
v -0.024247 0.589440 -0.021116
v -0.023544 0.575816 0.020919
v -0.024274 0.589502 0.018623
v -0.024273 0.589440 0.020918
v -0.023545 0.575897 0.017894
v -0.024273 0.589440 0.020918
v -0.024274 0.589502 0.018623
v -0.026569 0.589379 0.020917
v -0.026569 0.589440 0.018622
v 0.022671 0.576385 0.000537
v 0.003361 0.070024 -0.000671
v 0.022671 0.576385 -0.000671
v 0.003361 0.070024 0.000537
v 0.013968 0.576385 0.020302
v 0.001168 0.070024 0.005794
v 0.014822 0.576385 0.019448
v 0.000314 0.070024 0.006648
v -0.033749 0.576385 -0.000708
v -0.014440 0.070024 0.000499
v -0.033749 0.576385 0.000499
v -0.014440 0.070024 -0.000708
v -0.006124 0.576430 -0.027089
v -0.006124 0.070069 -0.007780
v -0.004917 0.576430 -0.027089
v -0.004917 0.070069 -0.007780
v 0.015464 0.589379 0.020944
v 0.015464 0.575735 0.020944
v 0.015465 0.575816 0.017919
v 0.015465 0.589440 0.018649
v -0.026569 0.589379 0.020917
v -0.026570 0.575816 0.017893
v -0.026569 0.575735 0.020918
v -0.026569 0.589440 0.018622
v 0.013169 0.589440 0.020945
v 0.012440 0.575816 0.020945
v 0.015464 0.589379 0.020944
v 0.015464 0.575735 0.020944
v -0.006706 0.589397 0.029161
v -0.004410 0.589397 0.029161
v -0.006706 0.589484 0.026866
v -0.004410 0.589484 0.026866
v -0.007033 0.575873 -0.026158
v -0.006669 0.589484 -0.027038
v -0.006669 0.589397 -0.029332
v -0.007033 0.575758 -0.029181
v -0.004954 0.070024 0.008815
v -0.004954 0.576430 0.026917
v -0.004954 0.576385 0.028124
v -0.004954 0.070069 0.007608
v -0.012247 0.070024 -0.005966
v -0.025046 0.576385 -0.020473
v -0.011392 0.070024 -0.006820
v -0.025900 0.576385 -0.019619
v -0.004917 0.070024 -0.008986
v -0.004917 0.576385 -0.028296
v -0.004917 0.576430 -0.027089
v -0.004917 0.070069 -0.007780
v 0.013115 0.576430 0.019448
v -0.000539 0.070069 0.005795
v 0.013968 0.576385 0.020302
v 0.000314 0.070024 0.006648
v -0.004410 0.589397 0.029161
v -0.007070 0.575758 0.029010
v -0.004045 0.575758 0.029010
v -0.006706 0.589397 0.029161
v -0.034635 0.575758 -0.001617
v -0.034786 0.589397 -0.001252
v -0.031611 0.575873 -0.001617
v -0.032491 0.589484 -0.001252
v 0.020533 0.575873 -0.001580
v 0.023707 0.589397 -0.001215
v 0.023557 0.575758 -0.001580
v 0.021413 0.589484 -0.001215
v 0.013169 0.589440 0.020945
v 0.015464 0.589379 0.020944
v 0.013170 0.589502 0.018649
v 0.015465 0.589440 0.018649
v -0.024248 0.589502 -0.018821
v -0.023519 0.575897 -0.018092
v -0.023518 0.575816 -0.021116
v -0.024247 0.589440 -0.021116
v 0.021464 0.576430 0.000537
v 0.003361 0.070024 0.000537
v 0.022671 0.576385 0.000537
v 0.002155 0.070069 0.000537
v -0.025047 0.576430 -0.018766
v -0.010539 0.070069 -0.005966
v -0.024193 0.576430 -0.019620
v -0.011393 0.070069 -0.005112
v 0.000944 0.070014 -0.006543
v 0.014598 0.576375 -0.020197
v 0.014599 0.576408 -0.018989
v 0.000945 0.070047 -0.005336
v -0.025677 0.576408 0.018818
v -0.012023 0.070014 0.006371
v -0.025676 0.576375 0.020025
v -0.012023 0.070047 0.005164
v 0.012720 0.589484 -0.019942
v 0.015966 0.589397 -0.019941
v 0.014343 0.589397 -0.021565
v 0.014344 0.589484 -0.018319
v 0.022671 0.576385 -0.000671
v 0.003361 0.070024 -0.000671
v 0.021464 0.576430 -0.000671
v 0.002155 0.070069 -0.000671
v -0.011393 0.070069 -0.005112
v -0.025047 0.576430 -0.018766
v -0.025900 0.576385 -0.019619
v -0.012247 0.070024 -0.005966
v -0.025046 0.576385 -0.020473
v -0.010539 0.070069 -0.005966
v -0.011392 0.070024 -0.006820
v -0.024193 0.576430 -0.019620
v -0.006162 0.070024 0.008815
v -0.006161 0.576430 0.026917
v -0.006162 0.070069 0.007608
v -0.006161 0.576385 0.028124
v -0.034635 0.575758 0.001408
v -0.034786 0.589397 -0.001252
v -0.034635 0.575758 -0.001617
v -0.034786 0.589397 0.001044
v -0.031611 0.575873 0.001408
v -0.032491 0.589484 -0.001252
v -0.032491 0.589484 0.001044
v -0.031611 0.575873 -0.001617
v -0.031611 0.575873 0.001408
v -0.032491 0.589484 0.001044
v -0.034786 0.589397 0.001044
v -0.034635 0.575758 0.001408
v -0.004372 0.589484 -0.027038
v -0.006669 0.589397 -0.029332
v -0.006669 0.589484 -0.027038
v -0.004372 0.589397 -0.029332
v -0.006161 0.576385 0.028124
v -0.004954 0.070024 0.008815
v -0.004954 0.576385 0.028124
v -0.006162 0.070024 0.008815
v 0.014598 0.576375 -0.020197
v 0.000944 0.070014 -0.006543
v 0.013391 0.576408 -0.020197
v -0.000263 0.070047 -0.006544
v -0.013233 0.070069 0.000499
v -0.032542 0.576430 -0.000708
v -0.032542 0.576430 0.000499
v -0.013233 0.070069 -0.000708
v -0.014440 0.070024 -0.000708
v -0.032542 0.576430 -0.000708
v -0.013233 0.070069 -0.000708
v -0.033749 0.576385 -0.000708
v -0.004410 0.589484 0.026866
v -0.004045 0.575873 0.025986
v -0.007070 0.575873 0.025986
v -0.006706 0.589484 0.026866
v -0.026544 0.575816 -0.018091
v -0.026543 0.589440 -0.018820
v -0.026542 0.589379 -0.021115
v -0.026542 0.575735 -0.021115
v -0.024274 0.589502 0.018623
v -0.023545 0.575897 0.017894
v -0.026570 0.575816 0.017893
v -0.026569 0.589440 0.018622
v -0.024248 0.589502 -0.018821
v -0.026542 0.589379 -0.021115
v -0.026543 0.589440 -0.018820
v -0.024247 0.589440 -0.021116
v 0.013170 0.589502 0.018649
v 0.015465 0.575816 0.017919
v 0.012441 0.575897 0.017920
v 0.015465 0.589440 0.018649
v -0.024469 0.576408 0.020026
v -0.012023 0.070014 0.006371
v -0.010815 0.070047 0.006372
v -0.025676 0.576375 0.020025
v 0.021464 0.576430 -0.000671
v 0.002155 0.070069 -0.000671
v 0.021464 0.576430 0.000537
v 0.002155 0.070069 0.000537
v -0.010815 0.070047 0.006372
v -0.024469 0.576440 0.018818
v -0.024469 0.576408 0.020026
v -0.010816 0.070079 0.005165
v -0.006124 0.070024 -0.008986
v -0.004917 0.576385 -0.028296
v -0.004917 0.070024 -0.008986
v -0.006124 0.576385 -0.028296
v -0.006669 0.589484 -0.027038
v -0.004008 0.575873 -0.026158
v -0.004372 0.589484 -0.027038
v -0.007033 0.575873 -0.026158
v 0.023707 0.589397 0.001081
v 0.020533 0.575873 0.001446
v 0.023557 0.575758 0.001446
v 0.021413 0.589484 0.001081
v -0.026543 0.589440 -0.018820
v -0.026544 0.575816 -0.018091
v -0.024248 0.589502 -0.018821
v -0.023519 0.575897 -0.018092
v 0.023557 0.575758 -0.001580
v 0.023707 0.589397 -0.001215
v 0.023557 0.575758 0.001446
v 0.023707 0.589397 0.001081
v -0.032491 0.589484 -0.001252
v -0.034786 0.589397 0.001044
v -0.032491 0.589484 0.001044
v -0.034786 0.589397 -0.001252
v -0.000539 0.070069 0.005795
v 0.013115 0.576430 0.019448
v 0.013969 0.576430 0.018594
v 0.000315 0.070069 0.004940
v 0.000945 0.070047 -0.005336
v 0.014599 0.576408 -0.018989
v 0.013391 0.576440 -0.018990
v -0.000262 0.070079 -0.005336
v 0.013391 0.576440 -0.018990
v -0.000263 0.070047 -0.006544
v -0.000262 0.070079 -0.005336
v 0.013391 0.576408 -0.020197
v -0.004954 0.070069 0.007608
v -0.006161 0.576430 0.026917
v -0.004954 0.576430 0.026917
v -0.006162 0.070069 0.007608
v -0.004045 0.575873 0.025986
v -0.004410 0.589397 0.029161
v -0.004045 0.575758 0.029010
v -0.004410 0.589484 0.026866
v 0.020533 0.575873 0.001446
v 0.021413 0.589484 -0.001215
v 0.020533 0.575873 -0.001580
v 0.021413 0.589484 0.001081
v -0.007033 0.575758 -0.029181
v -0.006669 0.589397 -0.029332
v -0.004008 0.575758 -0.029181
v -0.004372 0.589397 -0.029332
v -0.023544 0.575816 0.020919
v -0.024273 0.589440 0.020918
v -0.026569 0.589379 0.020917
v -0.026569 0.575735 0.020918
v 0.021413 0.589484 0.001081
v 0.023707 0.589397 0.001081
v 0.023707 0.589397 -0.001215
v 0.021413 0.589484 -0.001215
v 0.013978 0.575758 -0.021716
v 0.014343 0.589397 -0.021565
v 0.016118 0.575758 -0.019577
v 0.015966 0.589397 -0.019941
v -0.014440 0.070024 0.000499
v -0.032542 0.576430 0.000499
v -0.033749 0.576385 0.000499
v -0.013233 0.070069 0.000499
v -0.006124 0.576430 -0.027089
v -0.006124 0.070024 -0.008986
v -0.006124 0.070069 -0.007780
v -0.006124 0.576385 -0.028296
v 0.014822 0.576385 0.019448
v 0.000315 0.070069 0.004940
v 0.013969 0.576430 0.018594
v 0.001168 0.070024 0.005794
v 0.014343 0.589397 -0.021565
v 0.013978 0.575758 -0.021716
v 0.011840 0.575873 -0.019578
v 0.012720 0.589484 -0.019942
v 0.014344 0.589484 -0.018319
v 0.011840 0.575873 -0.019578
v 0.013980 0.575873 -0.017439
v 0.012720 0.589484 -0.019942
v 0.016118 0.575758 -0.019577
v 0.015966 0.589397 -0.019941
v 0.013980 0.575873 -0.017439
v 0.014344 0.589484 -0.018319
v -0.006706 0.589397 0.029161
v -0.007070 0.575873 0.025986
v -0.007070 0.575758 0.029010
v -0.006706 0.589484 0.026866
v 0.023852 0.578280 0.002278
v 0.004068 0.068928 0.000718
v 0.004068 0.068928 -0.000889
v 0.023852 0.578280 -0.002819
v -0.007902 0.578280 0.029306
v -0.004735 0.068928 0.009521
v -0.002805 0.578280 0.029306
v -0.006343 0.068928 0.009521
v -0.012023 0.070047 0.005164
v -0.024469 0.576440 0.018818
v -0.010816 0.070079 0.005165
v -0.025677 0.576408 0.018818
v 0.054614 0.711719 -0.007618
v 0.071092 0.687348 -0.005398
v 0.065785 0.687142 -0.007618
v 0.058258 0.715582 -0.005398
v 0.058258 0.715582 0.005227
v 0.029430 0.721442 0.007446
v 0.054614 0.711719 0.007446
v 0.029327 0.726752 0.005227
v 0.029533 0.716103 -0.005428
v 0.004641 0.710750 -0.007618
v 0.029430 0.721442 -0.007618
v 0.008454 0.707010 -0.005428
v 0.008454 0.707010 0.005256
v -0.005539 0.684342 0.007447
v -0.000212 0.684342 0.005241
v 0.004641 0.710750 0.007446
v 0.000899 0.586308 0.006352
v 0.000899 0.586308 -0.006524
v 0.003566 0.586308 -0.000086
v -0.011977 0.586308 0.006352
v -0.011977 0.586308 -0.006524
v -0.005539 0.586308 -0.009190
v -0.005539 0.586308 0.009019
v -0.014644 0.586308 -0.000086
v -0.011977 0.607107 0.006352
v -0.011977 0.586308 0.006352
v -0.005539 0.607107 0.009019
v -0.005539 0.586308 0.009019
v 0.003566 0.607107 -0.000086
v 0.000899 0.586308 -0.006524
v 0.000899 0.607107 -0.006524
v 0.003566 0.586308 -0.000086
v -0.014644 0.607107 -0.000086
v -0.014644 0.586308 -0.000086
v -0.011977 0.607107 0.006352
v -0.011977 0.586308 0.006352
v -0.005539 0.586308 -0.009190
v -0.005539 0.607107 -0.009190
v 0.000899 0.586308 -0.006524
v 0.000899 0.607107 -0.006524
v -0.011977 0.607107 -0.006524
v -0.011977 0.586308 -0.006524
v -0.014644 0.607107 -0.000086
v -0.014644 0.586308 -0.000086
v 0.000899 0.607107 0.006352
v 0.003566 0.586308 -0.000086
v 0.003566 0.607107 -0.000086
v 0.000899 0.586308 0.006352
v -0.011977 0.586308 -0.006524
v -0.011977 0.607107 -0.006524
v -0.005539 0.586308 -0.009190
v -0.005539 0.607107 -0.009190
v -0.006343 0.068928 -0.009693
v -0.003176 0.578280 -0.029477
v -0.004735 0.068928 -0.009693
v -0.008273 0.578280 -0.029477
v 0.003833 0.068928 -0.002336
v 0.121150 0.533473 -0.024078
v 0.023852 0.578280 -0.002819
v 0.017178 0.578280 0.018764
v 0.001822 0.068928 0.006139
v 0.100904 0.533431 0.072658
v 0.002679 0.068928 0.004950
v -0.002805 0.578280 0.029306
v -0.004735 0.068928 0.009521
v 0.018551 0.533458 0.126580
v -0.024389 0.578280 0.022631
v -0.011764 0.068928 0.007276
v -0.077576 0.533494 0.106888
v -0.010575 0.068928 0.008132
v -0.014911 0.068928 0.002164
v -0.131857 0.533500 0.025647
v -0.034931 0.578280 0.002648
v -0.113337 0.532751 -0.070330
v -0.012900 0.068928 -0.006311
v -0.013757 0.068928 -0.005122
v -0.028255 0.578280 -0.018936
v -0.008273 0.578280 -0.029477
v -0.006343 0.068928 -0.009693
v -0.031563 0.532929 -0.126165
v 0.065765 0.531617 -0.106603
v 0.000686 0.068928 -0.007447
v -0.000503 0.068928 -0.008304
v 0.013311 0.578280 -0.022802
v -0.004735 0.068928 -0.009693
v -0.003176 0.578280 -0.029477
v -0.011452 0.530229 -0.126932
v -0.011764 0.068928 -0.007447
v -0.024651 0.578280 -0.022540
v -0.100142 0.530999 -0.085198
v -0.015146 0.068928 -0.000889
v -0.034931 0.578280 -0.002449
v -0.132508 0.530566 0.006316
v -0.012900 0.068928 0.006139
v -0.027993 0.578280 0.019027
v -0.091439 0.530696 0.093710
v -0.006343 0.068928 0.009521
v -0.007902 0.578280 0.029306
v -0.001159 0.530988 0.127301
v 0.000686 0.068928 0.007276
v 0.013574 0.578280 0.022368
v 0.087445 0.530868 0.086998
v 0.004068 0.068928 0.000718
v 0.023852 0.578280 0.002278
v 0.121888 0.531025 -0.004264
v 0.001822 0.068928 -0.006311
v 0.016915 0.578280 -0.019198
v 0.081551 0.531639 -0.093502
vt 0.113484 0.520879
vt 0.044385 0.518565
vt 0.114076 0.516270
vt 0.044380 0.518678
vt 0.065052 0.427584
vt 0.060542 0.495636
vt 0.055646 0.495581
vt 0.065122 0.427573
vt 0.181328 0.427550
vt 0.181328 0.504093
vt 0.181121 0.504102
vt 0.180673 0.427577
vt 0.035561 0.427360
vt 0.035738 0.350718
vt 0.035738 0.427364
vt 0.035177 0.350705
vt 0.022547 0.357130
vt 0.035426 0.427357
vt 0.017481 0.359001
vt 0.118251 0.418608
vt 0.133130 0.350710
vt 0.123209 0.420449
vt 0.176003 0.420475
vt 0.171597 0.352314
vt 0.176102 0.350705
vt 0.044375 0.518790
vt 0.113484 0.520879
vt 0.114076 0.525512
vt 0.044380 0.518678
vt 0.114166 0.504199
vt 0.114691 0.427538
vt 0.114933 0.504203
vt 0.114933 0.427539
vt 0.041451 0.495296
vt 0.044200 0.427596
vt 0.044200 0.496619
vt 0.044097 0.427574
vt 0.114076 0.417953
vt 0.133130 0.350710
vt 0.118251 0.418608
vt 0.133086 0.350711
vt 0.114254 0.511421
vt 0.184524 0.511136
vt 0.184524 0.516096
vt 0.114251 0.511347
vt 0.036265 0.495188
vt 0.043992 0.427552
vt 0.041451 0.495296
vt 0.044097 0.427574
vt 0.099405 0.356696
vt 0.113797 0.427062
vt 0.094535 0.358708
vt 0.113825 0.427050
vt 0.113044 0.504373
vt 0.044390 0.515372
vt 0.044375 0.515265
vt 0.111537 0.507347
vt 0.176276 0.418124
vt 0.181223 0.350706
vt 0.181331 0.418772
vt 0.181331 0.350705
vt 0.055304 0.350708
vt 0.040355 0.420858
vt 0.055333 0.350705
vt 0.035913 0.419070
vt 0.017481 0.359001
vt 0.035316 0.427354
vt 0.014011 0.359904
vt 0.035367 0.427355
vt 0.151841 0.504192
vt 0.133479 0.435743
vt 0.138549 0.433862
vt 0.152592 0.350712
vt 0.138390 0.420572
vt 0.133479 0.418884
vt 0.070289 0.428774
vt 0.074750 0.499240
vt 0.074658 0.499237
vt 0.065373 0.429377
vt 0.079967 0.357084
vt 0.094248 0.427294
vt 0.075022 0.358883
vt 0.094278 0.427298
vt 0.044375 0.526453
vt 0.120999 0.526021
vt 0.120999 0.526262
vt 0.044375 0.525687
vt 0.171597 0.352314
vt 0.175910 0.420463
vt 0.166658 0.352747
vt 0.176003 0.420475
vt 0.111548 0.512480
vt 0.044406 0.515477
vt 0.111537 0.507347
vt 0.044390 0.515372
vt 0.113044 0.516096
vt 0.044421 0.515577
vt 0.044406 0.515477
vt 0.111548 0.512480
vt 0.113606 0.427249
vt 0.099473 0.497560
vt 0.094535 0.495688
vt 0.181288 0.525483
vt 0.114251 0.518124
vt 0.180374 0.520920
vt 0.114254 0.518012
vt 0.133304 0.504207
vt 0.118608 0.433878
vt 0.133271 0.504204
vt 0.115108 0.435820
vt 0.019403 0.503974
vt 0.020072 0.427549
vt 0.020072 0.504006
vt 0.019861 0.427539
vt 0.078770 0.433632
vt 0.093728 0.504162
vt 0.093755 0.504163
vt 0.075022 0.435495
vt 0.180374 0.520920
vt 0.114257 0.517899
vt 0.181288 0.516270
vt 0.114254 0.518012
vt 0.065122 0.427573
vt 0.065198 0.497038
vt 0.060542 0.495636
vt 0.065198 0.427561
vt 0.055507 0.419198
vt 0.074848 0.350705
vt 0.059773 0.420964
vt 0.074813 0.350706
vt 0.019130 0.427539
vt 0.019130 0.498235
vt 0.014011 0.497155
vt 0.074750 0.499240
vt 0.070289 0.428774
vt 0.074848 0.427561
vt 0.180498 0.495881
vt 0.175332 0.427949
vt 0.180498 0.427550
vt 0.180393 0.495871
vt 0.295740 0.281812
vt 0.292251 0.297990
vt 0.293146 0.281566
vt 0.294906 0.297436
vt 0.312040 0.282463
vt 0.310737 0.293398
vt 0.308061 0.293750
vt 0.309463 0.282009
vt 0.257224 0.317241
vt 0.261104 0.302325
vt 0.263133 0.304343
vt 0.254396 0.317074
vt 0.305440 0.294134
vt 0.307109 0.280451
vt 0.309463 0.282009
vt 0.308061 0.293750
vt 0.298190 0.283209
vt 0.294906 0.297436
vt 0.295740 0.281812
vt 0.297485 0.296899
vt 0.252817 0.316677
vt 0.259850 0.301159
vt 0.254396 0.317074
vt 0.261104 0.302325
vt 0.326982 0.312326
vt 0.330706 0.323419
vt 0.327892 0.324129
vt 0.329856 0.312427
vt 0.327023 0.353737
vt 0.326982 0.339492
vt 0.329642 0.339524
vt 0.329686 0.354531
vt 0.298190 0.283209
vt 0.304025 0.273793
vt 0.305402 0.276229
vt 0.295740 0.281812
vt 0.257224 0.317241
vt 0.263627 0.327635
vt 0.261899 0.329654
vt 0.259652 0.317080
vt 0.316099 0.342687
vt 0.316200 0.332080
vt 0.318900 0.332872
vt 0.318807 0.342702
vt 0.332318 0.339493
vt 0.332359 0.353739
vt 0.329642 0.339524
vt 0.329686 0.354531
vt 0.259768 0.331334
vt 0.254396 0.317074
vt 0.257224 0.317241
vt 0.261899 0.329654
vt 0.318900 0.332872
vt 0.321463 0.342684
vt 0.318807 0.342702
vt 0.321564 0.332077
vt 0.332359 0.324916
vt 0.329642 0.339524
vt 0.329686 0.324167
vt 0.332318 0.339493
vt 0.318900 0.352651
vt 0.318807 0.342702
vt 0.321463 0.342684
vt 0.321564 0.353420
vt 0.273970 0.334972
vt 0.261899 0.329654
vt 0.273892 0.332157
vt 0.263627 0.327635
vt 0.326945 0.303510
vt 0.318632 0.296069
vt 0.321369 0.295294
vt 0.325038 0.305507
vt 0.316099 0.342687
vt 0.318900 0.352651
vt 0.316200 0.353422
vt 0.318807 0.342702
vt 0.322418 0.332039
vt 0.318717 0.323313
vt 0.324091 0.329805
vt 0.316099 0.324404
vt 0.327024 0.324914
vt 0.329642 0.339524
vt 0.326982 0.339492
vt 0.329686 0.324167
vt 0.318717 0.323313
vt 0.316913 0.311506
vt 0.319408 0.312345
vt 0.316099 0.324404
vt 0.286530 0.330151
vt 0.273892 0.332157
vt 0.284573 0.328057
vt 0.273970 0.334972
vt 0.321329 0.323437
vt 0.319408 0.312345
vt 0.321970 0.313272
vt 0.318717 0.323313
vt 0.325076 0.332638
vt 0.324464 0.346133
vt 0.321602 0.346294
vt 0.322246 0.332077
vt 0.318785 0.280293
vt 0.318632 0.296069
vt 0.316099 0.295629
vt 0.321182 0.281512
vt 0.284573 0.328057
vt 0.273444 0.330655
vt 0.283343 0.326855
vt 0.273892 0.332157
vt 0.273970 0.334972
vt 0.286530 0.330151
vt 0.288064 0.331904
vt 0.273634 0.337443
vt 0.326945 0.276592
vt 0.323588 0.282623
vt 0.325472 0.275041
vt 0.321182 0.281512
vt 0.318785 0.280293
vt 0.325472 0.275041
vt 0.321182 0.281512
vt 0.323743 0.273793
vt 0.325076 0.353958
vt 0.321602 0.346294
vt 0.324464 0.346133
vt 0.322836 0.354416
vt 0.286530 0.330151
vt 0.292213 0.325180
vt 0.288064 0.331904
vt 0.290510 0.324426
vt 0.322210 0.306924
vt 0.316913 0.311506
vt 0.320583 0.305545
vt 0.319408 0.312345
vt 0.319408 0.312345
vt 0.324091 0.307954
vt 0.321970 0.313272
vt 0.322210 0.306924
vt 0.283343 0.326855
vt 0.287304 0.322723
vt 0.284573 0.328057
vt 0.288476 0.323407
vt 0.288476 0.323407
vt 0.286530 0.330151
vt 0.284573 0.328057
vt 0.290510 0.324426
vt 0.306979 0.338109
vt 0.310698 0.336630
vt 0.309157 0.338191
vt 0.305440 0.336434
vt 0.310698 0.334340
vt 0.309157 0.332664
vt 0.305440 0.334146
vt 0.306978 0.332584
vt 0.316061 0.331810
vt 0.308061 0.293750
vt 0.310737 0.293398
vt 0.313385 0.332162
vt 0.327833 0.273793
vt 0.329856 0.312427
vt 0.326982 0.312326
vt 0.330706 0.273894
vt 0.263133 0.304343
vt 0.292213 0.278665
vt 0.264747 0.306031
vt 0.290599 0.276977
vt 0.261104 0.302325
vt 0.290599 0.276977
vt 0.263133 0.304343
vt 0.288569 0.274958
vt 0.288569 0.274958
vt 0.261104 0.302325
vt 0.259850 0.301159
vt 0.287315 0.273793
vt 0.297485 0.296899
vt 0.305402 0.334868
vt 0.302823 0.335405
vt 0.294906 0.297436
vt 0.300168 0.335959
vt 0.292251 0.297990
vt 0.294906 0.297436
vt 0.302823 0.335405
vt 0.308061 0.293750
vt 0.313385 0.332162
vt 0.310763 0.332546
vt 0.305440 0.294134
vt 0.079726 0.859713
vt 0.079726 0.855024
vt 0.080993 0.859739
vt 0.080993 0.855050
vt 0.083742 0.855024
vt 0.084526 0.856271
vt 0.083607 0.855351
vt 0.082306 0.855351
vt 0.082171 0.855024
vt 0.084854 0.856135
vt 0.084854 0.857706
vt 0.084526 0.857571
vt 0.082171 0.858818
vt 0.081387 0.857571
vt 0.082307 0.858490
vt 0.083607 0.858490
vt 0.083743 0.858818
vt 0.081060 0.857707
vt 0.081060 0.856135
vt 0.081387 0.856271
vt 0.068707 0.847607
vt 0.068707 0.969645
vt 0.067773 0.969653
vt 0.067773 0.847615
vt 0.069660 0.969652
vt 0.068707 0.847607
vt 0.069660 0.847614
vt 0.068707 0.969645
vt 0.072692 0.968914
vt 0.071678 0.847607
vt 0.072692 0.847621
vt 0.071678 0.968901
vt 0.066882 0.969617
vt 0.067706 0.847624
vt 0.067706 0.969634
vt 0.066882 0.847607
vt 0.065873 0.969621
vt 0.066882 0.847607
vt 0.066882 0.969617
vt 0.065873 0.847612
vt 0.065873 0.847612
vt 0.065873 0.969621
vt 0.065269 0.969644
vt 0.065269 0.847635
vt 0.071612 0.847607
vt 0.071612 0.969665
vt 0.070683 0.969665
vt 0.070683 0.847607
vt 0.069726 0.969665
vt 0.070683 0.847607
vt 0.070683 0.969665
vt 0.069726 0.847608
vt 0.082404 0.853446
vt 0.080893 0.849797
vt 0.082404 0.851308
vt 0.077243 0.851308
vt 0.078755 0.849797
vt 0.078755 0.854957
vt 0.080893 0.854957
vt 0.077243 0.853446
vt 0.072773 0.867308
vt 0.073757 0.865338
vt 0.073769 0.866865
vt 0.072759 0.865352
vt 0.078008 0.862432
vt 0.079855 0.861668
vt 0.079090 0.862432
vt 0.079090 0.859821
vt 0.079855 0.860586
vt 0.077243 0.860586
vt 0.078009 0.859821
vt 0.077243 0.861668
vt 0.088241 0.869369
vt 0.073748 0.867823
vt 0.088241 0.868385
vt 0.073747 0.869341
vt 0.073747 0.869341
vt 0.088241 0.869369
vt 0.073747 0.870904
vt 0.088241 0.870383
vt 0.072759 0.861991
vt 0.075242 0.847631
vt 0.073745 0.862029
vt 0.074603 0.847607
vt 0.073745 0.862029
vt 0.075242 0.847631
vt 0.075389 0.862147
vt 0.076309 0.847708
vt 0.075389 0.862147
vt 0.077177 0.847793
vt 0.076729 0.862277
vt 0.076309 0.847708
vt 0.077243 0.849262
vt 0.091724 0.847787
vt 0.091724 0.849444
vt 0.077243 0.848188
vt 0.073769 0.863783
vt 0.088262 0.865326
vt 0.073757 0.865338
vt 0.088269 0.864317
vt 0.072773 0.863359
vt 0.073757 0.865338
vt 0.072759 0.865352
vt 0.073769 0.863783
vt 0.091724 0.849444
vt 0.092770 0.847607
vt 0.092770 0.849730
vt 0.091724 0.847787
vt 0.075460 0.863126
vt 0.076729 0.862277
vt 0.077177 0.863292
vt 0.075389 0.862147
vt 0.075460 0.863126
vt 0.073745 0.862029
vt 0.075389 0.862147
vt 0.073353 0.862974
vt 0.091181 0.860755
vt 0.091181 0.862892
vt 0.090610 0.861012
vt 0.090610 0.862680
vt 0.073748 0.867823
vt 0.073747 0.869341
vt 0.072759 0.867374
vt 0.072759 0.869319
vt 0.072759 0.871322
vt 0.073747 0.869341
vt 0.073747 0.870904
vt 0.072759 0.869319
vt 0.088269 0.866315
vt 0.073769 0.866865
vt 0.088262 0.865326
vt 0.073757 0.865338
vt 0.088547 0.858064
vt 0.088047 0.855031
vt 0.088547 0.855024
vt 0.087889 0.858074
vt 0.089238 0.853336
vt 0.089359 0.850263
vt 0.089737 0.850250
vt 0.089737 0.853318
vt 0.090341 0.853326
vt 0.090455 0.850251
vt 0.090813 0.853316
vt 0.090813 0.850244
vt 0.089269 0.858060
vt 0.088771 0.855033
vt 0.089269 0.855024
vt 0.088613 0.858072
vt 0.088473 0.859131
vt 0.088473 0.858613
vt 0.088990 0.859130
vt 0.088990 0.858613
vt 0.091676 0.977322
vt 0.091938 0.863359
vt 0.091938 0.977317
vt 0.091676 0.863364
vt 0.093647 0.977287
vt 0.093885 0.863369
vt 0.093885 0.977297
vt 0.093647 0.863359
vt 0.095384 0.977599
vt 0.095583 0.863364
vt 0.095583 0.977604
vt 0.095384 0.863359
vt 0.089690 0.977636
vt 0.089690 0.863359
vt 0.089955 0.977636
vt 0.089955 0.863359
vt 0.088447 0.850275
vt 0.088447 0.853333
vt 0.087791 0.853336
vt 0.087949 0.850277
vt 0.078974 0.872233
vt 0.075899 0.872617
vt 0.075899 0.872117
vt 0.078974 0.872612
vt 0.087995 0.861834
vt 0.084919 0.861930
vt 0.087995 0.861331
vt 0.084919 0.861267
vt 0.086422 0.871388
vt 0.086422 0.871906
vt 0.085905 0.871388
vt 0.085905 0.871906
vt 0.087067 0.853402
vt 0.090143 0.853447
vt 0.090143 0.853826
vt 0.087067 0.853901
vt 0.092595 0.977051
vt 0.092333 0.863366
vt 0.092595 0.863359
vt 0.092333 0.977059
vt 0.089285 0.863359
vt 0.089013 0.977561
vt 0.089013 0.863359
vt 0.089285 0.977561
vt 0.092662 0.976797
vt 0.092661 0.863367
vt 0.092924 0.863359
vt 0.092924 0.976788
vt 0.094488 0.863359
vt 0.094488 0.977509
vt 0.094254 0.863365
vt 0.094254 0.977516
vt 0.085255 0.871439
vt 0.082181 0.872051
vt 0.082181 0.871388
vt 0.085255 0.871942
vt 0.089901 0.858115
vt 0.090015 0.855043
vt 0.090373 0.858092
vt 0.090373 0.855025
vt 0.085257 0.873126
vt 0.082181 0.872681
vt 0.085257 0.872655
vt 0.082181 0.873039
vt 0.087889 0.859131
vt 0.087889 0.858613
vt 0.088406 0.859131
vt 0.088406 0.858613
vt 0.089171 0.850275
vt 0.089171 0.853304
vt 0.088514 0.853318
vt 0.088672 0.850286
vt 0.090352 0.977620
vt 0.090617 0.863360
vt 0.090617 0.977621
vt 0.090352 0.863359
vt 0.094188 0.863378
vt 0.093951 0.976438
vt 0.093951 0.863359
vt 0.094188 0.976457
vt 0.092004 0.977151
vt 0.092004 0.863365
vt 0.092267 0.863359
vt 0.092267 0.977144
vt 0.095052 0.863359
vt 0.094852 0.977640
vt 0.094853 0.863359
vt 0.095052 0.977641
vt 0.088473 0.859715
vt 0.088990 0.859197
vt 0.088990 0.859715
vt 0.088473 0.859197
vt 0.096888 0.863360
vt 0.096888 0.977637
vt 0.096700 0.863359
vt 0.096700 0.977635
vt 0.094554 0.977638
vt 0.094554 0.863360
vt 0.094786 0.863359
vt 0.094786 0.977636
vt 0.088674 0.863359
vt 0.088947 0.977620
vt 0.088674 0.977620
vt 0.088947 0.863359
vt 0.096180 0.977604
vt 0.096380 0.863359
vt 0.096380 0.977599
vt 0.096180 0.863364
vt 0.084201 0.862745
vt 0.087277 0.863163
vt 0.084201 0.863244
vt 0.087277 0.862785
vt 0.089441 0.862836
vt 0.088942 0.859820
vt 0.089441 0.859809
vt 0.088784 0.862851
vt 0.087995 0.860472
vt 0.084919 0.860400
vt 0.084920 0.859896
vt 0.087995 0.859809
vt 0.087861 0.863263
vt 0.087343 0.862745
vt 0.087861 0.862745
vt 0.087343 0.863263
vt 0.091609 0.863363
vt 0.091345 0.977398
vt 0.091345 0.863359
vt 0.091609 0.977402
vt 0.097143 0.863363
vt 0.097143 0.977621
vt 0.096955 0.863359
vt 0.096955 0.977617
vt 0.093318 0.863370
vt 0.093581 0.976380
vt 0.093318 0.976391
vt 0.093581 0.863359
vt 0.097652 0.863359
vt 0.097464 0.977531
vt 0.097463 0.863368
vt 0.097652 0.977522
vt 0.090544 0.859809
vt 0.090544 0.862876
vt 0.090073 0.862898
vt 0.090186 0.859826
vt 0.081060 0.862745
vt 0.084135 0.862756
vt 0.084135 0.863135
vt 0.081060 0.863245
vt 0.090275 0.850250
vt 0.090275 0.853314
vt 0.089803 0.853342
vt 0.089917 0.850271
vt 0.087889 0.859715
vt 0.088406 0.859197
vt 0.088406 0.859715
vt 0.087889 0.859197
vt 0.090553 0.855032
vt 0.090910 0.858098
vt 0.090439 0.858107
vt 0.090910 0.855025
vt 0.091014 0.863359
vt 0.091279 0.977434
vt 0.091014 0.977430
vt 0.091279 0.863363
vt 0.096114 0.863359
vt 0.096114 0.977593
vt 0.095915 0.863364
vt 0.095915 0.977599
vt 0.092990 0.863368
vt 0.093252 0.976668
vt 0.092990 0.976677
vt 0.093252 0.863359
vt 0.096446 0.977636
vt 0.096634 0.863360
vt 0.096634 0.977638
vt 0.096446 0.863359
vt 0.075833 0.871997
vt 0.072759 0.871388
vt 0.075833 0.871494
vt 0.072759 0.872051
vt 0.087995 0.860623
vt 0.084919 0.861201
vt 0.084919 0.860538
vt 0.087995 0.861126
vt 0.078975 0.871983
vt 0.075899 0.872051
vt 0.078975 0.871480
vt 0.075899 0.871388
vt 0.087067 0.853336
vt 0.087226 0.850276
vt 0.087724 0.853334
vt 0.087724 0.850275
vt 0.087724 0.871905
vt 0.088241 0.871388
vt 0.088241 0.871905
vt 0.087724 0.871388
vt 0.089352 0.977554
vt 0.089352 0.863359
vt 0.089624 0.863359
vt 0.089624 0.977554
vt 0.090286 0.863359
vt 0.090286 0.977639
vt 0.090021 0.977639
vt 0.090022 0.863359
vt 0.095317 0.977640
vt 0.095118 0.863359
vt 0.095317 0.863359
vt 0.095118 0.977641
vt 0.097397 0.977529
vt 0.097209 0.863367
vt 0.097397 0.863359
vt 0.097209 0.977538
vt 0.088062 0.862865
vt 0.088718 0.859809
vt 0.088718 0.862858
vt 0.088220 0.859814
vt 0.089508 0.862892
vt 0.090007 0.859809
vt 0.090007 0.862879
vt 0.089628 0.859818
vt 0.082181 0.872117
vt 0.085257 0.872207
vt 0.082181 0.872589
vt 0.085257 0.872565
vt 0.079041 0.871388
vt 0.082115 0.871442
vt 0.082115 0.871945
vt 0.079041 0.872051
vt 0.085839 0.871388
vt 0.085839 0.871906
vt 0.085321 0.871906
vt 0.085321 0.871388
vt 0.077243 0.862499
vt 0.080319 0.862581
vt 0.077243 0.863181
vt 0.080319 0.863099
vt 0.090947 0.977564
vt 0.090683 0.863359
vt 0.090947 0.863361
vt 0.090683 0.977562
vt 0.095649 0.863359
vt 0.095849 0.977609
vt 0.095649 0.977605
vt 0.095849 0.863363
vt 0.088336 0.977624
vt 0.088608 0.863359
vt 0.088608 0.977624
vt 0.088336 0.863359
vt 0.084919 0.862082
vt 0.087994 0.861996
vt 0.087994 0.862679
vt 0.084919 0.862600
vt 0.090142 0.854393
vt 0.087067 0.854957
vt 0.087067 0.854374
vt 0.090142 0.854836
vt 0.080993 0.859847
vt 0.080993 0.862898
vt 0.080399 0.859821
vt 0.080543 0.862879
vt 0.089456 0.855034
vt 0.089835 0.858096
vt 0.089336 0.858108
vt 0.089835 0.855025
vt 0.020985 0.427539
vt 0.020985 0.504010
vt 0.020752 0.504015
vt 0.020247 0.427556
vt 0.021160 0.504047
vt 0.021904 0.427543
vt 0.021904 0.504061
vt 0.021670 0.427539
vt 0.097906 0.863359
vt 0.097718 0.977472
vt 0.097718 0.863370
vt 0.097906 0.977461
vt 0.321369 0.295294
vt 0.321182 0.281512
vt 0.323588 0.282623
vt 0.318632 0.296069
vt 0.273634 0.337443
vt 0.261899 0.329654
vt 0.273970 0.334972
vt 0.259768 0.331334
vt 0.316061 0.276347
vt 0.307109 0.280451
vt 0.314868 0.273793
vt 0.309463 0.282009
vt 0.259652 0.317080
vt 0.263133 0.304343
vt 0.264747 0.306031
vt 0.257224 0.317241
vt 0.083742 0.858884
vt 0.081060 0.859995
vt 0.082171 0.858884
vt 0.084853 0.861568
vt 0.082171 0.862678
vt 0.081060 0.861567
vt 0.084853 0.859996
vt 0.083742 0.862679
vt 0.078172 0.859719
vt 0.078172 0.855031
vt 0.079726 0.859713
vt 0.079726 0.855024
vt 0.082470 0.854947
vt 0.083936 0.850267
vt 0.083936 0.854957
vt 0.082471 0.850257
vt 0.077243 0.859755
vt 0.077244 0.855066
vt 0.078172 0.859719
vt 0.078172 0.855031
vt 0.085374 0.850256
vt 0.085374 0.854946
vt 0.083936 0.850267
vt 0.083936 0.854957
vt 0.086393 0.855024
vt 0.086393 0.859714
vt 0.084920 0.855024
vt 0.084920 0.859715
vt 0.087001 0.850277
vt 0.085440 0.854917
vt 0.085440 0.850256
vt 0.087001 0.854938
vt 0.086393 0.859714
vt 0.086393 0.855024
vt 0.087823 0.859715
vt 0.087823 0.855024
vt 0.152019 0.504191
vt 0.152186 0.427518
vt 0.152186 0.504193
vt 0.151656 0.427514
vt 0.166484 0.427373
vt 0.152783 0.356742
vt 0.166484 0.350705
vt 0.094360 0.350705
vt 0.094360 0.427307
vt 0.079967 0.357084
vt 0.094278 0.427298
vt 0.175157 0.427550
vt 0.174983 0.504195
vt 0.166451 0.434062
vt 0.093755 0.427482
vt 0.093700 0.504161
vt 0.078770 0.433632
vt 0.093728 0.504162
vt 0.035426 0.427357
vt 0.022547 0.357130
vt 0.035177 0.350705
vt 0.118608 0.433878
vt 0.133231 0.504198
vt 0.133271 0.504204
vt 0.133304 0.427538
vt 0.151656 0.427514
vt 0.152019 0.504191
vt 0.138549 0.433862
vt 0.099405 0.356696
vt 0.113901 0.427030
vt 0.113825 0.427050
vt 0.113901 0.350705
vt 0.133304 0.350705
vt 0.133304 0.427364
vt 0.123209 0.420449
vt 0.166133 0.427550
vt 0.166276 0.504229
vt 0.152783 0.497749
vt 0.152609 0.350705
vt 0.152609 0.427339
vt 0.138390 0.420572
vt 0.035602 0.427563
vt 0.035738 0.503559
vt 0.022079 0.496225
vt 0.113632 0.427273
vt 0.113632 0.503535
vt 0.099473 0.497560
vt 0.055274 0.350713
vt 0.055333 0.427377
vt 0.040355 0.420858
vt 0.055150 0.427557
vt 0.055333 0.504198
vt 0.044375 0.497370
vt 0.074770 0.350708
vt 0.074848 0.427387
vt 0.059773 0.420964
vn 0.931929 -0.300692 -0.202713
vn 0.931929 -0.300692 -0.202713
vn 0.931929 -0.300692 -0.202713
vn 0.931929 -0.300692 -0.202713
vn -0.501211 -0.300085 0.811626
vn -0.501211 -0.300085 0.811626
vn -0.501211 -0.300085 0.811626
vn -0.501211 -0.300085 0.811626
vn -0.706574 -0.038814 0.706574
vn -0.706574 -0.038814 0.706574
vn -0.706574 -0.038814 0.706574
vn -0.706574 -0.038814 0.706574
vn -0.999246 -0.038814 -0.000000
vn -0.999246 -0.038814 -0.000000
vn -0.999246 -0.038814 -0.000000
vn -0.999246 -0.038814 -0.000000
vn -0.681103 -0.136521 -0.719347
vn -0.681103 -0.136521 -0.719347
vn -0.681103 -0.136521 -0.719347
vn -0.867142 -0.138742 -0.478346
vn -0.867142 -0.138742 -0.478346
vn -0.867142 -0.138742 -0.478346
vn -0.721834 -0.138697 0.678026
vn -0.721834 -0.138697 0.678026
vn -0.721834 -0.138697 0.678026
vn 0.683813 -0.300071 0.665099
vn 0.683813 -0.300071 0.665099
vn 0.683813 -0.300071 0.665099
vn 0.683813 -0.300071 0.665099
vn 0.706574 -0.038813 -0.706574
vn 0.706574 -0.038813 -0.706574
vn 0.706574 -0.038813 -0.706574
vn 0.706574 -0.038813 -0.706574
vn -0.926605 -0.300149 0.226525
vn -0.926605 -0.300149 0.226525
vn -0.926605 -0.300149 0.226525
vn -0.926605 -0.300149 0.226525
vn -0.213859 -0.300470 -0.929506
vn -0.213859 -0.300470 -0.929506
vn -0.213859 -0.300470 -0.929506
vn -0.213859 -0.300470 -0.929506
vn 0.803908 -0.300588 0.513204
vn 0.803908 -0.300588 0.513204
vn 0.803908 -0.300588 0.513204
vn 0.803908 -0.300588 0.513204
vn -0.695152 -0.300015 -0.653265
vn -0.695152 -0.300015 -0.653265
vn -0.695152 -0.300015 -0.653265
vn -0.695152 -0.300015 -0.653265
vn 0.990040 -0.139929 0.015499
vn 0.990040 -0.139929 0.015499
vn 0.990040 -0.139929 0.015499
vn 0.990040 -0.139929 0.015499
vn -0.950705 -0.139800 0.276795
vn -0.950705 -0.139800 0.276795
vn -0.950705 -0.139800 0.276795
vn -0.950705 -0.139800 0.276795
vn 0.515358 -0.300735 -0.802474
vn 0.515358 -0.300735 -0.802474
vn 0.515358 -0.300735 -0.802474
vn 0.515358 -0.300735 -0.802474
vn 0.954021 -0.137764 -0.266204
vn 0.954021 -0.137764 -0.266204
vn 0.954021 -0.137764 -0.266204
vn 0.954021 -0.137764 -0.266204
vn -0.953605 -0.300069 0.024418
vn -0.953605 -0.300069 0.024418
vn -0.953605 -0.300069 0.024418
vn -0.953605 -0.300069 0.024418
vn 0.708317 -0.139189 -0.692036
vn 0.708317 -0.139189 -0.692036
vn 0.708317 -0.139189 -0.692036
vn -0.471803 -0.138091 0.870823
vn -0.471803 -0.138091 0.870823
vn -0.471803 -0.138091 0.870823
vn 0.953761 -0.300140 -0.015977
vn 0.953761 -0.300140 -0.015977
vn 0.953761 -0.300140 -0.015977
vn 0.953761 -0.300140 -0.015977
vn -0.031303 -0.139088 0.989785
vn -0.031303 -0.139088 0.989785
vn -0.031303 -0.139088 0.989785
vn -0.031303 -0.139088 0.989785
vn -0.706574 -0.038813 -0.706574
vn -0.706574 -0.038813 -0.706574
vn -0.706574 -0.038813 -0.706574
vn -0.706574 -0.038813 -0.706574
vn 0.013343 -0.299987 0.953850
vn 0.013343 -0.299987 0.953850
vn 0.013343 -0.299987 0.953850
vn 0.013343 -0.299987 0.953850
vn -0.812919 -0.300336 -0.498959
vn -0.812919 -0.300336 -0.498959
vn -0.812919 -0.300336 -0.498959
vn -0.812919 -0.300336 -0.498959
vn -0.033228 -0.300031 -0.953351
vn -0.033228 -0.300031 -0.953351
vn -0.033228 -0.300031 -0.953351
vn -0.033228 -0.300031 -0.953351
vn 0.865214 -0.137170 0.482275
vn 0.865214 -0.137170 0.482275
vn 0.865214 -0.137170 0.482275
vn -0.664506 -0.299982 0.684428
vn -0.664506 -0.299982 0.684428
vn -0.664506 -0.299982 0.684428
vn -0.664506 -0.299982 0.684428
vn 0.023285 -0.135678 -0.990479
vn 0.023285 -0.135678 -0.990479
vn 0.023285 -0.135678 -0.990479
vn 0.023285 -0.135678 -0.990479
vn 0.706574 -0.038813 0.706574
vn 0.706574 -0.038813 0.706574
vn 0.706574 -0.038813 0.706574
vn 0.706574 -0.038813 0.706574
vn -0.989993 -0.137171 -0.033122
vn -0.989993 -0.137171 -0.033122
vn -0.989993 -0.137171 -0.033122
vn -0.989993 -0.137171 -0.033122
vn 0.210476 -0.300553 0.930252
vn 0.210476 -0.300553 0.930252
vn 0.210476 -0.300553 0.930252
vn 0.210476 -0.300553 0.930252
vn 0.275012 -0.138202 0.951456
vn 0.275012 -0.138202 0.951456
vn 0.275012 -0.138202 0.951456
vn 0.275012 -0.138202 0.951456
vn -0.258997 -0.139963 -0.955683
vn -0.258997 -0.139963 -0.955683
vn -0.258997 -0.139963 -0.955683
vn -0.258997 -0.139963 -0.955683
vn 0.491087 -0.138997 -0.859950
vn 0.491087 -0.138997 -0.859950
vn 0.491087 -0.138997 -0.859950
vn 0.678849 -0.139123 0.720977
vn 0.678849 -0.139123 0.720977
vn 0.678849 -0.139123 0.720977
vn 0.655854 -0.299632 -0.692875
vn 0.655854 -0.299632 -0.692875
vn 0.655854 -0.299632 -0.692875
vn 0.655854 -0.299632 -0.692875
vn -0.870198 0.339109 -0.357435
vn -0.870198 0.339109 -0.357435
vn -0.870198 0.339109 -0.357435
vn -0.870198 0.339109 -0.357435
vn 0.872057 -0.333035 -0.358616
vn 0.872057 -0.333035 -0.358616
vn 0.872057 -0.333035 -0.358616
vn 0.872057 -0.333035 -0.358616
vn -0.382277 0.148302 0.912070
vn -0.382277 0.148302 0.912070
vn -0.382277 0.148302 0.912070
vn -0.382277 0.148302 0.912070
vn 0.379698 -0.146090 -0.913503
vn 0.379698 -0.146090 -0.913503
vn 0.379698 -0.146090 -0.913503
vn 0.379698 -0.146090 -0.913503
vn -0.382276 0.148302 -0.912070
vn -0.382276 0.148302 -0.912070
vn -0.382276 0.148302 -0.912070
vn -0.382276 0.148302 -0.912070
vn -0.870198 0.339109 0.357435
vn -0.870198 0.339109 0.357435
vn -0.870198 0.339109 0.357435
vn -0.870198 0.339109 0.357435
vn 0.872057 -0.333035 0.358616
vn 0.872057 -0.333035 0.358616
vn 0.872057 -0.333035 0.358616
vn 0.872057 -0.333035 0.358616
vn -0.369991 0.857743 0.356908
vn -0.369991 0.857743 0.356908
vn -0.369991 0.857743 0.356908
vn -0.369991 0.857743 0.356908
vn -0.162996 0.377872 -0.911397
vn -0.162996 0.377872 -0.911397
vn -0.162996 0.377872 -0.911397
vn -0.162996 0.377872 -0.911397
vn 0.160442 -0.371950 0.914282
vn 0.160442 -0.371950 0.914282
vn 0.160442 -0.371950 0.914282
vn 0.160442 -0.371950 0.914282
vn 0.369611 -0.856871 0.359387
vn 0.369611 -0.856871 0.359387
vn 0.369611 -0.856871 0.359387
vn 0.369611 -0.856871 0.359387
vn -0.369991 0.857745 -0.356904
vn -0.369991 0.857745 -0.356904
vn -0.369991 0.857745 -0.356904
vn -0.369991 0.857745 -0.356904
vn -0.162995 0.377870 0.911398
vn -0.162995 0.377870 0.911398
vn -0.162995 0.377870 0.911398
vn -0.162995 0.377870 0.911398
vn 0.369611 -0.856871 -0.359387
vn 0.369611 -0.856871 -0.359387
vn 0.369611 -0.856871 -0.359387
vn 0.369611 -0.856871 -0.359387
vn 0.336454 0.871441 -0.356917
vn 0.336454 0.871441 -0.356917
vn 0.336454 0.871441 -0.356917
vn 0.336454 0.871441 -0.356917
vn -0.336117 -0.870561 -0.359374
vn -0.336117 -0.870561 -0.359374
vn -0.336117 -0.870561 -0.359374
vn -0.336117 -0.870561 -0.359374
vn -0.145899 -0.377882 0.914286
vn -0.145899 -0.377882 0.914286
vn -0.145899 -0.377882 0.914286
vn -0.145899 -0.377882 0.914286
vn 0.148225 0.383910 -0.911396
vn 0.148225 0.383910 -0.911396
vn 0.148225 0.383910 -0.911396
vn 0.148225 0.383910 -0.911396
vn -0.336116 -0.870560 0.359376
vn -0.336116 -0.870560 0.359376
vn -0.336116 -0.870560 0.359376
vn -0.336116 -0.870560 0.359376
vn -0.145900 -0.377884 -0.914285
vn -0.145900 -0.377884 -0.914285
vn -0.145900 -0.377884 -0.914285
vn -0.145900 -0.377884 -0.914285
vn 0.336454 0.871441 0.356917
vn 0.336454 0.871441 0.356917
vn 0.336454 0.871441 0.356917
vn 0.336454 0.871441 0.356917
vn -0.368767 -0.167624 -0.914283
vn -0.368767 -0.167624 -0.914283
vn -0.368767 -0.167624 -0.914283
vn -0.368767 -0.167624 -0.914283
vn -0.368766 -0.167624 0.914283
vn -0.368766 -0.167624 0.914283
vn -0.368766 -0.167624 0.914283
vn -0.368766 -0.167624 0.914283
vn -0.849546 -0.386164 -0.359374
vn -0.849546 -0.386164 -0.359374
vn -0.849546 -0.386164 -0.359374
vn -0.849546 -0.386164 -0.359374
vn 0.850410 0.386553 0.356903
vn 0.850410 0.386553 0.356903
vn 0.850410 0.386553 0.356903
vn 0.850410 0.386553 0.356903
vn 0.850408 0.386553 -0.356908
vn 0.850408 0.386553 -0.356908
vn 0.850408 0.386553 -0.356908
vn 0.850408 0.386553 -0.356908
vn -0.849546 -0.386164 0.359374
vn -0.849546 -0.386164 0.359374
vn -0.849546 -0.386164 0.359374
vn -0.849546 -0.386164 0.359374
vn 0.374638 0.170292 0.911398
vn 0.374638 0.170292 0.911398
vn 0.374638 0.170292 0.911398
vn 0.374638 0.170292 0.911398
vn 0.371394 -0.155317 -0.915392
vn 0.371394 -0.155317 -0.915392
vn 0.371394 -0.155317 -0.915392
vn 0.371394 -0.155317 -0.915392
vn 0.898797 -0.229156 -0.373700
vn 0.898797 -0.229156 -0.373700
vn 0.898797 -0.229156 -0.373700
vn 0.898797 -0.229156 -0.373700
vn 0.898797 -0.229155 0.373700
vn 0.898797 -0.229155 0.373700
vn 0.898797 -0.229155 0.373700
vn 0.898797 -0.229155 0.373700
vn 0.371395 -0.155317 0.915392
vn 0.371395 -0.155317 0.915392
vn 0.371395 -0.155317 0.915392
vn 0.371395 -0.155317 0.915392
vn -0.394206 -0.048155 -0.917760
vn -0.394206 -0.048155 -0.917760
vn -0.394206 -0.048155 -0.917760
vn -0.394206 -0.048155 -0.917760
vn -0.926251 0.025861 -0.376020
vn -0.926251 0.025861 -0.376020
vn -0.926251 0.025861 -0.376020
vn -0.926251 0.025861 -0.376020
vn -0.926251 0.025862 0.376020
vn -0.926251 0.025862 0.376020
vn -0.926251 0.025862 0.376020
vn -0.926251 0.025862 0.376020
vn -0.394206 -0.048155 0.917760
vn -0.394206 -0.048155 0.917760
vn -0.394206 -0.048155 0.917760
vn -0.394206 -0.048155 0.917760
vn -0.334538 -0.942382 -0.000000
vn -0.334538 -0.942382 -0.000000
vn -0.334538 -0.942382 -0.000000
vn -0.334538 -0.942382 -0.000000
vn -0.334538 -0.942382 -0.000000
vn -0.334538 -0.942382 -0.000000
vn -0.334538 -0.942382 -0.000000
vn -0.334538 -0.942382 -0.000000
vn 0.923875 0.000000 -0.382693
vn 0.923875 0.000000 -0.382693
vn 0.923875 0.000000 -0.382693
vn 0.923875 0.000000 -0.382693
vn 0.923875 -0.000000 0.382693
vn 0.923875 -0.000000 0.382693
vn 0.923875 -0.000000 0.382693
vn 0.923875 -0.000000 0.382693
vn 0.382693 -0.000000 0.923875
vn 0.382693 -0.000000 0.923875
vn 0.382693 -0.000000 0.923875
vn 0.382693 -0.000000 0.923875
vn -0.382693 -0.000000 0.923875
vn -0.382693 -0.000000 0.923875
vn -0.382693 -0.000000 0.923875
vn -0.382693 -0.000000 0.923875
vn -0.923875 -0.000000 0.382693
vn -0.923875 -0.000000 0.382693
vn -0.923875 -0.000000 0.382693
vn -0.923875 -0.000000 0.382693
vn -0.382693 0.000000 -0.923876
vn -0.382693 0.000000 -0.923876
vn -0.382693 0.000000 -0.923876
vn -0.382693 0.000000 -0.923876
vn -0.923875 0.000000 -0.382693
vn -0.923875 0.000000 -0.382693
vn -0.923875 0.000000 -0.382693
vn -0.923875 0.000000 -0.382693
vn 0.382693 0.000000 -0.923876
vn 0.382693 0.000000 -0.923876
vn 0.382693 0.000000 -0.923876
vn 0.382693 0.000000 -0.923876
vn 0.382693 0.000000 0.923875
vn 0.382693 0.000000 0.923875
vn 0.382693 0.000000 0.923875
vn 0.382693 0.000000 0.923875
vn 0.000000 1.000000 0.000000
vn 0.000000 1.000000 0.000000
vn 0.000000 1.000000 0.000000
vn 0.000000 1.000000 0.000000
vn 0.000000 1.000000 0.000000
vn 0.000000 1.000000 0.000000
vn 0.000000 1.000000 0.000000
vn 0.000000 1.000000 0.000000
vn 0.000000 1.000000 0.000000
vn 0.000000 1.000000 0.000000
vn 0.000000 1.000000 0.000000
vn 0.000000 1.000000 0.000000
vn 0.000000 1.000000 0.000000
vn 0.000000 1.000000 0.000000
vn 0.000000 1.000000 0.000000
vn 0.000000 1.000000 0.000000
vn 0.382679 0.000000 -0.923881
vn 0.382679 0.000000 -0.923881
vn 0.382679 0.000000 -0.923881
vn 0.382679 0.000000 -0.923881
vn 0.923881 0.000000 -0.382679
vn 0.923881 0.000000 -0.382679
vn 0.923881 0.000000 -0.382679
vn 0.923881 0.000000 -0.382679
vn 0.923881 -0.000000 0.382679
vn 0.923881 -0.000000 0.382679
vn 0.923881 -0.000000 0.382679
vn 0.923881 -0.000000 0.382679
vn 0.382679 -0.000000 0.923881
vn 0.382679 -0.000000 0.923881
vn 0.382679 -0.000000 0.923881
vn 0.382679 -0.000000 0.923881
vn -0.382679 -0.000000 0.923881
vn -0.382679 -0.000000 0.923881
vn -0.382679 -0.000000 0.923881
vn -0.382679 -0.000000 0.923881
vn -0.923881 -0.000000 0.382679
vn -0.923881 -0.000000 0.382679
vn -0.923881 -0.000000 0.382679
vn -0.923881 -0.000000 0.382679
vn -0.382679 0.000000 -0.923881
vn -0.382679 0.000000 -0.923881
vn -0.382679 0.000000 -0.923881
vn -0.382679 0.000000 -0.923881
vn -0.923881 0.000000 -0.382679
vn -0.923881 0.000000 -0.382679
vn -0.923881 0.000000 -0.382679
vn -0.923881 0.000000 -0.382679
vn 0.000000 1.000000 0.000000
vn 0.000000 1.000000 0.000000
vn 0.000000 1.000000 0.000000
vn 0.000000 1.000000 0.000000
vn 0.000000 1.000000 0.000000
vn 0.000000 1.000000 0.000000
vn 0.000000 1.000000 0.000000
vn 0.000000 1.000000 0.000000
vn 0.331922 -0.497710 -0.801319
vn 0.331922 -0.497710 -0.801319
vn 0.331922 -0.497710 -0.801319
vn 0.331922 -0.497710 -0.801319
vn 0.000000 -1.000000 -0.000000
vn 0.000000 -1.000000 -0.000000
vn 0.000000 -1.000000 -0.000000
vn 0.000000 -1.000000 -0.000000
vn 0.000000 -1.000000 -0.000000
vn 0.000000 -1.000000 -0.000000
vn 0.000000 -1.000000 -0.000000
vn 0.000000 -1.000000 -0.000000
vn -0.382232 -0.048780 -0.922778
vn -0.382232 -0.048780 -0.922778
vn -0.382232 -0.048780 -0.922778
vn -0.382232 -0.048780 -0.922778
vn -0.922778 -0.048780 -0.382232
vn -0.922778 -0.048780 -0.382232
vn -0.922778 -0.048780 -0.382232
vn -0.922778 -0.048780 -0.382232
vn -0.922778 -0.048780 0.382232
vn -0.922778 -0.048780 0.382232
vn -0.922778 -0.048780 0.382232
vn -0.922778 -0.048780 0.382232
vn -0.382232 -0.048780 0.922778
vn -0.382232 -0.048780 0.922778
vn -0.382232 -0.048780 0.922778
vn -0.382232 -0.048780 0.922778
vn 0.382232 -0.048780 0.922778
vn 0.382232 -0.048780 0.922778
vn 0.382232 -0.048780 0.922778
vn 0.382232 -0.048780 0.922778
vn 0.922778 -0.048780 0.382232
vn 0.922778 -0.048780 0.382232
vn 0.922778 -0.048780 0.382232
vn 0.922778 -0.048780 0.382232
vn 0.922778 -0.048780 -0.382232
vn 0.922778 -0.048780 -0.382232
vn 0.922778 -0.048780 -0.382232
vn 0.922778 -0.048780 -0.382232
vn 0.801320 -0.497710 -0.331921
vn 0.801320 -0.497710 -0.331921
vn 0.801320 -0.497710 -0.331921
vn 0.801320 -0.497710 -0.331921
vn 0.801320 -0.497710 0.331921
vn 0.801320 -0.497710 0.331921
vn 0.801320 -0.497710 0.331921
vn 0.801320 -0.497710 0.331921
vn 0.331922 -0.497710 0.801319
vn 0.331922 -0.497710 0.801319
vn 0.331922 -0.497710 0.801319
vn 0.331922 -0.497710 0.801319
vn -0.331921 -0.497710 0.801320
vn -0.331921 -0.497710 0.801320
vn -0.331921 -0.497710 0.801320
vn -0.331921 -0.497710 0.801320
vn -0.801320 -0.497710 0.331921
vn -0.801320 -0.497710 0.331921
vn -0.801320 -0.497710 0.331921
vn -0.801320 -0.497710 0.331921
vn -0.331921 -0.497709 -0.801320
vn -0.331921 -0.497709 -0.801320
vn -0.331921 -0.497709 -0.801320
vn -0.331921 -0.497709 -0.801320
vn -0.801320 -0.497710 -0.331921
vn -0.801320 -0.497710 -0.331921
vn -0.801320 -0.497710 -0.331921
vn -0.801320 -0.497710 -0.331921
vn 0.382232 -0.048780 -0.922778
vn 0.382232 -0.048780 -0.922778
vn 0.382232 -0.048780 -0.922778
vn 0.382232 -0.048780 -0.922778
vn 0.999642 0.026722 -0.001011
vn 0.999642 0.026722 -0.001011
vn 0.999642 0.026722 -0.001011
vn 0.999642 0.026722 -0.001011
vn -0.998570 0.053444 0.001088
vn -0.998570 0.053444 0.001088
vn -0.998570 0.053444 0.001088
vn -0.998570 0.053444 0.001088
vn -0.000341 0.000001 -1.000000
vn -0.000341 0.000001 -1.000000
vn -0.000341 0.000001 -1.000000
vn -0.000341 0.000001 -1.000000
vn 0.998570 0.053444 0.001087
vn 0.998570 0.053444 0.001087
vn 0.998570 0.053444 0.001087
vn 0.998570 0.053444 0.001087
vn -0.026738 0.999285 0.026740
vn -0.026738 0.999285 0.026740
vn -0.026738 0.999285 0.026740
vn -0.026738 0.999285 0.026740
vn 0.999274 -0.038106 -0.000000
vn 0.999274 -0.038106 -0.000000
vn 0.999274 -0.038106 -0.000000
vn 0.999274 -0.038106 -0.000000
vn 0.706566 -0.038106 0.706620
vn 0.706566 -0.038106 0.706620
vn 0.706566 -0.038106 0.706620
vn 0.706566 -0.038106 0.706620
vn -0.999274 -0.038106 -0.000000
vn -0.999274 -0.038106 -0.000000
vn -0.999274 -0.038106 -0.000000
vn -0.999274 -0.038106 -0.000000
vn 0.000000 0.038105 0.999274
vn 0.000000 0.038105 0.999274
vn 0.000000 0.038105 0.999274
vn 0.000000 0.038105 0.999274
vn 1.000000 0.000005 0.000366
vn 1.000000 0.000005 0.000366
vn 1.000000 0.000005 0.000366
vn 1.000000 0.000005 0.000366
vn -1.000000 0.000001 0.000342
vn -1.000000 0.000001 0.000342
vn -1.000000 0.000001 0.000342
vn -1.000000 0.000001 0.000342
vn 0.000367 0.000004 1.000000
vn 0.000367 0.000004 1.000000
vn 0.000367 0.000004 1.000000
vn 0.000367 0.000004 1.000000
vn 0.000000 0.999284 0.037826
vn 0.000000 0.999284 0.037826
vn 0.000000 0.999284 0.037826
vn 0.000000 0.999284 0.037826
vn -0.999642 0.026722 -0.001011
vn -0.999642 0.026722 -0.001011
vn -0.999642 0.026722 -0.001011
vn -0.999642 0.026722 -0.001011
vn 1.000000 0.000000 0.000000
vn 1.000000 0.000000 0.000000
vn 1.000000 0.000000 0.000000
vn 1.000000 0.000000 0.000000
vn -0.706540 -0.038106 -0.706647
vn -0.706540 -0.038106 -0.706647
vn -0.706540 -0.038106 -0.706647
vn -0.706540 -0.038106 -0.706647
vn 1.000000 0.000000 -0.000000
vn 1.000000 0.000000 -0.000000
vn 1.000000 0.000000 -0.000000
vn 1.000000 0.000000 -0.000000
vn -0.707134 0.000001 0.707080
vn -0.707134 0.000001 0.707080
vn -0.707134 0.000001 0.707080
vn -0.707134 0.000001 0.707080
vn 0.000000 -0.011068 0.999939
vn 0.000000 -0.011068 0.999939
vn 0.000000 -0.011068 0.999939
vn 0.000000 -0.011068 0.999939
vn -0.001011 0.026722 -0.999642
vn -0.001011 0.026722 -0.999642
vn -0.001011 0.026722 -0.999642
vn -0.001011 0.026722 -0.999642
vn 0.001011 0.026722 -0.999642
vn 0.001011 0.026722 -0.999642
vn 0.001011 0.026722 -0.999642
vn 0.001011 0.026722 -0.999642
vn 0.026738 0.999285 0.026743
vn 0.026738 0.999285 0.026743
vn 0.026738 0.999285 0.026743
vn 0.026738 0.999285 0.026743
vn 0.998570 0.053444 -0.001087
vn 0.998570 0.053444 -0.001087
vn 0.998570 0.053444 -0.001087
vn 0.998570 0.053444 -0.001087
vn 0.000000 0.000000 1.000000
vn 0.000000 0.000000 1.000000
vn 0.000000 0.000000 1.000000
vn 0.000000 0.000000 1.000000
vn 0.706620 0.038105 0.706566
vn 0.706620 0.038105 0.706566
vn 0.706620 0.038105 0.706566
vn 0.706620 0.038105 0.706566
vn 0.999637 -0.026945 0.000345
vn 0.999637 -0.026945 0.000345
vn 0.999637 -0.026945 0.000345
vn 0.999637 -0.026945 0.000345
vn -0.999637 -0.026945 -0.000345
vn -0.999637 -0.026945 -0.000345
vn -0.999637 -0.026945 -0.000345
vn -0.999637 -0.026945 -0.000345
vn 0.026745 0.999285 -0.026730
vn 0.026745 0.999285 -0.026730
vn 0.026745 0.999285 -0.026730
vn 0.026745 0.999285 -0.026730
vn 0.000000 0.000000 -1.000000
vn 0.000000 0.000000 -1.000000
vn 0.000000 0.000000 -1.000000
vn 0.000000 0.000000 -1.000000
vn -0.707108 -0.000000 0.707105
vn -0.707108 -0.000000 0.707105
vn -0.707108 -0.000000 0.707105
vn -0.707108 -0.000000 0.707105
vn 0.707134 0.000002 -0.707080
vn 0.707134 0.000002 -0.707080
vn 0.707134 0.000002 -0.707080
vn 0.707134 0.000002 -0.707080
vn -1.000000 0.000000 0.000000
vn -1.000000 0.000000 0.000000
vn -1.000000 0.000000 0.000000
vn -1.000000 0.000000 0.000000
vn -0.999939 -0.011068 -0.000000
vn -0.999939 -0.011068 -0.000000
vn -0.999939 -0.011068 -0.000000
vn -0.999939 -0.011068 -0.000000
vn 0.997917 0.064511 0.000000
vn 0.997917 0.064511 0.000000
vn 0.997917 0.064511 0.000000
vn 0.997917 0.064511 0.000000
vn -0.001011 0.026722 0.999642
vn -0.001011 0.026722 0.999642
vn -0.001011 0.026722 0.999642
vn -0.001011 0.026722 0.999642
vn 0.000000 0.999284 -0.037826
vn 0.000000 0.999284 -0.037826
vn 0.000000 0.999284 -0.037826
vn 0.000000 0.999284 -0.037826
vn 0.000000 -0.038106 0.999274
vn 0.000000 -0.038106 0.999274
vn 0.000000 -0.038106 0.999274
vn 0.000000 -0.038106 0.999274
vn -0.000398 -0.026944 -0.999637
vn -0.000398 -0.026944 -0.999637
vn -0.000398 -0.026944 -0.999637
vn -0.000398 -0.026944 -0.999637
vn 0.999274 0.038106 0.000000
vn 0.999274 0.038106 0.000000
vn 0.999274 0.038106 0.000000
vn 0.999274 0.038106 0.000000
vn -0.000000 0.000000 -1.000000
vn -0.000000 0.000000 -1.000000
vn -0.000000 0.000000 -1.000000
vn -0.000000 0.000000 -1.000000
vn 0.000000 0.064511 -0.997917
vn 0.000000 0.064511 -0.997917
vn 0.000000 0.064511 -0.997917
vn 0.000000 0.064511 -0.997917
vn -1.000000 -0.000001 -0.000390
vn -1.000000 -0.000001 -0.000390
vn -1.000000 -0.000001 -0.000390
vn -1.000000 -0.000001 -0.000390
vn -0.001087 0.053445 -0.998570
vn -0.001087 0.053445 -0.998570
vn -0.001087 0.053445 -0.998570
vn -0.001087 0.053445 -0.998570
vn -0.026738 0.999285 -0.026736
vn -0.026738 0.999285 -0.026736
vn -0.026738 0.999285 -0.026736
vn -0.026738 0.999285 -0.026736
vn 0.001088 0.053445 -0.998570
vn 0.001088 0.053445 -0.998570
vn 0.001088 0.053445 -0.998570
vn 0.001088 0.053445 -0.998570
vn 0.000345 -0.026946 0.999637
vn 0.000345 -0.026946 0.999637
vn 0.000345 -0.026946 0.999637
vn 0.000345 -0.026946 0.999637
vn -0.999274 0.038106 0.000000
vn -0.999274 0.038106 0.000000
vn -0.999274 0.038106 0.000000
vn -0.999274 0.038106 0.000000
vn 0.999637 0.026944 0.000397
vn 0.999637 0.026944 0.000397
vn 0.999637 0.026944 0.000397
vn 0.999637 0.026944 0.000397
vn 0.000000 -0.038105 -0.999274
vn 0.000000 -0.038105 -0.999274
vn 0.000000 -0.038105 -0.999274
vn 0.000000 -0.038105 -0.999274
vn 0.000000 0.064511 0.997917
vn 0.000000 0.064511 0.997917
vn 0.000000 0.064511 0.997917
vn 0.000000 0.064511 0.997917
vn 0.001011 0.026722 0.999642
vn 0.001011 0.026722 0.999642
vn 0.001011 0.026722 0.999642
vn 0.001011 0.026722 0.999642
vn -0.001088 0.053444 0.998570
vn -0.001088 0.053444 0.998570
vn -0.001088 0.053444 0.998570
vn -0.001088 0.053444 0.998570
vn 0.999939 -0.011068 -0.000000
vn 0.999939 -0.011068 -0.000000
vn 0.999939 -0.011068 -0.000000
vn 0.999939 -0.011068 -0.000000
vn -0.037823 0.999284 0.000000
vn -0.037823 0.999284 0.000000
vn -0.037823 0.999284 0.000000
vn -0.037823 0.999284 0.000000
vn -0.706620 0.038106 -0.706566
vn -0.706620 0.038106 -0.706566
vn -0.706620 0.038106 -0.706566
vn -0.706620 0.038106 -0.706566
vn 0.000291 0.026947 0.999637
vn 0.000291 0.026947 0.999637
vn 0.000291 0.026947 0.999637
vn 0.000291 0.026947 0.999637
vn -0.999637 0.026944 -0.000398
vn -0.999637 0.026944 -0.000398
vn -0.999637 0.026944 -0.000398
vn -0.999637 0.026944 -0.000398
vn 0.000000 0.038106 -0.999274
vn 0.000000 0.038106 -0.999274
vn 0.000000 0.038106 -0.999274
vn 0.000000 0.038106 -0.999274
vn 0.999642 0.026722 0.001011
vn 0.999642 0.026722 0.001011
vn 0.999642 0.026722 0.001011
vn 0.999642 0.026722 0.001011
vn -0.997917 0.064511 0.000000
vn -0.997917 0.064511 0.000000
vn -0.997917 0.064511 0.000000
vn -0.997917 0.064511 0.000000
vn 0.000000 -0.011067 -0.999939
vn 0.000000 -0.011067 -0.999939
vn 0.000000 -0.011067 -0.999939
vn 0.000000 -0.011067 -0.999939
vn -0.000366 0.000004 1.000000
vn -0.000366 0.000004 1.000000
vn -0.000366 0.000004 1.000000
vn -0.000366 0.000004 1.000000
vn 0.037823 0.999284 0.000000
vn 0.037823 0.999284 0.000000
vn 0.037823 0.999284 0.000000
vn 0.037823 0.999284 0.000000
vn 0.707064 -0.011062 -0.707063
vn 0.707064 -0.011062 -0.707063
vn 0.707064 -0.011062 -0.707063
vn 0.707064 -0.011062 -0.707063
vn -0.000000 -0.000000 1.000000
vn -0.000000 -0.000000 1.000000
vn -0.000000 -0.000000 1.000000
vn -0.000000 -0.000000 1.000000
vn -1.000000 0.000000 0.000000
vn -1.000000 0.000000 0.000000
vn -1.000000 0.000000 0.000000
vn -1.000000 0.000000 0.000000
vn 0.707134 -0.000001 -0.707079
vn 0.707134 -0.000001 -0.707079
vn 0.707134 -0.000001 -0.707079
vn 0.707134 -0.000001 -0.707079
vn -0.706152 0.026727 -0.707556
vn -0.706152 0.026727 -0.707556
vn -0.706152 0.026727 -0.707556
vn -0.706152 0.026727 -0.707556
vn -0.705646 0.064508 0.705622
vn -0.705646 0.064508 0.705622
vn -0.705646 0.064508 0.705622
vn -0.705646 0.064508 0.705622
vn 0.707568 0.026722 0.706140
vn 0.707568 0.026722 0.706140
vn 0.707568 0.026722 0.706140
vn 0.707568 0.026722 0.706140
vn -0.999642 0.026722 0.001011
vn -0.999642 0.026722 0.001011
vn -0.999642 0.026722 0.001011
vn -0.999642 0.026722 0.001011
vn 0.999246 -0.038813 -0.000000
vn 0.999246 -0.038813 -0.000000
vn 0.999246 -0.038813 -0.000000
vn 0.999246 -0.038813 -0.000000
vn 0.000000 -0.038814 0.999246
vn 0.000000 -0.038814 0.999246
vn 0.000000 -0.038814 0.999246
vn 0.000000 -0.038814 0.999246
vn -0.000291 0.026947 -0.999637
vn -0.000291 0.026947 -0.999637
vn -0.000291 0.026947 -0.999637
vn -0.000291 0.026947 -0.999637
vn 0.374637 0.170292 -0.911399
vn 0.374637 0.170292 -0.911399
vn 0.374637 0.170292 -0.911399
vn 0.374637 0.170292 -0.911399
vn 0.148225 0.383909 0.911396
vn 0.148225 0.383909 0.911396
vn 0.148225 0.383909 0.911396
vn 0.148225 0.383909 0.911396
vn 0.160442 -0.371949 -0.914282
vn 0.160442 -0.371949 -0.914282
vn 0.160442 -0.371949 -0.914282
vn 0.160442 -0.371949 -0.914282
vn 0.379699 -0.146091 0.913502
vn 0.379699 -0.146091 0.913502
vn 0.379699 -0.146091 0.913502
vn 0.379699 -0.146091 0.913502
vn 0.000000 -1.000000 -0.000001
vn 0.000000 -1.000000 -0.000001
vn 0.000000 -1.000000 -0.000001
vn 0.000000 -1.000000 -0.000001
vn 0.000000 -1.000000 -0.000001
vn 0.000000 -1.000000 -0.000001
vn 0.000000 -1.000000 -0.000001
vn 0.000000 -1.000000 -0.000001
vn -0.382693 0.000000 0.923876
vn -0.382693 0.000000 0.923876
vn -0.382693 0.000000 0.923876
vn -0.382693 0.000000 0.923876
vn 0.923876 -0.000000 -0.382693
vn 0.923876 -0.000000 -0.382693
vn 0.923876 -0.000000 -0.382693
vn 0.923876 -0.000000 -0.382693
vn -0.923876 -0.000000 0.382693
vn -0.923876 -0.000000 0.382693
vn -0.923876 -0.000000 0.382693
vn -0.923876 -0.000000 0.382693
vn 0.382693 -0.000000 -0.923875
vn 0.382693 -0.000000 -0.923875
vn 0.382693 -0.000000 -0.923875
vn 0.382693 -0.000000 -0.923875
vn -0.923876 0.000000 -0.382693
vn -0.923876 0.000000 -0.382693
vn -0.923876 0.000000 -0.382693
vn -0.923876 0.000000 -0.382693
vn 0.923876 0.000000 0.382693
vn 0.923876 0.000000 0.382693
vn 0.923876 0.000000 0.382693
vn 0.923876 0.000000 0.382693
vn -0.382693 0.000000 -0.923876
vn -0.382693 0.000000 -0.923876
vn -0.382693 0.000000 -0.923876
vn -0.382693 0.000000 -0.923876
vn 0.000000 -0.038813 -0.999246
vn 0.000000 -0.038813 -0.999246
vn 0.000000 -0.038813 -0.999246
vn 0.000000 -0.038813 -0.999246
vn 0.224319 -0.007893 0.974484
vn 0.224319 -0.007893 0.974484
vn 0.224319 -0.007893 0.974484
vn -0.531820 -0.007828 0.846821
vn -0.531820 -0.007828 0.846821
vn -0.531820 -0.007828 0.846821
vn -0.531820 -0.007828 0.846821
vn -0.974264 -0.007928 0.225269
vn -0.974264 -0.007928 0.225269
vn -0.974264 -0.007928 0.225269
vn -0.851408 -0.008162 -0.524440
vn -0.851408 -0.008162 -0.524440
vn -0.851408 -0.008162 -0.524440
vn -0.851408 -0.008162 -0.524440
vn -0.241366 -0.008565 -0.970396
vn -0.241366 -0.008565 -0.970396
vn -0.241366 -0.008565 -0.970396
vn 0.507920 -0.008903 -0.861358
vn 0.507920 -0.008903 -0.861358
vn 0.507920 -0.008903 -0.861358
vn 0.507920 -0.008903 -0.861358
vn 0.969591 -0.008692 -0.244578
vn 0.969591 -0.008692 -0.244578
vn 0.969591 -0.008692 -0.244578
vn 0.853327 -0.008305 0.521311
vn 0.853327 -0.008305 0.521311
vn 0.853327 -0.008305 0.521311
vn 0.853327 -0.008305 0.521311
vn -0.997637 0.002919 0.068645
vn -0.997637 0.002919 0.068645
vn -0.997637 0.002919 0.068645
vn -0.650960 0.003226 0.759105
vn -0.650960 0.003226 0.759105
vn -0.650960 0.003226 0.759105
vn 0.073453 0.003108 0.997294
vn 0.073453 0.003108 0.997294
vn 0.073453 0.003108 0.997294
vn 0.751700 0.002783 0.659499
vn 0.751700 0.002783 0.659499
vn 0.751700 0.002783 0.659499
vn 0.998593 0.002303 -0.052980
vn 0.998593 0.002303 -0.052980
vn 0.998593 0.002303 -0.052980
vn 0.670176 0.002222 -0.742199
vn 0.670176 0.002222 -0.742199
vn 0.670176 0.002222 -0.742199
vn -0.050956 0.002226 -0.998698
vn -0.050956 0.002226 -0.998698
vn -0.050956 0.002226 -0.998698
vn -0.744120 0.002336 -0.668042
vn -0.744120 0.002336 -0.668042
vn -0.744120 0.002336 -0.668042
usemtl umbrella_Material
f 1/1/1 2/2/2 3/3/3
f 1/1/1 4/4/4 2/2/2
f 5/5/5 6/6/6 7/7/7
f 6/6/6 5/5/5 8/8/8
f 9/9/9 10/10/10 11/11/11
f 11/11/11 12/12/12 9/9/9
f 13/13/13 14/14/14 15/15/15
f 14/14/14 13/13/13 16/16/16
f 17/17/17 18/18/18 19/19/19
f 20/20/20 21/21/21 22/22/22
f 23/23/23 24/24/24 25/25/25
f 26/26/26 27/27/27 28/28/28
f 29/29/29 27/27/27 26/26/26
f 30/30/30 31/31/31 32/32/32
f 33/33/33 32/32/32 31/31/31
f 34/34/34 35/35/35 36/36/36
f 35/35/35 34/34/34 37/37/37
f 38/38/38 39/39/39 40/40/40
f 39/39/39 38/38/38 41/41/41
f 42/42/42 43/43/43 44/44/44
f 43/43/43 42/42/42 45/45/45
f 46/46/46 47/47/47 48/48/48
f 49/49/49 48/48/48 47/47/47
f 50/50/50 51/51/51 52/52/52
f 51/51/51 50/50/50 53/53/53
f 54/54/54 55/55/55 56/56/56
f 55/55/55 54/54/54 57/57/57
f 58/58/58 59/59/59 60/60/60
f 61/61/61 60/60/60 59/59/59
f 62/62/62 63/63/63 64/64/64
f 64/64/64 63/63/63 65/65/65
f 66/66/66 67/67/67 68/68/68
f 67/67/67 66/66/66 69/69/69
f 70/70/70 71/71/71 72/72/72
f 73/73/73 74/74/74 75/75/75
f 76/76/76 77/77/77 78/78/78
f 76/76/76 78/78/78 79/79/79
f 80/80/80 81/81/81 82/82/82
f 81/81/81 80/80/80 83/83/83
f 84/84/84 85/85/85 86/86/86
f 85/85/85 84/84/84 87/87/87
f 88/88/88 89/89/89 90/90/90
f 89/89/89 88/88/88 91/91/91
f 92/92/92 93/93/93 94/94/94
f 95/95/95 94/94/94 93/93/93
f 96/96/96 97/97/97 98/98/98
f 98/98/98 99/99/99 96/96/96
f 100/100/100 101/101/101 102/102/102
f 103/103/103 104/104/104 105/105/105
f 105/105/105 104/104/104 106/106/106
f 107/107/107 108/108/108 109/109/109
f 108/108/108 107/107/107 110/110/110
f 111/111/111 112/112/112 113/113/113
f 112/112/112 111/111/111 114/114/114
f 115/115/115 116/116/116 117/117/117
f 117/117/117 118/118/118 115/115/115
f 119/119/119 120/120/120 121/121/121
f 120/120/120 119/119/119 122/122/122
f 123/123/123 124/124/124 125/125/125
f 124/124/124 123/123/123 126/126/126
f 127/127/127 128/128/128 129/129/129
f 130/130/130 129/129/129 128/128/128
f 131/131/131 132/132/132 133/133/133
f 134/134/134 135/135/135 136/136/136
f 137/137/137 138/138/138 139/139/139
f 138/138/138 137/137/137 140/140/140
f 141/141/141 142/142/142 143/143/143
f 142/142/142 141/141/141 144/144/144
f 145/145/145 146/146/146 147/147/147
f 147/147/147 148/148/148 145/145/145
f 149/149/149 150/150/150 151/151/151
f 150/150/150 149/149/149 152/152/152
f 153/153/153 154/154/154 155/155/155
f 153/153/153 155/155/155 156/156/156
f 157/157/157 158/158/158 159/159/159
f 158/158/158 157/157/157 160/160/160
f 161/161/161 162/162/162 163/163/163
f 164/164/164 163/163/163 162/162/162
f 165/165/165 166/166/166 167/167/167
f 166/166/166 165/165/165 168/168/168
f 169/169/169 170/170/170 171/171/171
f 169/169/169 171/171/171 172/172/172
f 173/173/173 174/174/174 175/175/175
f 174/174/174 173/173/173 176/176/176
f 177/177/177 178/178/178 179/179/179
f 180/180/180 178/178/178 177/177/177
f 181/181/181 182/182/182 183/183/183
f 181/181/181 183/183/183 184/184/184
f 185/185/185 186/186/186 187/187/187
f 188/188/188 187/187/187 186/186/186
f 189/189/189 190/190/190 191/191/191
f 189/189/189 191/191/191 192/192/192
f 193/193/193 194/194/194 195/195/195
f 194/194/194 193/193/193 196/196/196
f 197/197/197 198/198/198 199/199/199
f 198/198/198 197/197/197 200/200/200
f 201/201/201 202/202/202 203/203/203
f 203/203/203 204/204/204 201/201/201
f 205/205/205 206/206/206 207/207/207
f 207/207/207 206/206/206 208/208/208
f 209/209/209 210/210/210 211/211/211
f 210/210/210 209/209/209 212/212/212
f 213/213/213 214/214/214 215/215/215
f 214/214/214 213/213/213 216/216/216
f 217/217/217 218/218/218 219/219/219
f 218/218/218 217/217/217 220/220/220
f 221/221/221 222/222/222 223/223/223
f 222/222/222 221/221/221 224/224/224
f 225/225/225 226/226/226 227/227/227
f 228/228/228 226/226/226 225/225/225
f 229/229/229 230/230/230 231/231/231
f 230/230/230 229/229/229 232/232/232
f 233/233/233 234/234/234 235/235/235
f 234/234/234 233/233/233 236/236/236
f 237/237/237 238/238/238 239/239/239
f 237/237/237 239/239/239 240/240/240
f 241/241/241 242/242/242 243/243/243
f 242/242/242 241/241/241 244/244/244
f 245/245/245 246/246/246 247/247/247
f 246/246/246 245/245/245 248/248/248
f 249/249/249 250/250/250 251/251/251
f 249/249/249 251/251/251 252/252/252
f 253/253/253 254/254/254 255/255/255
f 254/254/254 256/256/256 255/255/255
f 257/257/257 258/258/258 259/259/259
f 258/258/258 257/257/257 260/260/260
f 261/261/261 262/262/262 263/263/263
f 262/262/262 261/261/261 264/264/264
f 265/265/265 266/266/266 267/267/267
f 266/266/266 265/265/265 268/268/268
f 269/269/269 270/270/270 271/271/271
f 270/270/270 269/269/269 272/272/272
f 273/273/273 274/274/274 275/275/275
f 274/274/274 273/273/273 276/276/276
f 277/277/277 278/278/278 279/279/279
f 280/280/280 279/279/279 278/278/278
f 281/281/281 282/282/282 283/283/283
f 284/284/284 282/282/282 281/281/281
f 285/285/285 286/286/286 287/287/287
f 286/286/286 288/288/288 289/289/289
f 288/288/288 290/290/290 289/289/289
f 288/288/288 286/286/286 285/285/285
f 290/290/290 288/288/288 291/291/291
f 290/290/290 291/291/291 292/292/292
f 293/293/293 294/294/294 295/295/295
f 294/294/294 293/293/293 296/296/296
f 297/297/297 298/298/298 299/299/299
f 298/298/298 297/297/297 300/300/300
f 301/301/301 302/302/302 303/303/303
f 302/302/302 301/301/301 304/304/304
f 305/305/305 306/306/306 307/307/307
f 306/306/306 305/305/305 308/308/308
f 309/309/309 310/310/310 311/311/311
f 309/309/309 311/311/311 312/312/312
f 313/313/313 314/314/314 315/315/315
f 315/315/315 316/316/316 313/313/313
f 317/317/317 318/318/318 319/319/319
f 317/317/317 319/319/319 320/320/320
f 321/321/321 322/322/322 323/323/323
f 323/323/323 324/324/324 321/321/321
f 325/325/325 326/326/326 327/327/327
f 327/327/327 326/326/326 328/328/328
f 329/329/329 330/330/330 331/331/331
f 329/329/329 332/332/332 333/333/333
f 330/330/330 329/329/329 334/334/334
f 330/330/330 335/335/335 336/336/336
f 337/337/337 338/338/338 339/339/339
f 337/337/337 340/340/340 341/341/341
f 337/337/337 342/342/342 338/338/338
f 338/338/338 343/343/343 344/344/344
f 340/340/340 336/336/336 335/335/335
f 340/340/340 337/337/337 339/339/339
f 343/343/343 333/333/333 332/332/332
f 343/343/343 332/332/332 344/344/344
f 343/343/343 338/338/338 342/342/342
f 335/335/335 330/330/330 334/334/334
f 335/335/335 341/341/341 340/340/340
f 332/332/332 329/329/329 331/331/331
f 345/345/345 346/346/346 347/347/347
f 347/347/347 348/348/348 345/345/345
f 349/349/349 350/350/350 351/351/351
f 350/350/350 349/349/349 352/352/352
f 353/353/353 354/354/354 355/355/355
f 354/354/354 353/353/353 356/356/356
f 357/357/357 358/358/358 359/359/359
f 358/358/358 357/357/357 360/360/360
f 361/361/361 362/362/362 363/363/363
f 362/362/362 361/361/361 364/364/364
f 365/365/365 366/366/366 367/367/367
f 365/365/365 367/367/367 368/368/368
f 369/369/369 370/370/370 371/371/371
f 371/371/371 372/372/372 369/369/369
f 373/373/373 374/374/374 375/375/375
f 373/373/373 376/376/376 374/374/374
f 377/377/377 378/378/378 379/379/379
f 378/378/378 380/380/380 381/381/381
f 378/378/378 377/377/377 382/382/382
f 382/382/382 380/380/380 378/378/378
f 382/382/382 377/377/377 383/383/383
f 380/380/380 382/382/382 384/384/384
f 385/385/385 386/386/386 387/387/387
f 386/386/386 385/385/385 388/388/388
f 389/389/389 390/390/390 391/391/391
f 390/390/390 392/392/392 393/393/393
f 390/390/390 389/389/389 394/394/394
f 392/392/392 394/394/394 395/395/395
f 392/392/392 390/390/390 394/394/394
f 394/394/394 389/389/389 396/396/396
f 397/397/397 398/398/398 399/399/399
f 398/398/398 397/397/397 400/400/400
f 401/401/401 402/402/402 403/403/403
f 404/404/404 403/403/403 402/402/402
f 405/405/405 406/406/406 407/407/407
f 406/406/406 405/405/405 408/408/408
f 409/409/409 410/410/410 411/411/411
f 411/411/411 410/410/410 412/412/412
f 413/413/413 414/414/414 415/415/415
f 414/414/414 413/413/413 416/416/416
f 417/417/417 418/418/418 419/419/419
f 418/418/418 417/417/417 420/420/420
f 421/421/421 422/422/422 423/423/423
f 422/422/422 421/421/421 424/424/424
f 425/425/425 426/426/426 427/427/427
f 425/425/425 428/428/428 426/426/426
f 429/429/429 430/430/430 431/431/431
f 430/430/430 429/429/429 432/432/432
f 433/433/433 434/434/434 435/435/435
f 434/434/434 433/433/433 436/436/436
f 437/437/437 438/438/438 439/439/439
f 438/438/438 437/437/437 440/440/440
f 441/441/441 442/442/442 443/443/443
f 443/443/443 442/442/442 444/444/444
f 445/445/445 446/446/446 447/447/447
f 446/446/446 448/448/448 447/447/447
f 449/449/449 450/450/450 451/451/451
f 450/450/450 449/449/449 452/452/452
f 453/453/453 454/454/454 455/455/455
f 454/454/454 456/456/456 455/455/455
f 457/457/457 458/458/458 459/459/459
f 458/458/458 457/457/457 460/460/460
f 461/461/461 462/462/462 463/463/463
f 461/461/461 463/463/463 464/464/464
f 465/465/465 466/466/466 467/467/467
f 467/467/467 466/466/466 468/468/468
f 469/469/469 470/470/470 471/471/471
f 470/470/470 469/469/469 472/472/472
f 473/473/473 474/474/474 475/475/475
f 475/475/475 474/474/474 476/476/476
f 477/477/477 478/478/478 479/479/479
f 478/478/478 477/477/477 480/480/480
f 481/481/481 482/482/482 483/483/483
f 482/482/482 481/481/481 484/484/484
f 485/485/485 486/486/486 487/487/487
f 486/486/486 485/485/485 488/488/488
f 489/489/489 490/490/490 491/491/491
f 491/491/491 490/490/490 492/492/492
f 493/493/493 494/494/494 495/495/495
f 493/493/493 495/495/495 496/496/496
f 497/497/497 498/498/498 499/499/499
f 498/498/498 497/497/497 500/500/500
f 501/501/501 502/502/502 503/503/503
f 503/503/503 502/502/502 504/504/504
f 505/505/505 506/506/506 507/507/507
f 506/506/506 508/508/508 507/507/507
f 509/509/509 510/510/510 511/511/511
f 509/509/509 511/511/511 512/512/512
f 513/513/513 514/514/514 515/515/515
f 516/516/516 514/514/514 513/513/513
f 517/517/517 518/518/518 519/519/519
f 518/518/518 517/517/517 520/520/520
f 521/521/521 522/522/522 523/523/523
f 523/523/523 524/524/524 521/521/521
f 525/525/525 526/526/526 527/527/527
f 528/528/528 527/527/527 526/526/526
f 529/529/529 530/530/530 531/531/531
f 530/530/530 529/529/529 532/532/532
f 533/533/533 534/534/534 535/535/535
f 535/535/535 534/534/534 536/536/536
f 537/537/537 538/538/538 539/539/539
f 538/538/538 537/537/537 540/540/540
f 541/541/541 542/542/542 543/543/543
f 542/542/542 544/544/544 543/543/543
f 545/545/545 546/546/546 547/547/547
f 545/545/545 547/547/547 548/548/548
f 549/549/549 550/550/550 551/551/551
f 550/550/550 549/549/549 552/552/552
f 553/553/553 554/554/554 555/555/555
f 554/554/554 553/553/553 556/556/556
f 557/557/557 558/558/558 559/559/559
f 559/559/559 560/560/560 557/557/557
f 561/561/561 562/562/562 563/563/563
f 562/562/562 561/561/561 564/564/564
f 565/565/565 566/566/566 567/567/567
f 566/566/566 565/565/565 568/568/568
f 569/569/569 570/570/570 571/571/571
f 572/572/572 571/571/571 570/570/570
f 573/573/573 574/574/574 575/575/575
f 573/573/573 575/575/575 576/576/576
f 577/577/577 578/578/578 579/579/579
f 578/578/578 577/577/577 580/580/580
f 581/581/581 582/582/582 583/583/583
f 581/581/581 584/584/584 582/582/582
f 585/585/585 586/586/586 587/587/587
f 586/586/586 585/585/585 588/588/588
f 589/589/589 590/590/590 591/591/591
f 590/590/590 589/589/589 592/592/592
f 593/593/593 594/594/594 595/595/595
f 595/595/595 596/596/596 593/593/593
f 597/597/597 598/598/598 599/599/599
f 598/598/598 597/597/597 600/600/600
f 601/601/601 602/602/602 603/603/603
f 602/602/602 601/601/601 604/604/604
f 605/605/605 606/606/606 607/607/607
f 608/608/608 607/607/607 606/606/606
f 609/609/609 610/610/610 611/611/611
f 610/610/610 609/609/609 612/612/612
f 613/613/613 614/614/614 615/615/615
f 614/614/614 613/613/613 616/616/616
f 617/617/617 618/618/618 619/619/619
f 619/619/619 620/620/620 617/617/617
f 621/621/621 622/622/622 623/623/623
f 621/621/621 623/623/623 624/624/624
f 625/625/625 626/626/626 627/627/627
f 627/627/627 628/628/628 625/625/625
f 629/629/629 630/630/630 631/631/631
f 630/630/630 629/629/629 632/632/632
f 633/633/633 634/634/634 635/635/635
f 634/634/634 633/633/633 636/636/636
f 637/637/637 638/638/638 639/639/639
f 638/638/638 637/637/637 640/640/640
f 641/641/641 642/642/642 643/643/643
f 644/644/644 643/643/643 642/642/642
f 645/645/645 646/646/646 647/647/647
f 648/648/648 646/646/646 645/645/645
f 649/649/649 650/650/650 651/651/651
f 650/650/650 649/649/649 652/652/652
f 653/653/653 654/654/654 655/655/655
f 654/654/654 653/653/653 656/656/656
f 657/657/657 658/658/658 659/659/659
f 658/658/658 657/657/657 660/660/660
f 661/661/661 662/662/662 663/663/663
f 662/662/662 664/664/664 663/663/663
f 665/665/665 666/666/666 667/667/667
f 668/668/668 667/667/667 666/666/666
f 669/669/669 670/670/670 671/671/671
f 670/670/670 669/669/669 672/672/672
f 673/673/673 674/674/674 675/675/675
f 673/673/673 675/675/675 676/676/676
f 677/677/677 678/678/678 679/679/679
f 679/679/679 680/680/680 677/677/677
f 681/681/681 682/682/682 683/683/683
f 682/682/682 681/681/681 684/684/684
f 685/685/685 686/686/686 687/687/687
f 686/686/686 685/685/685 688/688/688
f 689/689/689 690/690/690 691/691/691
f 690/690/690 689/689/689 692/692/692
f 693/693/693 694/694/694 695/695/695
f 694/694/694 693/693/693 696/696/696
f 697/697/697 698/698/698 699/699/699
f 699/699/699 698/698/698 700/700/700
f 701/701/701 702/702/702 703/703/703
f 703/703/703 704/704/704 701/701/701
f 705/705/705 706/706/706 707/707/707
f 705/705/705 707/707/707 708/708/708
f 709/709/709 710/710/710 711/711/711
f 711/711/711 710/710/710 712/712/712
f 713/713/713 714/714/714 715/715/715
f 714/714/714 713/713/713 716/716/716
f 717/717/717 718/718/718 719/719/719
f 718/718/718 717/717/717 720/720/720
f 721/721/721 722/722/722 723/723/723
f 722/722/722 721/721/721 724/724/724
f 725/725/725 726/726/726 727/727/727
f 727/727/727 728/728/728 725/725/725
f 729/729/729 730/730/730 731/731/731
f 730/730/730 729/729/729 732/732/732
f 733/733/733 734/734/734 735/735/735
f 736/736/736 735/735/735 734/734/734
f 737/737/737 738/738/738 739/739/739
f 738/738/738 737/737/737 740/740/740
f 741/741/741 742/742/742 743/743/743
f 741/741/741 743/743/743 744/744/744
f 745/745/745 746/746/746 747/747/747
f 746/746/746 745/745/745 748/748/748
f 749/749/749 750/750/750 751/751/751
f 750/750/750 749/749/749 752/752/752
f 753/753/753 754/754/754 755/755/755
f 756/756/756 754/754/754 753/753/753
f 757/757/757 758/758/758 759/759/759
f 758/758/758 757/757/757 760/760/760
f 761/761/761 762/762/762 763/763/763
f 762/762/762 761/761/761 764/764/764
f 765/765/765 766/766/766 767/767/767
f 766/766/766 765/765/765 768/768/768
f 769/769/769 770/770/770 771/771/771
f 770/770/770 769/769/769 772/772/772
f 770/770/770 773/773/773 774/774/774
f 772/772/772 769/769/769 775/775/775
f 772/772/772 773/773/773 770/770/770
f 773/773/773 772/772/772 776/776/776
f 777/777/777 778/778/778 779/779/779
f 779/779/779 778/778/778 780/780/780
f 781/781/781 782/782/782 783/783/783
f 782/782/782 781/781/781 784/784/784
f 785/785/785 786/786/786 787/787/787
f 788/788/788 787/787/787 786/786/786
f 789/789/789 790/790/790 791/791/791
f 791/791/791 790/790/790 792/792/792
f 793/793/793 794/794/794 795/795/795
f 796/796/796 795/795/795 794/794/794
f 797/797/797 798/798/798 799/799/799
f 798/798/798 797/797/797 800/800/800
f 801/801/801 802/802/802 803/803/803
f 803/803/803 802/802/802 804/804/804
f 805/805/805 806/806/806 807/807/807
f 806/806/806 805/805/805 808/808/808
f 809/809/809 810/810/810 811/811/811
f 812/812/812 813/813/813 814/814/814
f 814/814/814 813/813/813 815/815/815
f 816/816/816 817/817/817 818/818/818
f 819/819/819 820/820/820 821/821/821
f 822/822/822 821/821/821 820/820/820
f 823/823/823 824/824/824 825/825/825
f 826/826/826 827/827/827 828/828/828
f 829/829/829 827/827/827 826/826/826
f 830/830/830 831/831/831 832/832/832
f 833/833/833 834/834/834 835/835/835
f 834/834/834 833/833/833 836/836/836
f 837/837/837 838/838/838 839/839/839
f 840/840/840 841/841/841 842/842/842
f 843/843/843 844/844/844 845/845/845
f 846/846/846 847/847/847 848/848/848
f 849/849/849 850/850/850 851/851/851
f 852/852/852 853/853/853 854/854/854
f 855/855/855 856/856/856 857/857/857
f 858/858/858 859/859/859 860/860/860
