mtllib waterbottle.mtl
o waterbottle
v 0.117980 0.642136 -0.204347
v -0.000000 0.752588 -0.237419
v 0.118709 0.752588 -0.205611
v -0.000000 0.642136 -0.235959
v 0.204347 0.642136 -0.117980
v 0.118709 0.752588 -0.205611
v 0.205611 0.752588 -0.118709
v 0.117980 0.642136 -0.204347
v 0.204347 0.642136 -0.117980
v 0.237419 0.752588 -0.000000
v 0.235959 0.642136 -0.000000
v 0.205611 0.752588 -0.118709
v 0.204347 0.642136 0.117979
v 0.237419 0.752588 -0.000000
v 0.205611 0.752588 0.118709
v 0.235959 0.642136 -0.000000
v 0.117980 0.642136 0.204346
v 0.205611 0.752588 0.118709
v 0.118709 0.752589 0.205611
v 0.204347 0.642136 0.117979
v 0.117980 0.642136 0.204346
v 0.000000 0.752589 0.237419
v 0.000000 0.642136 0.235959
v 0.118709 0.752589 0.205611
v -0.117980 0.642136 0.204346
v 0.000000 0.752589 0.237419
v -0.118709 0.752589 0.205611
v 0.000000 0.642136 0.235959
v -0.204347 0.642136 0.117980
v -0.118709 0.752589 0.205611
v -0.205611 0.752588 0.118709
v -0.117980 0.642136 0.204346
v -0.204347 0.642136 0.117980
v -0.237419 0.752588 0.000000
v -0.235959 0.642136 0.000000
v -0.205611 0.752588 0.118709
v -0.204347 0.642136 -0.117980
v -0.237419 0.752588 0.000000
v -0.205611 0.752588 -0.118709
v -0.235959 0.642136 0.000000
v -0.117980 0.642136 -0.204347
v -0.205611 0.752588 -0.118709
v -0.118710 0.752588 -0.205611
v -0.204347 0.642136 -0.117980
v -0.117980 0.642136 -0.204347
v -0.000000 0.752588 -0.237419
v -0.000000 0.642136 -0.235959
v -0.118710 0.752588 -0.205611
v -0.000000 0.583058 -0.247125
v 0.117980 0.642136 -0.204347
v 0.123562 0.583058 -0.214016
v -0.000000 0.642136 -0.235959
v 0.214016 0.583058 -0.123562
v 0.117980 0.642136 -0.204347
v 0.204347 0.642136 -0.117980
v 0.123562 0.583058 -0.214016
v 0.247125 0.583058 -0.000000
v 0.204347 0.642136 -0.117980
v 0.235959 0.642136 -0.000000
v 0.214016 0.583058 -0.123562
v 0.247125 0.583058 -0.000000
v 0.204347 0.642136 0.117979
v 0.214016 0.583058 0.123562
v 0.235959 0.642136 -0.000000
v 0.214016 0.583058 0.123562
v 0.117980 0.642136 0.204346
v 0.123562 0.583058 0.214016
v 0.204347 0.642136 0.117979
v 0.000000 0.583058 0.247125
v 0.117980 0.642136 0.204346
v 0.000000 0.642136 0.235959
v 0.123562 0.583058 0.214016
v 0.000000 0.583058 0.247125
v -0.117980 0.642136 0.204346
v -0.123562 0.583058 0.214016
v 0.000000 0.642136 0.235959
v -0.123562 0.583058 0.214016
v -0.204347 0.642136 0.117980
v -0.214016 0.583058 0.123562
v -0.117980 0.642136 0.204346
v -0.247125 0.583058 0.000000
v -0.204347 0.642136 0.117980
v -0.235959 0.642136 0.000000
v -0.214016 0.583058 0.123562
v -0.247125 0.583058 0.000000
v -0.204347 0.642136 -0.117980
v -0.214016 0.583058 -0.123562
v -0.235959 0.642136 0.000000
v -0.214016 0.583058 -0.123562
v -0.117980 0.642136 -0.204347
v -0.123562 0.583058 -0.214016
v -0.204347 0.642136 -0.117980
v -0.000000 0.583058 -0.247125
v -0.117980 0.642136 -0.204347
v -0.000000 0.642136 -0.235959
v -0.123562 0.583058 -0.214016
v -0.000000 0.460715 -0.249730
v 0.123562 0.583058 -0.214016
v 0.124865 0.460715 -0.216273
v -0.000000 0.583058 -0.247125
v 0.124865 0.460715 -0.216273
v 0.214016 0.583058 -0.123562
v 0.216273 0.460715 -0.124865
v 0.123562 0.583058 -0.214016
v 0.249730 0.460715 -0.000000
v 0.214016 0.583058 -0.123562
v 0.247125 0.583058 -0.000000
v 0.216273 0.460715 -0.124865
v 0.249730 0.460715 -0.000000
v 0.214016 0.583058 0.123562
v 0.216273 0.460715 0.124865
v 0.247125 0.583058 -0.000000
v 0.216273 0.460715 0.124865
v 0.123562 0.583058 0.214016
v 0.124865 0.460715 0.216273
v 0.214016 0.583058 0.123562
v 0.000000 0.460715 0.249730
v 0.123562 0.583058 0.214016
v 0.000000 0.583058 0.247125
v 0.124865 0.460715 0.216273
v 0.000000 0.460715 0.249730
v -0.123562 0.583058 0.214016
v -0.124865 0.460715 0.216273
v 0.000000 0.583058 0.247125
v -0.124865 0.460715 0.216273
v -0.214016 0.583058 0.123562
v -0.216273 0.460715 0.124865
v -0.123562 0.583058 0.214016
v -0.249730 0.460715 0.000000
v -0.214016 0.583058 0.123562
v -0.247125 0.583058 0.000000
v -0.216273 0.460715 0.124865
v -0.249730 0.460715 0.000000
v -0.214016 0.583058 -0.123562
v -0.216273 0.460715 -0.124865
v -0.247125 0.583058 0.000000
v -0.216273 0.460715 -0.124865
v -0.123562 0.583058 -0.214016
v -0.124865 0.460715 -0.216273
v -0.214016 0.583058 -0.123562
v -0.000000 0.460715 -0.249730
v -0.123562 0.583058 -0.214016
v -0.000000 0.583058 -0.247125
v -0.124865 0.460715 -0.216273
v 0.120169 0.048782 -0.208139
v -0.000000 0.460715 -0.249730
v 0.124865 0.460715 -0.216273
v -0.000000 0.048782 -0.240338
v 0.208139 0.048782 -0.120169
v 0.124865 0.460715 -0.216273
v 0.216273 0.460715 -0.124865
v 0.120169 0.048782 -0.208139
v 0.208139 0.048782 -0.120169
v 0.249730 0.460715 -0.000000
v 0.240338 0.048782 0.000000
v 0.216273 0.460715 -0.124865
v 0.208139 0.048782 0.120169
v 0.249730 0.460715 -0.000000
v 0.216273 0.460715 0.124865
v 0.240338 0.048782 0.000000
v 0.120169 0.048782 0.208139
v 0.216273 0.460715 0.124865
v 0.124865 0.460715 0.216273
v 0.208139 0.048782 0.120169
v 0.120169 0.048782 0.208139
v 0.000000 0.460715 0.249730
v 0.000000 0.048782 0.240338
v 0.124865 0.460715 0.216273
v -0.120169 0.048782 0.208139
v 0.000000 0.460715 0.249730
v -0.124865 0.460715 0.216273
v 0.000000 0.048782 0.240338
v -0.208139 0.048782 0.120169
v -0.124865 0.460715 0.216273
v -0.216273 0.460715 0.124865
v -0.120169 0.048782 0.208139
v -0.208139 0.048782 0.120169
v -0.249730 0.460715 0.000000
v -0.240338 0.048782 0.000000
v -0.216273 0.460715 0.124865
v -0.208139 0.048782 -0.120169
v -0.249730 0.460715 0.000000
v -0.216273 0.460715 -0.124865
v -0.240338 0.048782 0.000000
v -0.120169 0.048782 -0.208139
v -0.216273 0.460715 -0.124865
v -0.124865 0.460715 -0.216273
v -0.208139 0.048782 -0.120169
v -0.120169 0.048782 -0.208139
v -0.000000 0.460715 -0.249730
v -0.000000 0.048782 -0.240338
v -0.124865 0.460715 -0.216273
v -0.085608 1.341022 -0.049426
v -0.045269 1.274111 -0.078409
v -0.078408 1.274111 -0.045269
v -0.049426 1.341022 -0.085608
v 0.098852 1.341022 -0.000000
v 0.078408 1.274111 0.045269
v 0.090538 1.274111 -0.000000
v 0.085608 1.341022 0.049426
v 0.000000 1.341022 0.098851
v -0.045269 1.274111 0.078408
v 0.000000 1.274111 0.090538
v -0.049426 1.341022 0.085608
v -0.098851 1.341022 -0.000000
v -0.078408 1.274111 -0.045269
v -0.090538 1.274111 -0.000000
v -0.085608 1.341022 -0.049426
v 0.078408 1.274111 -0.045269
v 0.098852 1.341022 -0.000000
v 0.090538 1.274111 -0.000000
v 0.085608 1.341022 -0.049426
v 0.045269 1.274111 0.078408
v 0.000000 1.341022 0.098851
v 0.000000 1.274111 0.090538
v 0.049426 1.341022 0.085608
v -0.078408 1.274111 0.045269
v -0.098851 1.341022 -0.000000
v -0.090538 1.274111 -0.000000
v -0.085608 1.341022 0.049426
v 0.049426 1.341022 -0.085608
v 0.078408 1.274111 -0.045269
v 0.045269 1.274111 -0.078409
v 0.085608 1.341022 -0.049426
v -0.045269 1.274111 -0.078409
v 0.000000 1.341022 -0.098852
v 0.000000 1.274111 -0.090538
v -0.049426 1.341022 -0.085608
v 0.078408 1.274111 0.045269
v 0.049426 1.341022 0.085608
v 0.045269 1.274111 0.078408
v 0.085608 1.341022 0.049426
v -0.049426 1.341022 0.085608
v -0.078408 1.274111 0.045269
v -0.045269 1.274111 0.078408
v -0.085608 1.341022 0.049426
v 0.000000 1.341022 0.098851
v -0.085608 1.341022 0.049426
v -0.049426 1.341022 0.085608
v -0.085608 1.341022 -0.049426
v -0.098851 1.341022 -0.000000
v 0.098852 1.341022 -0.000000
v 0.049426 1.341022 0.085608
v 0.085608 1.341022 0.049426
v 0.049426 1.341022 -0.085608
v 0.085608 1.341022 -0.049426
v 0.000000 1.341022 -0.098852
v -0.049426 1.341022 -0.085608
v 0.111690 1.159367 -0.193453
v 0.000000 1.274111 -0.090538
v 0.045269 1.274111 -0.078409
v 0.000000 1.159367 -0.223381
v -0.193453 1.159367 -0.111690
v -0.045269 1.274111 -0.078409
v -0.111690 1.159367 -0.193453
v -0.078408 1.274111 -0.045269
v 0.078408 1.274111 0.045269
v 0.223380 1.159367 -0.000000
v 0.090538 1.274111 -0.000000
v 0.193453 1.159367 0.111690
v 0.000000 1.274111 0.090538
v -0.111690 1.159367 0.193453
v 0.000000 1.159367 0.223380
v -0.045269 1.274111 0.078408
v -0.223380 1.159367 -0.000000
v -0.078408 1.274111 -0.045269
v -0.193453 1.159367 -0.111690
v -0.090538 1.274111 -0.000000
v 0.078408 1.274111 -0.045269
v 0.223380 1.159367 -0.000000
v 0.193453 1.159367 -0.111690
v 0.090538 1.274111 -0.000000
v 0.000000 1.159367 0.223380
v 0.111690 1.159367 0.193453
v 0.045269 1.274111 0.078408
v 0.000000 1.274111 0.090538
v -0.090538 1.274111 -0.000000
v -0.193453 1.159367 0.111690
v -0.078408 1.274111 0.045269
v -0.223380 1.159367 -0.000000
v 0.193453 1.159367 -0.111690
v 0.111690 1.159367 -0.193453
v 0.045269 1.274111 -0.078409
v 0.078408 1.274111 -0.045269
v 0.000000 1.159367 -0.223381
v -0.045269 1.274111 -0.078409
v 0.000000 1.274111 -0.090538
v -0.111690 1.159367 -0.193453
v 0.111690 1.159367 0.193453
v 0.078408 1.274111 0.045269
v 0.045269 1.274111 0.078408
v 0.193453 1.159367 0.111690
v 0.000000 1.341022 -0.098852
v 0.049426 1.341022 -0.085608
v 0.045269 1.274111 -0.078409
v 0.000000 1.274111 -0.090538
v -0.193453 1.159367 0.111690
v -0.223380 1.159367 -0.000000
v -0.240338 1.083096 -0.000000
v -0.208139 1.083096 0.120169
v -0.240338 1.083096 -0.000000
v -0.193453 1.159367 -0.111690
v -0.208139 1.083096 -0.120169
v -0.223380 1.159367 -0.000000
v 0.208139 1.083096 -0.120169
v 0.120169 1.083096 -0.208139
v 0.111690 1.159367 -0.193453
v 0.193453 1.159367 -0.111690
v -0.208139 1.083096 -0.120169
v -0.111690 1.159367 -0.193453
v -0.120169 1.083096 -0.208139
v -0.193453 1.159367 -0.111690
v 0.193453 1.159367 -0.111690
v 0.240338 1.083096 -0.000000
v 0.208139 1.083096 -0.120169
v 0.223380 1.159367 -0.000000
v -0.000000 1.083096 -0.240338
v 0.111690 1.159367 -0.193453
v 0.120169 1.083096 -0.208139
v 0.000000 1.159367 -0.223381
v -0.111690 1.159367 -0.193453
v -0.000000 1.083096 -0.240338
v -0.120169 1.083096 -0.208139
v 0.000000 1.159367 -0.223381
v 0.240338 1.083096 -0.000000
v 0.193453 1.159367 0.111690
v 0.208139 1.083096 0.120169
v 0.223380 1.159367 -0.000000
v 0.208139 1.083096 0.120169
v 0.111690 1.159367 0.193453
v 0.120169 1.083096 0.208139
v 0.193453 1.159367 0.111690
v 0.111690 1.159367 0.193453
v 0.000000 1.159367 0.223380
v 0.000000 1.083096 0.240338
v 0.120169 1.083096 0.208139
v 0.000000 1.083096 0.240338
v -0.111690 1.159367 0.193453
v -0.120169 1.083096 0.208139
v 0.000000 1.159367 0.223380
v -0.078408 1.274111 0.045269
v -0.111690 1.159367 0.193453
v -0.045269 1.274111 0.078408
v -0.193453 1.159367 0.111690
v 0.000000 -0.001063 0.181158
v -0.120169 0.048782 0.208139
v -0.090579 -0.001063 0.156887
v 0.000000 0.048782 0.240338
v -0.208139 0.048782 0.120169
v -0.090579 -0.001063 0.156887
v -0.120169 0.048782 0.208139
v -0.156887 -0.001063 0.090579
v -0.208139 0.048782 0.120169
v -0.240338 0.048782 0.000000
v -0.181158 -0.001063 0.000000
v -0.156887 -0.001063 0.090579
v -0.240338 0.048782 0.000000
v -0.156887 -0.001063 -0.090579
v -0.181158 -0.001063 0.000000
v -0.208139 0.048782 -0.120169
v 0.120169 0.048782 -0.208139
v 0.156887 -0.001063 -0.090579
v 0.090579 -0.001063 -0.156887
v 0.208139 0.048782 -0.120169
v -0.208139 0.048782 -0.120169
v -0.090579 -0.001063 -0.156887
v -0.156887 -0.001063 -0.090579
v -0.120169 0.048782 -0.208139
v 0.156887 -0.001063 -0.090579
v 0.240338 0.048782 0.000000
v 0.181158 -0.001063 0.000000
v 0.208139 0.048782 -0.120169
v -0.000000 0.048782 -0.240338
v 0.120169 0.048782 -0.208139
v 0.090579 -0.001063 -0.156887
v -0.000000 -0.001063 -0.181158
v -0.000000 -0.001063 -0.181158
v -0.120169 0.048782 -0.208139
v -0.000000 0.048782 -0.240338
v -0.090579 -0.001063 -0.156887
v 0.156887 -0.001063 0.090579
v 0.240338 0.048782 0.000000
v 0.208139 0.048782 0.120169
v 0.181158 -0.001063 0.000000
v 0.120169 0.048782 0.208139
v 0.156887 -0.001063 0.090579
v 0.208139 0.048782 0.120169
v 0.090579 -0.001063 0.156887
v 0.090579 -0.001063 0.156887
v -0.090579 -0.001063 0.156887
v 0.181158 -0.001063 0.000000
v 0.156887 -0.001063 0.090579
v -0.181158 -0.001063 0.000000
v -0.156887 -0.001063 0.090579
v 0.000000 -0.001063 0.181158
v 0.090579 -0.001063 -0.156887
v 0.156887 -0.001063 -0.090579
v -0.090579 -0.001063 -0.156887
v -0.000000 -0.001063 -0.181158
v -0.156887 -0.001063 -0.090579
v 0.090579 -0.001063 0.156887
v 0.000000 0.048782 0.240338
v 0.000000 -0.001063 0.181158
v 0.120169 0.048782 0.208139
v -0.119439 1.012274 -0.206875
v -0.000000 1.083096 -0.240338
v -0.000000 1.012274 -0.238879
v -0.120169 1.083096 -0.208139
v -0.119439 1.012274 -0.206875
v -0.208139 1.083096 -0.120169
v -0.120169 1.083096 -0.208139
v -0.206875 1.012274 -0.119439
v -0.120169 1.083096 0.208139
v -0.193453 1.159367 0.111690
v -0.208139 1.083096 0.120169
v -0.111690 1.159367 0.193453
v -0.206875 1.012274 -0.119439
v -0.240338 1.083096 -0.000000
v -0.208139 1.083096 -0.120169
v -0.238878 1.012274 -0.000000
v -0.206875 1.012274 0.119439
v -0.240338 1.083096 -0.000000
v -0.238878 1.012274 -0.000000
v -0.208139 1.083096 0.120169
v -0.206875 1.012274 0.119439
v -0.120169 1.083096 0.208139
v -0.208139 1.083096 0.120169
v -0.119439 1.012274 0.206875
v -0.119439 1.012274 0.206875
v 0.000000 1.083096 0.240338
v -0.120169 1.083096 0.208139
v 0.000000 1.012274 0.238878
v 0.119439 1.012274 0.206875
v 0.000000 1.083096 0.240338
v 0.000000 1.012274 0.238878
v 0.120169 1.083096 0.208139
v 0.206875 1.012274 0.119439
v 0.120169 1.083096 0.208139
v 0.119439 1.012274 0.206875
v 0.208139 1.083096 0.120169
v 0.206875 1.012274 0.119439
v 0.240338 1.083096 -0.000000
v 0.208139 1.083096 0.120169
v 0.238878 1.012274 -0.000000
v 0.206875 1.012274 -0.119439
v 0.240338 1.083096 -0.000000
v 0.238878 1.012274 -0.000000
v 0.208139 1.083096 -0.120169
v 0.206875 1.012274 -0.119439
v 0.120169 1.083096 -0.208139
v 0.208139 1.083096 -0.120169
v 0.119439 1.012274 -0.206875
v 0.119439 1.012274 -0.206875
v -0.000000 1.083096 -0.240338
v 0.120169 1.083096 -0.208139
v -0.000000 1.012274 -0.238879
vn 0.258798 -0.012764 -0.965847
vn 0.258798 -0.012764 -0.965847
vn 0.258798 -0.012764 -0.965847
vn 0.258798 -0.012764 -0.965847
vn 0.707049 -0.012764 -0.707049
vn 0.707049 -0.012764 -0.707049
vn 0.707049 -0.012764 -0.707049
vn 0.707049 -0.012764 -0.707049
vn 0.965847 -0.012764 -0.258798
vn 0.965847 -0.012764 -0.258798
vn 0.965847 -0.012764 -0.258798
vn 0.965847 -0.012764 -0.258798
vn 0.965847 -0.012764 0.258798
vn 0.965847 -0.012764 0.258798
vn 0.965847 -0.012764 0.258798
vn 0.965847 -0.012764 0.258798
vn 0.707049 -0.012764 0.707049
vn 0.707049 -0.012764 0.707049
vn 0.707049 -0.012764 0.707049
vn 0.707049 -0.012764 0.707049
vn 0.258798 -0.012764 0.965847
vn 0.258798 -0.012764 0.965847
vn 0.258798 -0.012764 0.965847
vn 0.258798 -0.012764 0.965847
vn -0.258798 -0.012764 0.965847
vn -0.258798 -0.012764 0.965847
vn -0.258798 -0.012764 0.965847
vn -0.258798 -0.012764 0.965847
vn -0.707049 -0.012764 0.707049
vn -0.707049 -0.012764 0.707049
vn -0.707049 -0.012764 0.707049
vn -0.707049 -0.012764 0.707049
vn -0.965847 -0.012764 0.258798
vn -0.965847 -0.012764 0.258798
vn -0.965847 -0.012764 0.258798
vn -0.965847 -0.012764 0.258798
vn -0.965847 -0.012764 -0.258798
vn -0.965847 -0.012764 -0.258798
vn -0.965847 -0.012764 -0.258798
vn -0.965847 -0.012764 -0.258798
vn -0.707050 -0.012764 -0.707049
vn -0.707050 -0.012764 -0.707049
vn -0.707050 -0.012764 -0.707049
vn -0.707050 -0.012764 -0.707049
vn -0.258798 -0.012764 -0.965847
vn -0.258798 -0.012764 -0.965847
vn -0.258798 -0.012764 -0.965847
vn -0.258798 -0.012764 -0.965847
vn 0.254611 0.179586 -0.950222
vn 0.254611 0.179586 -0.950222
vn 0.254611 0.179586 -0.950222
vn 0.254611 0.179586 -0.950222
vn 0.695611 0.179586 -0.695611
vn 0.695611 0.179586 -0.695611
vn 0.695611 0.179586 -0.695611
vn 0.695611 0.179586 -0.695611
vn 0.950222 0.179587 -0.254612
vn 0.950222 0.179587 -0.254612
vn 0.950222 0.179587 -0.254612
vn 0.950222 0.179587 -0.254612
vn 0.950222 0.179587 0.254612
vn 0.950222 0.179587 0.254612
vn 0.950222 0.179587 0.254612
vn 0.950222 0.179587 0.254612
vn 0.695611 0.179587 0.695611
vn 0.695611 0.179587 0.695611
vn 0.695611 0.179587 0.695611
vn 0.695611 0.179587 0.695611
vn 0.254611 0.179587 0.950222
vn 0.254611 0.179587 0.950222
vn 0.254611 0.179587 0.950222
vn 0.254611 0.179587 0.950222
vn -0.254611 0.179587 0.950222
vn -0.254611 0.179587 0.950222
vn -0.254611 0.179587 0.950222
vn -0.254611 0.179587 0.950222
vn -0.695611 0.179586 0.695611
vn -0.695611 0.179586 0.695611
vn -0.695611 0.179586 0.695611
vn -0.695611 0.179586 0.695611
vn -0.950222 0.179587 0.254612
vn -0.950222 0.179587 0.254612
vn -0.950222 0.179587 0.254612
vn -0.950222 0.179587 0.254612
vn -0.950222 0.179586 -0.254611
vn -0.950222 0.179586 -0.254611
vn -0.950222 0.179586 -0.254611
vn -0.950222 0.179586 -0.254611
vn -0.695611 0.179586 -0.695610
vn -0.695611 0.179586 -0.695610
vn -0.695611 0.179586 -0.695610
vn -0.695611 0.179586 -0.695610
vn -0.254612 0.179586 -0.950222
vn -0.254612 0.179586 -0.950222
vn -0.254612 0.179586 -0.950222
vn -0.254612 0.179586 -0.950222
vn 0.258764 0.020566 -0.965722
vn 0.258764 0.020566 -0.965722
vn 0.258764 0.020566 -0.965722
vn 0.258764 0.020566 -0.965722
vn 0.706957 0.020567 -0.706957
vn 0.706957 0.020567 -0.706957
vn 0.706957 0.020567 -0.706957
vn 0.706957 0.020567 -0.706957
vn 0.965722 0.020567 -0.258764
vn 0.965722 0.020567 -0.258764
vn 0.965722 0.020567 -0.258764
vn 0.965722 0.020567 -0.258764
vn 0.965721 0.020567 0.258764
vn 0.965721 0.020567 0.258764
vn 0.965721 0.020567 0.258764
vn 0.965721 0.020567 0.258764
vn 0.706957 0.020567 0.706957
vn 0.706957 0.020567 0.706957
vn 0.706957 0.020567 0.706957
vn 0.706957 0.020567 0.706957
vn 0.258765 0.020567 0.965721
vn 0.258765 0.020567 0.965721
vn 0.258765 0.020567 0.965721
vn 0.258765 0.020567 0.965721
vn -0.258764 0.020567 0.965721
vn -0.258764 0.020567 0.965721
vn -0.258764 0.020567 0.965721
vn -0.258764 0.020567 0.965721
vn -0.706957 0.020567 0.706957
vn -0.706957 0.020567 0.706957
vn -0.706957 0.020567 0.706957
vn -0.706957 0.020567 0.706957
vn -0.965721 0.020567 0.258765
vn -0.965721 0.020567 0.258765
vn -0.965721 0.020567 0.258765
vn -0.965721 0.020567 0.258765
vn -0.965722 0.020567 -0.258764
vn -0.965722 0.020567 -0.258764
vn -0.965722 0.020567 -0.258764
vn -0.965722 0.020567 -0.258764
vn -0.706958 0.020567 -0.706957
vn -0.706958 0.020567 -0.706957
vn -0.706958 0.020567 -0.706957
vn -0.706958 0.020567 -0.706957
vn -0.258765 0.020566 -0.965721
vn -0.258765 0.020566 -0.965721
vn -0.258765 0.020566 -0.965721
vn -0.258765 0.020566 -0.965721
vn 0.258756 -0.022018 -0.965692
vn 0.258756 -0.022018 -0.965692
vn 0.258756 -0.022018 -0.965692
vn 0.258756 -0.022018 -0.965692
vn 0.706935 -0.022018 -0.706935
vn 0.706935 -0.022018 -0.706935
vn 0.706935 -0.022018 -0.706935
vn 0.706935 -0.022018 -0.706935
vn 0.965692 -0.022018 -0.258756
vn 0.965692 -0.022018 -0.258756
vn 0.965692 -0.022018 -0.258756
vn 0.965692 -0.022018 -0.258756
vn 0.965692 -0.022018 0.258756
vn 0.965692 -0.022018 0.258756
vn 0.965692 -0.022018 0.258756
vn 0.965692 -0.022018 0.258756
vn 0.706935 -0.022018 0.706935
vn 0.706935 -0.022018 0.706935
vn 0.706935 -0.022018 0.706935
vn 0.706935 -0.022018 0.706935
vn 0.258756 -0.022018 0.965692
vn 0.258756 -0.022018 0.965692
vn 0.258756 -0.022018 0.965692
vn 0.258756 -0.022018 0.965692
vn -0.258756 -0.022018 0.965692
vn -0.258756 -0.022018 0.965692
vn -0.258756 -0.022018 0.965692
vn -0.258756 -0.022018 0.965692
vn -0.706935 -0.022018 0.706936
vn -0.706935 -0.022018 0.706936
vn -0.706935 -0.022018 0.706936
vn -0.706935 -0.022018 0.706936
vn -0.965692 -0.022018 0.258757
vn -0.965692 -0.022018 0.258757
vn -0.965692 -0.022018 0.258757
vn -0.965692 -0.022018 0.258757
vn -0.965692 -0.022018 -0.258756
vn -0.965692 -0.022018 -0.258756
vn -0.965692 -0.022018 -0.258756
vn -0.965692 -0.022018 -0.258756
vn -0.706936 -0.022018 -0.706935
vn -0.706936 -0.022018 -0.706935
vn -0.706936 -0.022018 -0.706935
vn -0.706936 -0.022018 -0.706935
vn -0.258757 -0.022018 -0.965692
vn -0.258757 -0.022018 -0.965692
vn -0.258757 -0.022018 -0.965692
vn -0.258757 -0.022018 -0.965692
vn -0.702070 -0.119156 -0.702068
vn -0.702070 -0.119156 -0.702068
vn -0.702070 -0.119156 -0.702068
vn -0.702070 -0.119156 -0.702068
vn 0.959044 -0.119156 0.256975
vn 0.959044 -0.119156 0.256975
vn 0.959044 -0.119156 0.256975
vn 0.959044 -0.119156 0.256975
vn -0.256975 -0.119155 0.959044
vn -0.256975 -0.119155 0.959044
vn -0.256975 -0.119155 0.959044
vn -0.256975 -0.119155 0.959044
vn -0.959044 -0.119156 -0.256975
vn -0.959044 -0.119156 -0.256975
vn -0.959044 -0.119156 -0.256975
vn -0.959044 -0.119156 -0.256975
vn 0.959044 -0.119156 -0.256975
vn 0.959044 -0.119156 -0.256975
vn 0.959044 -0.119156 -0.256975
vn 0.959044 -0.119156 -0.256975
vn 0.256975 -0.119155 0.959044
vn 0.256975 -0.119155 0.959044
vn 0.256975 -0.119155 0.959044
vn 0.256975 -0.119155 0.959044
vn -0.959044 -0.119155 0.256975
vn -0.959044 -0.119155 0.256975
vn -0.959044 -0.119155 0.256975
vn -0.959044 -0.119155 0.256975
vn 0.702070 -0.119156 -0.702068
vn 0.702070 -0.119156 -0.702068
vn 0.702070 -0.119156 -0.702068
vn 0.702070 -0.119156 -0.702068
vn -0.256975 -0.119156 -0.959044
vn -0.256975 -0.119156 -0.959044
vn -0.256975 -0.119156 -0.959044
vn -0.256975 -0.119156 -0.959044
vn 0.702069 -0.119155 0.702069
vn 0.702069 -0.119155 0.702069
vn 0.702069 -0.119155 0.702069
vn 0.702069 -0.119155 0.702069
vn -0.702069 -0.119155 0.702069
vn -0.702069 -0.119155 0.702069
vn -0.702069 -0.119155 0.702069
vn -0.702069 -0.119155 0.702069
vn -0.000001 1.000000 -0.000000
vn -0.000001 1.000000 -0.000000
vn -0.000001 1.000000 -0.000000
vn -0.000001 1.000000 -0.000000
vn -0.000001 1.000000 -0.000000
vn -0.000001 1.000000 -0.000000
vn -0.000001 1.000000 -0.000000
vn -0.000001 1.000000 -0.000000
vn -0.000001 1.000000 -0.000000
vn -0.000001 1.000000 -0.000000
vn -0.000001 1.000000 -0.000000
vn -0.000001 1.000000 -0.000000
vn 0.172525 0.745428 -0.643873
vn 0.172525 0.745428 -0.643873
vn 0.172525 0.745428 -0.643873
vn 0.172525 0.745428 -0.643873
vn -0.471348 0.745428 -0.471347
vn -0.471348 0.745428 -0.471347
vn -0.471348 0.745428 -0.471347
vn -0.471348 0.745428 -0.471347
vn 0.643873 0.745428 0.172525
vn 0.643873 0.745428 0.172525
vn 0.643873 0.745428 0.172525
vn 0.643873 0.745428 0.172525
vn -0.172525 0.745428 0.643873
vn -0.172525 0.745428 0.643873
vn -0.172525 0.745428 0.643873
vn -0.172525 0.745428 0.643873
vn -0.643872 0.745428 -0.172525
vn -0.643872 0.745428 -0.172525
vn -0.643872 0.745428 -0.172525
vn -0.643872 0.745428 -0.172525
vn 0.643873 0.745428 -0.172525
vn 0.643873 0.745428 -0.172525
vn 0.643873 0.745428 -0.172525
vn 0.643873 0.745428 -0.172525
vn 0.172525 0.745428 0.643872
vn 0.172525 0.745428 0.643872
vn 0.172525 0.745428 0.643872
vn 0.172525 0.745428 0.643872
vn -0.643873 0.745428 0.172525
vn -0.643873 0.745428 0.172525
vn -0.643873 0.745428 0.172525
vn -0.643873 0.745428 0.172525
vn 0.471348 0.745428 -0.471347
vn 0.471348 0.745428 -0.471347
vn 0.471348 0.745428 -0.471347
vn 0.471348 0.745428 -0.471347
vn -0.172525 0.745428 -0.643873
vn -0.172525 0.745428 -0.643873
vn -0.172525 0.745428 -0.643873
vn -0.172525 0.745428 -0.643873
vn 0.471348 0.745428 0.471347
vn 0.471348 0.745428 0.471347
vn 0.471348 0.745428 0.471347
vn 0.471348 0.745428 0.471347
vn 0.256975 -0.119156 -0.959044
vn 0.256975 -0.119156 -0.959044
vn 0.256975 -0.119156 -0.959044
vn 0.256975 -0.119156 -0.959044
vn -0.944393 0.209969 0.253050
vn -0.944393 0.209969 0.253050
vn -0.944393 0.209969 0.253050
vn -0.944393 0.209969 0.253050
vn -0.944393 0.209969 -0.253049
vn -0.944393 0.209969 -0.253049
vn -0.944393 0.209969 -0.253049
vn -0.944393 0.209969 -0.253049
vn 0.691344 0.209969 -0.691344
vn 0.691344 0.209969 -0.691344
vn 0.691344 0.209969 -0.691344
vn 0.691344 0.209969 -0.691344
vn -0.691344 0.209969 -0.691344
vn -0.691344 0.209969 -0.691344
vn -0.691344 0.209969 -0.691344
vn -0.691344 0.209969 -0.691344
vn 0.944393 0.209969 -0.253049
vn 0.944393 0.209969 -0.253049
vn 0.944393 0.209969 -0.253049
vn 0.944393 0.209969 -0.253049
vn 0.253049 0.209969 -0.944393
vn 0.253049 0.209969 -0.944393
vn 0.253049 0.209969 -0.944393
vn 0.253049 0.209969 -0.944393
vn -0.253050 0.209969 -0.944393
vn -0.253050 0.209969 -0.944393
vn -0.253050 0.209969 -0.944393
vn -0.253050 0.209969 -0.944393
vn 0.944393 0.209969 0.253049
vn 0.944393 0.209969 0.253049
vn 0.944393 0.209969 0.253049
vn 0.944393 0.209969 0.253049
vn 0.691344 0.209969 0.691344
vn 0.691344 0.209969 0.691344
vn 0.691344 0.209969 0.691344
vn 0.691344 0.209969 0.691344
vn 0.253050 0.209969 0.944393
vn 0.253050 0.209969 0.944393
vn 0.253050 0.209969 0.944393
vn 0.253050 0.209969 0.944393
vn -0.253049 0.209970 0.944393
vn -0.253049 0.209970 0.944393
vn -0.253049 0.209970 0.944393
vn -0.253049 0.209970 0.944393
vn -0.471347 0.745428 0.471348
vn -0.471347 0.745428 0.471348
vn -0.471347 0.745428 0.471348
vn -0.471347 0.745428 0.471348
vn -0.170098 -0.753709 0.634815
vn -0.170098 -0.753709 0.634815
vn -0.170098 -0.753709 0.634815
vn -0.170098 -0.753709 0.634815
vn -0.464716 -0.753709 0.464717
vn -0.464716 -0.753709 0.464717
vn -0.464716 -0.753709 0.464717
vn -0.464716 -0.753709 0.464717
vn -0.634815 -0.753709 0.170098
vn -0.634815 -0.753709 0.170098
vn -0.634815 -0.753709 0.170098
vn -0.634815 -0.753709 0.170098
vn -0.634815 -0.753709 -0.170098
vn -0.634815 -0.753709 -0.170098
vn -0.634815 -0.753709 -0.170098
vn -0.634815 -0.753709 -0.170098
vn 0.464717 -0.753709 -0.464717
vn 0.464717 -0.753709 -0.464717
vn 0.464717 -0.753709 -0.464717
vn 0.464717 -0.753709 -0.464717
vn -0.464717 -0.753709 -0.464716
vn -0.464717 -0.753709 -0.464716
vn -0.464717 -0.753709 -0.464716
vn -0.464717 -0.753709 -0.464716
vn 0.634815 -0.753709 -0.170098
vn 0.634815 -0.753709 -0.170098
vn 0.634815 -0.753709 -0.170098
vn 0.634815 -0.753709 -0.170098
vn 0.170098 -0.753709 -0.634815
vn 0.170098 -0.753709 -0.634815
vn 0.170098 -0.753709 -0.634815
vn 0.170098 -0.753709 -0.634815
vn -0.170098 -0.753709 -0.634815
vn -0.170098 -0.753709 -0.634815
vn -0.170098 -0.753709 -0.634815
vn -0.170098 -0.753709 -0.634815
vn 0.634815 -0.753709 0.170098
vn 0.634815 -0.753709 0.170098
vn 0.634815 -0.753709 0.170098
vn 0.634815 -0.753709 0.170098
vn 0.464717 -0.753709 0.464717
vn 0.464717 -0.753709 0.464717
vn 0.464717 -0.753709 0.464717
vn 0.464717 -0.753709 0.464717
vn 0.000000 -1.000000 0.000000
vn 0.000000 -1.000000 0.000000
vn 0.000000 -1.000000 0.000000
vn 0.000000 -1.000000 0.000000
vn 0.000000 -1.000000 0.000000
vn 0.000000 -1.000000 0.000000
vn 0.000000 -1.000000 0.000000
vn 0.000000 -1.000000 0.000000
vn 0.000000 -1.000000 0.000000
vn 0.000000 -1.000000 0.000000
vn 0.000000 -1.000000 0.000000
vn 0.000000 -1.000000 0.000000
vn 0.170098 -0.753709 0.634815
vn 0.170098 -0.753709 0.634815
vn 0.170098 -0.753709 0.634815
vn 0.170098 -0.753709 0.634815
vn -0.258768 -0.019904 -0.965734
vn -0.258768 -0.019904 -0.965734
vn -0.258768 -0.019904 -0.965734
vn -0.258768 -0.019904 -0.965734
vn -0.706968 -0.019904 -0.706966
vn -0.706968 -0.019904 -0.706966
vn -0.706968 -0.019904 -0.706966
vn -0.706968 -0.019904 -0.706966
vn -0.691344 0.209969 0.691344
vn -0.691344 0.209969 0.691344
vn -0.691344 0.209969 0.691344
vn -0.691344 0.209969 0.691344
vn -0.965735 -0.019904 -0.258767
vn -0.965735 -0.019904 -0.258767
vn -0.965735 -0.019904 -0.258767
vn -0.965735 -0.019904 -0.258767
vn -0.965734 -0.019904 0.258768
vn -0.965734 -0.019904 0.258768
vn -0.965734 -0.019904 0.258768
vn -0.965734 -0.019904 0.258768
vn -0.706966 -0.019904 0.706967
vn -0.706966 -0.019904 0.706967
vn -0.706966 -0.019904 0.706967
vn -0.706966 -0.019904 0.706967
vn -0.258768 -0.019904 0.965734
vn -0.258768 -0.019904 0.965734
vn -0.258768 -0.019904 0.965734
vn -0.258768 -0.019904 0.965734
vn 0.258768 -0.019904 0.965734
vn 0.258768 -0.019904 0.965734
vn 0.258768 -0.019904 0.965734
vn 0.258768 -0.019904 0.965734
vn 0.706967 -0.019904 0.706966
vn 0.706967 -0.019904 0.706966
vn 0.706967 -0.019904 0.706966
vn 0.706967 -0.019904 0.706966
vn 0.965735 -0.019904 0.258768
vn 0.965735 -0.019904 0.258768
vn 0.965735 -0.019904 0.258768
vn 0.965735 -0.019904 0.258768
vn 0.965734 -0.019904 -0.258768
vn 0.965734 -0.019904 -0.258768
vn 0.965734 -0.019904 -0.258768
vn 0.965734 -0.019904 -0.258768
vn 0.706967 -0.019904 -0.706967
vn 0.706967 -0.019904 -0.706967
vn 0.706967 -0.019904 -0.706967
vn 0.706967 -0.019904 -0.706967
vn 0.258768 -0.019905 -0.965734
vn 0.258768 -0.019905 -0.965734
vn 0.258768 -0.019905 -0.965734
vn 0.258768 -0.019905 -0.965734
usemtl waterbottle_Plastic
f 1//1 2//2 3//3
f 2//2 1//1 4//4
f 5//5 6//6 7//7
f 6//6 5//5 8//8
f 9//9 10//10 11//11
f 10//10 9//9 12//12
f 13//13 14//14 15//15
f 14//14 13//13 16//16
f 17//17 18//18 19//19
f 18//18 17//17 20//20
f 21//21 22//22 23//23
f 22//22 21//21 24//24
f 25//25 26//26 27//27
f 26//26 25//25 28//28
f 29//29 30//30 31//31
f 30//30 29//29 32//32
f 33//33 34//34 35//35
f 34//34 33//33 36//36
f 37//37 38//38 39//39
f 38//38 37//37 40//40
f 41//41 42//42 43//43
f 42//42 41//41 44//44
f 45//45 46//46 47//47
f 46//46 45//45 48//48
f 49//49 50//50 51//51
f 50//50 49//49 52//52
f 53//53 54//54 55//55
f 54//54 53//53 56//56
f 57//57 58//58 59//59
f 58//58 57//57 60//60
f 61//61 62//62 63//63
f 62//62 61//61 64//64
f 65//65 66//66 67//67
f 66//66 65//65 68//68
f 69//69 70//70 71//71
f 70//70 69//69 72//72
f 73//73 74//74 75//75
f 74//74 73//73 76//76
f 77//77 78//78 79//79
f 78//78 77//77 80//80
f 81//81 82//82 83//83
f 82//82 81//81 84//84
f 85//85 86//86 87//87
f 86//86 85//85 88//88
f 89//89 90//90 91//91
f 90//90 89//89 92//92
f 93//93 94//94 95//95
f 94//94 93//93 96//96
f 97//97 98//98 99//99
f 98//98 97//97 100//100
f 101//101 102//102 103//103
f 102//102 101//101 104//104
f 105//105 106//106 107//107
f 106//106 105//105 108//108
f 109//109 110//110 111//111
f 110//110 109//109 112//112
f 113//113 114//114 115//115
f 114//114 113//113 116//116
f 117//117 118//118 119//119
f 118//118 117//117 120//120
f 121//121 122//122 123//123
f 122//122 121//121 124//124
f 125//125 126//126 127//127
f 126//126 125//125 128//128
f 129//129 130//130 131//131
f 130//130 129//129 132//132
f 133//133 134//134 135//135
f 134//134 133//133 136//136
f 137//137 138//138 139//139
f 138//138 137//137 140//140
f 141//141 142//142 143//143
f 142//142 141//141 144//144
f 145//145 146//146 147//147
f 146//146 145//145 148//148
f 149//149 150//150 151//151
f 150//150 149//149 152//152
f 153//153 154//154 155//155
f 154//154 153//153 156//156
f 157//157 158//158 159//159
f 158//158 157//157 160//160
f 161//161 162//162 163//163
f 162//162 161//161 164//164
f 165//165 166//166 167//167
f 166//166 165//165 168//168
f 169//169 170//170 171//171
f 170//170 169//169 172//172
f 173//173 174//174 175//175
f 174//174 173//173 176//176
f 177//177 178//178 179//179
f 178//178 177//177 180//180
f 181//181 182//182 183//183
f 182//182 181//181 184//184
f 185//185 186//186 187//187
f 186//186 185//185 188//188
f 189//189 190//190 191//191
f 190//190 189//189 192//192
f 193//193 194//194 195//195
f 196//196 194//194 193//193
f 197//197 198//198 199//199
f 197//197 200//200 198//198
f 201//201 202//202 203//203
f 201//201 204//204 202//202
f 205//205 206//206 207//207
f 205//205 208//208 206//206
f 209//209 210//210 211//211
f 210//210 209//209 212//212
f 213//213 214//214 215//215
f 214//214 213//213 216//216
f 217//217 218//218 219//219
f 218//218 217//217 220//220
f 221//221 222//222 223//223
f 224//224 222//222 221//221
f 225//225 226//226 227//227
f 226//226 225//225 228//228
f 229//229 230//230 231//231
f 230//230 229//229 232//232
f 233//233 234//234 235//235
f 236//236 234//234 233//233
f 237//237 238//238 239//239
f 238//238 240//240 241//241
f 238//238 237//237 242//242
f 242//242 240//240 238//238
f 242//242 237//237 243//243
f 242//242 243//243 244//244
f 245//245 242//242 246//246
f 240//240 245//245 247//247
f 240//240 242//242 245//245
f 240//240 247//247 248//248
f 249//249 250//250 251//251
f 252//252 250//250 249//249
f 253//253 254//254 255//255
f 254//254 253//253 256//256
f 257//257 258//258 259//259
f 258//258 257//257 260//260
f 261//261 262//262 263//263
f 262//262 261//261 264//264
f 265//265 266//266 267//267
f 266//266 265//265 268//268
f 269//269 270//270 271//271
f 270//270 269//269 272//272
f 273//273 274//274 275//275
f 276//276 273//273 275//275
f 277//277 278//278 279//279
f 278//278 277//277 280//280
f 281//281 282//282 283//283
f 284//284 281//281 283//283
f 285//285 286//286 287//287
f 286//286 285//285 288//288
f 289//289 290//290 291//291
f 292//292 290//290 289//289
f 293//293 294//294 295//295
f 293//293 295//295 296//296
f 297//297 298//298 299//299
f 297//297 299//299 300//300
f 301//301 302//302 303//303
f 302//302 301//301 304//304
f 305//305 306//306 307//307
f 307//307 308//308 305//305
f 309//309 310//310 311//311
f 310//310 309//309 312//312
f 313//313 314//314 315//315
f 313//313 316//316 314//314
f 317//317 318//318 319//319
f 318//318 317//317 320//320
f 321//321 322//322 323//323
f 321//321 324//324 322//322
f 325//325 326//326 327//327
f 326//326 325//325 328//328
f 329//329 330//330 331//331
f 330//330 329//329 332//332
f 333//333 334//334 335//335
f 333//333 335//335 336//336
f 337//337 338//338 339//339
f 338//338 337//337 340//340
f 341//341 342//342 343//343
f 342//342 341//341 344//344
f 345//345 346//346 347//347
f 346//346 345//345 348//348
f 349//349 350//350 351//351
f 350//350 349//349 352//352
f 353//353 354//354 355//355
f 355//355 356//356 353//353
f 357//357 358//358 359//359
f 357//357 360//360 358//358
f 361//361 362//362 363//363
f 361//361 364//364 362//362
f 365//365 366//366 367//367
f 366//366 365//365 368//368
f 369//369 370//370 371//371
f 370//370 369//369 372//372
f 373//373 374//374 375//375
f 375//375 376//376 373//373
f 377//377 378//378 379//379
f 378//378 377//377 380//380
f 381//381 382//382 383//383
f 382//382 381//381 384//384
f 385//385 386//386 387//387
f 386//386 385//385 388//388
f 389//389 390//390 391//391
f 389//389 391//391 392//392
f 393//393 390//390 394//394
f 390//390 389//389 395//395
f 391//391 396//396 397//397
f 396//396 398//398 399//399
f 398//398 393//393 400//400
f 398//398 391//391 390//390
f 398//398 390//390 393//393
f 398//398 396//396 391//391
f 401//401 402//402 403//403
f 402//402 401//401 404//404
f 405//405 406//406 407//407
f 406//406 405//405 408//408
f 409//409 410//410 411//411
f 410//410 409//409 412//412
f 413//413 414//414 415//415
f 414//414 413//413 416//416
f 417//417 418//418 419//419
f 418//418 417//417 420//420
f 421//421 422//422 423//423
f 422//422 421//421 424//424
f 425//425 426//426 427//427
f 426//426 425//425 428//428
f 429//429 430//430 431//431
f 430//430 429//429 432//432
f 433//433 434//434 435//435
f 434//434 433//433 436//436
f 437//437 438//438 439//439
f 438//438 437//437 440//440
f 441//441 442//442 443//443
f 442//442 441//441 444//444
f 445//445 446//446 447//447
f 446//446 445//445 448//448
f 449//449 450//450 451//451
f 450//450 449//449 452//452
f 453//453 454//454 455//455
f 454//454 453//453 456//456
v -0.080706 1.320301 0.080706
v 0.080706 1.320301 0.080706
v 0.000000 1.320301 0.114135
v -0.080706 1.320301 -0.080706
v 0.080706 1.320301 -0.080706
v -0.114136 1.320301 -0.000000
v 0.000000 1.320301 -0.114136
v 0.114136 1.320301 -0.000000
v -0.080706 1.320301 -0.080706
v 0.000000 1.433969 -0.114136
v 0.000000 1.320301 -0.114136
v -0.080706 1.433969 -0.080706
v -0.114136 1.320301 -0.000000
v -0.080706 1.433969 -0.080706
v -0.080706 1.320301 -0.080706
v -0.114136 1.433969 -0.000000
v 0.080706 1.433969 0.080706
v -0.114136 1.433969 -0.000000
v -0.080706 1.433969 0.080706
v 0.000000 1.433969 0.114135
v -0.080706 1.433969 -0.080706
v 0.080706 1.433969 -0.080706
v 0.000000 1.433969 -0.114136
v 0.114136 1.433969 -0.000000
v -0.080706 1.320301 0.080706
v -0.114136 1.433969 -0.000000
v -0.114136 1.320301 -0.000000
v -0.080706 1.433969 0.080706
v 0.000000 1.320301 0.114135
v -0.080706 1.433969 0.080706
v -0.080706 1.320301 0.080706
v 0.000000 1.433969 0.114135
v 0.080706 1.320301 0.080706
v 0.000000 1.433969 0.114135
v 0.000000 1.320301 0.114135
v 0.080706 1.433969 0.080706
v 0.114136 1.320301 -0.000000
v 0.080706 1.433969 0.080706
v 0.080706 1.320301 0.080706
v 0.114136 1.433969 -0.000000
v 0.080706 1.320301 -0.080706
v 0.114136 1.433969 -0.000000
v 0.114136 1.320301 -0.000000
v 0.080706 1.433969 -0.080706
v 0.000000 1.320301 -0.114136
v 0.080706 1.433969 -0.080706
v 0.080706 1.320301 -0.080706
v 0.000000 1.433969 -0.114136
vn 0.000000 -1.000000 0.000000
vn 0.000000 -1.000000 0.000000
vn 0.000000 -1.000000 0.000000
vn 0.000000 -1.000000 0.000000
vn 0.000000 -1.000000 0.000000
vn 0.000000 -1.000000 0.000000
vn 0.000000 -1.000000 0.000000
vn 0.000000 -1.000000 0.000000
vn -0.382684 -0.000000 -0.923879
vn -0.382684 -0.000000 -0.923879
vn -0.382684 -0.000000 -0.923879
vn -0.382684 -0.000000 -0.923879
vn -0.923880 -0.000000 -0.382683
vn -0.923880 -0.000000 -0.382683
vn -0.923880 -0.000000 -0.382683
vn -0.923880 -0.000000 -0.382683
vn 0.000000 1.000000 -0.000000
vn 0.000000 1.000000 -0.000000
vn 0.000000 1.000000 -0.000000
vn 0.000000 1.000000 -0.000000
vn 0.000000 1.000000 -0.000000
vn 0.000000 1.000000 -0.000000
vn 0.000000 1.000000 -0.000000
vn 0.000000 1.000000 -0.000000
vn -0.923880 0.000000 0.382683
vn -0.923880 0.000000 0.382683
vn -0.923880 0.000000 0.382683
vn -0.923880 0.000000 0.382683
vn -0.382684 0.000000 0.923879
vn -0.382684 0.000000 0.923879
vn -0.382684 0.000000 0.923879
vn -0.382684 0.000000 0.923879
vn 0.382685 0.000000 0.923879
vn 0.382685 0.000000 0.923879
vn 0.382685 0.000000 0.923879
vn 0.382685 0.000000 0.923879
vn 0.923879 0.000000 0.382685
vn 0.923879 0.000000 0.382685
vn 0.923879 0.000000 0.382685
vn 0.923879 0.000000 0.382685
vn 0.923879 -0.000000 -0.382685
vn 0.923879 -0.000000 -0.382685
vn 0.923879 -0.000000 -0.382685
vn 0.923879 -0.000000 -0.382685
vn 0.382685 -0.000000 -0.923879
vn 0.382685 -0.000000 -0.923879
vn 0.382685 -0.000000 -0.923879
vn 0.382685 -0.000000 -0.923879
usemtl waterbottle_Grey
f 457//457 458//458 459//459
f 460//460 461//461 462//462
f 462//462 458//458 457//457
f 461//461 460//460 463//463
f 458//458 461//461 464//464
f 458//458 462//462 461//461
f 465//465 466//466 467//467
f 466//466 465//465 468//468
f 469//469 470//470 471//471
f 470//470 469//469 472//472
f 473//473 474//474 475//475
f 473//473 475//475 476//476
f 477//477 478//478 479//479
f 478//478 473//473 480//480
f 474//474 473//473 478//478
f 474//474 478//478 477//477
f 481//481 482//482 483//483
f 482//482 481//481 484//484
f 485//485 486//486 487//487
f 486//486 485//485 488//488
f 489//489 490//490 491//491
f 490//490 489//489 492//492
f 493//493 494//494 495//495
f 494//494 493//493 496//496
f 497//497 498//498 499//499
f 498//498 497//497 500//500
f 501//501 502//502 503//503
f 502//502 501//501 504//504
v 0.118709 0.752588 -0.205611
v -0.000000 1.012274 -0.238879
v 0.119439 1.012274 -0.206875
v -0.000000 0.752588 -0.237419
v 0.205611 0.752588 -0.118709
v 0.119439 1.012274 -0.206875
v 0.206875 1.012274 -0.119439
v 0.118709 0.752588 -0.205611
v 0.205611 0.752588 -0.118709
v 0.238878 1.012274 -0.000000
v 0.237419 0.752588 -0.000000
v 0.206875 1.012274 -0.119439
v 0.205611 0.752588 0.118709
v 0.238878 1.012274 -0.000000
v 0.206875 1.012274 0.119439
v 0.237419 0.752588 -0.000000
v 0.205611 0.752588 0.118709
v 0.119439 1.012274 0.206875
v 0.118709 0.752589 0.205611
v 0.206875 1.012274 0.119439
v 0.118709 0.752589 0.205611
v 0.000000 1.012274 0.238878
v 0.000000 0.752589 0.237419
v 0.119439 1.012274 0.206875
v -0.118709 0.752589 0.205611
v 0.000000 1.012274 0.238878
v -0.119439 1.012274 0.206875
v 0.000000 0.752589 0.237419
v -0.205611 0.752588 0.118709
v -0.119439 1.012274 0.206875
v -0.206875 1.012274 0.119439
v -0.118709 0.752589 0.205611
v -0.205611 0.752588 0.118709
v -0.238878 1.012274 -0.000000
v -0.237419 0.752588 0.000000
v -0.206875 1.012274 0.119439
v -0.205611 0.752588 -0.118709
v -0.238878 1.012274 -0.000000
v -0.206875 1.012274 -0.119439
v -0.237419 0.752588 0.000000
v -0.118710 0.752588 -0.205611
v -0.206875 1.012274 -0.119439
v -0.119439 1.012274 -0.206875
v -0.205611 0.752588 -0.118709
v -0.118710 0.752588 -0.205611
v -0.000000 1.012274 -0.238879
v -0.000000 0.752588 -0.237419
v -0.119439 1.012274 -0.206875
vn 0.258815 -0.005429 -0.965912
vn 0.258815 -0.005429 -0.965912
vn 0.258815 -0.005429 -0.965912
vn 0.258815 -0.005429 -0.965912
vn 0.707096 -0.005429 -0.707097
vn 0.707096 -0.005429 -0.707097
vn 0.707096 -0.005429 -0.707097
vn 0.707096 -0.005429 -0.707097
vn 0.965912 -0.005429 -0.258815
vn 0.965912 -0.005429 -0.258815
vn 0.965912 -0.005429 -0.258815
vn 0.965912 -0.005429 -0.258815
vn 0.965912 -0.005429 0.258815
vn 0.965912 -0.005429 0.258815
vn 0.965912 -0.005429 0.258815
vn 0.965912 -0.005429 0.258815
vn 0.707096 -0.005429 0.707096
vn 0.707096 -0.005429 0.707096
vn 0.707096 -0.005429 0.707096
vn 0.707096 -0.005429 0.707096
vn 0.258816 -0.005429 0.965912
vn 0.258816 -0.005429 0.965912
vn 0.258816 -0.005429 0.965912
vn 0.258816 -0.005429 0.965912
vn -0.258815 -0.005429 0.965912
vn -0.258815 -0.005429 0.965912
vn -0.258815 -0.005429 0.965912
vn -0.258815 -0.005429 0.965912
vn -0.707096 -0.005429 0.707097
vn -0.707096 -0.005429 0.707097
vn -0.707096 -0.005429 0.707097
vn -0.707096 -0.005429 0.707097
vn -0.965911 -0.005429 0.258816
vn -0.965911 -0.005429 0.258816
vn -0.965911 -0.005429 0.258816
vn -0.965911 -0.005429 0.258816
vn -0.965912 -0.005429 -0.258815
vn -0.965912 -0.005429 -0.258815
vn -0.965912 -0.005429 -0.258815
vn -0.965912 -0.005429 -0.258815
vn -0.707097 -0.005429 -0.707096
vn -0.707097 -0.005429 -0.707096
vn -0.707097 -0.005429 -0.707096
vn -0.707097 -0.005429 -0.707096
vn -0.258816 -0.005429 -0.965912
vn -0.258816 -0.005429 -0.965912
vn -0.258816 -0.005429 -0.965912
vn -0.258816 -0.005429 -0.965912
usemtl waterbottle_Red
f 505//505 506//506 507//507
f 506//506 505//505 508//508
f 509//509 510//510 511//511
f 510//510 509//509 512//512
f 513//513 514//514 515//515
f 514//514 513//513 516//516
f 517//517 518//518 519//519
f 518//518 517//517 520//520
f 521//521 522//522 523//523
f 522//522 521//521 524//524
f 525//525 526//526 527//527
f 526//526 525//525 528//528
f 529//529 530//530 531//531
f 530//530 529//529 532//532
f 533//533 534//534 535//535
f 534//534 533//533 536//536
f 537//537 538//538 539//539
f 538//538 537//537 540//540
f 541//541 542//542 543//543
f 542//542 541//541 544//544
f 545//545 546//546 547//547
f 546//546 545//545 548//548
f 549//549 550//550 551//551
f 550//550 549//549 552//552
